<?xml version="1.0" encoding="utf-8" standalone="no"?>
<!DOCTYPE svg PUBLIC "-//W3C//DTD SVG 1.1//EN"
  "http://www.w3.org/Graphics/SVG/1.1/DTD/svg11.dtd">
<svg xmlns:xlink="http://www.w3.org/1999/xlink" width="505.856875pt" height="323.828594pt" viewBox="0 0 505.856875 323.828594" xmlns="http://www.w3.org/2000/svg" version="1.1">
 <metadata>
  <rdf:RDF xmlns:dc="http://purl.org/dc/elements/1.1/" xmlns:cc="http://creativecommons.org/ns#" xmlns:rdf="http://www.w3.org/1999/02/22-rdf-syntax-ns#">
   <cc:Work>
    <dc:type rdf:resource="http://purl.org/dc/dcmitype/StillImage"/>
    <dc:date>2026-03-19T14:08:47.226029</dc:date>
    <dc:format>image/svg+xml</dc:format>
    <dc:creator>
     <cc:Agent>
      <dc:title>Matplotlib v3.10.8, https://matplotlib.org/</dc:title>
     </cc:Agent>
    </dc:creator>
   </cc:Work>
  </rdf:RDF>
 </metadata>
 <defs>
  <style type="text/css">*{stroke-linejoin: round; stroke-linecap: butt}</style>
 </defs>
 <g id="figure_1">
  <g id="patch_1">
   <path d="M 0 323.828594 
L 505.856875 323.828594 
L 505.856875 0 
L 0 0 
z
" style="fill: #ffffff"/>
  </g>
  <g id="axes_1">
   <g id="patch_2">
    <path d="M 48.656875 287.112281 
L 495.056875 287.112281 
L 495.056875 37.632281 
L 48.656875 37.632281 
z
" style="fill: #ffffff"/>
   </g>
   <g id="patch_3">
    <path d="M 68.947784 287.112281 
L 88.40482 287.112281 
L 88.40482 287.112281 
L 68.947784 287.112281 
z
" clip-path="url(#p83a6b2ba35)" style="fill: #dc2626; stroke: #ffffff; stroke-width: 0.5; stroke-linejoin: miter"/>
   </g>
   <g id="patch_4">
    <path d="M 138.437199 287.112281 
L 157.894235 287.112281 
L 157.894235 287.112281 
L 138.437199 287.112281 
z
" clip-path="url(#p83a6b2ba35)" style="fill: #dc2626; stroke: #ffffff; stroke-width: 0.5; stroke-linejoin: miter"/>
   </g>
   <g id="patch_5">
    <path d="M 207.926613 287.112281 
L 227.38365 287.112281 
L 227.38365 287.112281 
L 207.926613 287.112281 
z
" clip-path="url(#p83a6b2ba35)" style="fill: #dc2626; stroke: #ffffff; stroke-width: 0.5; stroke-linejoin: miter"/>
   </g>
   <g id="patch_6">
    <path d="M 277.416028 287.112281 
L 296.873064 287.112281 
L 296.873064 287.112281 
L 277.416028 287.112281 
z
" clip-path="url(#p83a6b2ba35)" style="fill: #dc2626; stroke: #ffffff; stroke-width: 0.5; stroke-linejoin: miter"/>
   </g>
   <g id="patch_7">
    <path d="M 346.905443 287.112281 
L 366.362479 287.112281 
L 366.362479 287.112281 
L 346.905443 287.112281 
z
" clip-path="url(#p83a6b2ba35)" style="fill: #dc2626; stroke: #ffffff; stroke-width: 0.5; stroke-linejoin: miter"/>
   </g>
   <g id="patch_8">
    <path d="M 416.394858 287.112281 
L 435.851894 287.112281 
L 435.851894 287.112281 
L 416.394858 287.112281 
z
" clip-path="url(#p83a6b2ba35)" style="fill: #dc2626; stroke: #ffffff; stroke-width: 0.5; stroke-linejoin: miter"/>
   </g>
   <g id="patch_9">
    <path d="M 88.40482 287.112281 
L 107.861856 287.112281 
L 107.861856 287.112281 
L 88.40482 287.112281 
z
" clip-path="url(#p83a6b2ba35)" style="fill: #dc2626; opacity: 0.5; stroke: #ffffff; stroke-width: 0.5; stroke-linejoin: miter"/>
   </g>
   <g id="patch_10">
    <path d="M 157.894235 287.112281 
L 177.351271 287.112281 
L 177.351271 287.112281 
L 157.894235 287.112281 
z
" clip-path="url(#p83a6b2ba35)" style="fill: #dc2626; opacity: 0.5; stroke: #ffffff; stroke-width: 0.5; stroke-linejoin: miter"/>
   </g>
   <g id="patch_11">
    <path d="M 227.38365 287.112281 
L 246.840686 287.112281 
L 246.840686 287.112281 
L 227.38365 287.112281 
z
" clip-path="url(#p83a6b2ba35)" style="fill: #dc2626; opacity: 0.5; stroke: #ffffff; stroke-width: 0.5; stroke-linejoin: miter"/>
   </g>
   <g id="patch_12">
    <path d="M 296.873064 287.112281 
L 316.3301 287.112281 
L 316.3301 287.112281 
L 296.873064 287.112281 
z
" clip-path="url(#p83a6b2ba35)" style="fill: #dc2626; opacity: 0.5; stroke: #ffffff; stroke-width: 0.5; stroke-linejoin: miter"/>
   </g>
   <g id="patch_13">
    <path d="M 366.362479 287.112281 
L 385.819515 287.112281 
L 385.819515 287.112281 
L 366.362479 287.112281 
z
" clip-path="url(#p83a6b2ba35)" style="fill: #dc2626; opacity: 0.5; stroke: #ffffff; stroke-width: 0.5; stroke-linejoin: miter"/>
   </g>
   <g id="patch_14">
    <path d="M 435.851894 287.112281 
L 455.30893 287.112281 
L 455.30893 287.112281 
L 435.851894 287.112281 
z
" clip-path="url(#p83a6b2ba35)" style="fill: #dc2626; opacity: 0.5; stroke: #ffffff; stroke-width: 0.5; stroke-linejoin: miter"/>
   </g>
   <g id="patch_15">
    <path d="M 107.861856 287.112281 
L 127.318892 287.112281 
L 127.318892 70.39009 
L 107.861856 70.39009 
z
" clip-path="url(#p83a6b2ba35)" style="fill: #2563eb; stroke: #ffffff; stroke-width: 0.5; stroke-linejoin: miter"/>
   </g>
   <g id="patch_16">
    <path d="M 177.351271 287.112281 
L 196.808307 287.112281 
L 196.808307 70.173151 
L 177.351271 70.173151 
z
" clip-path="url(#p83a6b2ba35)" style="fill: #2563eb; stroke: #ffffff; stroke-width: 0.5; stroke-linejoin: miter"/>
   </g>
   <g id="patch_17">
    <path d="M 246.840686 287.112281 
L 266.297722 287.112281 
L 266.297722 70.173151 
L 246.840686 70.173151 
z
" clip-path="url(#p83a6b2ba35)" style="fill: #2563eb; stroke: #ffffff; stroke-width: 0.5; stroke-linejoin: miter"/>
   </g>
   <g id="patch_18">
    <path d="M 316.3301 287.112281 
L 335.787137 287.112281 
L 335.787137 164.541673 
L 316.3301 164.541673 
z
" clip-path="url(#p83a6b2ba35)" style="fill: #2563eb; stroke: #ffffff; stroke-width: 0.5; stroke-linejoin: miter"/>
   </g>
   <g id="patch_19">
    <path d="M 385.819515 287.112281 
L 405.276551 287.112281 
L 405.276551 81.670925 
L 385.819515 81.670925 
z
" clip-path="url(#p83a6b2ba35)" style="fill: #2563eb; stroke: #ffffff; stroke-width: 0.5; stroke-linejoin: miter"/>
   </g>
   <g id="patch_20">
    <path d="M 455.30893 287.112281 
L 474.765966 287.112281 
L 474.765966 70.173151 
L 455.30893 70.173151 
z
" clip-path="url(#p83a6b2ba35)" style="fill: #2563eb; stroke: #ffffff; stroke-width: 0.5; stroke-linejoin: miter"/>
   </g>
   <g id="matplotlib.axis_1">
    <g id="xtick_1">
     <g id="line2d_1">
      <defs>
       <path id="m8bdd3d6610" d="M 0 0 
L 0 3.5 
" style="stroke: #000000; stroke-width: 0.8"/>
      </defs>
      <g>
       <use xlink:href="#m8bdd3d6610" x="98.133338" y="287.112281" style="stroke: #000000; stroke-width: 0.8"/>
      </g>
     </g>
     <g id="text_1">
      <!-- Ghost -->
      <g transform="translate(84.813338 300.950875) scale(0.09 -0.09)">
       <defs>
        <path id="DejaVuSerif-47" d="M 4097 3272 
Q 3988 3856 3641 4136 
Q 3294 4416 2675 4416 
Q 1869 4416 1472 3897 
Q 1075 3378 1075 2328 
Q 1075 1300 1484 772 
Q 1894 244 2688 244 
Q 3041 244 3362 331 
Q 3684 419 3975 594 
L 3975 1797 
L 3097 1797 
L 3097 2131 
L 4609 2131 
L 4609 391 
Q 4194 150 3714 29 
Q 3234 -91 2688 -91 
Q 1631 -91 995 570 
Q 359 1231 359 2328 
Q 359 3434 996 4092 
Q 1634 4750 2713 4750 
Q 3113 4750 3539 4658 
Q 3966 4566 4447 4378 
L 4447 3272 
L 4097 3272 
z
" transform="scale(0.015625)"/>
        <path id="DejaVuSerif-68" d="M 263 0 
L 263 331 
L 781 331 
L 781 4531 
L 231 4531 
L 231 4863 
L 1356 4863 
L 1356 2731 
Q 1516 3069 1770 3241 
Q 2025 3413 2363 3413 
Q 2913 3413 3172 3097 
Q 3431 2781 3431 2113 
L 3431 331 
L 3944 331 
L 3944 0 
L 2356 0 
L 2356 331 
L 2853 331 
L 2853 1931 
Q 2853 2541 2704 2764 
Q 2556 2988 2175 2988 
Q 1775 2988 1565 2697 
Q 1356 2406 1356 1850 
L 1356 331 
L 1856 331 
L 1856 0 
L 263 0 
z
" transform="scale(0.015625)"/>
        <path id="DejaVuSerif-6f" d="M 1925 219 
Q 2388 219 2623 584 
Q 2859 950 2859 1663 
Q 2859 2375 2623 2739 
Q 2388 3103 1925 3103 
Q 1463 3103 1227 2739 
Q 991 2375 991 1663 
Q 991 950 1228 584 
Q 1466 219 1925 219 
z
M 1925 -91 
Q 1200 -91 759 389 
Q 319 869 319 1663 
Q 319 2456 758 2934 
Q 1197 3413 1925 3413 
Q 2653 3413 3092 2934 
Q 3531 2456 3531 1663 
Q 3531 869 3092 389 
Q 2653 -91 1925 -91 
z
" transform="scale(0.015625)"/>
        <path id="DejaVuSerif-73" d="M 359 184 
L 359 959 
L 691 959 
Q 703 588 923 403 
Q 1144 219 1575 219 
Q 1963 219 2166 364 
Q 2369 509 2369 788 
Q 2369 1006 2220 1140 
Q 2072 1275 1594 1428 
L 1178 1569 
Q 750 1706 558 1912 
Q 366 2119 366 2438 
Q 366 2894 700 3153 
Q 1034 3413 1625 3413 
Q 1888 3413 2178 3344 
Q 2469 3275 2778 3144 
L 2778 2419 
L 2447 2419 
Q 2434 2741 2221 2922 
Q 2009 3103 1644 3103 
Q 1281 3103 1095 2975 
Q 909 2847 909 2591 
Q 909 2381 1050 2254 
Q 1191 2128 1613 1997 
L 2069 1856 
Q 2541 1709 2748 1489 
Q 2956 1269 2956 922 
Q 2956 450 2595 179 
Q 2234 -91 1600 -91 
Q 1278 -91 972 -22 
Q 666 47 359 184 
z
" transform="scale(0.015625)"/>
        <path id="DejaVuSerif-74" d="M 691 2988 
L 184 2988 
L 184 3322 
L 691 3322 
L 691 4353 
L 1269 4353 
L 1269 3322 
L 2350 3322 
L 2350 2988 
L 1269 2988 
L 1269 878 
Q 1269 456 1350 337 
Q 1431 219 1650 219 
Q 1875 219 1978 351 
Q 2081 484 2088 781 
L 2522 781 
Q 2497 328 2275 118 
Q 2053 -91 1600 -91 
Q 1103 -91 897 129 
Q 691 350 691 878 
L 691 2988 
z
" transform="scale(0.015625)"/>
       </defs>
       <use xlink:href="#DejaVuSerif-47"/>
       <use xlink:href="#DejaVuSerif-68" transform="translate(79.882812 0)"/>
       <use xlink:href="#DejaVuSerif-6f" transform="translate(144.287109 0)"/>
       <use xlink:href="#DejaVuSerif-73" transform="translate(204.492188 0)"/>
       <use xlink:href="#DejaVuSerif-74" transform="translate(255.810547 0)"/>
      </g>
      <!-- Allocations -->
      <g transform="translate(72.928416 311.028906) scale(0.09 -0.09)">
       <defs>
        <path id="DejaVuSerif-41" d="M 1281 1691 
L 2994 1691 
L 2138 3909 
L 1281 1691 
z
M -38 0 
L -38 331 
L 372 331 
L 2034 4666 
L 2559 4666 
L 4225 331 
L 4684 331 
L 4684 0 
L 2988 0 
L 2988 331 
L 3506 331 
L 3116 1356 
L 1153 1356 
L 763 331 
L 1275 331 
L 1275 0 
L -38 0 
z
" transform="scale(0.015625)"/>
        <path id="DejaVuSerif-6c" d="M 1313 331 
L 1856 331 
L 1856 0 
L 184 0 
L 184 331 
L 738 331 
L 738 4531 
L 184 4531 
L 184 4863 
L 1313 4863 
L 1313 331 
z
" transform="scale(0.015625)"/>
        <path id="DejaVuSerif-63" d="M 3291 997 
Q 3169 466 2822 187 
Q 2475 -91 1925 -91 
Q 1200 -91 759 389 
Q 319 869 319 1663 
Q 319 2459 759 2936 
Q 1200 3413 1925 3413 
Q 2241 3413 2553 3339 
Q 2866 3266 3181 3116 
L 3181 2266 
L 2847 2266 
Q 2781 2703 2561 2903 
Q 2341 3103 1931 3103 
Q 1466 3103 1228 2742 
Q 991 2381 991 1663 
Q 991 944 1227 581 
Q 1463 219 1931 219 
Q 2303 219 2525 412 
Q 2747 606 2828 997 
L 3291 997 
z
" transform="scale(0.015625)"/>
        <path id="DejaVuSerif-61" d="M 2547 1044 
L 2547 1747 
L 1806 1747 
Q 1378 1747 1168 1562 
Q 959 1378 959 997 
Q 959 650 1171 447 
Q 1384 244 1747 244 
Q 2106 244 2326 466 
Q 2547 688 2547 1044 
z
M 3122 2075 
L 3122 331 
L 3634 331 
L 3634 0 
L 2547 0 
L 2547 359 
Q 2356 128 2106 18 
Q 1856 -91 1522 -91 
Q 969 -91 644 203 
Q 319 497 319 997 
Q 319 1513 691 1797 
Q 1063 2081 1741 2081 
L 2547 2081 
L 2547 2309 
Q 2547 2688 2317 2895 
Q 2088 3103 1672 3103 
Q 1328 3103 1125 2947 
Q 922 2791 872 2484 
L 575 2484 
L 575 3156 
Q 875 3284 1158 3348 
Q 1441 3413 1709 3413 
Q 2400 3413 2761 3070 
Q 3122 2728 3122 2075 
z
" transform="scale(0.015625)"/>
        <path id="DejaVuSerif-69" d="M 622 4353 
Q 622 4497 726 4603 
Q 831 4709 978 4709 
Q 1122 4709 1226 4603 
Q 1331 4497 1331 4353 
Q 1331 4206 1228 4103 
Q 1125 4000 978 4000 
Q 831 4000 726 4103 
Q 622 4206 622 4353 
z
M 1356 331 
L 1900 331 
L 1900 0 
L 231 0 
L 231 331 
L 781 331 
L 781 2988 
L 231 2988 
L 231 3322 
L 1356 3322 
L 1356 331 
z
" transform="scale(0.015625)"/>
        <path id="DejaVuSerif-6e" d="M 263 0 
L 263 331 
L 781 331 
L 781 2988 
L 231 2988 
L 231 3322 
L 1356 3322 
L 1356 2731 
Q 1516 3069 1770 3241 
Q 2025 3413 2363 3413 
Q 2913 3413 3172 3097 
Q 3431 2781 3431 2113 
L 3431 331 
L 3944 331 
L 3944 0 
L 2356 0 
L 2356 331 
L 2853 331 
L 2853 1931 
Q 2853 2541 2703 2767 
Q 2553 2994 2175 2994 
Q 1775 2994 1565 2701 
Q 1356 2409 1356 1850 
L 1356 331 
L 1856 331 
L 1856 0 
L 263 0 
z
" transform="scale(0.015625)"/>
       </defs>
       <use xlink:href="#DejaVuSerif-41"/>
       <use xlink:href="#DejaVuSerif-6c" transform="translate(72.216797 0)"/>
       <use xlink:href="#DejaVuSerif-6c" transform="translate(104.199219 0)"/>
       <use xlink:href="#DejaVuSerif-6f" transform="translate(136.181641 0)"/>
       <use xlink:href="#DejaVuSerif-63" transform="translate(196.386719 0)"/>
       <use xlink:href="#DejaVuSerif-61" transform="translate(252.392578 0)"/>
       <use xlink:href="#DejaVuSerif-74" transform="translate(312.011719 0)"/>
       <use xlink:href="#DejaVuSerif-69" transform="translate(352.197266 0)"/>
       <use xlink:href="#DejaVuSerif-6f" transform="translate(384.179688 0)"/>
       <use xlink:href="#DejaVuSerif-6e" transform="translate(444.384766 0)"/>
       <use xlink:href="#DejaVuSerif-73" transform="translate(508.789062 0)"/>
      </g>
     </g>
    </g>
    <g id="xtick_2">
     <g id="line2d_2">
      <g>
       <use xlink:href="#m8bdd3d6610" x="167.622753" y="287.112281" style="stroke: #000000; stroke-width: 0.8"/>
      </g>
     </g>
     <g id="text_2">
      <!-- Contention -->
      <g transform="translate(142.346815 300.950875) scale(0.09 -0.09)">
       <defs>
        <path id="DejaVuSerif-43" d="M 4513 1234 
Q 4306 581 3820 245 
Q 3334 -91 2591 -91 
Q 2134 -91 1743 65 
Q 1353 222 1050 525 
Q 700 875 529 1320 
Q 359 1766 359 2328 
Q 359 3416 987 4083 
Q 1616 4750 2644 4750 
Q 3025 4750 3456 4650 
Q 3888 4550 4384 4347 
L 4384 3272 
L 4031 3272 
Q 3916 3859 3567 4137 
Q 3219 4416 2591 4416 
Q 1844 4416 1459 3886 
Q 1075 3356 1075 2328 
Q 1075 1303 1459 773 
Q 1844 244 2591 244 
Q 3113 244 3450 492 
Q 3788 741 3938 1234 
L 4513 1234 
z
" transform="scale(0.015625)"/>
        <path id="DejaVuSerif-65" d="M 3469 1600 
L 991 1600 
L 991 1575 
Q 991 903 1244 561 
Q 1497 219 1991 219 
Q 2369 219 2611 417 
Q 2853 616 2950 1006 
L 3413 1006 
Q 3275 459 2904 184 
Q 2534 -91 1931 -91 
Q 1203 -91 761 389 
Q 319 869 319 1663 
Q 319 2450 753 2931 
Q 1188 3413 1894 3413 
Q 2647 3413 3050 2948 
Q 3453 2484 3469 1600 
z
M 2791 1931 
Q 2772 2513 2545 2808 
Q 2319 3103 1894 3103 
Q 1497 3103 1269 2806 
Q 1041 2509 991 1931 
L 2791 1931 
z
" transform="scale(0.015625)"/>
       </defs>
       <use xlink:href="#DejaVuSerif-43"/>
       <use xlink:href="#DejaVuSerif-6f" transform="translate(76.513672 0)"/>
       <use xlink:href="#DejaVuSerif-6e" transform="translate(136.71875 0)"/>
       <use xlink:href="#DejaVuSerif-74" transform="translate(201.123047 0)"/>
       <use xlink:href="#DejaVuSerif-65" transform="translate(241.308594 0)"/>
       <use xlink:href="#DejaVuSerif-6e" transform="translate(300.488281 0)"/>
       <use xlink:href="#DejaVuSerif-74" transform="translate(364.892578 0)"/>
       <use xlink:href="#DejaVuSerif-69" transform="translate(405.078125 0)"/>
       <use xlink:href="#DejaVuSerif-6f" transform="translate(437.060547 0)"/>
       <use xlink:href="#DejaVuSerif-6e" transform="translate(497.265625 0)"/>
      </g>
      <!-- Squeeze -->
      <g transform="translate(148.400019 311.028906) scale(0.09 -0.09)">
       <defs>
        <path id="DejaVuSerif-53" d="M 594 225 
L 594 1288 
L 953 1284 
Q 969 753 1261 498 
Q 1553 244 2150 244 
Q 2706 244 2998 464 
Q 3291 684 3291 1106 
Q 3291 1444 3114 1625 
Q 2938 1806 2369 1978 
L 1753 2163 
Q 1084 2366 811 2669 
Q 538 2972 538 3500 
Q 538 4094 959 4422 
Q 1381 4750 2144 4750 
Q 2469 4750 2856 4679 
Q 3244 4609 3681 4475 
L 3681 3481 
L 3328 3481 
Q 3275 3975 2998 4195 
Q 2722 4416 2156 4416 
Q 1663 4416 1405 4214 
Q 1147 4013 1147 3628 
Q 1147 3294 1340 3103 
Q 1534 2913 2163 2725 
L 2741 2553 
Q 3375 2363 3645 2067 
Q 3916 1772 3916 1275 
Q 3916 597 3481 253 
Q 3047 -91 2188 -91 
Q 1803 -91 1404 -12 
Q 1006 66 594 225 
z
" transform="scale(0.015625)"/>
        <path id="DejaVuSerif-71" d="M 3359 2988 
L 3359 -997 
L 3909 -997 
L 3909 -1331 
L 2241 -1331 
L 2241 -997 
L 2784 -997 
L 2784 519 
Q 2616 206 2355 57 
Q 2094 -91 1709 -91 
Q 1097 -91 708 395 
Q 319 881 319 1663 
Q 319 2444 706 2928 
Q 1094 3413 1709 3413 
Q 2094 3413 2355 3264 
Q 2616 3116 2784 2803 
L 2784 3322 
L 3909 3322 
L 3909 2988 
L 3359 2988 
z
M 2784 1825 
Q 2784 2422 2554 2737 
Q 2325 3053 1888 3053 
Q 1444 3053 1217 2703 
Q 991 2353 991 1663 
Q 991 975 1217 622 
Q 1444 269 1888 269 
Q 2325 269 2554 583 
Q 2784 897 2784 1497 
L 2784 1825 
z
" transform="scale(0.015625)"/>
        <path id="DejaVuSerif-75" d="M 2266 3322 
L 3341 3322 
L 3341 331 
L 3884 331 
L 3884 0 
L 2766 0 
L 2766 588 
Q 2606 256 2353 82 
Q 2100 -91 1766 -91 
Q 1213 -91 952 223 
Q 691 538 691 1209 
L 691 2988 
L 172 2988 
L 172 3322 
L 1269 3322 
L 1269 1388 
Q 1269 781 1417 556 
Q 1566 331 1947 331 
Q 2347 331 2556 625 
Q 2766 919 2766 1478 
L 2766 2988 
L 2266 2988 
L 2266 3322 
z
" transform="scale(0.015625)"/>
        <path id="DejaVuSerif-7a" d="M 256 0 
L 256 269 
L 2338 2988 
L 691 2988 
L 691 2413 
L 359 2413 
L 359 3322 
L 3078 3322 
L 3078 3053 
L 997 331 
L 2803 331 
L 2803 934 
L 3138 934 
L 3138 0 
L 256 0 
z
" transform="scale(0.015625)"/>
       </defs>
       <use xlink:href="#DejaVuSerif-53"/>
       <use xlink:href="#DejaVuSerif-71" transform="translate(68.505859 0)"/>
       <use xlink:href="#DejaVuSerif-75" transform="translate(132.519531 0)"/>
       <use xlink:href="#DejaVuSerif-65" transform="translate(196.923828 0)"/>
       <use xlink:href="#DejaVuSerif-65" transform="translate(256.103516 0)"/>
       <use xlink:href="#DejaVuSerif-7a" transform="translate(315.283203 0)"/>
       <use xlink:href="#DejaVuSerif-65" transform="translate(367.96875 0)"/>
      </g>
     </g>
    </g>
    <g id="xtick_3">
     <g id="line2d_3">
      <g>
       <use xlink:href="#m8bdd3d6610" x="237.112168" y="287.112281" style="stroke: #000000; stroke-width: 0.8"/>
      </g>
     </g>
     <g id="text_3">
      <!-- Provisioning -->
      <g transform="translate(208.668652 300.822906) scale(0.09 -0.09)">
       <defs>
        <path id="DejaVuSerif-50" d="M 1581 2375 
L 2406 2375 
Q 2872 2375 3115 2626 
Q 3359 2878 3359 3353 
Q 3359 3831 3115 4081 
Q 2872 4331 2406 4331 
L 1581 4331 
L 1581 2375 
z
M 353 0 
L 353 331 
L 947 331 
L 947 4331 
L 353 4331 
L 353 4666 
L 2559 4666 
Q 3259 4666 3668 4311 
Q 4078 3956 4078 3353 
Q 4078 2753 3668 2397 
Q 3259 2041 2559 2041 
L 1581 2041 
L 1581 331 
L 2303 331 
L 2303 0 
L 353 0 
z
" transform="scale(0.015625)"/>
        <path id="DejaVuSerif-72" d="M 3059 3328 
L 3059 2497 
L 2728 2497 
Q 2713 2744 2591 2866 
Q 2469 2988 2234 2988 
Q 1809 2988 1582 2694 
Q 1356 2400 1356 1850 
L 1356 331 
L 2022 331 
L 2022 0 
L 263 0 
L 263 331 
L 781 331 
L 781 2994 
L 231 2994 
L 231 3322 
L 1356 3322 
L 1356 2731 
Q 1525 3078 1790 3245 
Q 2056 3413 2438 3413 
Q 2578 3413 2733 3391 
Q 2888 3369 3059 3328 
z
" transform="scale(0.015625)"/>
        <path id="DejaVuSerif-76" d="M 1581 0 
L 359 2988 
L -19 2988 
L -19 3322 
L 1509 3322 
L 1509 2988 
L 978 2988 
L 1913 703 
L 2847 2988 
L 2350 2988 
L 2350 3322 
L 3597 3322 
L 3597 2988 
L 3225 2988 
L 2003 0 
L 1581 0 
z
" transform="scale(0.015625)"/>
        <path id="DejaVuSerif-67" d="M 3359 2988 
L 3359 72 
Q 3359 -644 2965 -1033 
Q 2572 -1422 1844 -1422 
Q 1516 -1422 1216 -1362 
Q 916 -1303 641 -1184 
L 641 -488 
L 941 -488 
Q 997 -813 1206 -963 
Q 1416 -1113 1806 -1113 
Q 2313 -1113 2548 -827 
Q 2784 -541 2784 72 
L 2784 519 
Q 2616 206 2355 57 
Q 2094 -91 1709 -91 
Q 1097 -91 708 395 
Q 319 881 319 1663 
Q 319 2444 706 2928 
Q 1094 3413 1709 3413 
Q 2094 3413 2355 3264 
Q 2616 3116 2784 2803 
L 2784 3322 
L 3909 3322 
L 3909 2988 
L 3359 2988 
z
M 2784 1825 
Q 2784 2422 2554 2737 
Q 2325 3053 1888 3053 
Q 1444 3053 1217 2703 
Q 991 2353 991 1663 
Q 991 975 1217 622 
Q 1444 269 1888 269 
Q 2325 269 2554 583 
Q 2784 897 2784 1497 
L 2784 1825 
z
" transform="scale(0.015625)"/>
       </defs>
       <use xlink:href="#DejaVuSerif-50"/>
       <use xlink:href="#DejaVuSerif-72" transform="translate(67.285156 0)"/>
       <use xlink:href="#DejaVuSerif-6f" transform="translate(115.087891 0)"/>
       <use xlink:href="#DejaVuSerif-76" transform="translate(175.292969 0)"/>
       <use xlink:href="#DejaVuSerif-69" transform="translate(231.787109 0)"/>
       <use xlink:href="#DejaVuSerif-73" transform="translate(263.769531 0)"/>
       <use xlink:href="#DejaVuSerif-69" transform="translate(315.087891 0)"/>
       <use xlink:href="#DejaVuSerif-6f" transform="translate(347.070312 0)"/>
       <use xlink:href="#DejaVuSerif-6e" transform="translate(407.275391 0)"/>
       <use xlink:href="#DejaVuSerif-69" transform="translate(471.679688 0)"/>
       <use xlink:href="#DejaVuSerif-6e" transform="translate(503.662109 0)"/>
       <use xlink:href="#DejaVuSerif-67" transform="translate(568.066406 0)"/>
      </g>
      <!-- Overhead -->
      <g transform="translate(214.940527 311.028906) scale(0.09 -0.09)">
       <defs>
        <path id="DejaVuSerif-4f" d="M 2625 244 
Q 3391 244 3781 770 
Q 4172 1297 4172 2328 
Q 4172 3363 3781 3889 
Q 3391 4416 2625 4416 
Q 1856 4416 1465 3889 
Q 1075 3363 1075 2328 
Q 1075 1297 1465 770 
Q 1856 244 2625 244 
z
M 2625 -91 
Q 2150 -91 1751 65 
Q 1353 222 1050 525 
Q 700 875 529 1319 
Q 359 1763 359 2328 
Q 359 2894 529 3339 
Q 700 3784 1050 4134 
Q 1356 4441 1750 4595 
Q 2144 4750 2625 4750 
Q 3641 4750 4266 4084 
Q 4891 3419 4891 2328 
Q 4891 1769 4719 1320 
Q 4547 872 4197 525 
Q 3891 219 3497 64 
Q 3103 -91 2625 -91 
z
" transform="scale(0.015625)"/>
        <path id="DejaVuSerif-64" d="M 3359 331 
L 3909 331 
L 3909 0 
L 2784 0 
L 2784 519 
Q 2616 206 2355 57 
Q 2094 -91 1709 -91 
Q 1097 -91 708 395 
Q 319 881 319 1663 
Q 319 2444 706 2928 
Q 1094 3413 1709 3413 
Q 2094 3413 2355 3264 
Q 2616 3116 2784 2803 
L 2784 4531 
L 2241 4531 
L 2241 4863 
L 3359 4863 
L 3359 331 
z
M 2784 1497 
L 2784 1825 
Q 2784 2422 2554 2737 
Q 2325 3053 1888 3053 
Q 1444 3053 1217 2703 
Q 991 2353 991 1663 
Q 991 975 1217 622 
Q 1444 269 1888 269 
Q 2325 269 2554 583 
Q 2784 897 2784 1497 
z
" transform="scale(0.015625)"/>
       </defs>
       <use xlink:href="#DejaVuSerif-4f"/>
       <use xlink:href="#DejaVuSerif-76" transform="translate(81.982422 0)"/>
       <use xlink:href="#DejaVuSerif-65" transform="translate(138.476562 0)"/>
       <use xlink:href="#DejaVuSerif-72" transform="translate(197.65625 0)"/>
       <use xlink:href="#DejaVuSerif-68" transform="translate(245.458984 0)"/>
       <use xlink:href="#DejaVuSerif-65" transform="translate(309.863281 0)"/>
       <use xlink:href="#DejaVuSerif-61" transform="translate(369.042969 0)"/>
       <use xlink:href="#DejaVuSerif-64" transform="translate(428.662109 0)"/>
      </g>
     </g>
    </g>
    <g id="xtick_4">
     <g id="line2d_4">
      <g>
       <use xlink:href="#m8bdd3d6610" x="306.601582" y="287.112281" style="stroke: #000000; stroke-width: 0.8"/>
      </g>
     </g>
     <g id="text_4">
      <!-- Burst-Sustained -->
      <g transform="translate(269.94416 300.950875) scale(0.09 -0.09)">
       <defs>
        <path id="DejaVuSerif-42" d="M 1581 331 
L 2516 331 
Q 3078 331 3337 575 
Q 3597 819 3597 1350 
Q 3597 1878 3339 2120 
Q 3081 2363 2516 2363 
L 1581 2363 
L 1581 331 
z
M 1581 2694 
L 2375 2694 
Q 2888 2694 3123 2891 
Q 3359 3088 3359 3513 
Q 3359 3941 3123 4136 
Q 2888 4331 2375 4331 
L 1581 4331 
L 1581 2694 
z
M 353 0 
L 353 331 
L 947 331 
L 947 4331 
L 353 4331 
L 353 4666 
L 2656 4666 
Q 3363 4666 3720 4377 
Q 4078 4088 4078 3513 
Q 4078 3097 3829 2850 
Q 3581 2603 3103 2547 
Q 3697 2472 4005 2167 
Q 4313 1863 4313 1350 
Q 4313 656 3875 328 
Q 3438 0 2509 0 
L 353 0 
z
" transform="scale(0.015625)"/>
        <path id="DejaVuSerif-2d" d="M 281 1959 
L 1881 1959 
L 1881 1472 
L 281 1472 
L 281 1959 
z
" transform="scale(0.015625)"/>
       </defs>
       <use xlink:href="#DejaVuSerif-42"/>
       <use xlink:href="#DejaVuSerif-75" transform="translate(73.486328 0)"/>
       <use xlink:href="#DejaVuSerif-72" transform="translate(137.890625 0)"/>
       <use xlink:href="#DejaVuSerif-73" transform="translate(185.693359 0)"/>
       <use xlink:href="#DejaVuSerif-74" transform="translate(237.011719 0)"/>
       <use xlink:href="#DejaVuSerif-2d" transform="translate(277.197266 0)"/>
       <use xlink:href="#DejaVuSerif-53" transform="translate(310.986328 0)"/>
       <use xlink:href="#DejaVuSerif-75" transform="translate(379.492188 0)"/>
       <use xlink:href="#DejaVuSerif-73" transform="translate(443.896484 0)"/>
       <use xlink:href="#DejaVuSerif-74" transform="translate(495.214844 0)"/>
       <use xlink:href="#DejaVuSerif-61" transform="translate(535.400391 0)"/>
       <use xlink:href="#DejaVuSerif-69" transform="translate(595.019531 0)"/>
       <use xlink:href="#DejaVuSerif-6e" transform="translate(627.001953 0)"/>
       <use xlink:href="#DejaVuSerif-65" transform="translate(691.40625 0)"/>
       <use xlink:href="#DejaVuSerif-64" transform="translate(750.585938 0)"/>
      </g>
      <!-- Gap -->
      <g transform="translate(297.442676 311.028906) scale(0.09 -0.09)">
       <defs>
        <path id="DejaVuSerif-70" d="M 1313 1825 
L 1313 1497 
Q 1313 897 1542 583 
Q 1772 269 2209 269 
Q 2650 269 2876 622 
Q 3103 975 3103 1663 
Q 3103 2353 2876 2703 
Q 2650 3053 2209 3053 
Q 1772 3053 1542 2737 
Q 1313 2422 1313 1825 
z
M 738 2988 
L 184 2988 
L 184 3322 
L 1313 3322 
L 1313 2803 
Q 1481 3116 1742 3264 
Q 2003 3413 2388 3413 
Q 3000 3413 3387 2928 
Q 3775 2444 3775 1663 
Q 3775 881 3387 395 
Q 3000 -91 2388 -91 
Q 2003 -91 1742 57 
Q 1481 206 1313 519 
L 1313 -997 
L 1856 -997 
L 1856 -1331 
L 184 -1331 
L 184 -997 
L 738 -997 
L 738 2988 
z
" transform="scale(0.015625)"/>
       </defs>
       <use xlink:href="#DejaVuSerif-47"/>
       <use xlink:href="#DejaVuSerif-61" transform="translate(79.882812 0)"/>
       <use xlink:href="#DejaVuSerif-70" transform="translate(139.501953 0)"/>
      </g>
     </g>
    </g>
    <g id="xtick_5">
     <g id="line2d_5">
      <g>
       <use xlink:href="#m8bdd3d6610" x="376.090997" y="287.112281" style="stroke: #000000; stroke-width: 0.8"/>
      </g>
     </g>
     <g id="text_5">
      <!-- Straggler -->
      <g transform="translate(354.351075 300.950875) scale(0.09 -0.09)">
       <use xlink:href="#DejaVuSerif-53"/>
       <use xlink:href="#DejaVuSerif-74" transform="translate(68.505859 0)"/>
       <use xlink:href="#DejaVuSerif-72" transform="translate(108.691406 0)"/>
       <use xlink:href="#DejaVuSerif-61" transform="translate(156.494141 0)"/>
       <use xlink:href="#DejaVuSerif-67" transform="translate(216.113281 0)"/>
       <use xlink:href="#DejaVuSerif-67" transform="translate(280.126953 0)"/>
       <use xlink:href="#DejaVuSerif-6c" transform="translate(344.140625 0)"/>
       <use xlink:href="#DejaVuSerif-65" transform="translate(376.123047 0)"/>
       <use xlink:href="#DejaVuSerif-72" transform="translate(435.302734 0)"/>
      </g>
      <!-- Tax -->
      <g transform="translate(368.217403 311.156875) scale(0.09 -0.09)">
       <defs>
        <path id="DejaVuSerif-54" d="M 1222 0 
L 1222 331 
L 1819 331 
L 1819 4294 
L 447 4294 
L 447 3566 
L 63 3566 
L 63 4666 
L 4206 4666 
L 4206 3566 
L 3822 3566 
L 3822 4294 
L 2450 4294 
L 2450 331 
L 3047 331 
L 3047 0 
L 1222 0 
z
" transform="scale(0.015625)"/>
        <path id="DejaVuSerif-78" d="M 1863 2028 
L 2559 2988 
L 2113 2988 
L 2113 3322 
L 3391 3322 
L 3391 2988 
L 2950 2988 
L 2059 1759 
L 3097 331 
L 3531 331 
L 3531 0 
L 1997 0 
L 1997 331 
L 2419 331 
L 1697 1325 
L 972 331 
L 1403 331 
L 1403 0 
L 141 0 
L 141 331 
L 581 331 
L 1497 1594 
L 488 2988 
L 78 2988 
L 78 3322 
L 1563 3322 
L 1563 2988 
L 1166 2988 
L 1863 2028 
z
" transform="scale(0.015625)"/>
       </defs>
       <use xlink:href="#DejaVuSerif-54"/>
       <use xlink:href="#DejaVuSerif-61" transform="translate(58.949219 0)"/>
       <use xlink:href="#DejaVuSerif-78" transform="translate(118.568359 0)"/>
      </g>
     </g>
    </g>
    <g id="xtick_6">
     <g id="line2d_6">
      <g>
       <use xlink:href="#m8bdd3d6610" x="445.580412" y="287.112281" style="stroke: #000000; stroke-width: 0.8"/>
      </g>
     </g>
     <g id="text_6">
      <!-- Over- -->
      <g transform="translate(433.013459 300.950875) scale(0.09 -0.09)">
       <use xlink:href="#DejaVuSerif-4f"/>
       <use xlink:href="#DejaVuSerif-76" transform="translate(81.982422 0)"/>
       <use xlink:href="#DejaVuSerif-65" transform="translate(138.476562 0)"/>
       <use xlink:href="#DejaVuSerif-72" transform="translate(197.65625 0)"/>
       <use xlink:href="#DejaVuSerif-2d" transform="translate(245.458984 0)"/>
      </g>
      <!-- subscription -->
      <g transform="translate(417.337287 311.028906) scale(0.09 -0.09)">
       <defs>
        <path id="DejaVuSerif-62" d="M 738 331 
L 738 4531 
L 184 4531 
L 184 4863 
L 1313 4863 
L 1313 2803 
Q 1481 3116 1742 3264 
Q 2003 3413 2388 3413 
Q 3000 3413 3387 2928 
Q 3775 2444 3775 1663 
Q 3775 881 3387 395 
Q 3000 -91 2388 -91 
Q 2003 -91 1742 57 
Q 1481 206 1313 519 
L 1313 0 
L 184 0 
L 184 331 
L 738 331 
z
M 1313 1497 
Q 1313 897 1542 583 
Q 1772 269 2209 269 
Q 2650 269 2876 622 
Q 3103 975 3103 1663 
Q 3103 2353 2876 2703 
Q 2650 3053 2209 3053 
Q 1772 3053 1542 2737 
Q 1313 2422 1313 1825 
L 1313 1497 
z
" transform="scale(0.015625)"/>
       </defs>
       <use xlink:href="#DejaVuSerif-73"/>
       <use xlink:href="#DejaVuSerif-75" transform="translate(51.318359 0)"/>
       <use xlink:href="#DejaVuSerif-62" transform="translate(115.722656 0)"/>
       <use xlink:href="#DejaVuSerif-73" transform="translate(179.736328 0)"/>
       <use xlink:href="#DejaVuSerif-63" transform="translate(231.054688 0)"/>
       <use xlink:href="#DejaVuSerif-72" transform="translate(287.060547 0)"/>
       <use xlink:href="#DejaVuSerif-69" transform="translate(334.863281 0)"/>
       <use xlink:href="#DejaVuSerif-70" transform="translate(366.845703 0)"/>
       <use xlink:href="#DejaVuSerif-74" transform="translate(430.859375 0)"/>
       <use xlink:href="#DejaVuSerif-69" transform="translate(471.044922 0)"/>
       <use xlink:href="#DejaVuSerif-6f" transform="translate(503.027344 0)"/>
       <use xlink:href="#DejaVuSerif-6e" transform="translate(563.232422 0)"/>
      </g>
     </g>
    </g>
   </g>
   <g id="matplotlib.axis_2">
    <g id="ytick_1">
     <g id="line2d_7">
      <defs>
       <path id="meb47f1e71e" d="M 0 0 
L -3.5 0 
" style="stroke: #000000; stroke-width: 0.8"/>
      </defs>
      <g>
       <use xlink:href="#meb47f1e71e" x="48.656875" y="287.112281" style="stroke: #000000; stroke-width: 0.8"/>
      </g>
     </g>
     <g id="text_7">
      <!-- 0 -->
      <g transform="translate(35.930625 290.531578) scale(0.09 -0.09)">
       <defs>
        <path id="DejaVuSerif-30" d="M 2034 219 
Q 2513 219 2750 744 
Q 2988 1269 2988 2328 
Q 2988 3391 2750 3916 
Q 2513 4441 2034 4441 
Q 1556 4441 1318 3916 
Q 1081 3391 1081 2328 
Q 1081 1269 1318 744 
Q 1556 219 2034 219 
z
M 2034 -91 
Q 1275 -91 848 546 
Q 422 1184 422 2328 
Q 422 3475 848 4112 
Q 1275 4750 2034 4750 
Q 2797 4750 3222 4112 
Q 3647 3475 3647 2328 
Q 3647 1184 3222 546 
Q 2797 -91 2034 -91 
z
" transform="scale(0.015625)"/>
       </defs>
       <use xlink:href="#DejaVuSerif-30"/>
      </g>
     </g>
    </g>
    <g id="ytick_2">
     <g id="line2d_8">
      <g>
       <use xlink:href="#meb47f1e71e" x="48.656875" y="243.724455" style="stroke: #000000; stroke-width: 0.8"/>
      </g>
     </g>
     <g id="text_8">
      <!-- 20 -->
      <g transform="translate(30.204375 247.143752) scale(0.09 -0.09)">
       <defs>
        <path id="DejaVuSerif-32" d="M 819 3553 
L 469 3553 
L 469 4384 
Q 803 4563 1142 4656 
Q 1481 4750 1806 4750 
Q 2534 4750 2956 4397 
Q 3378 4044 3378 3438 
Q 3378 2753 2422 1800 
Q 2347 1728 2309 1691 
L 1131 513 
L 3078 513 
L 3078 1088 
L 3444 1088 
L 3444 0 
L 434 0 
L 434 341 
L 1850 1753 
Q 2319 2222 2519 2614 
Q 2719 3006 2719 3438 
Q 2719 3909 2473 4175 
Q 2228 4441 1797 4441 
Q 1350 4441 1106 4219 
Q 863 3997 819 3553 
z
" transform="scale(0.015625)"/>
       </defs>
       <use xlink:href="#DejaVuSerif-32"/>
       <use xlink:href="#DejaVuSerif-30" transform="translate(63.623047 0)"/>
      </g>
     </g>
    </g>
    <g id="ytick_3">
     <g id="line2d_9">
      <g>
       <use xlink:href="#meb47f1e71e" x="48.656875" y="200.336629" style="stroke: #000000; stroke-width: 0.8"/>
      </g>
     </g>
     <g id="text_9">
      <!-- 40 -->
      <g transform="translate(30.204375 203.755926) scale(0.09 -0.09)">
       <defs>
        <path id="DejaVuSerif-34" d="M 2234 1581 
L 2234 4063 
L 641 1581 
L 2234 1581 
z
M 3609 0 
L 1484 0 
L 1484 331 
L 2234 331 
L 2234 1247 
L 197 1247 
L 197 1588 
L 2241 4750 
L 2859 4750 
L 2859 1581 
L 3750 1581 
L 3750 1247 
L 2859 1247 
L 2859 331 
L 3609 331 
L 3609 0 
z
" transform="scale(0.015625)"/>
       </defs>
       <use xlink:href="#DejaVuSerif-34"/>
       <use xlink:href="#DejaVuSerif-30" transform="translate(63.623047 0)"/>
      </g>
     </g>
    </g>
    <g id="ytick_4">
     <g id="line2d_10">
      <g>
       <use xlink:href="#meb47f1e71e" x="48.656875" y="156.948803" style="stroke: #000000; stroke-width: 0.8"/>
      </g>
     </g>
     <g id="text_10">
      <!-- 60 -->
      <g transform="translate(30.204375 160.3681) scale(0.09 -0.09)">
       <defs>
        <path id="DejaVuSerif-36" d="M 2094 219 
Q 2534 219 2771 542 
Q 3009 866 3009 1472 
Q 3009 2078 2771 2401 
Q 2534 2725 2094 2725 
Q 1647 2725 1412 2412 
Q 1178 2100 1178 1509 
Q 1178 888 1415 553 
Q 1653 219 2094 219 
z
M 1075 2569 
Q 1288 2803 1556 2918 
Q 1825 3034 2163 3034 
Q 2859 3034 3264 2615 
Q 3669 2197 3669 1472 
Q 3669 763 3233 336 
Q 2797 -91 2069 -91 
Q 1278 -91 853 498 
Q 428 1088 428 2181 
Q 428 3406 931 4078 
Q 1434 4750 2350 4750 
Q 2597 4750 2869 4703 
Q 3141 4656 3425 4563 
L 3425 3794 
L 3072 3794 
Q 3034 4109 2831 4275 
Q 2628 4441 2284 4441 
Q 1678 4441 1381 3981 
Q 1084 3522 1075 2569 
z
" transform="scale(0.015625)"/>
       </defs>
       <use xlink:href="#DejaVuSerif-36"/>
       <use xlink:href="#DejaVuSerif-30" transform="translate(63.623047 0)"/>
      </g>
     </g>
    </g>
    <g id="ytick_5">
     <g id="line2d_11">
      <g>
       <use xlink:href="#meb47f1e71e" x="48.656875" y="113.560977" style="stroke: #000000; stroke-width: 0.8"/>
      </g>
     </g>
     <g id="text_11">
      <!-- 80 -->
      <g transform="translate(30.204375 116.980274) scale(0.09 -0.09)">
       <defs>
        <path id="DejaVuSerif-38" d="M 2981 1275 
Q 2981 1775 2732 2051 
Q 2484 2328 2034 2328 
Q 1584 2328 1336 2051 
Q 1088 1775 1088 1275 
Q 1088 772 1336 495 
Q 1584 219 2034 219 
Q 2484 219 2732 495 
Q 2981 772 2981 1275 
z
M 2853 3541 
Q 2853 3966 2637 4203 
Q 2422 4441 2034 4441 
Q 1650 4441 1433 4203 
Q 1216 3966 1216 3541 
Q 1216 3113 1433 2875 
Q 1650 2638 2034 2638 
Q 2422 2638 2637 2875 
Q 2853 3113 2853 3541 
z
M 2516 2484 
Q 3047 2413 3344 2092 
Q 3641 1772 3641 1275 
Q 3641 619 3225 264 
Q 2809 -91 2034 -91 
Q 1263 -91 845 264 
Q 428 619 428 1275 
Q 428 1772 725 2092 
Q 1022 2413 1556 2484 
Q 1084 2569 832 2842 
Q 581 3116 581 3541 
Q 581 4103 968 4426 
Q 1356 4750 2034 4750 
Q 2713 4750 3100 4426 
Q 3488 4103 3488 3541 
Q 3488 3116 3236 2842 
Q 2984 2569 2516 2484 
z
" transform="scale(0.015625)"/>
       </defs>
       <use xlink:href="#DejaVuSerif-38"/>
       <use xlink:href="#DejaVuSerif-30" transform="translate(63.623047 0)"/>
      </g>
     </g>
    </g>
    <g id="ytick_6">
     <g id="line2d_12">
      <g>
       <use xlink:href="#meb47f1e71e" x="48.656875" y="70.173151" style="stroke: #000000; stroke-width: 0.8"/>
      </g>
     </g>
     <g id="text_12">
      <!-- 100 -->
      <g transform="translate(24.478125 73.592448) scale(0.09 -0.09)">
       <defs>
        <path id="DejaVuSerif-31" d="M 909 0 
L 909 331 
L 1722 331 
L 1722 4213 
L 781 3603 
L 781 4013 
L 1919 4750 
L 2350 4750 
L 2350 331 
L 3163 331 
L 3163 0 
L 909 0 
z
" transform="scale(0.015625)"/>
       </defs>
       <use xlink:href="#DejaVuSerif-31"/>
       <use xlink:href="#DejaVuSerif-30" transform="translate(63.623047 0)"/>
       <use xlink:href="#DejaVuSerif-30" transform="translate(127.246094 0)"/>
      </g>
     </g>
    </g>
    <g id="text_13">
     <!-- Detection Rate (%) -->
     <g transform="translate(18.398437 210.605875) rotate(-90) scale(0.1 -0.1)">
      <defs>
       <path id="DejaVuSerif-44" d="M 1581 331 
L 2163 331 
Q 3072 331 3558 850 
Q 4044 1369 4044 2338 
Q 4044 3306 3559 3818 
Q 3075 4331 2163 4331 
L 1581 4331 
L 1581 331 
z
M 353 0 
L 353 331 
L 947 331 
L 947 4331 
L 353 4331 
L 353 4666 
L 2209 4666 
Q 3416 4666 4089 4050 
Q 4763 3434 4763 2338 
Q 4763 1238 4088 619 
Q 3413 0 2209 0 
L 353 0 
z
" transform="scale(0.015625)"/>
       <path id="DejaVuSerif-20" transform="scale(0.015625)"/>
       <path id="DejaVuSerif-52" d="M 3066 2316 
Q 3284 2256 3442 2114 
Q 3600 1972 3725 1716 
L 4403 331 
L 4972 331 
L 4972 0 
L 3872 0 
L 3144 1484 
Q 2934 1916 2759 2042 
Q 2584 2169 2278 2169 
L 1581 2169 
L 1581 331 
L 2241 331 
L 2241 0 
L 353 0 
L 353 331 
L 947 331 
L 947 4331 
L 353 4331 
L 353 4666 
L 2719 4666 
Q 3400 4666 3770 4341 
Q 4141 4016 4141 3419 
Q 4141 2938 3870 2661 
Q 3600 2384 3066 2316 
z
M 1581 2503 
L 2503 2503 
Q 2975 2503 3200 2726 
Q 3425 2950 3425 3419 
Q 3425 3888 3200 4109 
Q 2975 4331 2503 4331 
L 1581 4331 
L 1581 2503 
z
" transform="scale(0.015625)"/>
       <path id="DejaVuSerif-28" d="M 2041 -997 
Q 1281 -656 893 83 
Q 506 822 506 1931 
Q 506 3044 893 3783 
Q 1281 4522 2041 4863 
L 2041 4556 
Q 1559 4225 1350 3623 
Q 1141 3022 1141 1931 
Q 1141 844 1350 242 
Q 1559 -359 2041 -691 
L 2041 -997 
z
" transform="scale(0.015625)"/>
       <path id="DejaVuSerif-25" d="M 1434 4459 
Q 1159 4459 1004 4200 
Q 850 3941 850 3475 
Q 850 3016 1008 2753 
Q 1166 2491 1434 2491 
Q 1700 2491 1854 2752 
Q 2009 3013 2009 3475 
Q 2009 3938 1854 4198 
Q 1700 4459 1434 4459 
z
M 4653 2169 
Q 4381 2169 4226 1906 
Q 4072 1644 4072 1178 
Q 4072 719 4228 458 
Q 4384 197 4653 197 
Q 4922 197 5075 458 
Q 5228 719 5228 1178 
Q 5228 1641 5073 1905 
Q 4919 2169 4653 2169 
z
M 4653 2450 
Q 5147 2450 5437 2106 
Q 5728 1763 5728 1178 
Q 5728 594 5436 251 
Q 5144 -91 4653 -91 
Q 4153 -91 3862 251 
Q 3572 594 3572 1178 
Q 3572 1766 3864 2108 
Q 4156 2450 4653 2450 
z
M 4263 4750 
L 4738 4750 
L 1819 -91 
L 1344 -91 
L 4263 4750 
z
M 1428 4750 
Q 1922 4750 2215 4408 
Q 2509 4066 2509 3481 
Q 2509 2891 2217 2550 
Q 1925 2209 1428 2209 
Q 931 2209 642 2551 
Q 353 2894 353 3481 
Q 353 4063 643 4406 
Q 934 4750 1428 4750 
z
" transform="scale(0.015625)"/>
       <path id="DejaVuSerif-29" d="M 453 -997 
L 453 -691 
Q 934 -359 1145 242 
Q 1356 844 1356 1931 
Q 1356 3022 1145 3623 
Q 934 4225 453 4556 
L 453 4863 
Q 1216 4522 1603 3783 
Q 1991 3044 1991 1931 
Q 1991 822 1603 83 
Q 1216 -656 453 -997 
z
" transform="scale(0.015625)"/>
      </defs>
      <use xlink:href="#DejaVuSerif-44"/>
      <use xlink:href="#DejaVuSerif-65" transform="translate(80.175781 0)"/>
      <use xlink:href="#DejaVuSerif-74" transform="translate(139.355469 0)"/>
      <use xlink:href="#DejaVuSerif-65" transform="translate(179.541016 0)"/>
      <use xlink:href="#DejaVuSerif-63" transform="translate(238.720703 0)"/>
      <use xlink:href="#DejaVuSerif-74" transform="translate(294.726562 0)"/>
      <use xlink:href="#DejaVuSerif-69" transform="translate(334.912109 0)"/>
      <use xlink:href="#DejaVuSerif-6f" transform="translate(366.894531 0)"/>
      <use xlink:href="#DejaVuSerif-6e" transform="translate(427.099609 0)"/>
      <use xlink:href="#DejaVuSerif-20" transform="translate(491.503906 0)"/>
      <use xlink:href="#DejaVuSerif-52" transform="translate(523.291016 0)"/>
      <use xlink:href="#DejaVuSerif-61" transform="translate(600.833984 0)"/>
      <use xlink:href="#DejaVuSerif-74" transform="translate(660.453125 0)"/>
      <use xlink:href="#DejaVuSerif-65" transform="translate(700.638672 0)"/>
      <use xlink:href="#DejaVuSerif-20" transform="translate(759.818359 0)"/>
      <use xlink:href="#DejaVuSerif-28" transform="translate(791.605469 0)"/>
      <use xlink:href="#DejaVuSerif-25" transform="translate(830.619141 0)"/>
      <use xlink:href="#DejaVuSerif-29" transform="translate(925.638672 0)"/>
     </g>
    </g>
   </g>
   <g id="line2d_13">
    <path d="M 48.656875 287.112281 
L 495.056875 287.112281 
" clip-path="url(#p83a6b2ba35)" style="fill: none; stroke: #000000; stroke-width: 0.5; stroke-linecap: square"/>
   </g>
   <g id="patch_21">
    <path d="M 48.656875 287.112281 
L 48.656875 37.632281 
" style="fill: none; stroke: #000000; stroke-width: 0.8; stroke-linejoin: miter; stroke-linecap: square"/>
   </g>
   <g id="patch_22">
    <path d="M 48.656875 287.112281 
L 495.056875 287.112281 
" style="fill: none; stroke: #000000; stroke-width: 0.8; stroke-linejoin: miter; stroke-linecap: square"/>
   </g>
   <g id="text_14">
    <!-- 99.9% -->
    <g style="fill: #2563eb" transform="translate(104.047874 65.472253) scale(0.08 -0.08)">
     <defs>
      <path id="DejaVuSerif-Bold-39" d="M 2181 4384 
Q 1859 4384 1723 4111 
Q 1588 3838 1588 3163 
Q 1588 2488 1723 2214 
Q 1859 1941 2181 1941 
Q 2503 1941 2640 2214 
Q 2778 2488 2778 3163 
Q 2778 3838 2640 4111 
Q 2503 4384 2181 4384 
z
M 2878 1900 
Q 2672 1734 2420 1651 
Q 2169 1569 1875 1569 
Q 1163 1569 755 1986 
Q 347 2403 347 3138 
Q 347 3913 803 4331 
Q 1259 4750 2106 4750 
Q 3063 4750 3556 4172 
Q 4050 3594 4050 2478 
Q 4050 1206 3503 557 
Q 2956 -91 1881 -91 
Q 1600 -91 1278 -44 
Q 956 3 588 97 
L 588 922 
L 966 922 
Q 1044 603 1261 439 
Q 1478 275 1825 275 
Q 2375 275 2625 658 
Q 2875 1041 2878 1900 
z
" transform="scale(0.015625)"/>
      <path id="DejaVuSerif-Bold-2e" d="M 519 506 
Q 519 750 694 925 
Q 869 1100 1113 1100 
Q 1359 1100 1534 925 
Q 1709 750 1709 506 
Q 1709 259 1534 84 
Q 1359 -91 1113 -91 
Q 869 -91 694 84 
Q 519 259 519 506 
z
" transform="scale(0.015625)"/>
      <path id="DejaVuSerif-Bold-25" d="M 1381 4434 
Q 1181 4434 1093 4217 
Q 1006 4000 1006 3481 
Q 1006 2959 1093 2740 
Q 1181 2522 1381 2522 
Q 1584 2522 1671 2740 
Q 1759 2959 1759 3481 
Q 1759 4000 1671 4217 
Q 1584 4434 1381 4434 
z
M 1381 4750 
Q 1978 4750 2295 4423 
Q 2613 4097 2613 3481 
Q 2613 2866 2295 2537 
Q 1978 2209 1381 2209 
Q 788 2209 470 2537 
Q 153 2866 153 3481 
Q 153 4097 470 4423 
Q 788 4750 1381 4750 
z
M 4231 4750 
L 4769 4750 
L 1850 -91 
L 1313 -91 
L 4231 4750 
z
M 4697 2450 
Q 5294 2450 5609 2123 
Q 5925 1797 5925 1184 
Q 5925 569 5609 239 
Q 5294 -91 4697 -91 
Q 4103 -91 3786 239 
Q 3469 569 3469 1184 
Q 3469 1797 3786 2123 
Q 4103 2450 4697 2450 
z
M 4697 2138 
Q 4494 2138 4406 1920 
Q 4319 1703 4319 1184 
Q 4319 663 4408 444 
Q 4497 225 4697 225 
Q 4900 225 4987 444 
Q 5075 663 5075 1184 
Q 5075 1703 4987 1920 
Q 4900 2138 4697 2138 
z
" transform="scale(0.015625)"/>
     </defs>
     <use xlink:href="#DejaVuSerif-Bold-39"/>
     <use xlink:href="#DejaVuSerif-Bold-39" transform="translate(69.580078 0)"/>
     <use xlink:href="#DejaVuSerif-Bold-2e" transform="translate(139.160156 0)"/>
     <use xlink:href="#DejaVuSerif-Bold-39" transform="translate(173.974609 0)"/>
     <use xlink:href="#DejaVuSerif-Bold-25" transform="translate(243.554688 0)"/>
    </g>
   </g>
   <g id="text_15">
    <!-- 100.0% -->
    <g style="fill: #2563eb" transform="translate(170.754164 65.255314) scale(0.08 -0.08)">
     <defs>
      <path id="DejaVuSerif-Bold-31" d="M 878 0 
L 878 378 
L 1753 378 
L 1753 4153 
L 781 3578 
L 781 4044 
L 1953 4750 
L 2938 4750 
L 2938 378 
L 3816 378 
L 3816 0 
L 878 0 
z
" transform="scale(0.015625)"/>
      <path id="DejaVuSerif-Bold-30" d="M 2228 275 
Q 2603 275 2742 615 
Q 2881 956 2881 2328 
Q 2881 3691 2742 4037 
Q 2603 4384 2228 4384 
Q 1853 4384 1714 4043 
Q 1575 3703 1575 2328 
Q 1575 956 1714 615 
Q 1853 275 2228 275 
z
M 2228 -91 
Q 1294 -91 797 532 
Q 300 1156 300 2328 
Q 300 3500 797 4125 
Q 1294 4750 2228 4750 
Q 3159 4750 3656 4125 
Q 4153 3500 4153 2328 
Q 4153 1156 3656 532 
Q 3159 -91 2228 -91 
z
" transform="scale(0.015625)"/>
     </defs>
     <use xlink:href="#DejaVuSerif-Bold-31"/>
     <use xlink:href="#DejaVuSerif-Bold-30" transform="translate(69.580078 0)"/>
     <use xlink:href="#DejaVuSerif-Bold-30" transform="translate(139.160156 0)"/>
     <use xlink:href="#DejaVuSerif-Bold-2e" transform="translate(208.740234 0)"/>
     <use xlink:href="#DejaVuSerif-Bold-30" transform="translate(243.554688 0)"/>
     <use xlink:href="#DejaVuSerif-Bold-25" transform="translate(313.134766 0)"/>
    </g>
   </g>
   <g id="text_16">
    <!-- 100.0% -->
    <g style="fill: #2563eb" transform="translate(240.243579 65.255314) scale(0.08 -0.08)">
     <use xlink:href="#DejaVuSerif-Bold-31"/>
     <use xlink:href="#DejaVuSerif-Bold-30" transform="translate(69.580078 0)"/>
     <use xlink:href="#DejaVuSerif-Bold-30" transform="translate(139.160156 0)"/>
     <use xlink:href="#DejaVuSerif-Bold-2e" transform="translate(208.740234 0)"/>
     <use xlink:href="#DejaVuSerif-Bold-30" transform="translate(243.554688 0)"/>
     <use xlink:href="#DejaVuSerif-Bold-25" transform="translate(313.134766 0)"/>
    </g>
   </g>
   <g id="text_17">
    <!-- 56.5% -->
    <g style="fill: #2563eb" transform="translate(312.516118 159.623836) scale(0.08 -0.08)">
     <defs>
      <path id="DejaVuSerif-Bold-35" d="M 3609 4666 
L 3609 3847 
L 1113 3847 
L 1113 2822 
Q 1319 2981 1572 3062 
Q 1825 3144 2106 3144 
Q 2969 3144 3469 2708 
Q 3969 2272 3969 1522 
Q 3969 759 3469 334 
Q 2969 -91 2069 -91 
Q 1688 -91 1311 -28 
Q 934 34 525 166 
L 525 1184 
L 900 1184 
Q 919 725 1139 500 
Q 1359 275 1791 275 
Q 2250 275 2472 583 
Q 2694 891 2694 1522 
Q 2694 2144 2476 2451 
Q 2259 2759 1819 2759 
Q 1581 2759 1395 2661 
Q 1209 2563 1050 2356 
L 738 2356 
L 738 4666 
L 3609 4666 
z
" transform="scale(0.015625)"/>
      <path id="DejaVuSerif-Bold-36" d="M 1575 2766 
Q 1778 2928 2029 3009 
Q 2281 3091 2578 3091 
Q 3294 3091 3701 2672 
Q 4109 2253 4109 1522 
Q 4109 750 3650 329 
Q 3191 -91 2344 -91 
Q 1388 -91 895 486 
Q 403 1063 403 2181 
Q 403 3453 950 4101 
Q 1497 4750 2572 4750 
Q 2853 4750 3175 4703 
Q 3497 4656 3866 4563 
L 3866 3738 
L 3488 3738 
Q 3409 4056 3192 4220 
Q 2975 4384 2631 4384 
Q 2075 4384 1826 4003 
Q 1578 3622 1575 2766 
z
M 2272 275 
Q 2594 275 2731 548 
Q 2869 822 2869 1497 
Q 2869 2172 2731 2445 
Q 2594 2719 2272 2719 
Q 1950 2719 1814 2445 
Q 1678 2172 1678 1497 
Q 1678 822 1814 548 
Q 1950 275 2272 275 
z
" transform="scale(0.015625)"/>
     </defs>
     <use xlink:href="#DejaVuSerif-Bold-35"/>
     <use xlink:href="#DejaVuSerif-Bold-36" transform="translate(69.580078 0)"/>
     <use xlink:href="#DejaVuSerif-Bold-2e" transform="translate(139.160156 0)"/>
     <use xlink:href="#DejaVuSerif-Bold-35" transform="translate(173.974609 0)"/>
     <use xlink:href="#DejaVuSerif-Bold-25" transform="translate(243.554688 0)"/>
    </g>
   </g>
   <g id="text_18">
    <!-- 94.7% -->
    <g style="fill: #2563eb" transform="translate(382.005533 76.753088) scale(0.08 -0.08)">
     <defs>
      <path id="DejaVuSerif-Bold-34" d="M 4084 0 
L 1516 0 
L 1516 378 
L 2209 378 
L 2209 1228 
L 263 1228 
L 263 1588 
L 2216 4750 
L 3391 4750 
L 3391 1631 
L 4191 1631 
L 4191 1228 
L 3391 1228 
L 3391 378 
L 4084 378 
L 4084 0 
z
M 2209 1631 
L 2209 3897 
L 819 1631 
L 2209 1631 
z
" transform="scale(0.015625)"/>
      <path id="DejaVuSerif-Bold-37" d="M 3922 3872 
L 1997 0 
L 1363 0 
L 3238 3781 
L 934 3781 
L 934 3150 
L 506 3150 
L 506 4666 
L 3922 4666 
L 3922 3872 
z
" transform="scale(0.015625)"/>
     </defs>
     <use xlink:href="#DejaVuSerif-Bold-39"/>
     <use xlink:href="#DejaVuSerif-Bold-34" transform="translate(69.580078 0)"/>
     <use xlink:href="#DejaVuSerif-Bold-2e" transform="translate(139.160156 0)"/>
     <use xlink:href="#DejaVuSerif-Bold-37" transform="translate(173.974609 0)"/>
     <use xlink:href="#DejaVuSerif-Bold-25" transform="translate(243.554688 0)"/>
    </g>
   </g>
   <g id="text_19">
    <!-- 100.0% -->
    <g style="fill: #2563eb" transform="translate(448.711823 65.255314) scale(0.08 -0.08)">
     <use xlink:href="#DejaVuSerif-Bold-31"/>
     <use xlink:href="#DejaVuSerif-Bold-30" transform="translate(69.580078 0)"/>
     <use xlink:href="#DejaVuSerif-Bold-30" transform="translate(139.160156 0)"/>
     <use xlink:href="#DejaVuSerif-Bold-2e" transform="translate(208.740234 0)"/>
     <use xlink:href="#DejaVuSerif-Bold-30" transform="translate(243.554688 0)"/>
     <use xlink:href="#DejaVuSerif-Bold-25" transform="translate(313.134766 0)"/>
    </g>
   </g>
   <g id="text_20">
    <!-- 0% -->
    <g style="fill: #dc2626" transform="translate(72.915521 281.317717) scale(0.07 -0.07)">
     <use xlink:href="#DejaVuSerif-Bold-30"/>
     <use xlink:href="#DejaVuSerif-Bold-25" transform="translate(69.580078 0)"/>
    </g>
   </g>
   <g id="text_21">
    <!-- 0% -->
    <g style="fill: #dc2626" transform="translate(142.404936 281.317717) scale(0.07 -0.07)">
     <use xlink:href="#DejaVuSerif-Bold-30"/>
     <use xlink:href="#DejaVuSerif-Bold-25" transform="translate(69.580078 0)"/>
    </g>
   </g>
   <g id="text_22">
    <!-- 0% -->
    <g style="fill: #dc2626" transform="translate(211.89435 281.317717) scale(0.07 -0.07)">
     <use xlink:href="#DejaVuSerif-Bold-30"/>
     <use xlink:href="#DejaVuSerif-Bold-25" transform="translate(69.580078 0)"/>
    </g>
   </g>
   <g id="text_23">
    <!-- 0% -->
    <g style="fill: #dc2626" transform="translate(281.383765 281.317717) scale(0.07 -0.07)">
     <use xlink:href="#DejaVuSerif-Bold-30"/>
     <use xlink:href="#DejaVuSerif-Bold-25" transform="translate(69.580078 0)"/>
    </g>
   </g>
   <g id="text_24">
    <!-- 0% -->
    <g style="fill: #dc2626" transform="translate(350.87318 281.317717) scale(0.07 -0.07)">
     <use xlink:href="#DejaVuSerif-Bold-30"/>
     <use xlink:href="#DejaVuSerif-Bold-25" transform="translate(69.580078 0)"/>
    </g>
   </g>
   <g id="text_25">
    <!-- 0% -->
    <g style="fill: #dc2626" transform="translate(420.362594 281.317717) scale(0.07 -0.07)">
     <use xlink:href="#DejaVuSerif-Bold-30"/>
     <use xlink:href="#DejaVuSerif-Bold-25" transform="translate(69.580078 0)"/>
    </g>
   </g>
   <g id="text_26">
    <!-- Figure 1. Waste Event Detection by Monitoring Tool -->
    <g transform="translate(126.478984 19.158281) scale(0.11 -0.11)">
     <defs>
      <path id="DejaVuSerif-46" d="M 353 0 
L 353 331 
L 947 331 
L 947 4331 
L 353 4331 
L 353 4666 
L 4172 4666 
L 4172 3628 
L 3788 3628 
L 3788 4281 
L 1581 4281 
L 1581 2719 
L 3175 2719 
L 3175 3303 
L 3559 3303 
L 3559 1753 
L 3175 1753 
L 3175 2338 
L 1581 2338 
L 1581 331 
L 2328 331 
L 2328 0 
L 353 0 
z
" transform="scale(0.015625)"/>
      <path id="DejaVuSerif-2e" d="M 603 325 
Q 603 500 722 622 
Q 841 744 1019 744 
Q 1191 744 1312 622 
Q 1434 500 1434 325 
Q 1434 153 1312 31 
Q 1191 -91 1019 -91 
Q 841 -91 722 29 
Q 603 150 603 325 
z
" transform="scale(0.015625)"/>
      <path id="DejaVuSerif-57" d="M 4878 0 
L 4366 0 
L 3297 3794 
L 2228 0 
L 1716 0 
L 494 4331 
L 31 4331 
L 31 4666 
L 1734 4666 
L 1734 4331 
L 1153 4331 
L 2125 884 
L 3188 4666 
L 3694 4666 
L 4775 844 
L 5753 4331 
L 5216 4331 
L 5216 4666 
L 6559 4666 
L 6559 4331 
L 6100 4331 
L 4878 0 
z
" transform="scale(0.015625)"/>
      <path id="DejaVuSerif-45" d="M 353 0 
L 353 331 
L 947 331 
L 947 4331 
L 353 4331 
L 353 4666 
L 4109 4666 
L 4109 3628 
L 3725 3628 
L 3725 4281 
L 1581 4281 
L 1581 2719 
L 3109 2719 
L 3109 3303 
L 3494 3303 
L 3494 1753 
L 3109 1753 
L 3109 2338 
L 1581 2338 
L 1581 384 
L 3775 384 
L 3775 1038 
L 4159 1038 
L 4159 0 
L 353 0 
z
" transform="scale(0.015625)"/>
      <path id="DejaVuSerif-79" d="M 1381 -609 
L 1600 -56 
L 359 2988 
L -19 2988 
L -19 3322 
L 1509 3322 
L 1509 2988 
L 978 2988 
L 1913 703 
L 2847 2988 
L 2350 2988 
L 2350 3322 
L 3597 3322 
L 3597 2988 
L 3225 2988 
L 1703 -750 
Q 1547 -1138 1356 -1280 
Q 1166 -1422 819 -1422 
Q 672 -1422 517 -1397 
Q 363 -1372 206 -1325 
L 206 -691 
L 500 -691 
Q 519 -903 608 -995 
Q 697 -1088 884 -1088 
Q 1056 -1088 1161 -992 
Q 1266 -897 1381 -609 
z
" transform="scale(0.015625)"/>
      <path id="DejaVuSerif-4d" d="M 353 0 
L 353 331 
L 947 331 
L 947 4331 
L 319 4331 
L 319 4666 
L 1678 4666 
L 3316 1344 
L 4953 4666 
L 6228 4666 
L 6228 4331 
L 5606 4331 
L 5606 331 
L 6203 331 
L 6203 0 
L 4378 0 
L 4378 331 
L 4972 331 
L 4972 3938 
L 3372 684 
L 2931 684 
L 1331 3938 
L 1331 331 
L 1925 331 
L 1925 0 
L 353 0 
z
" transform="scale(0.015625)"/>
     </defs>
     <use xlink:href="#DejaVuSerif-46"/>
     <use xlink:href="#DejaVuSerif-69" transform="translate(69.384766 0)"/>
     <use xlink:href="#DejaVuSerif-67" transform="translate(101.367188 0)"/>
     <use xlink:href="#DejaVuSerif-75" transform="translate(165.380859 0)"/>
     <use xlink:href="#DejaVuSerif-72" transform="translate(229.785156 0)"/>
     <use xlink:href="#DejaVuSerif-65" transform="translate(277.587891 0)"/>
     <use xlink:href="#DejaVuSerif-20" transform="translate(336.767578 0)"/>
     <use xlink:href="#DejaVuSerif-31" transform="translate(368.554688 0)"/>
     <use xlink:href="#DejaVuSerif-2e" transform="translate(432.177734 0)"/>
     <use xlink:href="#DejaVuSerif-20" transform="translate(463.964844 0)"/>
     <use xlink:href="#DejaVuSerif-57" transform="translate(495.751953 0)"/>
     <use xlink:href="#DejaVuSerif-61" transform="translate(589.785156 0)"/>
     <use xlink:href="#DejaVuSerif-73" transform="translate(649.404297 0)"/>
     <use xlink:href="#DejaVuSerif-74" transform="translate(700.722656 0)"/>
     <use xlink:href="#DejaVuSerif-65" transform="translate(740.908203 0)"/>
     <use xlink:href="#DejaVuSerif-20" transform="translate(800.087891 0)"/>
     <use xlink:href="#DejaVuSerif-45" transform="translate(831.875 0)"/>
     <use xlink:href="#DejaVuSerif-76" transform="translate(904.873047 0)"/>
     <use xlink:href="#DejaVuSerif-65" transform="translate(961.367188 0)"/>
     <use xlink:href="#DejaVuSerif-6e" transform="translate(1020.546875 0)"/>
     <use xlink:href="#DejaVuSerif-74" transform="translate(1084.951172 0)"/>
     <use xlink:href="#DejaVuSerif-20" transform="translate(1125.136719 0)"/>
     <use xlink:href="#DejaVuSerif-44" transform="translate(1156.923828 0)"/>
     <use xlink:href="#DejaVuSerif-65" transform="translate(1237.099609 0)"/>
     <use xlink:href="#DejaVuSerif-74" transform="translate(1296.279297 0)"/>
     <use xlink:href="#DejaVuSerif-65" transform="translate(1336.464844 0)"/>
     <use xlink:href="#DejaVuSerif-63" transform="translate(1395.644531 0)"/>
     <use xlink:href="#DejaVuSerif-74" transform="translate(1451.650391 0)"/>
     <use xlink:href="#DejaVuSerif-69" transform="translate(1491.835938 0)"/>
     <use xlink:href="#DejaVuSerif-6f" transform="translate(1523.818359 0)"/>
     <use xlink:href="#DejaVuSerif-6e" transform="translate(1584.023438 0)"/>
     <use xlink:href="#DejaVuSerif-20" transform="translate(1648.427734 0)"/>
     <use xlink:href="#DejaVuSerif-62" transform="translate(1680.214844 0)"/>
     <use xlink:href="#DejaVuSerif-79" transform="translate(1744.228516 0)"/>
     <use xlink:href="#DejaVuSerif-20" transform="translate(1800.722656 0)"/>
     <use xlink:href="#DejaVuSerif-4d" transform="translate(1832.509766 0)"/>
     <use xlink:href="#DejaVuSerif-6f" transform="translate(1934.902344 0)"/>
     <use xlink:href="#DejaVuSerif-6e" transform="translate(1995.107422 0)"/>
     <use xlink:href="#DejaVuSerif-69" transform="translate(2059.511719 0)"/>
     <use xlink:href="#DejaVuSerif-74" transform="translate(2091.494141 0)"/>
     <use xlink:href="#DejaVuSerif-6f" transform="translate(2131.679688 0)"/>
     <use xlink:href="#DejaVuSerif-72" transform="translate(2191.884766 0)"/>
     <use xlink:href="#DejaVuSerif-69" transform="translate(2239.6875 0)"/>
     <use xlink:href="#DejaVuSerif-6e" transform="translate(2271.669922 0)"/>
     <use xlink:href="#DejaVuSerif-67" transform="translate(2336.074219 0)"/>
     <use xlink:href="#DejaVuSerif-20" transform="translate(2400.087891 0)"/>
     <use xlink:href="#DejaVuSerif-54" transform="translate(2431.875 0)"/>
     <use xlink:href="#DejaVuSerif-6f" transform="translate(2490.824219 0)"/>
     <use xlink:href="#DejaVuSerif-6f" transform="translate(2551.029297 0)"/>
     <use xlink:href="#DejaVuSerif-6c" transform="translate(2611.234375 0)"/>
    </g>
    <!-- (nvidia-smi and DCGM: 0% across all categories) -->
    <g transform="translate(135.025469 31.632281) scale(0.11 -0.11)">
     <defs>
      <path id="DejaVuSerif-6d" d="M 3316 2675 
Q 3481 3041 3739 3227 
Q 3997 3413 4341 3413 
Q 4863 3413 5119 3089 
Q 5375 2766 5375 2113 
L 5375 331 
L 5894 331 
L 5894 0 
L 4300 0 
L 4300 331 
L 4800 331 
L 4800 2047 
Q 4800 2556 4650 2772 
Q 4500 2988 4153 2988 
Q 3769 2988 3567 2697 
Q 3366 2406 3366 1850 
L 3366 331 
L 3866 331 
L 3866 0 
L 2291 0 
L 2291 331 
L 2791 331 
L 2791 2069 
Q 2791 2566 2641 2777 
Q 2491 2988 2144 2988 
Q 1759 2988 1557 2697 
Q 1356 2406 1356 1850 
L 1356 331 
L 1856 331 
L 1856 0 
L 263 0 
L 263 331 
L 781 331 
L 781 2994 
L 231 2994 
L 231 3322 
L 1356 3322 
L 1356 2731 
Q 1516 3063 1762 3238 
Q 2009 3413 2322 3413 
Q 2709 3413 2968 3220 
Q 3228 3028 3316 2675 
z
" transform="scale(0.015625)"/>
      <path id="DejaVuSerif-3a" d="M 666 325 
Q 666 500 786 622 
Q 906 744 1081 744 
Q 1256 744 1376 622 
Q 1497 500 1497 325 
Q 1497 150 1378 29 
Q 1259 -91 1081 -91 
Q 903 -91 784 29 
Q 666 150 666 325 
z
M 666 2363 
Q 666 2538 786 2658 
Q 906 2778 1081 2778 
Q 1259 2778 1378 2659 
Q 1497 2541 1497 2363 
Q 1497 2184 1378 2065 
Q 1259 1947 1081 1947 
Q 906 1947 786 2067 
Q 666 2188 666 2363 
z
" transform="scale(0.015625)"/>
     </defs>
     <use xlink:href="#DejaVuSerif-28"/>
     <use xlink:href="#DejaVuSerif-6e" transform="translate(39.013672 0)"/>
     <use xlink:href="#DejaVuSerif-76" transform="translate(103.417969 0)"/>
     <use xlink:href="#DejaVuSerif-69" transform="translate(159.912109 0)"/>
     <use xlink:href="#DejaVuSerif-64" transform="translate(191.894531 0)"/>
     <use xlink:href="#DejaVuSerif-69" transform="translate(255.908203 0)"/>
     <use xlink:href="#DejaVuSerif-61" transform="translate(287.890625 0)"/>
     <use xlink:href="#DejaVuSerif-2d" transform="translate(347.509766 0)"/>
     <use xlink:href="#DejaVuSerif-73" transform="translate(381.298828 0)"/>
     <use xlink:href="#DejaVuSerif-6d" transform="translate(432.617188 0)"/>
     <use xlink:href="#DejaVuSerif-69" transform="translate(527.441406 0)"/>
     <use xlink:href="#DejaVuSerif-20" transform="translate(559.423828 0)"/>
     <use xlink:href="#DejaVuSerif-61" transform="translate(591.210938 0)"/>
     <use xlink:href="#DejaVuSerif-6e" transform="translate(650.830078 0)"/>
     <use xlink:href="#DejaVuSerif-64" transform="translate(715.234375 0)"/>
     <use xlink:href="#DejaVuSerif-20" transform="translate(779.248047 0)"/>
     <use xlink:href="#DejaVuSerif-44" transform="translate(811.035156 0)"/>
     <use xlink:href="#DejaVuSerif-43" transform="translate(891.210938 0)"/>
     <use xlink:href="#DejaVuSerif-47" transform="translate(967.724609 0)"/>
     <use xlink:href="#DejaVuSerif-4d" transform="translate(1047.607422 0)"/>
     <use xlink:href="#DejaVuSerif-3a" transform="translate(1150 0)"/>
     <use xlink:href="#DejaVuSerif-20" transform="translate(1183.691406 0)"/>
     <use xlink:href="#DejaVuSerif-30" transform="translate(1215.478516 0)"/>
     <use xlink:href="#DejaVuSerif-25" transform="translate(1279.101562 0)"/>
     <use xlink:href="#DejaVuSerif-20" transform="translate(1374.121094 0)"/>
     <use xlink:href="#DejaVuSerif-61" transform="translate(1405.908203 0)"/>
     <use xlink:href="#DejaVuSerif-63" transform="translate(1465.527344 0)"/>
     <use xlink:href="#DejaVuSerif-72" transform="translate(1521.533203 0)"/>
     <use xlink:href="#DejaVuSerif-6f" transform="translate(1569.335938 0)"/>
     <use xlink:href="#DejaVuSerif-73" transform="translate(1629.541016 0)"/>
     <use xlink:href="#DejaVuSerif-73" transform="translate(1680.859375 0)"/>
     <use xlink:href="#DejaVuSerif-20" transform="translate(1732.177734 0)"/>
     <use xlink:href="#DejaVuSerif-61" transform="translate(1763.964844 0)"/>
     <use xlink:href="#DejaVuSerif-6c" transform="translate(1823.583984 0)"/>
     <use xlink:href="#DejaVuSerif-6c" transform="translate(1855.566406 0)"/>
     <use xlink:href="#DejaVuSerif-20" transform="translate(1887.548828 0)"/>
     <use xlink:href="#DejaVuSerif-63" transform="translate(1919.335938 0)"/>
     <use xlink:href="#DejaVuSerif-61" transform="translate(1975.341797 0)"/>
     <use xlink:href="#DejaVuSerif-74" transform="translate(2034.960938 0)"/>
     <use xlink:href="#DejaVuSerif-65" transform="translate(2075.146484 0)"/>
     <use xlink:href="#DejaVuSerif-67" transform="translate(2134.326172 0)"/>
     <use xlink:href="#DejaVuSerif-6f" transform="translate(2198.339844 0)"/>
     <use xlink:href="#DejaVuSerif-72" transform="translate(2258.544922 0)"/>
     <use xlink:href="#DejaVuSerif-69" transform="translate(2306.347656 0)"/>
     <use xlink:href="#DejaVuSerif-65" transform="translate(2338.330078 0)"/>
     <use xlink:href="#DejaVuSerif-73" transform="translate(2397.509766 0)"/>
     <use xlink:href="#DejaVuSerif-29" transform="translate(2448.828125 0)"/>
    </g>
   </g>
   <g id="legend_1">
    <g id="patch_23">
     <path d="M 54.956875 84.591187 
L 139.468281 84.591187 
Q 141.268281 84.591187 141.268281 82.791187 
L 141.268281 43.932281 
Q 141.268281 42.132281 139.468281 42.132281 
L 54.956875 42.132281 
Q 53.156875 42.132281 53.156875 43.932281 
L 53.156875 82.791187 
Q 53.156875 84.591187 54.956875 84.591187 
z
" style="fill: #ffffff; opacity: 0.9; stroke: #cccccc; stroke-linejoin: miter"/>
    </g>
    <g id="patch_24">
     <path d="M 56.756875 52.570875 
L 74.756875 52.570875 
L 74.756875 46.270875 
L 56.756875 46.270875 
z
" style="fill: #dc2626; stroke: #ffffff; stroke-width: 0.5; stroke-linejoin: miter"/>
    </g>
    <g id="text_27">
     <!-- nvidia-smi -->
     <g transform="translate(81.956875 52.570875) scale(0.09 -0.09)">
      <use xlink:href="#DejaVuSerif-6e"/>
      <use xlink:href="#DejaVuSerif-76" transform="translate(64.404297 0)"/>
      <use xlink:href="#DejaVuSerif-69" transform="translate(120.898438 0)"/>
      <use xlink:href="#DejaVuSerif-64" transform="translate(152.880859 0)"/>
      <use xlink:href="#DejaVuSerif-69" transform="translate(216.894531 0)"/>
      <use xlink:href="#DejaVuSerif-61" transform="translate(248.876953 0)"/>
      <use xlink:href="#DejaVuSerif-2d" transform="translate(308.496094 0)"/>
      <use xlink:href="#DejaVuSerif-73" transform="translate(342.285156 0)"/>
      <use xlink:href="#DejaVuSerif-6d" transform="translate(393.603516 0)"/>
      <use xlink:href="#DejaVuSerif-69" transform="translate(488.427734 0)"/>
     </g>
    </g>
    <g id="patch_25">
     <path d="M 56.756875 65.781187 
L 74.756875 65.781187 
L 74.756875 59.481187 
L 56.756875 59.481187 
z
" style="fill: #dc2626; opacity: 0.5; stroke: #ffffff; stroke-width: 0.5; stroke-linejoin: miter"/>
    </g>
    <g id="text_28">
     <!-- DCGM -->
     <g transform="translate(81.956875 65.781187) scale(0.09 -0.09)">
      <use xlink:href="#DejaVuSerif-44"/>
      <use xlink:href="#DejaVuSerif-43" transform="translate(80.175781 0)"/>
      <use xlink:href="#DejaVuSerif-47" transform="translate(156.689453 0)"/>
      <use xlink:href="#DejaVuSerif-4d" transform="translate(236.572266 0)"/>
     </g>
    </g>
    <g id="patch_26">
     <path d="M 56.756875 78.9915 
L 74.756875 78.9915 
L 74.756875 72.6915 
L 56.756875 72.6915 
z
" style="fill: #2563eb; stroke: #ffffff; stroke-width: 0.5; stroke-linejoin: miter"/>
    </g>
    <g id="text_29">
     <!-- gpu-roofline -->
     <g transform="translate(81.956875 78.9915) scale(0.09 -0.09)">
      <defs>
       <path id="DejaVuSerif-66" d="M 2753 4078 
L 2450 4078 
Q 2447 4313 2317 4434 
Q 2188 4556 1941 4556 
Q 1619 4556 1487 4379 
Q 1356 4203 1356 3750 
L 1356 3322 
L 2284 3322 
L 2284 2988 
L 1356 2988 
L 1356 331 
L 2094 331 
L 2094 0 
L 231 0 
L 231 331 
L 781 331 
L 781 2988 
L 231 2988 
L 231 3322 
L 781 3322 
L 781 3738 
Q 781 4294 1070 4578 
Q 1359 4863 1919 4863 
Q 2128 4863 2337 4825 
Q 2547 4788 2753 4709 
L 2753 4078 
z
" transform="scale(0.015625)"/>
      </defs>
      <use xlink:href="#DejaVuSerif-67"/>
      <use xlink:href="#DejaVuSerif-70" transform="translate(64.013672 0)"/>
      <use xlink:href="#DejaVuSerif-75" transform="translate(128.027344 0)"/>
      <use xlink:href="#DejaVuSerif-2d" transform="translate(192.431641 0)"/>
      <use xlink:href="#DejaVuSerif-72" transform="translate(226.220703 0)"/>
      <use xlink:href="#DejaVuSerif-6f" transform="translate(274.023438 0)"/>
      <use xlink:href="#DejaVuSerif-6f" transform="translate(334.228516 0)"/>
      <use xlink:href="#DejaVuSerif-66" transform="translate(394.433594 0)"/>
      <use xlink:href="#DejaVuSerif-6c" transform="translate(431.445312 0)"/>
      <use xlink:href="#DejaVuSerif-69" transform="translate(463.427734 0)"/>
      <use xlink:href="#DejaVuSerif-6e" transform="translate(495.410156 0)"/>
      <use xlink:href="#DejaVuSerif-65" transform="translate(559.814453 0)"/>
     </g>
    </g>
   </g>
  </g>
 </g>
 <defs>
  <clipPath id="p83a6b2ba35">
   <rect x="48.656875" y="37.632281" width="446.4" height="249.48"/>
  </clipPath>
 </defs>
</svg>
