<?xml version="1.0" encoding="utf-8" standalone="no"?>
<!DOCTYPE svg PUBLIC "-//W3C//DTD SVG 1.1//EN"
  "http://www.w3.org/Graphics/SVG/1.1/DTD/svg11.dtd">
<svg xmlns:xlink="http://www.w3.org/1999/xlink" width="463.240156pt" height="259.579531pt" viewBox="0 0 463.240156 259.579531" xmlns="http://www.w3.org/2000/svg" version="1.1">
 <metadata>
  <rdf:RDF xmlns:dc="http://purl.org/dc/elements/1.1/" xmlns:cc="http://creativecommons.org/ns#" xmlns:rdf="http://www.w3.org/1999/02/22-rdf-syntax-ns#">
   <cc:Work>
    <dc:type rdf:resource="http://purl.org/dc/dcmitype/StillImage"/>
    <dc:date>2026-03-19T16:57:08.390326</dc:date>
    <dc:format>image/svg+xml</dc:format>
    <dc:creator>
     <cc:Agent>
      <dc:title>Matplotlib v3.10.8, https://matplotlib.org/</dc:title>
     </cc:Agent>
    </dc:creator>
   </cc:Work>
  </rdf:RDF>
 </metadata>
 <defs>
  <style type="text/css">*{stroke-linejoin: round; stroke-linecap: butt}</style>
 </defs>
 <g id="figure_1">
  <g id="patch_1">
   <path d="M 0 259.579531 
L 463.240156 259.579531 
L 463.240156 0 
L 0 0 
z
" style="fill: #ffffff"/>
  </g>
  <g id="axes_1">
   <g id="patch_2">
    <path d="M 86.140156 220.540312 
L 448.840156 220.540312 
L 448.840156 26.500313 
L 86.140156 26.500313 
z
" style="fill: #ffffff"/>
   </g>
   <g id="matplotlib.axis_1">
    <g id="xtick_1">
     <g id="line2d_1">
      <path d="M 86.140156 220.540312 
L 86.140156 26.500313 
" clip-path="url(#pa5c1e638fb)" style="fill: none; stroke: #e2e8f0; stroke-opacity: 0.2; stroke-width: 0.8; stroke-linecap: square"/>
     </g>
     <g id="line2d_2">
      <defs>
       <path id="m789f36dc7f" d="M 0 0 
L 0 3.5 
" style="stroke: #000000; stroke-width: 0.8"/>
      </defs>
      <g>
       <use xlink:href="#m789f36dc7f" x="86.140156" y="220.540312" style="stroke: #000000; stroke-width: 0.8"/>
      </g>
     </g>
     <g id="text_1">
      <!-- 0 -->
      <g transform="translate(84.390156 232.400937) scale(0.07 -0.07)">
       <defs>
        <path id="TimesNewRomanPSMT-30" d="M 231 2094 
Q 231 2819 450 3342 
Q 669 3866 1031 4122 
Q 1313 4325 1613 4325 
Q 2100 4325 2488 3828 
Q 2972 3213 2972 2159 
Q 2972 1422 2759 906 
Q 2547 391 2217 158 
Q 1888 -75 1581 -75 
Q 975 -75 572 641 
Q 231 1244 231 2094 
z
M 844 2016 
Q 844 1141 1059 588 
Q 1238 122 1591 122 
Q 1759 122 1940 273 
Q 2122 425 2216 781 
Q 2359 1319 2359 2297 
Q 2359 3022 2209 3506 
Q 2097 3866 1919 4016 
Q 1791 4119 1609 4119 
Q 1397 4119 1231 3928 
Q 1006 3669 925 3112 
Q 844 2556 844 2016 
z
" transform="scale(0.015625)"/>
       </defs>
       <use xlink:href="#TimesNewRomanPSMT-30"/>
      </g>
     </g>
    </g>
    <g id="xtick_2">
     <g id="line2d_3">
      <path d="M 155.225871 220.540312 
L 155.225871 26.500313 
" clip-path="url(#pa5c1e638fb)" style="fill: none; stroke: #e2e8f0; stroke-opacity: 0.2; stroke-width: 0.8; stroke-linecap: square"/>
     </g>
     <g id="line2d_4">
      <g>
       <use xlink:href="#m789f36dc7f" x="155.225871" y="220.540312" style="stroke: #000000; stroke-width: 0.8"/>
      </g>
     </g>
     <g id="text_2">
      <!-- 2 -->
      <g transform="translate(153.475871 232.400937) scale(0.07 -0.07)">
       <defs>
        <path id="TimesNewRomanPSMT-32" d="M 2934 816 
L 2638 0 
L 138 0 
L 138 116 
Q 1241 1122 1691 1759 
Q 2141 2397 2141 2925 
Q 2141 3328 1894 3587 
Q 1647 3847 1303 3847 
Q 991 3847 742 3664 
Q 494 3481 375 3128 
L 259 3128 
Q 338 3706 661 4015 
Q 984 4325 1469 4325 
Q 1984 4325 2329 3994 
Q 2675 3663 2675 3213 
Q 2675 2891 2525 2569 
Q 2294 2063 1775 1497 
Q 997 647 803 472 
L 1909 472 
Q 2247 472 2383 497 
Q 2519 522 2628 598 
Q 2738 675 2819 816 
L 2934 816 
z
" transform="scale(0.015625)"/>
       </defs>
       <use xlink:href="#TimesNewRomanPSMT-32"/>
      </g>
     </g>
    </g>
    <g id="xtick_3">
     <g id="line2d_5">
      <path d="M 224.311585 220.540312 
L 224.311585 26.500313 
" clip-path="url(#pa5c1e638fb)" style="fill: none; stroke: #e2e8f0; stroke-opacity: 0.2; stroke-width: 0.8; stroke-linecap: square"/>
     </g>
     <g id="line2d_6">
      <g>
       <use xlink:href="#m789f36dc7f" x="224.311585" y="220.540312" style="stroke: #000000; stroke-width: 0.8"/>
      </g>
     </g>
     <g id="text_3">
      <!-- 4 -->
      <g transform="translate(222.561585 232.400937) scale(0.07 -0.07)">
       <defs>
        <path id="TimesNewRomanPSMT-34" d="M 2978 1563 
L 2978 1119 
L 2409 1119 
L 2409 0 
L 1894 0 
L 1894 1119 
L 100 1119 
L 100 1519 
L 2066 4325 
L 2409 4325 
L 2409 1563 
L 2978 1563 
z
M 1894 1563 
L 1894 3666 
L 406 1563 
L 1894 1563 
z
" transform="scale(0.015625)"/>
       </defs>
       <use xlink:href="#TimesNewRomanPSMT-34"/>
      </g>
     </g>
    </g>
    <g id="xtick_4">
     <g id="line2d_7">
      <path d="M 293.397299 220.540312 
L 293.397299 26.500313 
" clip-path="url(#pa5c1e638fb)" style="fill: none; stroke: #e2e8f0; stroke-opacity: 0.2; stroke-width: 0.8; stroke-linecap: square"/>
     </g>
     <g id="line2d_8">
      <g>
       <use xlink:href="#m789f36dc7f" x="293.397299" y="220.540312" style="stroke: #000000; stroke-width: 0.8"/>
      </g>
     </g>
     <g id="text_4">
      <!-- 6 -->
      <g transform="translate(291.647299 232.400937) scale(0.07 -0.07)">
       <defs>
        <path id="TimesNewRomanPSMT-36" d="M 2869 4325 
L 2869 4209 
Q 2456 4169 2195 4045 
Q 1934 3922 1679 3669 
Q 1425 3416 1258 3105 
Q 1091 2794 978 2366 
Q 1428 2675 1881 2675 
Q 2316 2675 2634 2325 
Q 2953 1975 2953 1425 
Q 2953 894 2631 456 
Q 2244 -75 1606 -75 
Q 1172 -75 869 213 
Q 275 772 275 1663 
Q 275 2231 503 2743 
Q 731 3256 1154 3653 
Q 1578 4050 1965 4187 
Q 2353 4325 2688 4325 
L 2869 4325 
z
M 925 2138 
Q 869 1716 869 1456 
Q 869 1156 980 804 
Q 1091 453 1309 247 
Q 1469 100 1697 100 
Q 1969 100 2183 356 
Q 2397 613 2397 1088 
Q 2397 1622 2184 2012 
Q 1972 2403 1581 2403 
Q 1463 2403 1327 2353 
Q 1191 2303 925 2138 
z
" transform="scale(0.015625)"/>
       </defs>
       <use xlink:href="#TimesNewRomanPSMT-36"/>
      </g>
     </g>
    </g>
    <g id="xtick_5">
     <g id="line2d_9">
      <path d="M 362.483013 220.540312 
L 362.483013 26.500313 
" clip-path="url(#pa5c1e638fb)" style="fill: none; stroke: #e2e8f0; stroke-opacity: 0.2; stroke-width: 0.8; stroke-linecap: square"/>
     </g>
     <g id="line2d_10">
      <g>
       <use xlink:href="#m789f36dc7f" x="362.483013" y="220.540312" style="stroke: #000000; stroke-width: 0.8"/>
      </g>
     </g>
     <g id="text_5">
      <!-- 8 -->
      <g transform="translate(360.733013 232.400937) scale(0.07 -0.07)">
       <defs>
        <path id="TimesNewRomanPSMT-38" d="M 1228 2134 
Q 725 2547 579 2797 
Q 434 3047 434 3316 
Q 434 3728 753 4026 
Q 1072 4325 1600 4325 
Q 2113 4325 2425 4047 
Q 2738 3769 2738 3413 
Q 2738 3175 2569 2928 
Q 2400 2681 1866 2347 
Q 2416 1922 2594 1678 
Q 2831 1359 2831 1006 
Q 2831 559 2490 242 
Q 2150 -75 1597 -75 
Q 994 -75 656 303 
Q 388 606 388 966 
Q 388 1247 577 1523 
Q 766 1800 1228 2134 
z
M 1719 2469 
Q 2094 2806 2194 3001 
Q 2294 3197 2294 3444 
Q 2294 3772 2109 3958 
Q 1925 4144 1606 4144 
Q 1288 4144 1088 3959 
Q 888 3775 888 3528 
Q 888 3366 970 3203 
Q 1053 3041 1206 2894 
L 1719 2469 
z
M 1375 2016 
Q 1116 1797 991 1539 
Q 866 1281 866 981 
Q 866 578 1086 336 
Q 1306 94 1647 94 
Q 1984 94 2187 284 
Q 2391 475 2391 747 
Q 2391 972 2272 1150 
Q 2050 1481 1375 2016 
z
" transform="scale(0.015625)"/>
       </defs>
       <use xlink:href="#TimesNewRomanPSMT-38"/>
      </g>
     </g>
    </g>
    <g id="xtick_6">
     <g id="line2d_11">
      <path d="M 431.568728 220.540312 
L 431.568728 26.500313 
" clip-path="url(#pa5c1e638fb)" style="fill: none; stroke: #e2e8f0; stroke-opacity: 0.2; stroke-width: 0.8; stroke-linecap: square"/>
     </g>
     <g id="line2d_12">
      <g>
       <use xlink:href="#m789f36dc7f" x="431.568728" y="220.540312" style="stroke: #000000; stroke-width: 0.8"/>
      </g>
     </g>
     <g id="text_6">
      <!-- 10 -->
      <g transform="translate(428.068728 232.400937) scale(0.07 -0.07)">
       <defs>
        <path id="TimesNewRomanPSMT-31" d="M 750 3822 
L 1781 4325 
L 1884 4325 
L 1884 747 
Q 1884 391 1914 303 
Q 1944 216 2037 169 
Q 2131 122 2419 116 
L 2419 0 
L 825 0 
L 825 116 
Q 1125 122 1212 167 
Q 1300 213 1334 289 
Q 1369 366 1369 747 
L 1369 3034 
Q 1369 3497 1338 3628 
Q 1316 3728 1258 3775 
Q 1200 3822 1119 3822 
Q 1003 3822 797 3725 
L 750 3822 
z
" transform="scale(0.015625)"/>
       </defs>
       <use xlink:href="#TimesNewRomanPSMT-31"/>
       <use xlink:href="#TimesNewRomanPSMT-30" transform="translate(50 0)"/>
      </g>
     </g>
    </g>
    <g id="text_7">
     <!-- Standardized Effect Size (Cohen's d or d_z) -->
     <g transform="translate(197.530156 243.453281) scale(0.08 -0.08)">
      <defs>
       <path id="TimesNewRomanPSMT-53" d="M 2934 4334 
L 2934 2869 
L 2819 2869 
Q 2763 3291 2617 3541 
Q 2472 3791 2203 3937 
Q 1934 4084 1647 4084 
Q 1322 4084 1109 3886 
Q 897 3688 897 3434 
Q 897 3241 1031 3081 
Q 1225 2847 1953 2456 
Q 2547 2138 2764 1967 
Q 2981 1797 3098 1565 
Q 3216 1334 3216 1081 
Q 3216 600 2842 251 
Q 2469 -97 1881 -97 
Q 1697 -97 1534 -69 
Q 1438 -53 1133 45 
Q 828 144 747 144 
Q 669 144 623 97 
Q 578 50 556 -97 
L 441 -97 
L 441 1356 
L 556 1356 
Q 638 900 775 673 
Q 913 447 1195 297 
Q 1478 147 1816 147 
Q 2206 147 2432 353 
Q 2659 559 2659 841 
Q 2659 997 2573 1156 
Q 2488 1316 2306 1453 
Q 2184 1547 1640 1851 
Q 1097 2156 867 2337 
Q 638 2519 519 2737 
Q 400 2956 400 3219 
Q 400 3675 750 4004 
Q 1100 4334 1641 4334 
Q 1978 4334 2356 4169 
Q 2531 4091 2603 4091 
Q 2684 4091 2736 4139 
Q 2788 4188 2819 4334 
L 2934 4334 
z
" transform="scale(0.015625)"/>
       <path id="TimesNewRomanPSMT-74" d="M 1031 3803 
L 1031 2863 
L 1700 2863 
L 1700 2644 
L 1031 2644 
L 1031 788 
Q 1031 509 1111 412 
Q 1191 316 1316 316 
Q 1419 316 1516 380 
Q 1613 444 1666 569 
L 1788 569 
Q 1678 263 1478 108 
Q 1278 -47 1066 -47 
Q 922 -47 784 33 
Q 647 113 581 261 
Q 516 409 516 719 
L 516 2644 
L 63 2644 
L 63 2747 
Q 234 2816 414 2980 
Q 594 3144 734 3369 
Q 806 3488 934 3803 
L 1031 3803 
z
" transform="scale(0.015625)"/>
       <path id="TimesNewRomanPSMT-61" d="M 1822 413 
Q 1381 72 1269 19 
Q 1100 -59 909 -59 
Q 613 -59 420 144 
Q 228 347 228 678 
Q 228 888 322 1041 
Q 450 1253 767 1440 
Q 1084 1628 1822 1897 
L 1822 2009 
Q 1822 2438 1686 2597 
Q 1550 2756 1291 2756 
Q 1094 2756 978 2650 
Q 859 2544 859 2406 
L 866 2225 
Q 866 2081 792 2003 
Q 719 1925 600 1925 
Q 484 1925 411 2006 
Q 338 2088 338 2228 
Q 338 2497 613 2722 
Q 888 2947 1384 2947 
Q 1766 2947 2009 2819 
Q 2194 2722 2281 2516 
Q 2338 2381 2338 1966 
L 2338 994 
Q 2338 584 2353 492 
Q 2369 400 2405 369 
Q 2441 338 2488 338 
Q 2538 338 2575 359 
Q 2641 400 2828 588 
L 2828 413 
Q 2478 -56 2159 -56 
Q 2006 -56 1915 50 
Q 1825 156 1822 413 
z
M 1822 616 
L 1822 1706 
Q 1350 1519 1213 1441 
Q 966 1303 859 1153 
Q 753 1003 753 825 
Q 753 600 887 451 
Q 1022 303 1197 303 
Q 1434 303 1822 616 
z
" transform="scale(0.015625)"/>
       <path id="TimesNewRomanPSMT-6e" d="M 1034 2341 
Q 1538 2947 1994 2947 
Q 2228 2947 2397 2830 
Q 2566 2713 2666 2444 
Q 2734 2256 2734 1869 
L 2734 647 
Q 2734 375 2778 278 
Q 2813 200 2889 156 
Q 2966 113 3172 113 
L 3172 0 
L 1756 0 
L 1756 113 
L 1816 113 
Q 2016 113 2095 173 
Q 2175 234 2206 353 
Q 2219 400 2219 647 
L 2219 1819 
Q 2219 2209 2117 2386 
Q 2016 2563 1775 2563 
Q 1403 2563 1034 2156 
L 1034 647 
Q 1034 356 1069 288 
Q 1113 197 1189 155 
Q 1266 113 1500 113 
L 1500 0 
L 84 0 
L 84 113 
L 147 113 
Q 366 113 442 223 
Q 519 334 519 647 
L 519 1709 
Q 519 2225 495 2337 
Q 472 2450 423 2490 
Q 375 2531 294 2531 
Q 206 2531 84 2484 
L 38 2597 
L 900 2947 
L 1034 2947 
L 1034 2341 
z
" transform="scale(0.015625)"/>
       <path id="TimesNewRomanPSMT-64" d="M 2222 322 
Q 2013 103 1813 7 
Q 1613 -88 1381 -88 
Q 913 -88 563 304 
Q 213 697 213 1313 
Q 213 1928 600 2439 
Q 988 2950 1597 2950 
Q 1975 2950 2222 2709 
L 2222 3238 
Q 2222 3728 2198 3840 
Q 2175 3953 2125 3993 
Q 2075 4034 2000 4034 
Q 1919 4034 1784 3984 
L 1744 4094 
L 2597 4444 
L 2738 4444 
L 2738 1134 
Q 2738 631 2761 520 
Q 2784 409 2836 365 
Q 2888 322 2956 322 
Q 3041 322 3181 375 
L 3216 266 
L 2366 -88 
L 2222 -88 
L 2222 322 
z
M 2222 541 
L 2222 2016 
Q 2203 2228 2109 2403 
Q 2016 2578 1861 2667 
Q 1706 2756 1559 2756 
Q 1284 2756 1069 2509 
Q 784 2184 784 1559 
Q 784 928 1059 592 
Q 1334 256 1672 256 
Q 1956 256 2222 541 
z
" transform="scale(0.015625)"/>
       <path id="TimesNewRomanPSMT-72" d="M 1038 2947 
L 1038 2303 
Q 1397 2947 1775 2947 
Q 1947 2947 2059 2842 
Q 2172 2738 2172 2600 
Q 2172 2478 2090 2393 
Q 2009 2309 1897 2309 
Q 1788 2309 1652 2417 
Q 1516 2525 1450 2525 
Q 1394 2525 1328 2463 
Q 1188 2334 1038 2041 
L 1038 669 
Q 1038 431 1097 309 
Q 1138 225 1241 169 
Q 1344 113 1538 113 
L 1538 0 
L 72 0 
L 72 113 
Q 291 113 397 181 
Q 475 231 506 341 
Q 522 394 522 644 
L 522 1753 
Q 522 2253 501 2348 
Q 481 2444 426 2487 
Q 372 2531 291 2531 
Q 194 2531 72 2484 
L 41 2597 
L 906 2947 
L 1038 2947 
z
" transform="scale(0.015625)"/>
       <path id="TimesNewRomanPSMT-69" d="M 928 4444 
Q 1059 4444 1151 4351 
Q 1244 4259 1244 4128 
Q 1244 3997 1151 3903 
Q 1059 3809 928 3809 
Q 797 3809 703 3903 
Q 609 3997 609 4128 
Q 609 4259 701 4351 
Q 794 4444 928 4444 
z
M 1188 2947 
L 1188 647 
Q 1188 378 1227 289 
Q 1266 200 1342 156 
Q 1419 113 1622 113 
L 1622 0 
L 231 0 
L 231 113 
Q 441 113 512 153 
Q 584 194 626 287 
Q 669 381 669 647 
L 669 1750 
Q 669 2216 641 2353 
Q 619 2453 572 2492 
Q 525 2531 444 2531 
Q 356 2531 231 2484 
L 188 2597 
L 1050 2947 
L 1188 2947 
z
" transform="scale(0.015625)"/>
       <path id="TimesNewRomanPSMT-7a" d="M 2688 878 
L 2653 0 
L 128 0 
L 128 113 
L 2028 2644 
L 1091 2644 
Q 788 2644 694 2605 
Q 600 2566 541 2456 
Q 456 2300 444 2069 
L 319 2069 
L 338 2863 
L 2738 2863 
L 2738 2747 
L 819 209 
L 1863 209 
Q 2191 209 2308 264 
Q 2425 319 2497 456 
Q 2547 556 2581 878 
L 2688 878 
z
" transform="scale(0.015625)"/>
       <path id="TimesNewRomanPSMT-65" d="M 681 1784 
Q 678 1147 991 784 
Q 1303 422 1725 422 
Q 2006 422 2214 576 
Q 2422 731 2563 1106 
L 2659 1044 
Q 2594 616 2278 264 
Q 1963 -88 1488 -88 
Q 972 -88 605 314 
Q 238 716 238 1394 
Q 238 2128 614 2539 
Q 991 2950 1559 2950 
Q 2041 2950 2350 2633 
Q 2659 2316 2659 1784 
L 681 1784 
z
M 681 1966 
L 2006 1966 
Q 1991 2241 1941 2353 
Q 1863 2528 1708 2628 
Q 1553 2728 1384 2728 
Q 1125 2728 920 2526 
Q 716 2325 681 1966 
z
" transform="scale(0.015625)"/>
       <path id="TimesNewRomanPSMT-20" transform="scale(0.015625)"/>
       <path id="TimesNewRomanPSMT-45" d="M 1338 4006 
L 1338 2331 
L 2269 2331 
Q 2631 2331 2753 2441 
Q 2916 2584 2934 2947 
L 3050 2947 
L 3050 1472 
L 2934 1472 
Q 2891 1781 2847 1869 
Q 2791 1978 2662 2040 
Q 2534 2103 2269 2103 
L 1338 2103 
L 1338 706 
Q 1338 425 1363 364 
Q 1388 303 1450 267 
Q 1513 231 1688 231 
L 2406 231 
Q 2766 231 2928 281 
Q 3091 331 3241 478 
Q 3434 672 3638 1063 
L 3763 1063 
L 3397 0 
L 131 0 
L 131 116 
L 281 116 
Q 431 116 566 188 
Q 666 238 702 338 
Q 738 438 738 747 
L 738 3500 
Q 738 3903 656 3997 
Q 544 4122 281 4122 
L 131 4122 
L 131 4238 
L 3397 4238 
L 3444 3309 
L 3322 3309 
Q 3256 3644 3176 3769 
Q 3097 3894 2941 3959 
Q 2816 4006 2500 4006 
L 1338 4006 
z
" transform="scale(0.015625)"/>
       <path id="TimesNewRomanPSMT-66" d="M 1319 2638 
L 1319 756 
Q 1319 356 1406 250 
Q 1522 113 1716 113 
L 1975 113 
L 1975 0 
L 266 0 
L 266 113 
L 394 113 
Q 519 113 622 175 
Q 725 238 764 344 
Q 803 450 803 756 
L 803 2638 
L 247 2638 
L 247 2863 
L 803 2863 
L 803 3050 
Q 803 3478 940 3775 
Q 1078 4072 1361 4255 
Q 1644 4438 1997 4438 
Q 2325 4438 2600 4225 
Q 2781 4084 2781 3909 
Q 2781 3816 2700 3733 
Q 2619 3650 2525 3650 
Q 2453 3650 2373 3701 
Q 2294 3753 2178 3923 
Q 2063 4094 1966 4153 
Q 1869 4213 1750 4213 
Q 1606 4213 1506 4136 
Q 1406 4059 1362 3898 
Q 1319 3738 1319 3069 
L 1319 2863 
L 2056 2863 
L 2056 2638 
L 1319 2638 
z
" transform="scale(0.015625)"/>
       <path id="TimesNewRomanPSMT-63" d="M 2631 1088 
Q 2516 522 2178 217 
Q 1841 -88 1431 -88 
Q 944 -88 581 321 
Q 219 731 219 1428 
Q 219 2103 620 2525 
Q 1022 2947 1584 2947 
Q 2006 2947 2278 2723 
Q 2550 2500 2550 2259 
Q 2550 2141 2473 2067 
Q 2397 1994 2259 1994 
Q 2075 1994 1981 2113 
Q 1928 2178 1911 2362 
Q 1894 2547 1784 2644 
Q 1675 2738 1481 2738 
Q 1169 2738 978 2506 
Q 725 2200 725 1697 
Q 725 1184 976 792 
Q 1228 400 1656 400 
Q 1963 400 2206 609 
Q 2378 753 2541 1131 
L 2631 1088 
z
" transform="scale(0.015625)"/>
       <path id="TimesNewRomanPSMT-28" d="M 1988 -1253 
L 1988 -1369 
Q 1516 -1131 1200 -813 
Q 750 -359 506 256 
Q 263 872 263 1534 
Q 263 2503 741 3301 
Q 1219 4100 1988 4444 
L 1988 4313 
Q 1603 4100 1356 3731 
Q 1109 3363 987 2797 
Q 866 2231 866 1616 
Q 866 947 969 400 
Q 1050 -31 1165 -292 
Q 1281 -553 1476 -793 
Q 1672 -1034 1988 -1253 
z
" transform="scale(0.015625)"/>
       <path id="TimesNewRomanPSMT-43" d="M 3853 4334 
L 3950 2894 
L 3853 2894 
Q 3659 3541 3300 3825 
Q 2941 4109 2438 4109 
Q 2016 4109 1675 3895 
Q 1334 3681 1139 3212 
Q 944 2744 944 2047 
Q 944 1472 1128 1050 
Q 1313 628 1683 403 
Q 2053 178 2528 178 
Q 2941 178 3256 354 
Q 3572 531 3950 1056 
L 4047 994 
Q 3728 428 3303 165 
Q 2878 -97 2294 -97 
Q 1241 -97 663 684 
Q 231 1266 231 2053 
Q 231 2688 515 3219 
Q 800 3750 1298 4042 
Q 1797 4334 2388 4334 
Q 2847 4334 3294 4109 
Q 3425 4041 3481 4041 
Q 3566 4041 3628 4100 
Q 3709 4184 3744 4334 
L 3853 4334 
z
" transform="scale(0.015625)"/>
       <path id="TimesNewRomanPSMT-6f" d="M 1600 2947 
Q 2250 2947 2644 2453 
Q 2978 2031 2978 1484 
Q 2978 1100 2793 706 
Q 2609 313 2286 112 
Q 1963 -88 1566 -88 
Q 919 -88 538 428 
Q 216 863 216 1403 
Q 216 1797 411 2186 
Q 606 2575 925 2761 
Q 1244 2947 1600 2947 
z
M 1503 2744 
Q 1338 2744 1170 2645 
Q 1003 2547 900 2300 
Q 797 2053 797 1666 
Q 797 1041 1045 587 
Q 1294 134 1700 134 
Q 2003 134 2200 384 
Q 2397 634 2397 1244 
Q 2397 2006 2069 2444 
Q 1847 2744 1503 2744 
z
" transform="scale(0.015625)"/>
       <path id="TimesNewRomanPSMT-68" d="M 1041 4444 
L 1041 2350 
Q 1388 2731 1591 2839 
Q 1794 2947 1997 2947 
Q 2241 2947 2416 2812 
Q 2591 2678 2675 2391 
Q 2734 2191 2734 1659 
L 2734 647 
Q 2734 375 2778 275 
Q 2809 200 2884 156 
Q 2959 113 3159 113 
L 3159 0 
L 1753 0 
L 1753 113 
L 1819 113 
Q 2019 113 2097 173 
Q 2175 234 2206 353 
Q 2216 403 2216 647 
L 2216 1659 
Q 2216 2128 2167 2275 
Q 2119 2422 2012 2495 
Q 1906 2569 1756 2569 
Q 1603 2569 1437 2487 
Q 1272 2406 1041 2159 
L 1041 647 
Q 1041 353 1073 281 
Q 1106 209 1195 161 
Q 1284 113 1503 113 
L 1503 0 
L 84 0 
L 84 113 
Q 275 113 384 172 
Q 447 203 484 290 
Q 522 378 522 647 
L 522 3238 
Q 522 3728 498 3840 
Q 475 3953 426 3993 
Q 378 4034 297 4034 
Q 231 4034 84 3984 
L 41 4094 
L 897 4444 
L 1041 4444 
z
" transform="scale(0.015625)"/>
       <path id="TimesNewRomanPSMT-27" d="M 494 2509 
L 325 3434 
Q 253 3819 253 3953 
Q 253 4153 334 4243 
Q 416 4334 556 4334 
Q 697 4334 789 4242 
Q 881 4150 881 4000 
Q 881 3884 800 3431 
L 631 2509 
L 494 2509 
z
" transform="scale(0.015625)"/>
       <path id="TimesNewRomanPSMT-73" d="M 2050 2947 
L 2050 1972 
L 1947 1972 
Q 1828 2431 1642 2597 
Q 1456 2763 1169 2763 
Q 950 2763 815 2647 
Q 681 2531 681 2391 
Q 681 2216 781 2091 
Q 878 1963 1175 1819 
L 1631 1597 
Q 2266 1288 2266 781 
Q 2266 391 1970 151 
Q 1675 -88 1309 -88 
Q 1047 -88 709 6 
Q 606 38 541 38 
Q 469 38 428 -44 
L 325 -44 
L 325 978 
L 428 978 
Q 516 541 762 319 
Q 1009 97 1316 97 
Q 1531 97 1667 223 
Q 1803 350 1803 528 
Q 1803 744 1651 891 
Q 1500 1038 1047 1263 
Q 594 1488 453 1669 
Q 313 1847 313 2119 
Q 313 2472 555 2709 
Q 797 2947 1181 2947 
Q 1350 2947 1591 2875 
Q 1750 2828 1803 2828 
Q 1853 2828 1881 2850 
Q 1909 2872 1947 2947 
L 2050 2947 
z
" transform="scale(0.015625)"/>
       <path id="TimesNewRomanPSMT-5f" d="M 3256 -1381 
L -53 -1381 
L -53 -1119 
L 3256 -1119 
L 3256 -1381 
z
" transform="scale(0.015625)"/>
       <path id="TimesNewRomanPSMT-29" d="M 144 4313 
L 144 4444 
Q 619 4209 934 3891 
Q 1381 3434 1625 2820 
Q 1869 2206 1869 1541 
Q 1869 572 1392 -226 
Q 916 -1025 144 -1369 
L 144 -1253 
Q 528 -1038 776 -670 
Q 1025 -303 1145 264 
Q 1266 831 1266 1447 
Q 1266 2113 1163 2663 
Q 1084 3094 967 3353 
Q 850 3613 656 3853 
Q 463 4094 144 4313 
z
" transform="scale(0.015625)"/>
      </defs>
      <use xlink:href="#TimesNewRomanPSMT-53"/>
      <use xlink:href="#TimesNewRomanPSMT-74" transform="translate(55.615234 0)"/>
      <use xlink:href="#TimesNewRomanPSMT-61" transform="translate(83.398438 0)"/>
      <use xlink:href="#TimesNewRomanPSMT-6e" transform="translate(127.783203 0)"/>
      <use xlink:href="#TimesNewRomanPSMT-64" transform="translate(177.783203 0)"/>
      <use xlink:href="#TimesNewRomanPSMT-61" transform="translate(227.783203 0)"/>
      <use xlink:href="#TimesNewRomanPSMT-72" transform="translate(272.167969 0)"/>
      <use xlink:href="#TimesNewRomanPSMT-64" transform="translate(305.46875 0)"/>
      <use xlink:href="#TimesNewRomanPSMT-69" transform="translate(355.46875 0)"/>
      <use xlink:href="#TimesNewRomanPSMT-7a" transform="translate(383.251953 0)"/>
      <use xlink:href="#TimesNewRomanPSMT-65" transform="translate(427.636719 0)"/>
      <use xlink:href="#TimesNewRomanPSMT-64" transform="translate(472.021484 0)"/>
      <use xlink:href="#TimesNewRomanPSMT-20" transform="translate(522.021484 0)"/>
      <use xlink:href="#TimesNewRomanPSMT-45" transform="translate(547.021484 0)"/>
      <use xlink:href="#TimesNewRomanPSMT-66" transform="translate(608.105469 0)"/>
      <use xlink:href="#TimesNewRomanPSMT-66" transform="translate(639.65625 0)"/>
      <use xlink:href="#TimesNewRomanPSMT-65" transform="translate(672.957031 0)"/>
      <use xlink:href="#TimesNewRomanPSMT-63" transform="translate(717.341797 0)"/>
      <use xlink:href="#TimesNewRomanPSMT-74" transform="translate(761.726562 0)"/>
      <use xlink:href="#TimesNewRomanPSMT-20" transform="translate(789.509766 0)"/>
      <use xlink:href="#TimesNewRomanPSMT-53" transform="translate(814.509766 0)"/>
      <use xlink:href="#TimesNewRomanPSMT-69" transform="translate(870.125 0)"/>
      <use xlink:href="#TimesNewRomanPSMT-7a" transform="translate(897.908203 0)"/>
      <use xlink:href="#TimesNewRomanPSMT-65" transform="translate(942.292969 0)"/>
      <use xlink:href="#TimesNewRomanPSMT-20" transform="translate(986.677734 0)"/>
      <use xlink:href="#TimesNewRomanPSMT-28" transform="translate(1011.677734 0)"/>
      <use xlink:href="#TimesNewRomanPSMT-43" transform="translate(1044.978516 0)"/>
      <use xlink:href="#TimesNewRomanPSMT-6f" transform="translate(1111.677734 0)"/>
      <use xlink:href="#TimesNewRomanPSMT-68" transform="translate(1161.677734 0)"/>
      <use xlink:href="#TimesNewRomanPSMT-65" transform="translate(1211.677734 0)"/>
      <use xlink:href="#TimesNewRomanPSMT-6e" transform="translate(1256.0625 0)"/>
      <use xlink:href="#TimesNewRomanPSMT-27" transform="translate(1306.0625 0)"/>
      <use xlink:href="#TimesNewRomanPSMT-73" transform="translate(1324.080078 0)"/>
      <use xlink:href="#TimesNewRomanPSMT-20" transform="translate(1362.996094 0)"/>
      <use xlink:href="#TimesNewRomanPSMT-64" transform="translate(1387.996094 0)"/>
      <use xlink:href="#TimesNewRomanPSMT-20" transform="translate(1437.996094 0)"/>
      <use xlink:href="#TimesNewRomanPSMT-6f" transform="translate(1462.996094 0)"/>
      <use xlink:href="#TimesNewRomanPSMT-72" transform="translate(1512.996094 0)"/>
      <use xlink:href="#TimesNewRomanPSMT-20" transform="translate(1546.296875 0)"/>
      <use xlink:href="#TimesNewRomanPSMT-64" transform="translate(1571.296875 0)"/>
      <use xlink:href="#TimesNewRomanPSMT-5f" transform="translate(1621.296875 0)"/>
      <use xlink:href="#TimesNewRomanPSMT-7a" transform="translate(1671.296875 0)"/>
      <use xlink:href="#TimesNewRomanPSMT-29" transform="translate(1715.681641 0)"/>
     </g>
    </g>
   </g>
   <g id="matplotlib.axis_2">
    <g id="ytick_1">
     <g id="line2d_13">
      <defs>
       <path id="m8bf6b89ca0" d="M 0 0 
L -3.5 0 
" style="stroke: #000000; stroke-width: 0.8"/>
      </defs>
      <g>
       <use xlink:href="#m8bf6b89ca0" x="86.140156" y="43.338494" style="stroke: #000000; stroke-width: 0.8"/>
      </g>
     </g>
     <g id="text_8">
      <!-- Ghost Allocations -->
      <g transform="translate(28.777344 45.768807) scale(0.07 -0.07)">
       <defs>
        <path id="TimesNewRomanPSMT-47" d="M 3928 4334 
L 4038 2997 
L 3928 2997 
Q 3763 3497 3500 3750 
Q 3122 4116 2528 4116 
Q 1719 4116 1297 3475 
Q 944 2934 944 2188 
Q 944 1581 1178 1081 
Q 1413 581 1792 348 
Q 2172 116 2572 116 
Q 2806 116 3025 175 
Q 3244 234 3447 350 
L 3447 1575 
Q 3447 1894 3398 1992 
Q 3350 2091 3248 2142 
Q 3147 2194 2891 2194 
L 2891 2313 
L 4531 2313 
L 4531 2194 
L 4453 2194 
Q 4209 2194 4119 2031 
Q 4056 1916 4056 1575 
L 4056 278 
Q 3697 84 3347 -6 
Q 2997 -97 2569 -97 
Q 1341 -97 703 691 
Q 225 1281 225 2053 
Q 225 2613 494 3125 
Q 813 3734 1369 4063 
Q 1834 4334 2469 4334 
Q 2700 4334 2889 4296 
Q 3078 4259 3425 4131 
Q 3600 4066 3659 4066 
Q 3719 4066 3761 4120 
Q 3803 4175 3813 4334 
L 3928 4334 
z
" transform="scale(0.015625)"/>
        <path id="TimesNewRomanPSMT-41" d="M 2928 1419 
L 1288 1419 
L 1000 750 
Q 894 503 894 381 
Q 894 284 986 211 
Q 1078 138 1384 116 
L 1384 0 
L 50 0 
L 50 116 
Q 316 163 394 238 
Q 553 388 747 847 
L 2238 4334 
L 2347 4334 
L 3822 809 
Q 4000 384 4145 257 
Q 4291 131 4550 116 
L 4550 0 
L 2878 0 
L 2878 116 
Q 3131 128 3220 200 
Q 3309 272 3309 375 
Q 3309 513 3184 809 
L 2928 1419 
z
M 2841 1650 
L 2122 3363 
L 1384 1650 
L 2841 1650 
z
" transform="scale(0.015625)"/>
        <path id="TimesNewRomanPSMT-6c" d="M 1184 4444 
L 1184 647 
Q 1184 378 1223 290 
Q 1263 203 1344 158 
Q 1425 113 1647 113 
L 1647 0 
L 244 0 
L 244 113 
Q 441 113 512 153 
Q 584 194 625 287 
Q 666 381 666 647 
L 666 3247 
Q 666 3731 644 3842 
Q 622 3953 573 3993 
Q 525 4034 450 4034 
Q 369 4034 244 3984 
L 191 4094 
L 1044 4444 
L 1184 4444 
z
" transform="scale(0.015625)"/>
       </defs>
       <use xlink:href="#TimesNewRomanPSMT-47"/>
       <use xlink:href="#TimesNewRomanPSMT-68" transform="translate(72.216797 0)"/>
       <use xlink:href="#TimesNewRomanPSMT-6f" transform="translate(122.216797 0)"/>
       <use xlink:href="#TimesNewRomanPSMT-73" transform="translate(172.216797 0)"/>
       <use xlink:href="#TimesNewRomanPSMT-74" transform="translate(211.132812 0)"/>
       <use xlink:href="#TimesNewRomanPSMT-20" transform="translate(238.916016 0)"/>
       <use xlink:href="#TimesNewRomanPSMT-41" transform="translate(258.416016 0)"/>
       <use xlink:href="#TimesNewRomanPSMT-6c" transform="translate(330.632812 0)"/>
       <use xlink:href="#TimesNewRomanPSMT-6c" transform="translate(358.416016 0)"/>
       <use xlink:href="#TimesNewRomanPSMT-6f" transform="translate(386.199219 0)"/>
       <use xlink:href="#TimesNewRomanPSMT-63" transform="translate(436.199219 0)"/>
       <use xlink:href="#TimesNewRomanPSMT-61" transform="translate(480.583984 0)"/>
       <use xlink:href="#TimesNewRomanPSMT-74" transform="translate(524.96875 0)"/>
       <use xlink:href="#TimesNewRomanPSMT-69" transform="translate(552.751953 0)"/>
       <use xlink:href="#TimesNewRomanPSMT-6f" transform="translate(580.535156 0)"/>
       <use xlink:href="#TimesNewRomanPSMT-6e" transform="translate(630.535156 0)"/>
       <use xlink:href="#TimesNewRomanPSMT-73" transform="translate(680.535156 0)"/>
      </g>
     </g>
    </g>
    <g id="ytick_2">
     <g id="line2d_14">
      <g>
       <use xlink:href="#m8bf6b89ca0" x="86.140156" y="75.411222" style="stroke: #000000; stroke-width: 0.8"/>
      </g>
     </g>
     <g id="text_9">
      <!-- Contention Squeeze -->
      <g transform="translate(22.9575 77.841534) scale(0.07 -0.07)">
       <defs>
        <path id="TimesNewRomanPSMT-71" d="M 2734 2947 
L 2734 -734 
Q 2734 -1009 2771 -1087 
Q 2809 -1166 2889 -1209 
Q 2969 -1253 3200 -1253 
L 3200 -1369 
L 1756 -1369 
L 1756 -1253 
L 1816 -1253 
Q 1991 -1253 2081 -1203 
Q 2144 -1169 2181 -1080 
Q 2219 -991 2219 -734 
L 2219 497 
Q 1934 159 1721 35 
Q 1509 -88 1281 -88 
Q 866 -88 539 290 
Q 213 669 213 1303 
Q 213 2031 644 2489 
Q 1075 2947 1684 2947 
Q 1863 2947 2013 2897 
Q 2163 2847 2281 2747 
Q 2463 2834 2628 2947 
L 2734 2947 
z
M 2219 694 
L 2219 2038 
Q 2219 2272 2158 2406 
Q 2097 2541 1940 2634 
Q 1784 2728 1588 2728 
Q 1238 2728 988 2431 
Q 738 2134 738 1531 
Q 738 953 992 653 
Q 1247 353 1606 353 
Q 1791 353 1934 433 
Q 2078 513 2219 694 
z
" transform="scale(0.015625)"/>
        <path id="TimesNewRomanPSMT-75" d="M 2709 2863 
L 2709 1128 
Q 2709 631 2732 520 
Q 2756 409 2807 365 
Q 2859 322 2928 322 
Q 3025 322 3147 375 
L 3191 266 
L 2334 -88 
L 2194 -88 
L 2194 519 
Q 1825 119 1631 15 
Q 1438 -88 1222 -88 
Q 981 -88 804 51 
Q 628 191 559 409 
Q 491 628 491 1028 
L 491 2306 
Q 491 2509 447 2587 
Q 403 2666 317 2708 
Q 231 2750 6 2747 
L 6 2863 
L 1009 2863 
L 1009 947 
Q 1009 547 1148 422 
Q 1288 297 1484 297 
Q 1619 297 1789 381 
Q 1959 466 2194 703 
L 2194 2325 
Q 2194 2569 2105 2655 
Q 2016 2741 1734 2747 
L 1734 2863 
L 2709 2863 
z
" transform="scale(0.015625)"/>
       </defs>
       <use xlink:href="#TimesNewRomanPSMT-43"/>
       <use xlink:href="#TimesNewRomanPSMT-6f" transform="translate(66.699219 0)"/>
       <use xlink:href="#TimesNewRomanPSMT-6e" transform="translate(116.699219 0)"/>
       <use xlink:href="#TimesNewRomanPSMT-74" transform="translate(166.699219 0)"/>
       <use xlink:href="#TimesNewRomanPSMT-65" transform="translate(194.482422 0)"/>
       <use xlink:href="#TimesNewRomanPSMT-6e" transform="translate(238.867188 0)"/>
       <use xlink:href="#TimesNewRomanPSMT-74" transform="translate(288.867188 0)"/>
       <use xlink:href="#TimesNewRomanPSMT-69" transform="translate(316.650391 0)"/>
       <use xlink:href="#TimesNewRomanPSMT-6f" transform="translate(344.433594 0)"/>
       <use xlink:href="#TimesNewRomanPSMT-6e" transform="translate(394.433594 0)"/>
       <use xlink:href="#TimesNewRomanPSMT-20" transform="translate(444.433594 0)"/>
       <use xlink:href="#TimesNewRomanPSMT-53" transform="translate(469.433594 0)"/>
       <use xlink:href="#TimesNewRomanPSMT-71" transform="translate(525.048828 0)"/>
       <use xlink:href="#TimesNewRomanPSMT-75" transform="translate(575.048828 0)"/>
       <use xlink:href="#TimesNewRomanPSMT-65" transform="translate(625.048828 0)"/>
       <use xlink:href="#TimesNewRomanPSMT-65" transform="translate(669.433594 0)"/>
       <use xlink:href="#TimesNewRomanPSMT-7a" transform="translate(713.818359 0)"/>
       <use xlink:href="#TimesNewRomanPSMT-65" transform="translate(758.203125 0)"/>
      </g>
     </g>
    </g>
    <g id="ytick_3">
     <g id="line2d_15">
      <g>
       <use xlink:href="#m8bf6b89ca0" x="86.140156" y="107.483949" style="stroke: #000000; stroke-width: 0.8"/>
      </g>
     </g>
     <g id="text_10">
      <!-- Provisioning Overhead -->
      <g transform="translate(14.4 109.914261) scale(0.07 -0.07)">
       <defs>
        <path id="TimesNewRomanPSMT-50" d="M 1313 1984 
L 1313 750 
Q 1313 350 1400 253 
Q 1519 116 1759 116 
L 1922 116 
L 1922 0 
L 106 0 
L 106 116 
L 266 116 
Q 534 116 650 291 
Q 713 388 713 750 
L 713 3488 
Q 713 3888 628 3984 
Q 506 4122 266 4122 
L 106 4122 
L 106 4238 
L 1659 4238 
Q 2228 4238 2556 4120 
Q 2884 4003 3109 3725 
Q 3334 3447 3334 3066 
Q 3334 2547 2992 2222 
Q 2650 1897 2025 1897 
Q 1872 1897 1694 1919 
Q 1516 1941 1313 1984 
z
M 1313 2163 
Q 1478 2131 1606 2115 
Q 1734 2100 1825 2100 
Q 2150 2100 2386 2351 
Q 2622 2603 2622 3003 
Q 2622 3278 2509 3514 
Q 2397 3750 2190 3867 
Q 1984 3984 1722 3984 
Q 1563 3984 1313 3925 
L 1313 2163 
z
" transform="scale(0.015625)"/>
        <path id="TimesNewRomanPSMT-76" d="M 53 2863 
L 1400 2863 
L 1400 2747 
L 1313 2747 
Q 1191 2747 1127 2687 
Q 1063 2628 1063 2528 
Q 1063 2419 1128 2269 
L 1794 688 
L 2463 2328 
Q 2534 2503 2534 2594 
Q 2534 2638 2509 2666 
Q 2475 2713 2422 2730 
Q 2369 2747 2206 2747 
L 2206 2863 
L 3141 2863 
L 3141 2747 
Q 2978 2734 2916 2681 
Q 2806 2588 2719 2369 
L 1703 -88 
L 1575 -88 
L 553 2328 
Q 484 2497 421 2570 
Q 359 2644 263 2694 
Q 209 2722 53 2747 
L 53 2863 
z
" transform="scale(0.015625)"/>
        <path id="TimesNewRomanPSMT-67" d="M 966 1044 
Q 703 1172 562 1401 
Q 422 1631 422 1909 
Q 422 2334 742 2640 
Q 1063 2947 1563 2947 
Q 1972 2947 2272 2747 
L 2878 2747 
Q 3013 2747 3034 2739 
Q 3056 2731 3066 2713 
Q 3084 2684 3084 2613 
Q 3084 2531 3069 2500 
Q 3059 2484 3036 2475 
Q 3013 2466 2878 2466 
L 2506 2466 
Q 2681 2241 2681 1891 
Q 2681 1491 2375 1206 
Q 2069 922 1553 922 
Q 1341 922 1119 984 
Q 981 866 932 777 
Q 884 688 884 625 
Q 884 572 936 522 
Q 988 472 1138 450 
Q 1225 438 1575 428 
Q 2219 413 2409 384 
Q 2700 344 2873 169 
Q 3047 -6 3047 -263 
Q 3047 -616 2716 -925 
Q 2228 -1381 1444 -1381 
Q 841 -1381 425 -1109 
Q 191 -953 191 -784 
Q 191 -709 225 -634 
Q 278 -519 444 -313 
Q 466 -284 763 25 
Q 600 122 533 198 
Q 466 275 466 372 
Q 466 481 555 628 
Q 644 775 966 1044 
z
M 1509 2797 
Q 1278 2797 1122 2612 
Q 966 2428 966 2047 
Q 966 1553 1178 1281 
Q 1341 1075 1591 1075 
Q 1828 1075 1981 1253 
Q 2134 1431 2134 1813 
Q 2134 2309 1919 2591 
Q 1759 2797 1509 2797 
z
M 934 0 
Q 788 -159 713 -296 
Q 638 -434 638 -550 
Q 638 -700 819 -813 
Q 1131 -1006 1722 -1006 
Q 2284 -1006 2551 -807 
Q 2819 -609 2819 -384 
Q 2819 -222 2659 -153 
Q 2497 -84 2016 -72 
Q 1313 -53 934 0 
z
" transform="scale(0.015625)"/>
        <path id="TimesNewRomanPSMT-4f" d="M 2341 4334 
Q 3166 4334 3770 3707 
Q 4375 3081 4375 2144 
Q 4375 1178 3765 540 
Q 3156 -97 2291 -97 
Q 1416 -97 820 525 
Q 225 1147 225 2134 
Q 225 3144 913 3781 
Q 1509 4334 2341 4334 
z
M 2281 4106 
Q 1713 4106 1369 3684 
Q 941 3159 941 2147 
Q 941 1109 1384 550 
Q 1725 125 2284 125 
Q 2881 125 3270 590 
Q 3659 1056 3659 2059 
Q 3659 3147 3231 3681 
Q 2888 4106 2281 4106 
z
" transform="scale(0.015625)"/>
       </defs>
       <use xlink:href="#TimesNewRomanPSMT-50"/>
       <use xlink:href="#TimesNewRomanPSMT-72" transform="translate(55.615234 0)"/>
       <use xlink:href="#TimesNewRomanPSMT-6f" transform="translate(88.916016 0)"/>
       <use xlink:href="#TimesNewRomanPSMT-76" transform="translate(138.916016 0)"/>
       <use xlink:href="#TimesNewRomanPSMT-69" transform="translate(188.916016 0)"/>
       <use xlink:href="#TimesNewRomanPSMT-73" transform="translate(216.699219 0)"/>
       <use xlink:href="#TimesNewRomanPSMT-69" transform="translate(255.615234 0)"/>
       <use xlink:href="#TimesNewRomanPSMT-6f" transform="translate(283.398438 0)"/>
       <use xlink:href="#TimesNewRomanPSMT-6e" transform="translate(333.398438 0)"/>
       <use xlink:href="#TimesNewRomanPSMT-69" transform="translate(383.398438 0)"/>
       <use xlink:href="#TimesNewRomanPSMT-6e" transform="translate(411.181641 0)"/>
       <use xlink:href="#TimesNewRomanPSMT-67" transform="translate(461.181641 0)"/>
       <use xlink:href="#TimesNewRomanPSMT-20" transform="translate(511.181641 0)"/>
       <use xlink:href="#TimesNewRomanPSMT-4f" transform="translate(536.181641 0)"/>
       <use xlink:href="#TimesNewRomanPSMT-76" transform="translate(608.398438 0)"/>
       <use xlink:href="#TimesNewRomanPSMT-65" transform="translate(658.398438 0)"/>
       <use xlink:href="#TimesNewRomanPSMT-72" transform="translate(702.783203 0)"/>
       <use xlink:href="#TimesNewRomanPSMT-68" transform="translate(736.083984 0)"/>
       <use xlink:href="#TimesNewRomanPSMT-65" transform="translate(786.083984 0)"/>
       <use xlink:href="#TimesNewRomanPSMT-61" transform="translate(830.46875 0)"/>
       <use xlink:href="#TimesNewRomanPSMT-64" transform="translate(874.853516 0)"/>
      </g>
     </g>
    </g>
    <g id="ytick_4">
     <g id="line2d_16">
      <g>
       <use xlink:href="#m8bf6b89ca0" x="86.140156" y="139.556676" style="stroke: #000000; stroke-width: 0.8"/>
      </g>
     </g>
     <g id="text_11">
      <!-- Burst-Sustained Gap -->
      <g transform="translate(21.00625 141.986989) scale(0.07 -0.07)">
       <defs>
        <path id="TimesNewRomanPSMT-42" d="M 2956 2163 
Q 3397 2069 3616 1863 
Q 3919 1575 3919 1159 
Q 3919 844 3719 555 
Q 3519 266 3170 133 
Q 2822 0 2106 0 
L 106 0 
L 106 116 
L 266 116 
Q 531 116 647 284 
Q 719 394 719 750 
L 719 3488 
Q 719 3881 628 3984 
Q 506 4122 266 4122 
L 106 4122 
L 106 4238 
L 1938 4238 
Q 2450 4238 2759 4163 
Q 3228 4050 3475 3764 
Q 3722 3478 3722 3106 
Q 3722 2788 3528 2536 
Q 3334 2284 2956 2163 
z
M 1319 2331 
Q 1434 2309 1582 2298 
Q 1731 2288 1909 2288 
Q 2366 2288 2595 2386 
Q 2825 2484 2947 2687 
Q 3069 2891 3069 3131 
Q 3069 3503 2766 3765 
Q 2463 4028 1881 4028 
Q 1569 4028 1319 3959 
L 1319 2331 
z
M 1319 306 
Q 1681 222 2034 222 
Q 2600 222 2897 476 
Q 3194 731 3194 1106 
Q 3194 1353 3059 1581 
Q 2925 1809 2622 1940 
Q 2319 2072 1872 2072 
Q 1678 2072 1540 2065 
Q 1403 2059 1319 2044 
L 1319 306 
z
" transform="scale(0.015625)"/>
        <path id="TimesNewRomanPSMT-2d" d="M 259 1672 
L 1875 1672 
L 1875 1200 
L 259 1200 
L 259 1672 
z
" transform="scale(0.015625)"/>
        <path id="TimesNewRomanPSMT-70" d="M -6 2578 
L 875 2934 
L 994 2934 
L 994 2266 
Q 1216 2644 1439 2795 
Q 1663 2947 1909 2947 
Q 2341 2947 2628 2609 
Q 2981 2197 2981 1534 
Q 2981 794 2556 309 
Q 2206 -88 1675 -88 
Q 1444 -88 1275 -22 
Q 1150 25 994 166 
L 994 -706 
Q 994 -1000 1030 -1079 
Q 1066 -1159 1155 -1206 
Q 1244 -1253 1478 -1253 
L 1478 -1369 
L -22 -1369 
L -22 -1253 
L 56 -1253 
Q 228 -1256 350 -1188 
Q 409 -1153 442 -1076 
Q 475 -1000 475 -688 
L 475 2019 
Q 475 2297 450 2372 
Q 425 2447 370 2484 
Q 316 2522 222 2522 
Q 147 2522 31 2478 
L -6 2578 
z
M 994 2081 
L 994 1013 
Q 994 666 1022 556 
Q 1066 375 1236 237 
Q 1406 100 1666 100 
Q 1978 100 2172 344 
Q 2425 663 2425 1241 
Q 2425 1897 2138 2250 
Q 1938 2494 1663 2494 
Q 1513 2494 1366 2419 
Q 1253 2363 994 2081 
z
" transform="scale(0.015625)"/>
       </defs>
       <use xlink:href="#TimesNewRomanPSMT-42"/>
       <use xlink:href="#TimesNewRomanPSMT-75" transform="translate(66.699219 0)"/>
       <use xlink:href="#TimesNewRomanPSMT-72" transform="translate(116.699219 0)"/>
       <use xlink:href="#TimesNewRomanPSMT-73" transform="translate(150 0)"/>
       <use xlink:href="#TimesNewRomanPSMT-74" transform="translate(188.916016 0)"/>
       <use xlink:href="#TimesNewRomanPSMT-2d" transform="translate(216.699219 0)"/>
       <use xlink:href="#TimesNewRomanPSMT-53" transform="translate(250 0)"/>
       <use xlink:href="#TimesNewRomanPSMT-75" transform="translate(305.615234 0)"/>
       <use xlink:href="#TimesNewRomanPSMT-73" transform="translate(355.615234 0)"/>
       <use xlink:href="#TimesNewRomanPSMT-74" transform="translate(394.53125 0)"/>
       <use xlink:href="#TimesNewRomanPSMT-61" transform="translate(422.314453 0)"/>
       <use xlink:href="#TimesNewRomanPSMT-69" transform="translate(466.699219 0)"/>
       <use xlink:href="#TimesNewRomanPSMT-6e" transform="translate(494.482422 0)"/>
       <use xlink:href="#TimesNewRomanPSMT-65" transform="translate(544.482422 0)"/>
       <use xlink:href="#TimesNewRomanPSMT-64" transform="translate(588.867188 0)"/>
       <use xlink:href="#TimesNewRomanPSMT-20" transform="translate(638.867188 0)"/>
       <use xlink:href="#TimesNewRomanPSMT-47" transform="translate(663.867188 0)"/>
       <use xlink:href="#TimesNewRomanPSMT-61" transform="translate(736.083984 0)"/>
       <use xlink:href="#TimesNewRomanPSMT-70" transform="translate(780.46875 0)"/>
      </g>
     </g>
    </g>
    <g id="ytick_5">
     <g id="line2d_17">
      <g>
       <use xlink:href="#m8bf6b89ca0" x="86.140156" y="171.629403" style="stroke: #000000; stroke-width: 0.8"/>
      </g>
     </g>
     <g id="text_12">
      <!-- Straggler Tax -->
      <g transform="translate(41.461563 174.059716) scale(0.07 -0.07)">
       <defs>
        <path id="TimesNewRomanPSMT-54" d="M 3703 4238 
L 3750 3244 
L 3631 3244 
Q 3597 3506 3538 3619 
Q 3441 3800 3280 3886 
Q 3119 3972 2856 3972 
L 2259 3972 
L 2259 734 
Q 2259 344 2344 247 
Q 2463 116 2709 116 
L 2856 116 
L 2856 0 
L 1059 0 
L 1059 116 
L 1209 116 
Q 1478 116 1591 278 
Q 1659 378 1659 734 
L 1659 3972 
L 1150 3972 
Q 853 3972 728 3928 
Q 566 3869 450 3700 
Q 334 3531 313 3244 
L 194 3244 
L 244 4238 
L 3703 4238 
z
" transform="scale(0.015625)"/>
        <path id="TimesNewRomanPSMT-78" d="M 84 2863 
L 1431 2863 
L 1431 2747 
Q 1303 2747 1251 2703 
Q 1200 2659 1200 2588 
Q 1200 2513 1309 2356 
Q 1344 2306 1413 2200 
L 1616 1875 
L 1850 2200 
Q 2075 2509 2075 2591 
Q 2075 2656 2022 2701 
Q 1969 2747 1850 2747 
L 1850 2863 
L 2819 2863 
L 2819 2747 
Q 2666 2738 2553 2663 
Q 2400 2556 2134 2200 
L 1744 1678 
L 2456 653 
Q 2719 275 2831 198 
Q 2944 122 3122 113 
L 3122 0 
L 1772 0 
L 1772 113 
Q 1913 113 1991 175 
Q 2050 219 2050 291 
Q 2050 363 1850 653 
L 1431 1266 
L 972 653 
Q 759 369 759 316 
Q 759 241 829 180 
Q 900 119 1041 113 
L 1041 0 
L 106 0 
L 106 113 
Q 219 128 303 191 
Q 422 281 703 653 
L 1303 1450 
L 759 2238 
Q 528 2575 401 2661 
Q 275 2747 84 2747 
L 84 2863 
z
" transform="scale(0.015625)"/>
       </defs>
       <use xlink:href="#TimesNewRomanPSMT-53"/>
       <use xlink:href="#TimesNewRomanPSMT-74" transform="translate(55.615234 0)"/>
       <use xlink:href="#TimesNewRomanPSMT-72" transform="translate(83.398438 0)"/>
       <use xlink:href="#TimesNewRomanPSMT-61" transform="translate(116.699219 0)"/>
       <use xlink:href="#TimesNewRomanPSMT-67" transform="translate(161.083984 0)"/>
       <use xlink:href="#TimesNewRomanPSMT-67" transform="translate(211.083984 0)"/>
       <use xlink:href="#TimesNewRomanPSMT-6c" transform="translate(261.083984 0)"/>
       <use xlink:href="#TimesNewRomanPSMT-65" transform="translate(288.867188 0)"/>
       <use xlink:href="#TimesNewRomanPSMT-72" transform="translate(333.251953 0)"/>
       <use xlink:href="#TimesNewRomanPSMT-20" transform="translate(366.552734 0)"/>
       <use xlink:href="#TimesNewRomanPSMT-54" transform="translate(389.802734 0)"/>
       <use xlink:href="#TimesNewRomanPSMT-61" transform="translate(443.886719 0)"/>
       <use xlink:href="#TimesNewRomanPSMT-78" transform="translate(488.271484 0)"/>
      </g>
     </g>
    </g>
    <g id="ytick_6">
     <g id="line2d_18">
      <g>
       <use xlink:href="#m8bf6b89ca0" x="86.140156" y="203.702131" style="stroke: #000000; stroke-width: 0.8"/>
      </g>
     </g>
     <g id="text_13">
      <!-- Oversubscription -->
      <g transform="translate(30.925469 206.132443) scale(0.07 -0.07)">
       <defs>
        <path id="TimesNewRomanPSMT-62" d="M 984 2369 
Q 1400 2947 1881 2947 
Q 2322 2947 2650 2570 
Q 2978 2194 2978 1541 
Q 2978 778 2472 313 
Q 2038 -88 1503 -88 
Q 1253 -88 995 3 
Q 738 94 469 275 
L 469 3241 
Q 469 3728 445 3840 
Q 422 3953 372 3993 
Q 322 4034 247 4034 
Q 159 4034 28 3984 
L -16 4094 
L 844 4444 
L 984 4444 
L 984 2369 
z
M 984 2169 
L 984 456 
Q 1144 300 1314 220 
Q 1484 141 1663 141 
Q 1947 141 2192 453 
Q 2438 766 2438 1363 
Q 2438 1913 2192 2208 
Q 1947 2503 1634 2503 
Q 1469 2503 1303 2419 
Q 1178 2356 984 2169 
z
" transform="scale(0.015625)"/>
       </defs>
       <use xlink:href="#TimesNewRomanPSMT-4f"/>
       <use xlink:href="#TimesNewRomanPSMT-76" transform="translate(72.216797 0)"/>
       <use xlink:href="#TimesNewRomanPSMT-65" transform="translate(122.216797 0)"/>
       <use xlink:href="#TimesNewRomanPSMT-72" transform="translate(166.601562 0)"/>
       <use xlink:href="#TimesNewRomanPSMT-73" transform="translate(199.902344 0)"/>
       <use xlink:href="#TimesNewRomanPSMT-75" transform="translate(238.818359 0)"/>
       <use xlink:href="#TimesNewRomanPSMT-62" transform="translate(288.818359 0)"/>
       <use xlink:href="#TimesNewRomanPSMT-73" transform="translate(338.818359 0)"/>
       <use xlink:href="#TimesNewRomanPSMT-63" transform="translate(377.734375 0)"/>
       <use xlink:href="#TimesNewRomanPSMT-72" transform="translate(422.119141 0)"/>
       <use xlink:href="#TimesNewRomanPSMT-69" transform="translate(455.419922 0)"/>
       <use xlink:href="#TimesNewRomanPSMT-70" transform="translate(483.203125 0)"/>
       <use xlink:href="#TimesNewRomanPSMT-74" transform="translate(533.203125 0)"/>
       <use xlink:href="#TimesNewRomanPSMT-69" transform="translate(560.986328 0)"/>
       <use xlink:href="#TimesNewRomanPSMT-6f" transform="translate(588.769531 0)"/>
       <use xlink:href="#TimesNewRomanPSMT-6e" transform="translate(638.769531 0)"/>
      </g>
     </g>
    </g>
   </g>
   <g id="line2d_19">
    <path d="M 93.048728 220.540312 
L 93.048728 26.500313 
" clip-path="url(#pa5c1e638fb)" style="fill: none; stroke-dasharray: 1,1.65; stroke-dashoffset: 0; stroke: #64748b; stroke-opacity: 0.5"/>
   </g>
   <g id="line2d_20">
    <path d="M 103.411585 220.540312 
L 103.411585 26.500313 
" clip-path="url(#pa5c1e638fb)" style="fill: none; stroke-dasharray: 1,1.65; stroke-dashoffset: 0; stroke: #64748b; stroke-opacity: 0.5"/>
   </g>
   <g id="line2d_21">
    <path d="M 113.774442 220.540312 
L 113.774442 26.500313 
" clip-path="url(#pa5c1e638fb)" style="fill: none; stroke-dasharray: 1,1.65; stroke-dashoffset: 0; stroke: #64748b; stroke-opacity: 0.5"/>
   </g>
   <g id="patch_3">
    <path d="M 86.140156 220.540312 
L 86.140156 26.500313 
" style="fill: none; stroke: #000000; stroke-width: 0.8; stroke-linejoin: miter; stroke-linecap: square"/>
   </g>
   <g id="patch_4">
    <path d="M 86.140156 220.540312 
L 448.840156 220.540312 
" style="fill: none; stroke: #000000; stroke-width: 0.8; stroke-linejoin: miter; stroke-linecap: square"/>
   </g>
   <g id="patch_5">
    <path d="M 86.140156 51.356676 
L 171.115585 51.356676 
L 171.115585 35.320313 
L 86.140156 35.320313 
z
" clip-path="url(#pa5c1e638fb)" style="fill: #15803d; stroke: #ffffff; stroke-linejoin: miter"/>
   </g>
   <g id="text_14">
    <!-- d = 2.46 -->
    <g transform="translate(178.024156 44.907479) scale(0.07 -0.07)">
     <defs>
      <path id="TimesNewRomanPS-BoldMT-64" d="M 3056 4238 
L 3056 875 
Q 3056 534 3075 472 
Q 3100 369 3170 319 
Q 3241 269 3416 256 
L 3416 153 
L 2181 -88 
L 2181 375 
Q 1959 106 1786 9 
Q 1613 -88 1394 -88 
Q 834 -88 509 413 
Q 247 819 247 1409 
Q 247 1881 409 2254 
Q 572 2628 855 2818 
Q 1138 3009 1463 3009 
Q 1672 3009 1834 2928 
Q 1997 2847 2181 2644 
L 2181 3525 
Q 2181 3859 2153 3928 
Q 2116 4019 2041 4062 
Q 1966 4106 1759 4106 
L 1759 4238 
L 3056 4238 
z
M 2181 2256 
Q 1950 2700 1616 2700 
Q 1500 2700 1425 2638 
Q 1309 2541 1236 2297 
Q 1163 2053 1163 1550 
Q 1163 997 1244 731 
Q 1325 466 1466 347 
Q 1538 288 1663 288 
Q 1938 288 2181 719 
L 2181 2256 
z
" transform="scale(0.015625)"/>
      <path id="TimesNewRomanPS-BoldMT-20" transform="scale(0.015625)"/>
      <path id="TimesNewRomanPS-BoldMT-3d" d="M 125 2825 
L 3544 2825 
L 3544 2419 
L 125 2419 
L 125 2825 
z
M 125 1803 
L 3544 1803 
L 3544 1397 
L 125 1397 
L 125 1803 
z
" transform="scale(0.015625)"/>
      <path id="TimesNewRomanPS-BoldMT-32" d="M 2650 0 
L 156 0 
L 156 69 
Q 1303 1434 1548 1906 
Q 1794 2378 1794 2828 
Q 1794 3156 1591 3373 
Q 1388 3591 1094 3591 
Q 613 3591 347 3109 
L 231 3150 
Q 400 3750 744 4037 
Q 1088 4325 1538 4325 
Q 1859 4325 2125 4175 
Q 2391 4025 2541 3764 
Q 2691 3503 2691 3275 
Q 2691 2859 2459 2431 
Q 2144 1853 1081 819 
L 1997 819 
Q 2334 819 2436 847 
Q 2538 875 2603 942 
Q 2669 1009 2775 1225 
L 2888 1225 
L 2650 0 
z
" transform="scale(0.015625)"/>
      <path id="TimesNewRomanPS-BoldMT-2e" d="M 800 963 
Q 1019 963 1170 809 
Q 1322 656 1322 441 
Q 1322 225 1169 73 
Q 1016 -78 800 -78 
Q 584 -78 432 73 
Q 281 225 281 441 
Q 281 656 432 809 
Q 584 963 800 963 
z
" transform="scale(0.015625)"/>
      <path id="TimesNewRomanPS-BoldMT-34" d="M 159 1597 
L 2172 4325 
L 2553 4325 
L 2553 1597 
L 2941 1597 
L 2941 950 
L 2553 950 
L 2553 0 
L 1694 0 
L 1694 950 
L 159 950 
L 159 1597 
z
M 463 1597 
L 1694 1597 
L 1694 3269 
L 463 1597 
z
" transform="scale(0.015625)"/>
      <path id="TimesNewRomanPS-BoldMT-36" d="M 3006 4325 
L 3006 4238 
Q 2441 4094 2098 3867 
Q 1756 3641 1557 3317 
Q 1359 2994 1250 2516 
Q 1388 2609 1478 2638 
Q 1681 2700 1888 2700 
Q 2363 2700 2680 2354 
Q 2997 2009 2997 1413 
Q 2997 994 2825 644 
Q 2653 294 2337 103 
Q 2022 -88 1663 -88 
Q 1272 -88 940 126 
Q 609 341 423 753 
Q 238 1166 238 1650 
Q 238 2363 580 2977 
Q 922 3591 1551 3955 
Q 2181 4319 3006 4325 
z
M 1209 2263 
Q 1184 1831 1184 1631 
Q 1184 1200 1267 797 
Q 1350 394 1494 231 
Q 1597 116 1738 116 
Q 1881 116 1993 283 
Q 2106 450 2106 963 
Q 2106 1825 1897 2153 
Q 1763 2366 1534 2366 
Q 1409 2366 1209 2263 
z
" transform="scale(0.015625)"/>
     </defs>
     <use xlink:href="#TimesNewRomanPS-BoldMT-64"/>
     <use xlink:href="#TimesNewRomanPS-BoldMT-20" transform="translate(55.615234 0)"/>
     <use xlink:href="#TimesNewRomanPS-BoldMT-3d" transform="translate(80.615234 0)"/>
     <use xlink:href="#TimesNewRomanPS-BoldMT-20" transform="translate(137.597656 0)"/>
     <use xlink:href="#TimesNewRomanPS-BoldMT-32" transform="translate(162.597656 0)"/>
     <use xlink:href="#TimesNewRomanPS-BoldMT-2e" transform="translate(212.597656 0)"/>
     <use xlink:href="#TimesNewRomanPS-BoldMT-34" transform="translate(237.597656 0)"/>
     <use xlink:href="#TimesNewRomanPS-BoldMT-36" transform="translate(287.597656 0)"/>
    </g>
   </g>
   <g id="patch_6">
    <path d="M 86.140156 83.429403 
L 381.481585 83.429403 
L 381.481585 67.39304 
L 86.140156 67.39304 
z
" clip-path="url(#pa5c1e638fb)" style="fill: #7e22ce; stroke: #ffffff; stroke-linejoin: miter"/>
   </g>
   <g id="text_15">
    <!-- d = 8.55 -->
    <g transform="translate(388.390156 76.980206) scale(0.07 -0.07)">
     <defs>
      <path id="TimesNewRomanPS-BoldMT-38" d="M 2181 2394 
Q 2628 2066 2801 1783 
Q 2975 1500 2975 1134 
Q 2975 622 2589 267 
Q 2203 -88 1541 -88 
Q 913 -88 569 221 
Q 225 531 225 978 
Q 225 1319 423 1575 
Q 622 1831 1084 2044 
Q 581 2428 439 2672 
Q 297 2916 297 3238 
Q 297 3663 658 3986 
Q 1019 4309 1647 4309 
Q 2253 4309 2579 4023 
Q 2906 3738 2906 3338 
Q 2906 3038 2729 2808 
Q 2553 2578 2181 2394 
z
M 1944 2553 
Q 2059 2709 2115 2903 
Q 2172 3097 2172 3328 
Q 2172 3734 1997 3950 
Q 1866 4116 1634 4116 
Q 1425 4116 1278 3964 
Q 1131 3813 1131 3588 
Q 1131 3359 1295 3114 
Q 1459 2869 1944 2553 
z
M 1319 1894 
Q 1222 1806 1181 1734 
Q 1119 1625 1069 1415 
Q 1019 1206 1019 978 
Q 1019 684 1094 486 
Q 1169 288 1308 200 
Q 1447 113 1594 113 
Q 1822 113 1978 280 
Q 2134 447 2134 738 
Q 2134 1344 1319 1894 
z
" transform="scale(0.015625)"/>
      <path id="TimesNewRomanPS-BoldMT-35" d="M 975 4238 
L 2959 4238 
L 2644 3431 
L 975 3431 
L 816 3009 
Q 1894 2969 2475 2472 
Q 2953 2063 2953 1453 
Q 2953 1063 2731 689 
Q 2509 316 2106 114 
Q 1703 -88 1222 -88 
Q 703 -88 425 106 
Q 231 244 231 419 
Q 231 553 332 656 
Q 434 759 569 759 
Q 691 759 816 709 
Q 941 659 1244 447 
Q 1434 316 1572 266 
Q 1669 228 1791 228 
Q 2047 228 2226 415 
Q 2406 603 2406 866 
Q 2406 1416 1856 1759 
Q 1306 2103 469 2103 
Q 384 2103 216 2100 
L 975 4238 
z
" transform="scale(0.015625)"/>
     </defs>
     <use xlink:href="#TimesNewRomanPS-BoldMT-64"/>
     <use xlink:href="#TimesNewRomanPS-BoldMT-20" transform="translate(55.615234 0)"/>
     <use xlink:href="#TimesNewRomanPS-BoldMT-3d" transform="translate(80.615234 0)"/>
     <use xlink:href="#TimesNewRomanPS-BoldMT-20" transform="translate(137.597656 0)"/>
     <use xlink:href="#TimesNewRomanPS-BoldMT-38" transform="translate(162.597656 0)"/>
     <use xlink:href="#TimesNewRomanPS-BoldMT-2e" transform="translate(212.597656 0)"/>
     <use xlink:href="#TimesNewRomanPS-BoldMT-35" transform="translate(237.597656 0)"/>
     <use xlink:href="#TimesNewRomanPS-BoldMT-35" transform="translate(287.597656 0)"/>
    </g>
   </g>
   <g id="patch_7">
    <path d="M 86.140156 115.502131 
L 155.571299 115.502131 
L 155.571299 99.465767 
L 86.140156 99.465767 
z
" clip-path="url(#pa5c1e638fb)" style="fill: #7e22ce; stroke: #ffffff; stroke-linejoin: miter"/>
   </g>
   <g id="text_16">
    <!-- $d_z$ = 2.01 -->
    <g transform="translate(162.479871 109.241605) scale(0.07 -0.07)">
     <defs>
      <path id="DejaVuSans-Oblique-64" d="M 2675 525 
Q 2444 222 2128 65 
Q 1813 -91 1428 -91 
Q 903 -91 598 267 
Q 294 625 294 1247 
Q 294 1766 478 2236 
Q 663 2706 1013 3078 
Q 1244 3325 1534 3454 
Q 1825 3584 2144 3584 
Q 2481 3584 2739 3421 
Q 2997 3259 3138 2956 
L 3513 4863 
L 4091 4863 
L 3144 0 
L 2566 0 
L 2675 525 
z
M 891 1350 
Q 891 897 1095 644 
Q 1300 391 1663 391 
Q 1931 391 2161 520 
Q 2391 650 2566 903 
Q 2750 1166 2856 1509 
Q 2963 1853 2963 2188 
Q 2963 2622 2758 2865 
Q 2553 3109 2194 3109 
Q 1922 3109 1687 2981 
Q 1453 2853 1288 2613 
Q 1106 2353 998 2009 
Q 891 1666 891 1350 
z
" transform="scale(0.015625)"/>
      <path id="DejaVuSans-Oblique-7a" d="M 744 3500 
L 3475 3500 
L 3372 2975 
L 738 459 
L 2913 459 
L 2822 0 
L -19 0 
L 84 525 
L 2719 3041 
L 653 3041 
L 744 3500 
z
" transform="scale(0.015625)"/>
      <path id="TimesNewRomanPS-BoldMT-30" d="M 2966 2119 
Q 2966 1484 2788 934 
Q 2681 597 2501 381 
Q 2322 166 2094 39 
Q 1866 -88 1597 -88 
Q 1291 -88 1044 68 
Q 797 225 606 516 
Q 469 728 366 1081 
Q 231 1559 231 2069 
Q 231 2759 425 3338 
Q 584 3816 909 4070 
Q 1234 4325 1597 4325 
Q 1966 4325 2286 4073 
Q 2606 3822 2756 3397 
Q 2966 2813 2966 2119 
z
M 2003 2125 
Q 2003 3238 1991 3422 
Q 1959 3856 1841 4009 
Q 1763 4109 1588 4109 
Q 1453 4109 1375 4034 
Q 1259 3925 1218 3648 
Q 1178 3372 1178 1719 
Q 1178 819 1241 513 
Q 1288 291 1375 216 
Q 1463 141 1606 141 
Q 1763 141 1841 241 
Q 1972 416 1991 781 
L 2003 2125 
z
" transform="scale(0.015625)"/>
      <path id="TimesNewRomanPS-BoldMT-31" d="M 2084 4325 
L 2084 859 
Q 2084 469 2118 361 
Q 2153 253 2262 184 
Q 2372 116 2613 116 
L 2709 116 
L 2709 0 
L 478 0 
L 478 116 
L 591 116 
Q 863 116 978 178 
Q 1094 241 1134 350 
Q 1175 459 1175 859 
L 1175 3056 
Q 1175 3350 1147 3423 
Q 1119 3497 1042 3548 
Q 966 3600 866 3600 
Q 706 3600 478 3500 
L 422 3613 
L 1981 4325 
L 2084 4325 
z
" transform="scale(0.015625)"/>
     </defs>
     <use xlink:href="#DejaVuSans-Oblique-64" transform="translate(0 0.015625)"/>
     <use xlink:href="#DejaVuSans-Oblique-7a" transform="translate(63.476562 -16.390625) scale(0.7)"/>
     <use xlink:href="#TimesNewRomanPS-BoldMT-20" transform="translate(102.954102 0.015625)"/>
     <use xlink:href="#TimesNewRomanPS-BoldMT-3d" transform="translate(127.954102 0.015625)"/>
     <use xlink:href="#TimesNewRomanPS-BoldMT-20" transform="translate(184.936523 0.015625)"/>
     <use xlink:href="#TimesNewRomanPS-BoldMT-32" transform="translate(209.936523 0.015625)"/>
     <use xlink:href="#TimesNewRomanPS-BoldMT-2e" transform="translate(259.936523 0.015625)"/>
     <use xlink:href="#TimesNewRomanPS-BoldMT-30" transform="translate(284.936523 0.015625)"/>
     <use xlink:href="#TimesNewRomanPS-BoldMT-31" transform="translate(334.936523 0.015625)"/>
    </g>
   </g>
   <g id="patch_8">
    <path d="M 86.140156 147.574858 
L 111.356442 147.574858 
L 111.356442 131.538494 
L 86.140156 131.538494 
z
" clip-path="url(#pa5c1e638fb)" style="fill: #7e22ce; stroke: #ffffff; stroke-linejoin: miter"/>
   </g>
   <g id="text_17">
    <!-- $d_z$ = 0.73 -->
    <g transform="translate(118.265013 141.314332) scale(0.07 -0.07)">
     <defs>
      <path id="TimesNewRomanPS-BoldMT-37" d="M 1134 -88 
L 2288 3409 
L 1409 3409 
Q 894 3409 634 3275 
Q 453 3181 334 2922 
L 216 2922 
L 522 4238 
L 3047 4238 
L 1625 -88 
L 1134 -88 
z
" transform="scale(0.015625)"/>
      <path id="TimesNewRomanPS-BoldMT-33" d="M 947 2125 
L 947 2234 
Q 1303 2338 1440 2427 
Q 1578 2516 1678 2698 
Q 1778 2881 1778 3069 
Q 1778 3328 1589 3514 
Q 1400 3700 1119 3700 
Q 681 3700 375 3238 
L 259 3278 
Q 484 3800 836 4062 
Q 1188 4325 1619 4325 
Q 2059 4325 2345 4056 
Q 2631 3788 2631 3428 
Q 2631 3194 2498 2976 
Q 2366 2759 2081 2594 
Q 2447 2416 2639 2155 
Q 2831 1894 2831 1500 
Q 2831 838 2351 373 
Q 1872 -91 1066 -91 
Q 528 -91 281 88 
Q 103 213 103 409 
Q 103 553 206 654 
Q 309 756 444 756 
Q 547 756 638 713 
Q 688 688 992 439 
Q 1297 191 1563 191 
Q 1794 191 1959 373 
Q 2125 556 2125 838 
Q 2125 1266 1825 1627 
Q 1525 1988 947 2125 
z
" transform="scale(0.015625)"/>
     </defs>
     <use xlink:href="#DejaVuSans-Oblique-64" transform="translate(0 0.015625)"/>
     <use xlink:href="#DejaVuSans-Oblique-7a" transform="translate(63.476562 -16.390625) scale(0.7)"/>
     <use xlink:href="#TimesNewRomanPS-BoldMT-20" transform="translate(102.954102 0.015625)"/>
     <use xlink:href="#TimesNewRomanPS-BoldMT-3d" transform="translate(127.954102 0.015625)"/>
     <use xlink:href="#TimesNewRomanPS-BoldMT-20" transform="translate(184.936523 0.015625)"/>
     <use xlink:href="#TimesNewRomanPS-BoldMT-30" transform="translate(209.936523 0.015625)"/>
     <use xlink:href="#TimesNewRomanPS-BoldMT-2e" transform="translate(259.936523 0.015625)"/>
     <use xlink:href="#TimesNewRomanPS-BoldMT-37" transform="translate(284.936523 0.015625)"/>
     <use xlink:href="#TimesNewRomanPS-BoldMT-33" transform="translate(334.936523 0.015625)"/>
    </g>
   </g>
   <g id="patch_9">
    <path d="M 86.140156 179.647585 
L 171.115585 179.647585 
L 171.115585 163.611222 
L 86.140156 163.611222 
z
" clip-path="url(#pa5c1e638fb)" style="fill: #15803d; stroke: #ffffff; stroke-linejoin: miter"/>
   </g>
   <g id="text_18">
    <!-- d = 2.46 -->
    <g transform="translate(178.024156 173.198388) scale(0.07 -0.07)">
     <use xlink:href="#TimesNewRomanPS-BoldMT-64"/>
     <use xlink:href="#TimesNewRomanPS-BoldMT-20" transform="translate(55.615234 0)"/>
     <use xlink:href="#TimesNewRomanPS-BoldMT-3d" transform="translate(80.615234 0)"/>
     <use xlink:href="#TimesNewRomanPS-BoldMT-20" transform="translate(137.597656 0)"/>
     <use xlink:href="#TimesNewRomanPS-BoldMT-32" transform="translate(162.597656 0)"/>
     <use xlink:href="#TimesNewRomanPS-BoldMT-2e" transform="translate(212.597656 0)"/>
     <use xlink:href="#TimesNewRomanPS-BoldMT-34" transform="translate(237.597656 0)"/>
     <use xlink:href="#TimesNewRomanPS-BoldMT-36" transform="translate(287.597656 0)"/>
    </g>
   </g>
   <g id="patch_10">
    <path d="M 86.140156 211.720313 
L 223.275299 211.720313 
L 223.275299 195.683949 
L 86.140156 195.683949 
z
" clip-path="url(#pa5c1e638fb)" style="fill: #b91c1c; stroke: #ffffff; stroke-linejoin: miter"/>
   </g>
   <g id="text_19">
    <!-- d = 3.97 -->
    <g transform="translate(230.183871 205.271115) scale(0.07 -0.07)">
     <defs>
      <path id="TimesNewRomanPS-BoldMT-39" d="M 197 -88 
L 197 0 
Q 716 119 1077 350 
Q 1438 581 1648 922 
Q 1859 1263 1944 1706 
Q 1750 1606 1614 1567 
Q 1478 1528 1328 1528 
Q 847 1528 526 1875 
Q 206 2222 206 2825 
Q 206 3244 379 3592 
Q 553 3941 875 4133 
Q 1197 4325 1544 4325 
Q 1916 4325 2247 4112 
Q 2578 3900 2775 3497 
Q 2972 3094 2972 2578 
Q 2972 1909 2651 1296 
Q 2331 684 1697 314 
Q 1063 -56 197 -88 
z
M 1991 1969 
Q 2022 2319 2022 2584 
Q 2022 3153 1891 3644 
Q 1816 3916 1669 4044 
Q 1591 4113 1466 4113 
Q 1309 4113 1222 3978 
Q 1100 3794 1100 3275 
Q 1100 2409 1306 2081 
Q 1441 1869 1669 1869 
Q 1791 1869 1991 1969 
z
" transform="scale(0.015625)"/>
     </defs>
     <use xlink:href="#TimesNewRomanPS-BoldMT-64"/>
     <use xlink:href="#TimesNewRomanPS-BoldMT-20" transform="translate(55.615234 0)"/>
     <use xlink:href="#TimesNewRomanPS-BoldMT-3d" transform="translate(80.615234 0)"/>
     <use xlink:href="#TimesNewRomanPS-BoldMT-20" transform="translate(137.597656 0)"/>
     <use xlink:href="#TimesNewRomanPS-BoldMT-33" transform="translate(162.597656 0)"/>
     <use xlink:href="#TimesNewRomanPS-BoldMT-2e" transform="translate(212.597656 0)"/>
     <use xlink:href="#TimesNewRomanPS-BoldMT-39" transform="translate(237.597656 0)"/>
     <use xlink:href="#TimesNewRomanPS-BoldMT-37" transform="translate(287.597656 0)"/>
    </g>
   </g>
   <g id="text_20">
    <!-- Figure 2.  Effect Sizes by Waste Category -->
    <g transform="translate(188.414609 20.500313) scale(0.09 -0.09)">
     <defs>
      <path id="TimesNewRomanPS-BoldMT-46" d="M 1759 3994 
L 1759 2253 
L 1881 2253 
Q 2163 2253 2341 2337 
Q 2519 2422 2642 2622 
Q 2766 2822 2803 3163 
L 2913 3163 
L 2913 1034 
L 2803 1034 
Q 2744 1638 2480 1830 
Q 2216 2022 1881 2022 
L 1759 2022 
L 1759 725 
Q 1759 400 1795 319 
Q 1831 238 1936 177 
Q 2041 116 2219 116 
L 2359 116 
L 2359 0 
L 144 0 
L 144 116 
L 284 116 
Q 469 116 581 181 
Q 663 225 706 331 
Q 741 406 741 725 
L 741 3513 
Q 741 3838 706 3919 
Q 672 4000 567 4061 
Q 463 4122 284 4122 
L 144 4122 
L 144 4238 
L 3719 4238 
L 3719 3022 
L 3591 3022 
Q 3547 3450 3367 3656 
Q 3188 3863 2847 3947 
Q 2659 3994 2153 3994 
L 1759 3994 
z
" transform="scale(0.015625)"/>
      <path id="TimesNewRomanPS-BoldMT-69" d="M 919 4338 
Q 1122 4338 1262 4195 
Q 1403 4053 1403 3853 
Q 1403 3653 1261 3512 
Q 1119 3372 919 3372 
Q 719 3372 578 3512 
Q 438 3653 438 3853 
Q 438 4053 578 4195 
Q 719 4338 919 4338 
z
M 1356 2922 
L 1356 606 
Q 1356 297 1428 211 
Q 1500 125 1709 113 
L 1709 0 
L 131 0 
L 131 113 
Q 325 119 419 225 
Q 481 297 481 606 
L 481 2313 
Q 481 2622 409 2708 
Q 338 2794 131 2806 
L 131 2922 
L 1356 2922 
z
" transform="scale(0.015625)"/>
      <path id="TimesNewRomanPS-BoldMT-67" d="M 2091 2888 
L 3075 2888 
L 3075 2544 
L 2516 2544 
Q 2669 2391 2728 2266 
Q 2803 2097 2803 1913 
Q 2803 1600 2629 1370 
Q 2456 1141 2157 1011 
Q 1859 881 1628 881 
Q 1609 881 1253 897 
Q 1113 897 1017 805 
Q 922 713 922 584 
Q 922 472 1008 400 
Q 1094 328 1288 328 
L 1828 334 
Q 2484 334 2731 191 
Q 3084 -9 3084 -425 
Q 3084 -691 2921 -908 
Q 2759 -1125 2494 -1228 
Q 2091 -1381 1566 -1381 
Q 1172 -1381 847 -1304 
Q 522 -1228 381 -1092 
Q 241 -956 241 -806 
Q 241 -663 348 -548 
Q 456 -434 750 -356 
Q 344 -156 344 200 
Q 344 416 509 619 
Q 675 822 1034 972 
Q 616 1125 428 1375 
Q 241 1625 241 1953 
Q 241 2381 591 2695 
Q 941 3009 1491 3009 
Q 1781 3009 2091 2888 
z
M 1550 2816 
Q 1369 2816 1244 2633 
Q 1119 2450 1119 1875 
Q 1119 1409 1242 1236 
Q 1366 1063 1534 1063 
Q 1722 1063 1847 1234 
Q 1972 1406 1972 1903 
Q 1972 2463 1831 2666 
Q 1731 2816 1550 2816 
z
M 1366 -431 
Q 1047 -431 944 -484 
Q 766 -581 766 -747 
Q 766 -906 950 -1036 
Q 1134 -1166 1644 -1166 
Q 2078 -1166 2326 -1050 
Q 2575 -934 2575 -725 
Q 2575 -647 2528 -594 
Q 2444 -500 2273 -465 
Q 2103 -431 1366 -431 
z
" transform="scale(0.015625)"/>
      <path id="TimesNewRomanPS-BoldMT-75" d="M 3038 2922 
L 3038 634 
Q 3038 300 3100 217 
Q 3163 134 3353 113 
L 3353 0 
L 2163 0 
L 2163 391 
Q 1953 141 1743 26 
Q 1534 -88 1275 -88 
Q 1028 -88 836 64 
Q 644 216 578 419 
Q 513 622 513 1128 
L 513 2288 
Q 513 2619 452 2700 
Q 391 2781 197 2806 
L 197 2922 
L 1388 2922 
L 1388 925 
Q 1388 613 1417 522 
Q 1447 431 1511 384 
Q 1575 338 1659 338 
Q 1772 338 1863 397 
Q 1988 478 2163 725 
L 2163 2288 
Q 2163 2619 2102 2700 
Q 2041 2781 1847 2806 
L 1847 2922 
L 3038 2922 
z
" transform="scale(0.015625)"/>
      <path id="TimesNewRomanPS-BoldMT-72" d="M 1428 2922 
L 1428 2259 
Q 1719 2713 1937 2861 
Q 2156 3009 2359 3009 
Q 2534 3009 2639 2901 
Q 2744 2794 2744 2597 
Q 2744 2388 2642 2272 
Q 2541 2156 2397 2156 
Q 2231 2156 2109 2262 
Q 1988 2369 1966 2381 
Q 1934 2400 1894 2400 
Q 1803 2400 1722 2331 
Q 1594 2225 1528 2028 
Q 1428 1725 1428 1359 
L 1428 688 
L 1431 513 
Q 1431 334 1453 284 
Q 1491 200 1564 161 
Q 1638 122 1813 113 
L 1813 0 
L 234 0 
L 234 113 
Q 425 128 492 217 
Q 559 306 559 688 
L 559 2303 
Q 559 2553 534 2622 
Q 503 2709 443 2750 
Q 384 2791 234 2806 
L 234 2922 
L 1428 2922 
z
" transform="scale(0.015625)"/>
      <path id="TimesNewRomanPS-BoldMT-65" d="M 2691 1566 
L 1088 1566 
Q 1116 984 1397 647 
Q 1613 388 1916 388 
Q 2103 388 2256 492 
Q 2409 597 2584 869 
L 2691 800 
Q 2453 316 2165 114 
Q 1878 -88 1500 -88 
Q 850 -88 516 413 
Q 247 816 247 1413 
Q 247 2144 642 2576 
Q 1038 3009 1569 3009 
Q 2013 3009 2339 2645 
Q 2666 2281 2691 1566 
z
M 1922 1775 
Q 1922 2278 1867 2465 
Q 1813 2653 1697 2750 
Q 1631 2806 1522 2806 
Q 1359 2806 1256 2647 
Q 1072 2369 1072 1884 
L 1072 1775 
L 1922 1775 
z
" transform="scale(0.015625)"/>
      <path id="TimesNewRomanPS-BoldMT-45" d="M 1744 3994 
L 1744 2269 
L 1828 2269 
Q 2231 2269 2412 2522 
Q 2594 2775 2644 3269 
L 2763 3269 
L 2763 1050 
L 2644 1050 
Q 2606 1413 2486 1644 
Q 2366 1875 2206 1954 
Q 2047 2034 1744 2034 
L 1744 841 
Q 1744 491 1773 412 
Q 1803 334 1884 284 
Q 1966 234 2147 234 
L 2400 234 
Q 2994 234 3351 509 
Q 3709 784 3866 1347 
L 3981 1347 
L 3791 0 
L 128 0 
L 128 116 
L 269 116 
Q 453 116 566 181 
Q 647 225 691 331 
Q 725 406 725 725 
L 725 3513 
Q 725 3800 709 3866 
Q 678 3975 594 4034 
Q 475 4122 269 4122 
L 128 4122 
L 128 4238 
L 3675 4238 
L 3675 2984 
L 3556 2984 
Q 3466 3444 3302 3644 
Q 3138 3844 2838 3938 
Q 2663 3994 2181 3994 
L 1744 3994 
z
" transform="scale(0.015625)"/>
      <path id="TimesNewRomanPS-BoldMT-66" d="M 1497 2616 
L 1497 588 
Q 1497 294 1559 219 
Q 1659 103 1928 113 
L 1928 0 
L 206 0 
L 206 113 
Q 403 116 486 158 
Q 569 200 600 275 
Q 631 350 631 588 
L 631 2616 
L 206 2616 
L 206 2922 
L 631 2922 
L 631 3138 
L 628 3284 
Q 628 3734 958 4034 
Q 1288 4334 1850 4334 
Q 2234 4334 2420 4190 
Q 2606 4047 2606 3872 
Q 2606 3731 2490 3628 
Q 2375 3525 2184 3525 
Q 2022 3525 1926 3609 
Q 1831 3694 1831 3797 
Q 1831 3825 1850 3913 
Q 1863 3966 1863 4013 
Q 1863 4078 1825 4109 
Q 1775 4156 1703 4156 
Q 1613 4156 1552 4081 
Q 1491 4006 1491 3841 
L 1497 3294 
L 1497 2922 
L 1928 2922 
L 1928 2616 
L 1497 2616 
z
" transform="scale(0.015625)"/>
      <path id="TimesNewRomanPS-BoldMT-63" d="M 2600 753 
L 2697 678 
Q 2491 291 2183 101 
Q 1875 -88 1528 -88 
Q 944 -88 594 353 
Q 244 794 244 1413 
Q 244 2009 563 2463 
Q 947 3009 1622 3009 
Q 2075 3009 2342 2781 
Q 2609 2553 2609 2272 
Q 2609 2094 2501 1987 
Q 2394 1881 2219 1881 
Q 2034 1881 1914 2003 
Q 1794 2125 1766 2438 
Q 1747 2634 1675 2713 
Q 1603 2791 1506 2791 
Q 1356 2791 1250 2631 
Q 1088 2391 1088 1894 
Q 1088 1481 1219 1104 
Q 1350 728 1578 544 
Q 1750 409 1984 409 
Q 2138 409 2275 481 
Q 2413 553 2600 753 
z
" transform="scale(0.015625)"/>
      <path id="TimesNewRomanPS-BoldMT-74" d="M 1375 3991 
L 1375 2922 
L 2069 2922 
L 2069 2613 
L 1375 2613 
L 1375 809 
Q 1375 556 1398 482 
Q 1422 409 1481 364 
Q 1541 319 1591 319 
Q 1794 319 1975 628 
L 2069 559 
Q 1816 -41 1247 -41 
Q 969 -41 776 114 
Q 584 269 531 459 
Q 500 566 500 1034 
L 500 2613 
L 119 2613 
L 119 2722 
Q 513 3000 789 3306 
Q 1066 3613 1272 3991 
L 1375 3991 
z
" transform="scale(0.015625)"/>
      <path id="TimesNewRomanPS-BoldMT-53" d="M 3006 4334 
L 3041 2922 
L 2913 2922 
Q 2822 3453 2467 3776 
Q 2113 4100 1700 4100 
Q 1381 4100 1195 3929 
Q 1009 3759 1009 3538 
Q 1009 3397 1075 3288 
Q 1166 3141 1366 2997 
Q 1513 2894 2044 2631 
Q 2788 2266 3047 1941 
Q 3303 1616 3303 1197 
Q 3303 666 2889 283 
Q 2475 -100 1838 -100 
Q 1638 -100 1459 -59 
Q 1281 -19 1013 94 
Q 863 156 766 156 
Q 684 156 593 93 
Q 503 31 447 -97 
L 331 -97 
L 331 1503 
L 447 1503 
Q 584 828 976 473 
Q 1369 119 1822 119 
Q 2172 119 2380 309 
Q 2588 500 2588 753 
Q 2588 903 2508 1043 
Q 2428 1184 2265 1311 
Q 2103 1438 1691 1641 
Q 1113 1925 859 2125 
Q 606 2325 470 2572 
Q 334 2819 334 3116 
Q 334 3622 706 3978 
Q 1078 4334 1644 4334 
Q 1850 4334 2044 4284 
Q 2191 4247 2402 4145 
Q 2613 4044 2697 4044 
Q 2778 4044 2825 4094 
Q 2872 4144 2913 4334 
L 3006 4334 
z
" transform="scale(0.015625)"/>
      <path id="TimesNewRomanPS-BoldMT-7a" d="M 2609 0 
L 66 0 
L 66 69 
L 1672 2731 
L 1203 2731 
Q 900 2731 769 2676 
Q 638 2622 556 2501 
Q 475 2381 388 2072 
L 278 2072 
L 278 2922 
L 2738 2922 
L 2738 2838 
L 1144 200 
L 1344 200 
Q 1944 200 2209 372 
Q 2475 544 2609 1000 
L 2697 1000 
L 2609 0 
z
" transform="scale(0.015625)"/>
      <path id="TimesNewRomanPS-BoldMT-73" d="M 2063 3003 
L 2109 2006 
L 2003 2006 
Q 1813 2450 1608 2612 
Q 1403 2775 1200 2775 
Q 1072 2775 981 2689 
Q 891 2603 891 2491 
Q 891 2406 953 2328 
Q 1053 2200 1512 1889 
Q 1972 1578 2117 1361 
Q 2263 1144 2263 875 
Q 2263 631 2141 397 
Q 2019 163 1797 37 
Q 1575 -88 1306 -88 
Q 1097 -88 747 44 
Q 653 78 619 78 
Q 516 78 447 -78 
L 344 -78 
L 294 972 
L 400 972 
Q 541 559 786 353 
Q 1031 147 1250 147 
Q 1400 147 1495 239 
Q 1591 331 1591 463 
Q 1591 613 1497 722 
Q 1403 831 1078 1053 
Q 600 1384 459 1559 
Q 253 1816 253 2125 
Q 253 2463 486 2736 
Q 719 3009 1159 3009 
Q 1397 3009 1619 2894 
Q 1703 2847 1756 2847 
Q 1813 2847 1847 2870 
Q 1881 2894 1956 3003 
L 2063 3003 
z
" transform="scale(0.015625)"/>
      <path id="TimesNewRomanPS-BoldMT-62" d="M 1347 4238 
L 1347 2628 
Q 1716 3009 2153 3009 
Q 2453 3009 2718 2832 
Q 2984 2656 3134 2331 
Q 3284 2006 3284 1581 
Q 3284 1103 3093 712 
Q 2903 322 2584 117 
Q 2266 -88 1856 -88 
Q 1619 -88 1434 -12 
Q 1250 63 1072 231 
L 588 -84 
L 481 -84 
L 481 3631 
Q 481 3884 459 3944 
Q 428 4031 361 4073 
Q 294 4116 134 4122 
L 134 4238 
L 1347 4238 
z
M 1347 2350 
L 1347 1050 
Q 1347 653 1366 544 
Q 1397 359 1515 245 
Q 1634 131 1819 131 
Q 1978 131 2092 222 
Q 2206 313 2282 581 
Q 2359 850 2359 1550 
Q 2359 2222 2191 2472 
Q 2069 2653 1863 2653 
Q 1594 2653 1347 2350 
z
" transform="scale(0.015625)"/>
      <path id="TimesNewRomanPS-BoldMT-79" d="M 1556 -119 
L 613 2047 
Q 400 2538 298 2650 
Q 197 2763 53 2806 
L 53 2922 
L 1606 2922 
L 1606 2806 
Q 1453 2800 1390 2747 
Q 1328 2694 1328 2619 
Q 1328 2500 1484 2150 
L 1984 1006 
L 2325 1891 
Q 2509 2363 2509 2547 
Q 2509 2663 2432 2731 
Q 2356 2800 2163 2806 
L 2163 2922 
L 3141 2922 
L 3141 2806 
Q 2997 2791 2906 2695 
Q 2816 2600 2603 2047 
L 1769 -119 
Q 1453 -931 1300 -1119 
Q 1084 -1381 759 -1381 
Q 500 -1381 339 -1232 
Q 178 -1084 178 -875 
Q 178 -694 289 -575 
Q 400 -456 563 -456 
Q 719 -456 814 -556 
Q 909 -656 913 -866 
Q 916 -984 941 -1019 
Q 966 -1053 1013 -1053 
Q 1088 -1053 1172 -963 
Q 1297 -831 1466 -363 
L 1556 -119 
z
" transform="scale(0.015625)"/>
      <path id="TimesNewRomanPS-BoldMT-57" d="M 6344 4238 
L 6344 4122 
Q 6225 4113 6144 4056 
Q 6063 4000 6000 3884 
Q 5981 3847 5803 3400 
L 4475 -97 
L 4353 -97 
L 3303 2634 
L 2147 -97 
L 2031 -97 
L 638 3363 
Q 425 3884 340 3993 
Q 256 4103 56 4122 
L 56 4238 
L 1894 4238 
L 1894 4122 
Q 1672 4116 1598 4055 
Q 1525 3994 1525 3903 
Q 1525 3784 1678 3400 
L 2509 1344 
L 3175 2950 
L 3000 3400 
Q 2856 3769 2778 3892 
Q 2700 4016 2598 4069 
Q 2497 4122 2300 4122 
L 2300 4238 
L 4353 4238 
L 4353 4122 
Q 4138 4119 4044 4088 
Q 3978 4066 3940 4014 
Q 3903 3963 3903 3897 
Q 3903 3825 4044 3456 
L 4816 1450 
L 5506 3266 
Q 5616 3547 5641 3650 
Q 5666 3753 5666 3841 
Q 5666 3969 5578 4042 
Q 5491 4116 5244 4122 
L 5244 4238 
L 6344 4238 
z
" transform="scale(0.015625)"/>
      <path id="TimesNewRomanPS-BoldMT-61" d="M 1828 431 
Q 1294 -41 869 -41 
Q 619 -41 453 123 
Q 288 288 288 534 
Q 288 869 575 1136 
Q 863 1403 1828 1847 
L 1828 2141 
Q 1828 2472 1792 2558 
Q 1756 2644 1656 2708 
Q 1556 2772 1431 2772 
Q 1228 2772 1097 2681 
Q 1016 2625 1016 2550 
Q 1016 2484 1103 2388 
Q 1222 2253 1222 2128 
Q 1222 1975 1108 1867 
Q 994 1759 809 1759 
Q 613 1759 480 1878 
Q 347 1997 347 2156 
Q 347 2381 525 2586 
Q 703 2791 1022 2900 
Q 1341 3009 1684 3009 
Q 2100 3009 2342 2832 
Q 2584 2656 2656 2450 
Q 2700 2319 2700 1847 
L 2700 713 
Q 2700 513 2715 461 
Q 2731 409 2762 384 
Q 2794 359 2834 359 
Q 2916 359 3000 475 
L 3094 400 
Q 2938 169 2770 64 
Q 2603 -41 2391 -41 
Q 2141 -41 2000 76 
Q 1859 194 1828 431 
z
M 1828 659 
L 1828 1638 
Q 1450 1416 1266 1163 
Q 1144 994 1144 822 
Q 1144 678 1247 569 
Q 1325 484 1466 484 
Q 1622 484 1828 659 
z
" transform="scale(0.015625)"/>
      <path id="TimesNewRomanPS-BoldMT-43" d="M 4272 4334 
L 4272 2866 
L 4150 2866 
Q 4013 3441 3638 3747 
Q 3263 4053 2788 4053 
Q 2391 4053 2059 3825 
Q 1728 3597 1575 3228 
Q 1378 2756 1378 2178 
Q 1378 1609 1522 1142 
Q 1666 675 1972 436 
Q 2278 197 2766 197 
Q 3166 197 3498 372 
Q 3831 547 4200 975 
L 4200 609 
Q 3844 238 3458 70 
Q 3072 -97 2556 -97 
Q 1878 -97 1351 175 
Q 825 447 539 956 
Q 253 1466 253 2041 
Q 253 2647 570 3190 
Q 888 3734 1427 4034 
Q 1966 4334 2572 4334 
Q 3019 4334 3516 4141 
Q 3803 4028 3881 4028 
Q 3981 4028 4054 4101 
Q 4128 4175 4150 4334 
L 4272 4334 
z
" transform="scale(0.015625)"/>
      <path id="TimesNewRomanPS-BoldMT-6f" d="M 1594 3009 
Q 1975 3009 2303 2812 
Q 2631 2616 2801 2253 
Q 2972 1891 2972 1459 
Q 2972 838 2656 419 
Q 2275 -88 1603 -88 
Q 944 -88 587 375 
Q 231 838 231 1447 
Q 231 2075 595 2542 
Q 959 3009 1594 3009 
z
M 1606 2788 
Q 1447 2788 1333 2667 
Q 1219 2547 1183 2192 
Q 1147 1838 1147 1206 
Q 1147 872 1191 581 
Q 1225 359 1337 243 
Q 1450 128 1594 128 
Q 1734 128 1828 206 
Q 1950 313 1991 503 
Q 2053 800 2053 1703 
Q 2053 2234 1993 2432 
Q 1934 2631 1819 2722 
Q 1738 2788 1606 2788 
z
" transform="scale(0.015625)"/>
     </defs>
     <use xlink:href="#TimesNewRomanPS-BoldMT-46"/>
     <use xlink:href="#TimesNewRomanPS-BoldMT-69" transform="translate(61.083984 0)"/>
     <use xlink:href="#TimesNewRomanPS-BoldMT-67" transform="translate(88.867188 0)"/>
     <use xlink:href="#TimesNewRomanPS-BoldMT-75" transform="translate(138.867188 0)"/>
     <use xlink:href="#TimesNewRomanPS-BoldMT-72" transform="translate(194.482422 0)"/>
     <use xlink:href="#TimesNewRomanPS-BoldMT-65" transform="translate(237.117188 0)"/>
     <use xlink:href="#TimesNewRomanPS-BoldMT-20" transform="translate(281.501953 0)"/>
     <use xlink:href="#TimesNewRomanPS-BoldMT-32" transform="translate(306.501953 0)"/>
     <use xlink:href="#TimesNewRomanPS-BoldMT-2e" transform="translate(356.501953 0)"/>
     <use xlink:href="#TimesNewRomanPS-BoldMT-20" transform="translate(381.501953 0)"/>
     <use xlink:href="#TimesNewRomanPS-BoldMT-20" transform="translate(406.501953 0)"/>
     <use xlink:href="#TimesNewRomanPS-BoldMT-45" transform="translate(431.501953 0)"/>
     <use xlink:href="#TimesNewRomanPS-BoldMT-66" transform="translate(498.201172 0)"/>
     <use xlink:href="#TimesNewRomanPS-BoldMT-66" transform="translate(531.501953 0)"/>
     <use xlink:href="#TimesNewRomanPS-BoldMT-65" transform="translate(564.802734 0)"/>
     <use xlink:href="#TimesNewRomanPS-BoldMT-63" transform="translate(609.1875 0)"/>
     <use xlink:href="#TimesNewRomanPS-BoldMT-74" transform="translate(653.572266 0)"/>
     <use xlink:href="#TimesNewRomanPS-BoldMT-20" transform="translate(686.873047 0)"/>
     <use xlink:href="#TimesNewRomanPS-BoldMT-53" transform="translate(711.873047 0)"/>
     <use xlink:href="#TimesNewRomanPS-BoldMT-69" transform="translate(767.488281 0)"/>
     <use xlink:href="#TimesNewRomanPS-BoldMT-7a" transform="translate(795.271484 0)"/>
     <use xlink:href="#TimesNewRomanPS-BoldMT-65" transform="translate(839.65625 0)"/>
     <use xlink:href="#TimesNewRomanPS-BoldMT-73" transform="translate(884.041016 0)"/>
     <use xlink:href="#TimesNewRomanPS-BoldMT-20" transform="translate(922.957031 0)"/>
     <use xlink:href="#TimesNewRomanPS-BoldMT-62" transform="translate(947.957031 0)"/>
     <use xlink:href="#TimesNewRomanPS-BoldMT-79" transform="translate(1003.572266 0)"/>
     <use xlink:href="#TimesNewRomanPS-BoldMT-20" transform="translate(1053.572266 0)"/>
     <use xlink:href="#TimesNewRomanPS-BoldMT-57" transform="translate(1076.822266 0)"/>
     <use xlink:href="#TimesNewRomanPS-BoldMT-61" transform="translate(1171.322266 0)"/>
     <use xlink:href="#TimesNewRomanPS-BoldMT-73" transform="translate(1221.322266 0)"/>
     <use xlink:href="#TimesNewRomanPS-BoldMT-74" transform="translate(1260.238281 0)"/>
     <use xlink:href="#TimesNewRomanPS-BoldMT-65" transform="translate(1293.539062 0)"/>
     <use xlink:href="#TimesNewRomanPS-BoldMT-20" transform="translate(1337.923828 0)"/>
     <use xlink:href="#TimesNewRomanPS-BoldMT-43" transform="translate(1362.923828 0)"/>
     <use xlink:href="#TimesNewRomanPS-BoldMT-61" transform="translate(1435.140625 0)"/>
     <use xlink:href="#TimesNewRomanPS-BoldMT-74" transform="translate(1485.140625 0)"/>
     <use xlink:href="#TimesNewRomanPS-BoldMT-65" transform="translate(1518.441406 0)"/>
     <use xlink:href="#TimesNewRomanPS-BoldMT-67" transform="translate(1562.826172 0)"/>
     <use xlink:href="#TimesNewRomanPS-BoldMT-6f" transform="translate(1612.826172 0)"/>
     <use xlink:href="#TimesNewRomanPS-BoldMT-72" transform="translate(1662.826172 0)"/>
     <use xlink:href="#TimesNewRomanPS-BoldMT-79" transform="translate(1707.210938 0)"/>
    </g>
   </g>
   <g id="legend_1">
    <g id="patch_11">
     <path d="M 331.930313 217.040312 
L 443.940156 217.040312 
Q 445.340156 217.040312 445.340156 215.640312 
L 445.340156 186.635156 
Q 445.340156 185.235156 443.940156 185.235156 
L 331.930313 185.235156 
Q 330.530313 185.235156 330.530313 186.635156 
L 330.530313 215.640312 
Q 330.530313 217.040312 331.930313 217.040312 
z
" style="fill: #ffffff; opacity: 0.95; stroke: #e2e8f0; stroke-linejoin: miter"/>
    </g>
    <g id="patch_12">
     <path d="M 333.330313 192.935156 
L 347.330313 192.935156 
L 347.330313 188.035156 
L 333.330313 188.035156 
z
" style="fill: #15803d; stroke: #15803d; stroke-linejoin: miter"/>
    </g>
    <g id="text_21">
     <!-- Bucket A: Directly Recoverable -->
     <g transform="translate(352.930313 192.935156) scale(0.07 -0.07)">
      <defs>
       <path id="TimesNewRomanPSMT-6b" d="M 1047 4444 
L 1047 1597 
L 1775 2259 
Q 2006 2472 2044 2528 
Q 2069 2566 2069 2603 
Q 2069 2666 2017 2711 
Q 1966 2756 1847 2763 
L 1847 2863 
L 3091 2863 
L 3091 2763 
Q 2834 2756 2664 2684 
Q 2494 2613 2291 2428 
L 1556 1750 
L 2291 822 
Q 2597 438 2703 334 
Q 2853 188 2966 144 
Q 3044 113 3238 113 
L 3238 0 
L 1847 0 
L 1847 113 
Q 1966 116 2008 148 
Q 2050 181 2050 241 
Q 2050 313 1925 472 
L 1047 1594 
L 1047 644 
Q 1047 366 1086 278 
Q 1125 191 1197 153 
Q 1269 116 1509 113 
L 1509 0 
L 53 0 
L 53 113 
Q 272 113 381 166 
Q 447 200 481 272 
Q 528 375 528 628 
L 528 3234 
Q 528 3731 506 3842 
Q 484 3953 434 3995 
Q 384 4038 303 4038 
Q 238 4038 106 3984 
L 53 4094 
L 903 4444 
L 1047 4444 
z
" transform="scale(0.015625)"/>
       <path id="TimesNewRomanPSMT-3a" d="M 903 2950 
Q 1047 2950 1148 2848 
Q 1250 2747 1250 2603 
Q 1250 2459 1148 2357 
Q 1047 2256 903 2256 
Q 759 2256 657 2357 
Q 556 2459 556 2603 
Q 556 2747 657 2848 
Q 759 2950 903 2950 
z
M 897 609 
Q 1044 609 1145 506 
Q 1247 403 1247 259 
Q 1247 116 1144 14 
Q 1041 -88 897 -88 
Q 753 -88 651 14 
Q 550 116 550 259 
Q 550 403 651 506 
Q 753 609 897 609 
z
" transform="scale(0.015625)"/>
       <path id="TimesNewRomanPSMT-44" d="M 109 0 
L 109 116 
L 269 116 
Q 538 116 650 288 
Q 719 391 719 750 
L 719 3488 
Q 719 3884 631 3984 
Q 509 4122 269 4122 
L 109 4122 
L 109 4238 
L 1834 4238 
Q 2784 4238 3279 4022 
Q 3775 3806 4076 3303 
Q 4378 2800 4378 2141 
Q 4378 1256 3841 663 
Q 3238 0 2003 0 
L 109 0 
z
M 1319 306 
Q 1716 219 1984 219 
Q 2709 219 3187 728 
Q 3666 1238 3666 2109 
Q 3666 2988 3187 3494 
Q 2709 4000 1959 4000 
Q 1678 4000 1319 3909 
L 1319 306 
z
" transform="scale(0.015625)"/>
       <path id="TimesNewRomanPSMT-79" d="M 38 2863 
L 1372 2863 
L 1372 2747 
L 1306 2747 
Q 1166 2747 1095 2686 
Q 1025 2625 1025 2534 
Q 1025 2413 1128 2197 
L 1825 753 
L 2466 2334 
Q 2519 2463 2519 2588 
Q 2519 2644 2497 2672 
Q 2472 2706 2419 2726 
Q 2366 2747 2231 2747 
L 2231 2863 
L 3163 2863 
L 3163 2747 
Q 3047 2734 2984 2696 
Q 2922 2659 2847 2556 
Q 2819 2513 2741 2316 
L 1575 -541 
Q 1406 -956 1132 -1168 
Q 859 -1381 606 -1381 
Q 422 -1381 303 -1275 
Q 184 -1169 184 -1031 
Q 184 -900 270 -820 
Q 356 -741 506 -741 
Q 609 -741 788 -809 
Q 913 -856 944 -856 
Q 1038 -856 1148 -759 
Q 1259 -663 1372 -384 
L 1575 113 
L 547 2272 
Q 500 2369 397 2513 
Q 319 2622 269 2659 
Q 197 2709 38 2747 
L 38 2863 
z
" transform="scale(0.015625)"/>
       <path id="TimesNewRomanPSMT-52" d="M 4325 0 
L 3194 0 
L 1759 1981 
Q 1600 1975 1500 1975 
Q 1459 1975 1412 1976 
Q 1366 1978 1316 1981 
L 1316 750 
Q 1316 350 1403 253 
Q 1522 116 1759 116 
L 1925 116 
L 1925 0 
L 109 0 
L 109 116 
L 269 116 
Q 538 116 653 291 
Q 719 388 719 750 
L 719 3488 
Q 719 3888 631 3984 
Q 509 4122 269 4122 
L 109 4122 
L 109 4238 
L 1653 4238 
Q 2328 4238 2648 4139 
Q 2969 4041 3192 3777 
Q 3416 3513 3416 3147 
Q 3416 2756 3161 2468 
Q 2906 2181 2372 2063 
L 3247 847 
Q 3547 428 3762 290 
Q 3978 153 4325 116 
L 4325 0 
z
M 1316 2178 
Q 1375 2178 1419 2176 
Q 1463 2175 1491 2175 
Q 2097 2175 2405 2437 
Q 2713 2700 2713 3106 
Q 2713 3503 2464 3751 
Q 2216 4000 1806 4000 
Q 1625 4000 1316 3941 
L 1316 2178 
z
" transform="scale(0.015625)"/>
      </defs>
      <use xlink:href="#TimesNewRomanPSMT-42"/>
      <use xlink:href="#TimesNewRomanPSMT-75" transform="translate(66.699219 0)"/>
      <use xlink:href="#TimesNewRomanPSMT-63" transform="translate(116.699219 0)"/>
      <use xlink:href="#TimesNewRomanPSMT-6b" transform="translate(161.083984 0)"/>
      <use xlink:href="#TimesNewRomanPSMT-65" transform="translate(211.083984 0)"/>
      <use xlink:href="#TimesNewRomanPSMT-74" transform="translate(255.46875 0)"/>
      <use xlink:href="#TimesNewRomanPSMT-20" transform="translate(283.251953 0)"/>
      <use xlink:href="#TimesNewRomanPSMT-41" transform="translate(302.751953 0)"/>
      <use xlink:href="#TimesNewRomanPSMT-3a" transform="translate(374.96875 0)"/>
      <use xlink:href="#TimesNewRomanPSMT-20" transform="translate(402.751953 0)"/>
      <use xlink:href="#TimesNewRomanPSMT-44" transform="translate(427.751953 0)"/>
      <use xlink:href="#TimesNewRomanPSMT-69" transform="translate(499.96875 0)"/>
      <use xlink:href="#TimesNewRomanPSMT-72" transform="translate(527.751953 0)"/>
      <use xlink:href="#TimesNewRomanPSMT-65" transform="translate(561.052734 0)"/>
      <use xlink:href="#TimesNewRomanPSMT-63" transform="translate(605.4375 0)"/>
      <use xlink:href="#TimesNewRomanPSMT-74" transform="translate(649.822266 0)"/>
      <use xlink:href="#TimesNewRomanPSMT-6c" transform="translate(677.605469 0)"/>
      <use xlink:href="#TimesNewRomanPSMT-79" transform="translate(705.388672 0)"/>
      <use xlink:href="#TimesNewRomanPSMT-20" transform="translate(755.388672 0)"/>
      <use xlink:href="#TimesNewRomanPSMT-52" transform="translate(780.388672 0)"/>
      <use xlink:href="#TimesNewRomanPSMT-65" transform="translate(847.087891 0)"/>
      <use xlink:href="#TimesNewRomanPSMT-63" transform="translate(891.472656 0)"/>
      <use xlink:href="#TimesNewRomanPSMT-6f" transform="translate(935.857422 0)"/>
      <use xlink:href="#TimesNewRomanPSMT-76" transform="translate(985.857422 0)"/>
      <use xlink:href="#TimesNewRomanPSMT-65" transform="translate(1035.857422 0)"/>
      <use xlink:href="#TimesNewRomanPSMT-72" transform="translate(1080.242188 0)"/>
      <use xlink:href="#TimesNewRomanPSMT-61" transform="translate(1113.542969 0)"/>
      <use xlink:href="#TimesNewRomanPSMT-62" transform="translate(1157.927734 0)"/>
      <use xlink:href="#TimesNewRomanPSMT-6c" transform="translate(1207.927734 0)"/>
      <use xlink:href="#TimesNewRomanPSMT-65" transform="translate(1235.710938 0)"/>
     </g>
    </g>
    <g id="patch_13">
     <path d="M 333.330313 202.845625 
L 347.330313 202.845625 
L 347.330313 197.945625 
L 333.330313 197.945625 
z
" style="fill: #7e22ce; stroke: #7e22ce; stroke-linejoin: miter"/>
    </g>
    <g id="text_22">
     <!-- Bucket B: Decision Support -->
     <g transform="translate(352.930313 202.845625) scale(0.07 -0.07)">
      <use xlink:href="#TimesNewRomanPSMT-42"/>
      <use xlink:href="#TimesNewRomanPSMT-75" transform="translate(66.699219 0)"/>
      <use xlink:href="#TimesNewRomanPSMT-63" transform="translate(116.699219 0)"/>
      <use xlink:href="#TimesNewRomanPSMT-6b" transform="translate(161.083984 0)"/>
      <use xlink:href="#TimesNewRomanPSMT-65" transform="translate(211.083984 0)"/>
      <use xlink:href="#TimesNewRomanPSMT-74" transform="translate(255.46875 0)"/>
      <use xlink:href="#TimesNewRomanPSMT-20" transform="translate(283.251953 0)"/>
      <use xlink:href="#TimesNewRomanPSMT-42" transform="translate(308.251953 0)"/>
      <use xlink:href="#TimesNewRomanPSMT-3a" transform="translate(374.951172 0)"/>
      <use xlink:href="#TimesNewRomanPSMT-20" transform="translate(402.734375 0)"/>
      <use xlink:href="#TimesNewRomanPSMT-44" transform="translate(427.734375 0)"/>
      <use xlink:href="#TimesNewRomanPSMT-65" transform="translate(499.951172 0)"/>
      <use xlink:href="#TimesNewRomanPSMT-63" transform="translate(544.335938 0)"/>
      <use xlink:href="#TimesNewRomanPSMT-69" transform="translate(588.720703 0)"/>
      <use xlink:href="#TimesNewRomanPSMT-73" transform="translate(616.503906 0)"/>
      <use xlink:href="#TimesNewRomanPSMT-69" transform="translate(655.419922 0)"/>
      <use xlink:href="#TimesNewRomanPSMT-6f" transform="translate(683.203125 0)"/>
      <use xlink:href="#TimesNewRomanPSMT-6e" transform="translate(733.203125 0)"/>
      <use xlink:href="#TimesNewRomanPSMT-20" transform="translate(783.203125 0)"/>
      <use xlink:href="#TimesNewRomanPSMT-53" transform="translate(808.203125 0)"/>
      <use xlink:href="#TimesNewRomanPSMT-75" transform="translate(863.818359 0)"/>
      <use xlink:href="#TimesNewRomanPSMT-70" transform="translate(913.818359 0)"/>
      <use xlink:href="#TimesNewRomanPSMT-70" transform="translate(963.818359 0)"/>
      <use xlink:href="#TimesNewRomanPSMT-6f" transform="translate(1013.818359 0)"/>
      <use xlink:href="#TimesNewRomanPSMT-72" transform="translate(1063.818359 0)"/>
      <use xlink:href="#TimesNewRomanPSMT-74" transform="translate(1097.119141 0)"/>
     </g>
    </g>
    <g id="patch_14">
     <path d="M 333.330313 212.742969 
L 347.330313 212.742969 
L 347.330313 207.842969 
L 333.330313 207.842969 
z
" style="fill: #b91c1c; stroke: #b91c1c; stroke-linejoin: miter"/>
    </g>
    <g id="text_23">
     <!-- Bucket C: Risk Prevention -->
     <g transform="translate(352.930313 212.742969) scale(0.07 -0.07)">
      <use xlink:href="#TimesNewRomanPSMT-42"/>
      <use xlink:href="#TimesNewRomanPSMT-75" transform="translate(66.699219 0)"/>
      <use xlink:href="#TimesNewRomanPSMT-63" transform="translate(116.699219 0)"/>
      <use xlink:href="#TimesNewRomanPSMT-6b" transform="translate(161.083984 0)"/>
      <use xlink:href="#TimesNewRomanPSMT-65" transform="translate(211.083984 0)"/>
      <use xlink:href="#TimesNewRomanPSMT-74" transform="translate(255.46875 0)"/>
      <use xlink:href="#TimesNewRomanPSMT-20" transform="translate(283.251953 0)"/>
      <use xlink:href="#TimesNewRomanPSMT-43" transform="translate(308.251953 0)"/>
      <use xlink:href="#TimesNewRomanPSMT-3a" transform="translate(374.951172 0)"/>
      <use xlink:href="#TimesNewRomanPSMT-20" transform="translate(402.734375 0)"/>
      <use xlink:href="#TimesNewRomanPSMT-52" transform="translate(427.734375 0)"/>
      <use xlink:href="#TimesNewRomanPSMT-69" transform="translate(494.433594 0)"/>
      <use xlink:href="#TimesNewRomanPSMT-73" transform="translate(522.216797 0)"/>
      <use xlink:href="#TimesNewRomanPSMT-6b" transform="translate(561.132812 0)"/>
      <use xlink:href="#TimesNewRomanPSMT-20" transform="translate(611.132812 0)"/>
      <use xlink:href="#TimesNewRomanPSMT-50" transform="translate(636.132812 0)"/>
      <use xlink:href="#TimesNewRomanPSMT-72" transform="translate(691.748047 0)"/>
      <use xlink:href="#TimesNewRomanPSMT-65" transform="translate(725.048828 0)"/>
      <use xlink:href="#TimesNewRomanPSMT-76" transform="translate(769.433594 0)"/>
      <use xlink:href="#TimesNewRomanPSMT-65" transform="translate(819.433594 0)"/>
      <use xlink:href="#TimesNewRomanPSMT-6e" transform="translate(863.818359 0)"/>
      <use xlink:href="#TimesNewRomanPSMT-74" transform="translate(913.818359 0)"/>
      <use xlink:href="#TimesNewRomanPSMT-69" transform="translate(941.601562 0)"/>
      <use xlink:href="#TimesNewRomanPSMT-6f" transform="translate(969.384766 0)"/>
      <use xlink:href="#TimesNewRomanPSMT-6e" transform="translate(1019.384766 0)"/>
     </g>
    </g>
   </g>
  </g>
 </g>
 <defs>
  <clipPath id="pa5c1e638fb">
   <rect x="86.140156" y="26.500313" width="362.7" height="194.04"/>
  </clipPath>
 </defs>
</svg>
