<?xml version="1.0" encoding="utf-8" standalone="no"?>
<!DOCTYPE svg PUBLIC "-//W3C//DTD SVG 1.1//EN"
  "http://www.w3.org/Graphics/SVG/1.1/DTD/svg11.dtd">
<svg xmlns:xlink="http://www.w3.org/1999/xlink" width="712.834969pt" height="341.412812pt" viewBox="0 0 712.834969 341.412812" xmlns="http://www.w3.org/2000/svg" version="1.1">
 <metadata>
  <rdf:RDF xmlns:dc="http://purl.org/dc/elements/1.1/" xmlns:cc="http://creativecommons.org/ns#" xmlns:rdf="http://www.w3.org/1999/02/22-rdf-syntax-ns#">
   <cc:Work>
    <dc:type rdf:resource="http://purl.org/dc/dcmitype/StillImage"/>
    <dc:date>2026-03-19T14:08:47.966580</dc:date>
    <dc:format>image/svg+xml</dc:format>
    <dc:creator>
     <cc:Agent>
      <dc:title>Matplotlib v3.10.8, https://matplotlib.org/</dc:title>
     </cc:Agent>
    </dc:creator>
   </cc:Work>
  </rdf:RDF>
 </metadata>
 <defs>
  <style type="text/css">*{stroke-linejoin: round; stroke-linecap: butt}</style>
 </defs>
 <g id="figure_1">
  <g id="patch_1">
   <path d="M 0 341.412812 
L 712.834969 341.412812 
L 712.834969 0 
L 0 0 
z
" style="fill: #ffffff"/>
  </g>
  <g id="axes_1">
   <g id="patch_2">
    <path d="M 68.209844 303.16 
L 212.524844 303.16 
L 212.524844 63.96 
L 68.209844 63.96 
z
" style="fill: #ffffff"/>
   </g>
   <g id="patch_3">
    <path d="M 68.209844 74.832727 
L 188.352081 74.832727 
L 188.352081 147.317576 
L 68.209844 147.317576 
z
" clip-path="url(#p1f7e025a36)" style="fill: #16a34a; opacity: 0.8; stroke: #ffffff; stroke-width: 0.5; stroke-linejoin: miter"/>
   </g>
   <g id="patch_4">
    <path d="M 68.209844 219.802424 
L 182.098431 219.802424 
L 182.098431 292.287273 
L 68.209844 292.287273 
z
" clip-path="url(#p1f7e025a36)" style="fill: #16a34a; opacity: 0.8; stroke: #ffffff; stroke-width: 0.5; stroke-linejoin: miter"/>
   </g>
   <g id="matplotlib.axis_1">
    <g id="xtick_1">
     <g id="line2d_1">
      <defs>
       <path id="mb7790b78ab" d="M 0 0 
L 0 3.5 
" style="stroke: #000000; stroke-width: 0.8"/>
      </defs>
      <g>
       <use xlink:href="#mb7790b78ab" x="68.209844" y="303.16" style="stroke: #000000; stroke-width: 0.8"/>
      </g>
     </g>
     <g id="text_1">
      <!-- 0 -->
      <g transform="translate(65.346719 316.998594) scale(0.09 -0.09)">
       <defs>
        <path id="DejaVuSerif-30" d="M 2034 219 
Q 2513 219 2750 744 
Q 2988 1269 2988 2328 
Q 2988 3391 2750 3916 
Q 2513 4441 2034 4441 
Q 1556 4441 1318 3916 
Q 1081 3391 1081 2328 
Q 1081 1269 1318 744 
Q 1556 219 2034 219 
z
M 2034 -91 
Q 1275 -91 848 546 
Q 422 1184 422 2328 
Q 422 3475 848 4112 
Q 1275 4750 2034 4750 
Q 2797 4750 3222 4112 
Q 3647 3475 3647 2328 
Q 3647 1184 3222 546 
Q 2797 -91 2034 -91 
z
" transform="scale(0.015625)"/>
       </defs>
       <use xlink:href="#DejaVuSerif-30"/>
      </g>
     </g>
    </g>
    <g id="xtick_2">
     <g id="line2d_2">
      <g>
       <use xlink:href="#mb7790b78ab" x="98.275469" y="303.16" style="stroke: #000000; stroke-width: 0.8"/>
      </g>
     </g>
     <g id="text_2">
      <!-- 25 -->
      <g transform="translate(92.549219 316.998594) scale(0.09 -0.09)">
       <defs>
        <path id="DejaVuSerif-32" d="M 819 3553 
L 469 3553 
L 469 4384 
Q 803 4563 1142 4656 
Q 1481 4750 1806 4750 
Q 2534 4750 2956 4397 
Q 3378 4044 3378 3438 
Q 3378 2753 2422 1800 
Q 2347 1728 2309 1691 
L 1131 513 
L 3078 513 
L 3078 1088 
L 3444 1088 
L 3444 0 
L 434 0 
L 434 341 
L 1850 1753 
Q 2319 2222 2519 2614 
Q 2719 3006 2719 3438 
Q 2719 3909 2473 4175 
Q 2228 4441 1797 4441 
Q 1350 4441 1106 4219 
Q 863 3997 819 3553 
z
" transform="scale(0.015625)"/>
        <path id="DejaVuSerif-35" d="M 3219 4666 
L 3219 4153 
L 1081 4153 
L 1081 2816 
Q 1244 2928 1461 2984 
Q 1678 3041 1947 3041 
Q 2703 3041 3140 2622 
Q 3578 2203 3578 1478 
Q 3578 738 3136 323 
Q 2694 -91 1894 -91 
Q 1572 -91 1234 -12 
Q 897 66 544 225 
L 544 1131 
L 897 1131 
Q 925 688 1179 453 
Q 1434 219 1894 219 
Q 2388 219 2653 544 
Q 2919 869 2919 1478 
Q 2919 2084 2655 2407 
Q 2391 2731 1894 2731 
Q 1613 2731 1398 2631 
Q 1184 2531 1019 2322 
L 750 2322 
L 750 4666 
L 3219 4666 
z
" transform="scale(0.015625)"/>
       </defs>
       <use xlink:href="#DejaVuSerif-32"/>
       <use xlink:href="#DejaVuSerif-35" transform="translate(63.623047 0)"/>
      </g>
     </g>
    </g>
    <g id="xtick_3">
     <g id="line2d_3">
      <g>
       <use xlink:href="#mb7790b78ab" x="128.341094" y="303.16" style="stroke: #000000; stroke-width: 0.8"/>
      </g>
     </g>
     <g id="text_3">
      <!-- 50 -->
      <g transform="translate(122.614844 316.998594) scale(0.09 -0.09)">
       <use xlink:href="#DejaVuSerif-35"/>
       <use xlink:href="#DejaVuSerif-30" transform="translate(63.623047 0)"/>
      </g>
     </g>
    </g>
    <g id="xtick_4">
     <g id="line2d_4">
      <g>
       <use xlink:href="#mb7790b78ab" x="158.406719" y="303.16" style="stroke: #000000; stroke-width: 0.8"/>
      </g>
     </g>
     <g id="text_4">
      <!-- 75 -->
      <g transform="translate(152.680469 316.998594) scale(0.09 -0.09)">
       <defs>
        <path id="DejaVuSerif-37" d="M 3609 4347 
L 1784 0 
L 1319 0 
L 3059 4153 
L 903 4153 
L 903 3578 
L 538 3578 
L 538 4666 
L 3609 4666 
L 3609 4347 
z
" transform="scale(0.015625)"/>
       </defs>
       <use xlink:href="#DejaVuSerif-37"/>
       <use xlink:href="#DejaVuSerif-35" transform="translate(63.623047 0)"/>
      </g>
     </g>
    </g>
    <g id="xtick_5">
     <g id="line2d_5">
      <g>
       <use xlink:href="#mb7790b78ab" x="188.472344" y="303.16" style="stroke: #000000; stroke-width: 0.8"/>
      </g>
     </g>
     <g id="text_5">
      <!-- 100 -->
      <g transform="translate(179.882969 316.998594) scale(0.09 -0.09)">
       <defs>
        <path id="DejaVuSerif-31" d="M 909 0 
L 909 331 
L 1722 331 
L 1722 4213 
L 781 3603 
L 781 4013 
L 1919 4750 
L 2350 4750 
L 2350 331 
L 3163 331 
L 3163 0 
L 909 0 
z
" transform="scale(0.015625)"/>
       </defs>
       <use xlink:href="#DejaVuSerif-31"/>
       <use xlink:href="#DejaVuSerif-30" transform="translate(63.623047 0)"/>
       <use xlink:href="#DejaVuSerif-30" transform="translate(127.246094 0)"/>
      </g>
     </g>
    </g>
    <g id="text_6">
     <!-- Detection Rate (%) -->
     <g transform="translate(101.780469 328.949062) scale(0.08 -0.08)">
      <defs>
       <path id="DejaVuSerif-44" d="M 1581 331 
L 2163 331 
Q 3072 331 3558 850 
Q 4044 1369 4044 2338 
Q 4044 3306 3559 3818 
Q 3075 4331 2163 4331 
L 1581 4331 
L 1581 331 
z
M 353 0 
L 353 331 
L 947 331 
L 947 4331 
L 353 4331 
L 353 4666 
L 2209 4666 
Q 3416 4666 4089 4050 
Q 4763 3434 4763 2338 
Q 4763 1238 4088 619 
Q 3413 0 2209 0 
L 353 0 
z
" transform="scale(0.015625)"/>
       <path id="DejaVuSerif-65" d="M 3469 1600 
L 991 1600 
L 991 1575 
Q 991 903 1244 561 
Q 1497 219 1991 219 
Q 2369 219 2611 417 
Q 2853 616 2950 1006 
L 3413 1006 
Q 3275 459 2904 184 
Q 2534 -91 1931 -91 
Q 1203 -91 761 389 
Q 319 869 319 1663 
Q 319 2450 753 2931 
Q 1188 3413 1894 3413 
Q 2647 3413 3050 2948 
Q 3453 2484 3469 1600 
z
M 2791 1931 
Q 2772 2513 2545 2808 
Q 2319 3103 1894 3103 
Q 1497 3103 1269 2806 
Q 1041 2509 991 1931 
L 2791 1931 
z
" transform="scale(0.015625)"/>
       <path id="DejaVuSerif-74" d="M 691 2988 
L 184 2988 
L 184 3322 
L 691 3322 
L 691 4353 
L 1269 4353 
L 1269 3322 
L 2350 3322 
L 2350 2988 
L 1269 2988 
L 1269 878 
Q 1269 456 1350 337 
Q 1431 219 1650 219 
Q 1875 219 1978 351 
Q 2081 484 2088 781 
L 2522 781 
Q 2497 328 2275 118 
Q 2053 -91 1600 -91 
Q 1103 -91 897 129 
Q 691 350 691 878 
L 691 2988 
z
" transform="scale(0.015625)"/>
       <path id="DejaVuSerif-63" d="M 3291 997 
Q 3169 466 2822 187 
Q 2475 -91 1925 -91 
Q 1200 -91 759 389 
Q 319 869 319 1663 
Q 319 2459 759 2936 
Q 1200 3413 1925 3413 
Q 2241 3413 2553 3339 
Q 2866 3266 3181 3116 
L 3181 2266 
L 2847 2266 
Q 2781 2703 2561 2903 
Q 2341 3103 1931 3103 
Q 1466 3103 1228 2742 
Q 991 2381 991 1663 
Q 991 944 1227 581 
Q 1463 219 1931 219 
Q 2303 219 2525 412 
Q 2747 606 2828 997 
L 3291 997 
z
" transform="scale(0.015625)"/>
       <path id="DejaVuSerif-69" d="M 622 4353 
Q 622 4497 726 4603 
Q 831 4709 978 4709 
Q 1122 4709 1226 4603 
Q 1331 4497 1331 4353 
Q 1331 4206 1228 4103 
Q 1125 4000 978 4000 
Q 831 4000 726 4103 
Q 622 4206 622 4353 
z
M 1356 331 
L 1900 331 
L 1900 0 
L 231 0 
L 231 331 
L 781 331 
L 781 2988 
L 231 2988 
L 231 3322 
L 1356 3322 
L 1356 331 
z
" transform="scale(0.015625)"/>
       <path id="DejaVuSerif-6f" d="M 1925 219 
Q 2388 219 2623 584 
Q 2859 950 2859 1663 
Q 2859 2375 2623 2739 
Q 2388 3103 1925 3103 
Q 1463 3103 1227 2739 
Q 991 2375 991 1663 
Q 991 950 1228 584 
Q 1466 219 1925 219 
z
M 1925 -91 
Q 1200 -91 759 389 
Q 319 869 319 1663 
Q 319 2456 758 2934 
Q 1197 3413 1925 3413 
Q 2653 3413 3092 2934 
Q 3531 2456 3531 1663 
Q 3531 869 3092 389 
Q 2653 -91 1925 -91 
z
" transform="scale(0.015625)"/>
       <path id="DejaVuSerif-6e" d="M 263 0 
L 263 331 
L 781 331 
L 781 2988 
L 231 2988 
L 231 3322 
L 1356 3322 
L 1356 2731 
Q 1516 3069 1770 3241 
Q 2025 3413 2363 3413 
Q 2913 3413 3172 3097 
Q 3431 2781 3431 2113 
L 3431 331 
L 3944 331 
L 3944 0 
L 2356 0 
L 2356 331 
L 2853 331 
L 2853 1931 
Q 2853 2541 2703 2767 
Q 2553 2994 2175 2994 
Q 1775 2994 1565 2701 
Q 1356 2409 1356 1850 
L 1356 331 
L 1856 331 
L 1856 0 
L 263 0 
z
" transform="scale(0.015625)"/>
       <path id="DejaVuSerif-20" transform="scale(0.015625)"/>
       <path id="DejaVuSerif-52" d="M 3066 2316 
Q 3284 2256 3442 2114 
Q 3600 1972 3725 1716 
L 4403 331 
L 4972 331 
L 4972 0 
L 3872 0 
L 3144 1484 
Q 2934 1916 2759 2042 
Q 2584 2169 2278 2169 
L 1581 2169 
L 1581 331 
L 2241 331 
L 2241 0 
L 353 0 
L 353 331 
L 947 331 
L 947 4331 
L 353 4331 
L 353 4666 
L 2719 4666 
Q 3400 4666 3770 4341 
Q 4141 4016 4141 3419 
Q 4141 2938 3870 2661 
Q 3600 2384 3066 2316 
z
M 1581 2503 
L 2503 2503 
Q 2975 2503 3200 2726 
Q 3425 2950 3425 3419 
Q 3425 3888 3200 4109 
Q 2975 4331 2503 4331 
L 1581 4331 
L 1581 2503 
z
" transform="scale(0.015625)"/>
       <path id="DejaVuSerif-61" d="M 2547 1044 
L 2547 1747 
L 1806 1747 
Q 1378 1747 1168 1562 
Q 959 1378 959 997 
Q 959 650 1171 447 
Q 1384 244 1747 244 
Q 2106 244 2326 466 
Q 2547 688 2547 1044 
z
M 3122 2075 
L 3122 331 
L 3634 331 
L 3634 0 
L 2547 0 
L 2547 359 
Q 2356 128 2106 18 
Q 1856 -91 1522 -91 
Q 969 -91 644 203 
Q 319 497 319 997 
Q 319 1513 691 1797 
Q 1063 2081 1741 2081 
L 2547 2081 
L 2547 2309 
Q 2547 2688 2317 2895 
Q 2088 3103 1672 3103 
Q 1328 3103 1125 2947 
Q 922 2791 872 2484 
L 575 2484 
L 575 3156 
Q 875 3284 1158 3348 
Q 1441 3413 1709 3413 
Q 2400 3413 2761 3070 
Q 3122 2728 3122 2075 
z
" transform="scale(0.015625)"/>
       <path id="DejaVuSerif-28" d="M 2041 -997 
Q 1281 -656 893 83 
Q 506 822 506 1931 
Q 506 3044 893 3783 
Q 1281 4522 2041 4863 
L 2041 4556 
Q 1559 4225 1350 3623 
Q 1141 3022 1141 1931 
Q 1141 844 1350 242 
Q 1559 -359 2041 -691 
L 2041 -997 
z
" transform="scale(0.015625)"/>
       <path id="DejaVuSerif-25" d="M 1434 4459 
Q 1159 4459 1004 4200 
Q 850 3941 850 3475 
Q 850 3016 1008 2753 
Q 1166 2491 1434 2491 
Q 1700 2491 1854 2752 
Q 2009 3013 2009 3475 
Q 2009 3938 1854 4198 
Q 1700 4459 1434 4459 
z
M 4653 2169 
Q 4381 2169 4226 1906 
Q 4072 1644 4072 1178 
Q 4072 719 4228 458 
Q 4384 197 4653 197 
Q 4922 197 5075 458 
Q 5228 719 5228 1178 
Q 5228 1641 5073 1905 
Q 4919 2169 4653 2169 
z
M 4653 2450 
Q 5147 2450 5437 2106 
Q 5728 1763 5728 1178 
Q 5728 594 5436 251 
Q 5144 -91 4653 -91 
Q 4153 -91 3862 251 
Q 3572 594 3572 1178 
Q 3572 1766 3864 2108 
Q 4156 2450 4653 2450 
z
M 4263 4750 
L 4738 4750 
L 1819 -91 
L 1344 -91 
L 4263 4750 
z
M 1428 4750 
Q 1922 4750 2215 4408 
Q 2509 4066 2509 3481 
Q 2509 2891 2217 2550 
Q 1925 2209 1428 2209 
Q 931 2209 642 2551 
Q 353 2894 353 3481 
Q 353 4063 643 4406 
Q 934 4750 1428 4750 
z
" transform="scale(0.015625)"/>
       <path id="DejaVuSerif-29" d="M 453 -997 
L 453 -691 
Q 934 -359 1145 242 
Q 1356 844 1356 1931 
Q 1356 3022 1145 3623 
Q 934 4225 453 4556 
L 453 4863 
Q 1216 4522 1603 3783 
Q 1991 3044 1991 1931 
Q 1991 822 1603 83 
Q 1216 -656 453 -997 
z
" transform="scale(0.015625)"/>
      </defs>
      <use xlink:href="#DejaVuSerif-44"/>
      <use xlink:href="#DejaVuSerif-65" transform="translate(80.175781 0)"/>
      <use xlink:href="#DejaVuSerif-74" transform="translate(139.355469 0)"/>
      <use xlink:href="#DejaVuSerif-65" transform="translate(179.541016 0)"/>
      <use xlink:href="#DejaVuSerif-63" transform="translate(238.720703 0)"/>
      <use xlink:href="#DejaVuSerif-74" transform="translate(294.726562 0)"/>
      <use xlink:href="#DejaVuSerif-69" transform="translate(334.912109 0)"/>
      <use xlink:href="#DejaVuSerif-6f" transform="translate(366.894531 0)"/>
      <use xlink:href="#DejaVuSerif-6e" transform="translate(427.099609 0)"/>
      <use xlink:href="#DejaVuSerif-20" transform="translate(491.503906 0)"/>
      <use xlink:href="#DejaVuSerif-52" transform="translate(523.291016 0)"/>
      <use xlink:href="#DejaVuSerif-61" transform="translate(600.833984 0)"/>
      <use xlink:href="#DejaVuSerif-74" transform="translate(660.453125 0)"/>
      <use xlink:href="#DejaVuSerif-65" transform="translate(700.638672 0)"/>
      <use xlink:href="#DejaVuSerif-20" transform="translate(759.818359 0)"/>
      <use xlink:href="#DejaVuSerif-28" transform="translate(791.605469 0)"/>
      <use xlink:href="#DejaVuSerif-25" transform="translate(830.619141 0)"/>
      <use xlink:href="#DejaVuSerif-29" transform="translate(925.638672 0)"/>
     </g>
    </g>
   </g>
   <g id="matplotlib.axis_2">
    <g id="ytick_1">
     <g id="line2d_6">
      <defs>
       <path id="m8a472f20ea" d="M 0 0 
L -3.5 0 
" style="stroke: #000000; stroke-width: 0.8"/>
      </defs>
      <g>
       <use xlink:href="#m8a472f20ea" x="68.209844" y="111.075152" style="stroke: #000000; stroke-width: 0.8"/>
      </g>
     </g>
     <g id="text_7">
      <!-- Ghost -->
      <g transform="translate(34.569844 110.139292) scale(0.09 -0.09)">
       <defs>
        <path id="DejaVuSerif-47" d="M 4097 3272 
Q 3988 3856 3641 4136 
Q 3294 4416 2675 4416 
Q 1869 4416 1472 3897 
Q 1075 3378 1075 2328 
Q 1075 1300 1484 772 
Q 1894 244 2688 244 
Q 3041 244 3362 331 
Q 3684 419 3975 594 
L 3975 1797 
L 3097 1797 
L 3097 2131 
L 4609 2131 
L 4609 391 
Q 4194 150 3714 29 
Q 3234 -91 2688 -91 
Q 1631 -91 995 570 
Q 359 1231 359 2328 
Q 359 3434 996 4092 
Q 1634 4750 2713 4750 
Q 3113 4750 3539 4658 
Q 3966 4566 4447 4378 
L 4447 3272 
L 4097 3272 
z
" transform="scale(0.015625)"/>
        <path id="DejaVuSerif-68" d="M 263 0 
L 263 331 
L 781 331 
L 781 4531 
L 231 4531 
L 231 4863 
L 1356 4863 
L 1356 2731 
Q 1516 3069 1770 3241 
Q 2025 3413 2363 3413 
Q 2913 3413 3172 3097 
Q 3431 2781 3431 2113 
L 3431 331 
L 3944 331 
L 3944 0 
L 2356 0 
L 2356 331 
L 2853 331 
L 2853 1931 
Q 2853 2541 2704 2764 
Q 2556 2988 2175 2988 
Q 1775 2988 1565 2697 
Q 1356 2406 1356 1850 
L 1356 331 
L 1856 331 
L 1856 0 
L 263 0 
z
" transform="scale(0.015625)"/>
        <path id="DejaVuSerif-73" d="M 359 184 
L 359 959 
L 691 959 
Q 703 588 923 403 
Q 1144 219 1575 219 
Q 1963 219 2166 364 
Q 2369 509 2369 788 
Q 2369 1006 2220 1140 
Q 2072 1275 1594 1428 
L 1178 1569 
Q 750 1706 558 1912 
Q 366 2119 366 2438 
Q 366 2894 700 3153 
Q 1034 3413 1625 3413 
Q 1888 3413 2178 3344 
Q 2469 3275 2778 3144 
L 2778 2419 
L 2447 2419 
Q 2434 2741 2221 2922 
Q 2009 3103 1644 3103 
Q 1281 3103 1095 2975 
Q 909 2847 909 2591 
Q 909 2381 1050 2254 
Q 1191 2128 1613 1997 
L 2069 1856 
Q 2541 1709 2748 1489 
Q 2956 1269 2956 922 
Q 2956 450 2595 179 
Q 2234 -91 1600 -91 
Q 1278 -91 972 -22 
Q 666 47 359 184 
z
" transform="scale(0.015625)"/>
       </defs>
       <use xlink:href="#DejaVuSerif-47"/>
       <use xlink:href="#DejaVuSerif-68" transform="translate(79.882812 0)"/>
       <use xlink:href="#DejaVuSerif-6f" transform="translate(144.287109 0)"/>
       <use xlink:href="#DejaVuSerif-73" transform="translate(204.492188 0)"/>
       <use xlink:href="#DejaVuSerif-74" transform="translate(255.810547 0)"/>
      </g>
      <!-- Allocations -->
      <g transform="translate(10.8 120.217323) scale(0.09 -0.09)">
       <defs>
        <path id="DejaVuSerif-41" d="M 1281 1691 
L 2994 1691 
L 2138 3909 
L 1281 1691 
z
M -38 0 
L -38 331 
L 372 331 
L 2034 4666 
L 2559 4666 
L 4225 331 
L 4684 331 
L 4684 0 
L 2988 0 
L 2988 331 
L 3506 331 
L 3116 1356 
L 1153 1356 
L 763 331 
L 1275 331 
L 1275 0 
L -38 0 
z
" transform="scale(0.015625)"/>
        <path id="DejaVuSerif-6c" d="M 1313 331 
L 1856 331 
L 1856 0 
L 184 0 
L 184 331 
L 738 331 
L 738 4531 
L 184 4531 
L 184 4863 
L 1313 4863 
L 1313 331 
z
" transform="scale(0.015625)"/>
       </defs>
       <use xlink:href="#DejaVuSerif-41"/>
       <use xlink:href="#DejaVuSerif-6c" transform="translate(72.216797 0)"/>
       <use xlink:href="#DejaVuSerif-6c" transform="translate(104.199219 0)"/>
       <use xlink:href="#DejaVuSerif-6f" transform="translate(136.181641 0)"/>
       <use xlink:href="#DejaVuSerif-63" transform="translate(196.386719 0)"/>
       <use xlink:href="#DejaVuSerif-61" transform="translate(252.392578 0)"/>
       <use xlink:href="#DejaVuSerif-74" transform="translate(312.011719 0)"/>
       <use xlink:href="#DejaVuSerif-69" transform="translate(352.197266 0)"/>
       <use xlink:href="#DejaVuSerif-6f" transform="translate(384.179688 0)"/>
       <use xlink:href="#DejaVuSerif-6e" transform="translate(444.384766 0)"/>
       <use xlink:href="#DejaVuSerif-73" transform="translate(508.789062 0)"/>
      </g>
     </g>
    </g>
    <g id="ytick_2">
     <g id="line2d_7">
      <g>
       <use xlink:href="#m8a472f20ea" x="68.209844" y="256.044848" style="stroke: #000000; stroke-width: 0.8"/>
      </g>
     </g>
     <g id="text_8">
      <!-- Straggler -->
      <g transform="translate(17.73 255.045005) scale(0.09 -0.09)">
       <defs>
        <path id="DejaVuSerif-53" d="M 594 225 
L 594 1288 
L 953 1284 
Q 969 753 1261 498 
Q 1553 244 2150 244 
Q 2706 244 2998 464 
Q 3291 684 3291 1106 
Q 3291 1444 3114 1625 
Q 2938 1806 2369 1978 
L 1753 2163 
Q 1084 2366 811 2669 
Q 538 2972 538 3500 
Q 538 4094 959 4422 
Q 1381 4750 2144 4750 
Q 2469 4750 2856 4679 
Q 3244 4609 3681 4475 
L 3681 3481 
L 3328 3481 
Q 3275 3975 2998 4195 
Q 2722 4416 2156 4416 
Q 1663 4416 1405 4214 
Q 1147 4013 1147 3628 
Q 1147 3294 1340 3103 
Q 1534 2913 2163 2725 
L 2741 2553 
Q 3375 2363 3645 2067 
Q 3916 1772 3916 1275 
Q 3916 597 3481 253 
Q 3047 -91 2188 -91 
Q 1803 -91 1404 -12 
Q 1006 66 594 225 
z
" transform="scale(0.015625)"/>
        <path id="DejaVuSerif-72" d="M 3059 3328 
L 3059 2497 
L 2728 2497 
Q 2713 2744 2591 2866 
Q 2469 2988 2234 2988 
Q 1809 2988 1582 2694 
Q 1356 2400 1356 1850 
L 1356 331 
L 2022 331 
L 2022 0 
L 263 0 
L 263 331 
L 781 331 
L 781 2994 
L 231 2994 
L 231 3322 
L 1356 3322 
L 1356 2731 
Q 1525 3078 1790 3245 
Q 2056 3413 2438 3413 
Q 2578 3413 2733 3391 
Q 2888 3369 3059 3328 
z
" transform="scale(0.015625)"/>
        <path id="DejaVuSerif-67" d="M 3359 2988 
L 3359 72 
Q 3359 -644 2965 -1033 
Q 2572 -1422 1844 -1422 
Q 1516 -1422 1216 -1362 
Q 916 -1303 641 -1184 
L 641 -488 
L 941 -488 
Q 997 -813 1206 -963 
Q 1416 -1113 1806 -1113 
Q 2313 -1113 2548 -827 
Q 2784 -541 2784 72 
L 2784 519 
Q 2616 206 2355 57 
Q 2094 -91 1709 -91 
Q 1097 -91 708 395 
Q 319 881 319 1663 
Q 319 2444 706 2928 
Q 1094 3413 1709 3413 
Q 2094 3413 2355 3264 
Q 2616 3116 2784 2803 
L 2784 3322 
L 3909 3322 
L 3909 2988 
L 3359 2988 
z
M 2784 1825 
Q 2784 2422 2554 2737 
Q 2325 3053 1888 3053 
Q 1444 3053 1217 2703 
Q 991 2353 991 1663 
Q 991 975 1217 622 
Q 1444 269 1888 269 
Q 2325 269 2554 583 
Q 2784 897 2784 1497 
L 2784 1825 
z
" transform="scale(0.015625)"/>
       </defs>
       <use xlink:href="#DejaVuSerif-53"/>
       <use xlink:href="#DejaVuSerif-74" transform="translate(68.505859 0)"/>
       <use xlink:href="#DejaVuSerif-72" transform="translate(108.691406 0)"/>
       <use xlink:href="#DejaVuSerif-61" transform="translate(156.494141 0)"/>
       <use xlink:href="#DejaVuSerif-67" transform="translate(216.113281 0)"/>
       <use xlink:href="#DejaVuSerif-67" transform="translate(280.126953 0)"/>
       <use xlink:href="#DejaVuSerif-6c" transform="translate(344.140625 0)"/>
       <use xlink:href="#DejaVuSerif-65" transform="translate(376.123047 0)"/>
       <use xlink:href="#DejaVuSerif-72" transform="translate(435.302734 0)"/>
      </g>
      <!-- Tax -->
      <g transform="translate(45.462656 265.251005) scale(0.09 -0.09)">
       <defs>
        <path id="DejaVuSerif-54" d="M 1222 0 
L 1222 331 
L 1819 331 
L 1819 4294 
L 447 4294 
L 447 3566 
L 63 3566 
L 63 4666 
L 4206 4666 
L 4206 3566 
L 3822 3566 
L 3822 4294 
L 2450 4294 
L 2450 331 
L 3047 331 
L 3047 0 
L 1222 0 
z
" transform="scale(0.015625)"/>
        <path id="DejaVuSerif-78" d="M 1863 2028 
L 2559 2988 
L 2113 2988 
L 2113 3322 
L 3391 3322 
L 3391 2988 
L 2950 2988 
L 2059 1759 
L 3097 331 
L 3531 331 
L 3531 0 
L 1997 0 
L 1997 331 
L 2419 331 
L 1697 1325 
L 972 331 
L 1403 331 
L 1403 0 
L 141 0 
L 141 331 
L 581 331 
L 1497 1594 
L 488 2988 
L 78 2988 
L 78 3322 
L 1563 3322 
L 1563 2988 
L 1166 2988 
L 1863 2028 
z
" transform="scale(0.015625)"/>
       </defs>
       <use xlink:href="#DejaVuSerif-54"/>
       <use xlink:href="#DejaVuSerif-61" transform="translate(58.949219 0)"/>
       <use xlink:href="#DejaVuSerif-78" transform="translate(118.568359 0)"/>
      </g>
     </g>
    </g>
   </g>
   <g id="patch_5">
    <path d="M 68.209844 303.16 
L 68.209844 63.96 
" style="fill: none; stroke: #000000; stroke-width: 0.8; stroke-linejoin: miter; stroke-linecap: square"/>
   </g>
   <g id="patch_6">
    <path d="M 68.209844 303.16 
L 212.524844 303.16 
" style="fill: none; stroke: #000000; stroke-width: 0.8; stroke-linejoin: miter; stroke-linecap: square"/>
   </g>
   <g id="text_9">
    <!-- 100% -->
    <g transform="translate(189.554706 113.282652) scale(0.08 -0.08)">
     <defs>
      <path id="DejaVuSerif-Bold-31" d="M 878 0 
L 878 378 
L 1753 378 
L 1753 4153 
L 781 3578 
L 781 4044 
L 1953 4750 
L 2938 4750 
L 2938 378 
L 3816 378 
L 3816 0 
L 878 0 
z
" transform="scale(0.015625)"/>
      <path id="DejaVuSerif-Bold-30" d="M 2228 275 
Q 2603 275 2742 615 
Q 2881 956 2881 2328 
Q 2881 3691 2742 4037 
Q 2603 4384 2228 4384 
Q 1853 4384 1714 4043 
Q 1575 3703 1575 2328 
Q 1575 956 1714 615 
Q 1853 275 2228 275 
z
M 2228 -91 
Q 1294 -91 797 532 
Q 300 1156 300 2328 
Q 300 3500 797 4125 
Q 1294 4750 2228 4750 
Q 3159 4750 3656 4125 
Q 4153 3500 4153 2328 
Q 4153 1156 3656 532 
Q 3159 -91 2228 -91 
z
" transform="scale(0.015625)"/>
      <path id="DejaVuSerif-Bold-25" d="M 1381 4434 
Q 1181 4434 1093 4217 
Q 1006 4000 1006 3481 
Q 1006 2959 1093 2740 
Q 1181 2522 1381 2522 
Q 1584 2522 1671 2740 
Q 1759 2959 1759 3481 
Q 1759 4000 1671 4217 
Q 1584 4434 1381 4434 
z
M 1381 4750 
Q 1978 4750 2295 4423 
Q 2613 4097 2613 3481 
Q 2613 2866 2295 2537 
Q 1978 2209 1381 2209 
Q 788 2209 470 2537 
Q 153 2866 153 3481 
Q 153 4097 470 4423 
Q 788 4750 1381 4750 
z
M 4231 4750 
L 4769 4750 
L 1850 -91 
L 1313 -91 
L 4231 4750 
z
M 4697 2450 
Q 5294 2450 5609 2123 
Q 5925 1797 5925 1184 
Q 5925 569 5609 239 
Q 5294 -91 4697 -91 
Q 4103 -91 3786 239 
Q 3469 569 3469 1184 
Q 3469 1797 3786 2123 
Q 4103 2450 4697 2450 
z
M 4697 2138 
Q 4494 2138 4406 1920 
Q 4319 1703 4319 1184 
Q 4319 663 4408 444 
Q 4497 225 4697 225 
Q 4900 225 4987 444 
Q 5075 663 5075 1184 
Q 5075 1703 4987 1920 
Q 4900 2138 4697 2138 
z
" transform="scale(0.015625)"/>
     </defs>
     <use xlink:href="#DejaVuSerif-Bold-31"/>
     <use xlink:href="#DejaVuSerif-Bold-30" transform="translate(69.580078 0)"/>
     <use xlink:href="#DejaVuSerif-Bold-30" transform="translate(139.160156 0)"/>
     <use xlink:href="#DejaVuSerif-Bold-25" transform="translate(208.740234 0)"/>
    </g>
   </g>
   <g id="text_10">
    <!-- 512 MiB/teardown -->
    <g style="fill: #555555" transform="translate(70.615094 72.415199) scale(0.07 -0.07)">
     <defs>
      <path id="DejaVuSerif-4d" d="M 353 0 
L 353 331 
L 947 331 
L 947 4331 
L 319 4331 
L 319 4666 
L 1678 4666 
L 3316 1344 
L 4953 4666 
L 6228 4666 
L 6228 4331 
L 5606 4331 
L 5606 331 
L 6203 331 
L 6203 0 
L 4378 0 
L 4378 331 
L 4972 331 
L 4972 3938 
L 3372 684 
L 2931 684 
L 1331 3938 
L 1331 331 
L 1925 331 
L 1925 0 
L 353 0 
z
" transform="scale(0.015625)"/>
      <path id="DejaVuSerif-42" d="M 1581 331 
L 2516 331 
Q 3078 331 3337 575 
Q 3597 819 3597 1350 
Q 3597 1878 3339 2120 
Q 3081 2363 2516 2363 
L 1581 2363 
L 1581 331 
z
M 1581 2694 
L 2375 2694 
Q 2888 2694 3123 2891 
Q 3359 3088 3359 3513 
Q 3359 3941 3123 4136 
Q 2888 4331 2375 4331 
L 1581 4331 
L 1581 2694 
z
M 353 0 
L 353 331 
L 947 331 
L 947 4331 
L 353 4331 
L 353 4666 
L 2656 4666 
Q 3363 4666 3720 4377 
Q 4078 4088 4078 3513 
Q 4078 3097 3829 2850 
Q 3581 2603 3103 2547 
Q 3697 2472 4005 2167 
Q 4313 1863 4313 1350 
Q 4313 656 3875 328 
Q 3438 0 2509 0 
L 353 0 
z
" transform="scale(0.015625)"/>
      <path id="DejaVuSerif-2f" d="M 1656 4666 
L 2156 4666 
L 500 -594 
L 0 -594 
L 1656 4666 
z
" transform="scale(0.015625)"/>
      <path id="DejaVuSerif-64" d="M 3359 331 
L 3909 331 
L 3909 0 
L 2784 0 
L 2784 519 
Q 2616 206 2355 57 
Q 2094 -91 1709 -91 
Q 1097 -91 708 395 
Q 319 881 319 1663 
Q 319 2444 706 2928 
Q 1094 3413 1709 3413 
Q 2094 3413 2355 3264 
Q 2616 3116 2784 2803 
L 2784 4531 
L 2241 4531 
L 2241 4863 
L 3359 4863 
L 3359 331 
z
M 2784 1497 
L 2784 1825 
Q 2784 2422 2554 2737 
Q 2325 3053 1888 3053 
Q 1444 3053 1217 2703 
Q 991 2353 991 1663 
Q 991 975 1217 622 
Q 1444 269 1888 269 
Q 2325 269 2554 583 
Q 2784 897 2784 1497 
z
" transform="scale(0.015625)"/>
      <path id="DejaVuSerif-77" d="M 3072 3322 
L 3922 728 
L 4672 2988 
L 4191 2988 
L 4191 3322 
L 5394 3322 
L 5394 2988 
L 5025 2988 
L 4038 0 
L 3559 0 
L 2741 2484 
L 1919 0 
L 1459 0 
L 475 2988 
L 103 2988 
L 103 3322 
L 1606 3322 
L 1606 2988 
L 1069 2988 
L 1813 728 
L 2669 3322 
L 3072 3322 
z
" transform="scale(0.015625)"/>
     </defs>
     <use xlink:href="#DejaVuSerif-35"/>
     <use xlink:href="#DejaVuSerif-31" transform="translate(63.623047 0)"/>
     <use xlink:href="#DejaVuSerif-32" transform="translate(127.246094 0)"/>
     <use xlink:href="#DejaVuSerif-20" transform="translate(190.869141 0)"/>
     <use xlink:href="#DejaVuSerif-4d" transform="translate(222.65625 0)"/>
     <use xlink:href="#DejaVuSerif-69" transform="translate(325.048828 0)"/>
     <use xlink:href="#DejaVuSerif-42" transform="translate(357.03125 0)"/>
     <use xlink:href="#DejaVuSerif-2f" transform="translate(430.517578 0)"/>
     <use xlink:href="#DejaVuSerif-74" transform="translate(464.208984 0)"/>
     <use xlink:href="#DejaVuSerif-65" transform="translate(504.394531 0)"/>
     <use xlink:href="#DejaVuSerif-61" transform="translate(563.574219 0)"/>
     <use xlink:href="#DejaVuSerif-72" transform="translate(623.193359 0)"/>
     <use xlink:href="#DejaVuSerif-64" transform="translate(670.996094 0)"/>
     <use xlink:href="#DejaVuSerif-6f" transform="translate(735.009766 0)"/>
     <use xlink:href="#DejaVuSerif-77" transform="translate(795.214844 0)"/>
     <use xlink:href="#DejaVuSerif-6e" transform="translate(880.810547 0)"/>
    </g>
   </g>
   <g id="text_11">
    <!-- 95% -->
    <g transform="translate(183.301056 258.252348) scale(0.08 -0.08)">
     <defs>
      <path id="DejaVuSerif-Bold-39" d="M 2181 4384 
Q 1859 4384 1723 4111 
Q 1588 3838 1588 3163 
Q 1588 2488 1723 2214 
Q 1859 1941 2181 1941 
Q 2503 1941 2640 2214 
Q 2778 2488 2778 3163 
Q 2778 3838 2640 4111 
Q 2503 4384 2181 4384 
z
M 2878 1900 
Q 2672 1734 2420 1651 
Q 2169 1569 1875 1569 
Q 1163 1569 755 1986 
Q 347 2403 347 3138 
Q 347 3913 803 4331 
Q 1259 4750 2106 4750 
Q 3063 4750 3556 4172 
Q 4050 3594 4050 2478 
Q 4050 1206 3503 557 
Q 2956 -91 1881 -91 
Q 1600 -91 1278 -44 
Q 956 3 588 97 
L 588 922 
L 966 922 
Q 1044 603 1261 439 
Q 1478 275 1825 275 
Q 2375 275 2625 658 
Q 2875 1041 2878 1900 
z
" transform="scale(0.015625)"/>
      <path id="DejaVuSerif-Bold-35" d="M 3609 4666 
L 3609 3847 
L 1113 3847 
L 1113 2822 
Q 1319 2981 1572 3062 
Q 1825 3144 2106 3144 
Q 2969 3144 3469 2708 
Q 3969 2272 3969 1522 
Q 3969 759 3469 334 
Q 2969 -91 2069 -91 
Q 1688 -91 1311 -28 
Q 934 34 525 166 
L 525 1184 
L 900 1184 
Q 919 725 1139 500 
Q 1359 275 1791 275 
Q 2250 275 2472 583 
Q 2694 891 2694 1522 
Q 2694 2144 2476 2451 
Q 2259 2759 1819 2759 
Q 1581 2759 1395 2661 
Q 1209 2563 1050 2356 
L 738 2356 
L 738 4666 
L 3609 4666 
z
" transform="scale(0.015625)"/>
     </defs>
     <use xlink:href="#DejaVuSerif-Bold-39"/>
     <use xlink:href="#DejaVuSerif-Bold-35" transform="translate(69.580078 0)"/>
     <use xlink:href="#DejaVuSerif-Bold-25" transform="translate(139.160156 0)"/>
    </g>
   </g>
   <g id="text_12">
    <!-- 19.1 % fleet loss -->
    <g style="fill: #555555" transform="translate(70.615094 217.384896) scale(0.07 -0.07)">
     <defs>
      <path id="DejaVuSerif-39" d="M 2994 2091 
Q 2784 1856 2512 1740 
Q 2241 1625 1900 1625 
Q 1206 1625 804 2044 
Q 403 2463 403 3188 
Q 403 3897 839 4323 
Q 1275 4750 2003 4750 
Q 2794 4750 3217 4161 
Q 3641 3572 3641 2478 
Q 3641 1253 3137 581 
Q 2634 -91 1722 -91 
Q 1475 -91 1203 -44 
Q 931 3 647 97 
L 647 872 
L 997 872 
Q 1038 556 1241 387 
Q 1444 219 1784 219 
Q 2391 219 2687 676 
Q 2984 1134 2994 2091 
z
M 1978 4441 
Q 1534 4441 1298 4117 
Q 1063 3794 1063 3188 
Q 1063 2581 1298 2256 
Q 1534 1931 1978 1931 
Q 2422 1931 2658 2245 
Q 2894 2559 2894 3150 
Q 2894 3772 2656 4106 
Q 2419 4441 1978 4441 
z
" transform="scale(0.015625)"/>
      <path id="DejaVuSerif-2e" d="M 603 325 
Q 603 500 722 622 
Q 841 744 1019 744 
Q 1191 744 1312 622 
Q 1434 500 1434 325 
Q 1434 153 1312 31 
Q 1191 -91 1019 -91 
Q 841 -91 722 29 
Q 603 150 603 325 
z
" transform="scale(0.015625)"/>
      <path id="DejaVuSerif-66" d="M 2753 4078 
L 2450 4078 
Q 2447 4313 2317 4434 
Q 2188 4556 1941 4556 
Q 1619 4556 1487 4379 
Q 1356 4203 1356 3750 
L 1356 3322 
L 2284 3322 
L 2284 2988 
L 1356 2988 
L 1356 331 
L 2094 331 
L 2094 0 
L 231 0 
L 231 331 
L 781 331 
L 781 2988 
L 231 2988 
L 231 3322 
L 781 3322 
L 781 3738 
Q 781 4294 1070 4578 
Q 1359 4863 1919 4863 
Q 2128 4863 2337 4825 
Q 2547 4788 2753 4709 
L 2753 4078 
z
" transform="scale(0.015625)"/>
     </defs>
     <use xlink:href="#DejaVuSerif-31"/>
     <use xlink:href="#DejaVuSerif-39" transform="translate(63.623047 0)"/>
     <use xlink:href="#DejaVuSerif-2e" transform="translate(127.246094 0)"/>
     <use xlink:href="#DejaVuSerif-31" transform="translate(159.033203 0)"/>
     <use xlink:href="#DejaVuSerif-20" transform="translate(222.65625 0)"/>
     <use xlink:href="#DejaVuSerif-25" transform="translate(254.443359 0)"/>
     <use xlink:href="#DejaVuSerif-20" transform="translate(349.462891 0)"/>
     <use xlink:href="#DejaVuSerif-66" transform="translate(381.25 0)"/>
     <use xlink:href="#DejaVuSerif-6c" transform="translate(418.261719 0)"/>
     <use xlink:href="#DejaVuSerif-65" transform="translate(450.244141 0)"/>
     <use xlink:href="#DejaVuSerif-65" transform="translate(509.423828 0)"/>
     <use xlink:href="#DejaVuSerif-74" transform="translate(568.603516 0)"/>
     <use xlink:href="#DejaVuSerif-20" transform="translate(608.789062 0)"/>
     <use xlink:href="#DejaVuSerif-6c" transform="translate(640.576172 0)"/>
     <use xlink:href="#DejaVuSerif-6f" transform="translate(672.558594 0)"/>
     <use xlink:href="#DejaVuSerif-73" transform="translate(732.763672 0)"/>
     <use xlink:href="#DejaVuSerif-73" transform="translate(784.082031 0)"/>
    </g>
   </g>
   <g id="text_13">
    <!-- A: Directly Recoverable -->
    <g style="fill: #16a34a" transform="translate(74.697031 57.96) scale(0.1 -0.1)">
     <defs>
      <path id="DejaVuSerif-Bold-41" d="M -50 0 
L -50 378 
L 331 378 
L 2088 4666 
L 2834 4666 
L 4594 378 
L 5038 378 
L 5038 0 
L 2853 0 
L 2853 378 
L 3309 378 
L 2925 1331 
L 1172 1331 
L 781 378 
L 1338 378 
L 1338 0 
L -50 0 
z
M 1325 1709 
L 2772 1709 
L 2053 3494 
L 1325 1709 
z
" transform="scale(0.015625)"/>
      <path id="DejaVuSerif-Bold-3a" d="M 588 2541 
Q 588 2788 761 2963 
Q 934 3138 1178 3138 
Q 1422 3138 1597 2961 
Q 1772 2784 1772 2541 
Q 1772 2297 1598 2125 
Q 1425 1953 1178 1953 
Q 931 1953 759 2125 
Q 588 2297 588 2541 
z
M 588 506 
Q 588 750 761 925 
Q 934 1100 1178 1100 
Q 1422 1100 1597 925 
Q 1772 750 1772 506 
Q 1772 259 1597 84 
Q 1422 -91 1178 -91 
Q 934 -91 761 84 
Q 588 259 588 506 
z
" transform="scale(0.015625)"/>
      <path id="DejaVuSerif-Bold-20" transform="scale(0.015625)"/>
      <path id="DejaVuSerif-Bold-44" d="M 2100 378 
L 2534 378 
Q 3266 378 3605 847 
Q 3944 1316 3944 2338 
Q 3944 3353 3606 3820 
Q 3269 4288 2534 4288 
L 2100 4288 
L 2100 378 
z
M 300 0 
L 300 378 
L 897 378 
L 897 4288 
L 300 4288 
L 300 4666 
L 2694 4666 
Q 3950 4666 4615 4066 
Q 5281 3466 5281 2338 
Q 5281 1203 4614 601 
Q 3947 0 2694 0 
L 300 0 
z
" transform="scale(0.015625)"/>
      <path id="DejaVuSerif-Bold-69" d="M 588 4263 
Q 588 4516 763 4689 
Q 938 4863 1191 4863 
Q 1438 4863 1611 4689 
Q 1784 4516 1784 4263 
Q 1784 4016 1611 3842 
Q 1438 3669 1191 3669 
Q 938 3669 763 3841 
Q 588 4013 588 4263 
z
M 1797 378 
L 2272 378 
L 2272 0 
L 219 0 
L 219 378 
L 691 378 
L 691 2944 
L 219 2944 
L 219 3322 
L 1797 3322 
L 1797 378 
z
" transform="scale(0.015625)"/>
      <path id="DejaVuSerif-Bold-72" d="M 3438 3359 
L 3438 2369 
L 3084 2369 
Q 3066 2634 2941 2764 
Q 2816 2894 2578 2894 
Q 2216 2894 2006 2575 
Q 1797 2256 1797 1691 
L 1797 378 
L 2400 378 
L 2400 0 
L 219 0 
L 219 378 
L 691 378 
L 691 2944 
L 184 2944 
L 184 3322 
L 1797 3322 
L 1797 2731 
Q 1959 3078 2226 3245 
Q 2494 3413 2881 3413 
Q 2978 3413 3117 3398 
Q 3256 3384 3438 3359 
z
" transform="scale(0.015625)"/>
      <path id="DejaVuSerif-Bold-65" d="M 2566 1875 
Q 2566 2531 2444 2795 
Q 2322 3059 2028 3059 
Q 1744 3059 1620 2800 
Q 1497 2541 1497 1931 
L 1497 1875 
L 2566 1875 
z
M 3781 1503 
L 1497 1503 
L 1497 1478 
Q 1497 834 1690 548 
Q 1884 263 2316 263 
Q 2675 263 2897 453 
Q 3119 644 3181 1006 
L 3700 1006 
Q 3566 441 3166 175 
Q 2766 -91 2047 -91 
Q 1184 -91 723 364 
Q 263 819 263 1663 
Q 263 2488 734 2950 
Q 1206 3413 2047 3413 
Q 2872 3413 3312 2927 
Q 3753 2441 3781 1503 
z
" transform="scale(0.015625)"/>
      <path id="DejaVuSerif-Bold-63" d="M 3609 1038 
Q 3491 469 3123 189 
Q 2756 -91 2125 -91 
Q 1238 -91 750 368 
Q 263 828 263 1663 
Q 263 2488 744 2950 
Q 1225 3413 2081 3413 
Q 2428 3413 2781 3347 
Q 3134 3281 3500 3150 
L 3500 2228 
L 3150 2228 
Q 3100 2650 2903 2854 
Q 2706 3059 2350 3059 
Q 1888 3059 1692 2746 
Q 1497 2434 1497 1663 
Q 1497 909 1687 586 
Q 1878 263 2309 263 
Q 2644 263 2845 463 
Q 3047 663 3091 1038 
L 3609 1038 
z
" transform="scale(0.015625)"/>
      <path id="DejaVuSerif-Bold-74" d="M 634 2944 
L 153 2944 
L 153 3322 
L 634 3322 
L 634 4353 
L 1741 4353 
L 1741 3322 
L 2663 3322 
L 2663 2944 
L 1741 2944 
L 1741 909 
Q 1741 475 1809 369 
Q 1878 263 2059 263 
Q 2259 263 2356 397 
Q 2453 531 2459 813 
L 2925 813 
Q 2897 313 2651 111 
Q 2406 -91 1806 -91 
Q 1122 -91 878 123 
Q 634 338 634 909 
L 634 2944 
z
" transform="scale(0.015625)"/>
      <path id="DejaVuSerif-Bold-6c" d="M 1797 378 
L 2272 378 
L 2272 0 
L 219 0 
L 219 378 
L 691 378 
L 691 4488 
L 219 4488 
L 219 4863 
L 1797 4863 
L 1797 378 
z
" transform="scale(0.015625)"/>
      <path id="DejaVuSerif-Bold-79" d="M 1997 -750 
Q 1847 -1116 1634 -1269 
Q 1422 -1422 1063 -1422 
Q 909 -1422 721 -1387 
Q 534 -1353 313 -1288 
L 313 -594 
L 666 -597 
Q 675 -838 779 -953 
Q 884 -1069 1094 -1069 
Q 1297 -1069 1422 -958 
Q 1547 -847 1672 -538 
L 1722 -422 
L 275 2944 
L -84 2944 
L -84 3322 
L 1831 3322 
L 1831 2944 
L 1434 2944 
L 2278 978 
L 3066 2944 
L 2625 2944 
L 2625 3322 
L 3872 3322 
L 3872 2944 
L 3469 2944 
L 1997 -750 
z
" transform="scale(0.015625)"/>
      <path id="DejaVuSerif-Bold-52" d="M 3397 2278 
Q 3675 2238 3865 2094 
Q 4056 1950 4197 1678 
L 4878 378 
L 5356 378 
L 5356 0 
L 3822 0 
L 3078 1409 
Q 2863 1847 2711 1967 
Q 2559 2088 2291 2088 
L 2100 2088 
L 2100 378 
L 2700 378 
L 2700 0 
L 300 0 
L 300 378 
L 897 378 
L 897 4288 
L 300 4288 
L 300 4666 
L 2963 4666 
Q 3775 4666 4217 4339 
Q 4659 4013 4659 3413 
Q 4659 2925 4345 2642 
Q 4031 2359 3397 2278 
z
M 2100 2463 
L 2509 2463 
Q 2947 2463 3183 2700 
Q 3419 2938 3419 3378 
Q 3419 3819 3183 4053 
Q 2947 4288 2509 4288 
L 2100 4288 
L 2100 2463 
z
" transform="scale(0.015625)"/>
      <path id="DejaVuSerif-Bold-6f" d="M 2138 263 
Q 2488 263 2630 563 
Q 2772 863 2772 1663 
Q 2772 2463 2631 2761 
Q 2491 3059 2138 3059 
Q 1784 3059 1640 2757 
Q 1497 2456 1497 1663 
Q 1497 869 1640 566 
Q 1784 263 2138 263 
z
M 2138 -91 
Q 1259 -91 761 376 
Q 263 844 263 1663 
Q 263 2484 761 2948 
Q 1259 3413 2138 3413 
Q 3019 3413 3516 2948 
Q 4013 2484 4013 1663 
Q 4013 844 3514 376 
Q 3016 -91 2138 -91 
z
" transform="scale(0.015625)"/>
      <path id="DejaVuSerif-Bold-76" d="M 1428 0 
L 250 2944 
L -116 2944 
L -116 3322 
L 1791 3322 
L 1791 2944 
L 1388 2944 
L 2228 844 
L 3066 2944 
L 2631 2944 
L 2631 3322 
L 3878 3322 
L 3878 2944 
L 3494 2944 
L 2316 0 
L 1428 0 
z
" transform="scale(0.015625)"/>
      <path id="DejaVuSerif-Bold-61" d="M 3525 2041 
L 3525 378 
L 4000 378 
L 4000 0 
L 2419 0 
L 2419 422 
Q 2200 159 1931 34 
Q 1663 -91 1319 -91 
Q 809 -91 536 182 
Q 263 456 263 966 
Q 263 1525 655 1803 
Q 1047 2081 1838 2081 
L 2419 2081 
L 2419 2278 
Q 2419 2681 2228 2873 
Q 2038 3066 1638 3066 
Q 1306 3066 1126 2930 
Q 947 2794 872 2484 
L 519 2484 
L 519 3200 
Q 816 3306 1134 3359 
Q 1453 3413 1806 3413 
Q 2697 3413 3111 3081 
Q 3525 2750 3525 2041 
z
M 2419 1044 
L 2419 1709 
L 2003 1709 
Q 1694 1709 1528 1540 
Q 1363 1372 1363 1056 
Q 1363 741 1483 584 
Q 1603 428 1850 428 
Q 2106 428 2262 597 
Q 2419 766 2419 1044 
z
" transform="scale(0.015625)"/>
      <path id="DejaVuSerif-Bold-62" d="M 622 378 
L 622 4488 
L 147 4488 
L 147 4863 
L 1728 4863 
L 1728 2900 
Q 1869 3159 2106 3286 
Q 2344 3413 2694 3413 
Q 3403 3413 3811 2945 
Q 4219 2478 4219 1663 
Q 4219 847 3811 378 
Q 3403 -91 2694 -91 
Q 2344 -91 2106 36 
Q 1869 163 1728 422 
L 1728 0 
L 147 0 
L 147 378 
L 622 378 
z
M 1728 1497 
Q 1728 916 1876 656 
Q 2025 397 2356 397 
Q 2697 397 2836 672 
Q 2975 947 2975 1663 
Q 2975 2378 2836 2651 
Q 2697 2925 2356 2925 
Q 2025 2925 1876 2665 
Q 1728 2406 1728 1825 
L 1728 1497 
z
" transform="scale(0.015625)"/>
     </defs>
     <use xlink:href="#DejaVuSerif-Bold-41"/>
     <use xlink:href="#DejaVuSerif-Bold-3a" transform="translate(77.587891 0)"/>
     <use xlink:href="#DejaVuSerif-Bold-20" transform="translate(114.501953 0)"/>
     <use xlink:href="#DejaVuSerif-Bold-44" transform="translate(149.316406 0)"/>
     <use xlink:href="#DejaVuSerif-Bold-69" transform="translate(236.035156 0)"/>
     <use xlink:href="#DejaVuSerif-Bold-72" transform="translate(274.023438 0)"/>
     <use xlink:href="#DejaVuSerif-Bold-65" transform="translate(326.708984 0)"/>
     <use xlink:href="#DejaVuSerif-Bold-63" transform="translate(390.332031 0)"/>
     <use xlink:href="#DejaVuSerif-Bold-74" transform="translate(451.220703 0)"/>
     <use xlink:href="#DejaVuSerif-Bold-6c" transform="translate(497.412109 0)"/>
     <use xlink:href="#DejaVuSerif-Bold-79" transform="translate(535.400391 0)"/>
     <use xlink:href="#DejaVuSerif-Bold-20" transform="translate(593.505859 0)"/>
     <use xlink:href="#DejaVuSerif-Bold-52" transform="translate(628.320312 0)"/>
     <use xlink:href="#DejaVuSerif-Bold-65" transform="translate(711.425781 0)"/>
     <use xlink:href="#DejaVuSerif-Bold-63" transform="translate(775.048828 0)"/>
     <use xlink:href="#DejaVuSerif-Bold-6f" transform="translate(835.9375 0)"/>
     <use xlink:href="#DejaVuSerif-Bold-76" transform="translate(902.636719 0)"/>
     <use xlink:href="#DejaVuSerif-Bold-65" transform="translate(960.742188 0)"/>
     <use xlink:href="#DejaVuSerif-Bold-72" transform="translate(1024.365234 0)"/>
     <use xlink:href="#DejaVuSerif-Bold-61" transform="translate(1077.050781 0)"/>
     <use xlink:href="#DejaVuSerif-Bold-62" transform="translate(1141.845703 0)"/>
     <use xlink:href="#DejaVuSerif-Bold-6c" transform="translate(1211.767578 0)"/>
     <use xlink:href="#DejaVuSerif-Bold-65" transform="translate(1249.755859 0)"/>
    </g>
   </g>
  </g>
  <g id="axes_2">
   <g id="patch_7">
    <path d="M 312.239844 303.16 
L 456.554844 303.16 
L 456.554844 63.96 
L 312.239844 63.96 
z
" style="fill: #ffffff"/>
   </g>
   <g id="patch_8">
    <path d="M 312.239844 74.832727 
L 432.502344 74.832727 
L 432.502344 118.323636 
L 312.239844 118.323636 
z
" clip-path="url(#p82d836546f)" style="fill: #7c3aed; opacity: 0.8; stroke: #ffffff; stroke-width: 0.5; stroke-linejoin: miter"/>
   </g>
   <g id="patch_9">
    <path d="M 312.239844 161.814545 
L 380.188156 161.814545 
L 380.188156 205.305455 
L 312.239844 205.305455 
z
" clip-path="url(#p82d836546f)" style="fill: #7c3aed; opacity: 0.8; stroke: #ffffff; stroke-width: 0.5; stroke-linejoin: miter"/>
   </g>
   <g id="patch_10">
    <path d="M 312.239844 248.796364 
L 432.502344 248.796364 
L 432.502344 292.287273 
L 312.239844 292.287273 
z
" clip-path="url(#p82d836546f)" style="fill: #7c3aed; opacity: 0.8; stroke: #ffffff; stroke-width: 0.5; stroke-linejoin: miter"/>
   </g>
   <g id="matplotlib.axis_3">
    <g id="xtick_6">
     <g id="line2d_8">
      <g>
       <use xlink:href="#mb7790b78ab" x="312.239844" y="303.16" style="stroke: #000000; stroke-width: 0.8"/>
      </g>
     </g>
     <g id="text_14">
      <!-- 0 -->
      <g transform="translate(309.376719 316.998594) scale(0.09 -0.09)">
       <use xlink:href="#DejaVuSerif-30"/>
      </g>
     </g>
    </g>
    <g id="xtick_7">
     <g id="line2d_9">
      <g>
       <use xlink:href="#mb7790b78ab" x="342.305469" y="303.16" style="stroke: #000000; stroke-width: 0.8"/>
      </g>
     </g>
     <g id="text_15">
      <!-- 25 -->
      <g transform="translate(336.579219 316.998594) scale(0.09 -0.09)">
       <use xlink:href="#DejaVuSerif-32"/>
       <use xlink:href="#DejaVuSerif-35" transform="translate(63.623047 0)"/>
      </g>
     </g>
    </g>
    <g id="xtick_8">
     <g id="line2d_10">
      <g>
       <use xlink:href="#mb7790b78ab" x="372.371094" y="303.16" style="stroke: #000000; stroke-width: 0.8"/>
      </g>
     </g>
     <g id="text_16">
      <!-- 50 -->
      <g transform="translate(366.644844 316.998594) scale(0.09 -0.09)">
       <use xlink:href="#DejaVuSerif-35"/>
       <use xlink:href="#DejaVuSerif-30" transform="translate(63.623047 0)"/>
      </g>
     </g>
    </g>
    <g id="xtick_9">
     <g id="line2d_11">
      <g>
       <use xlink:href="#mb7790b78ab" x="402.436719" y="303.16" style="stroke: #000000; stroke-width: 0.8"/>
      </g>
     </g>
     <g id="text_17">
      <!-- 75 -->
      <g transform="translate(396.710469 316.998594) scale(0.09 -0.09)">
       <use xlink:href="#DejaVuSerif-37"/>
       <use xlink:href="#DejaVuSerif-35" transform="translate(63.623047 0)"/>
      </g>
     </g>
    </g>
    <g id="xtick_10">
     <g id="line2d_12">
      <g>
       <use xlink:href="#mb7790b78ab" x="432.502344" y="303.16" style="stroke: #000000; stroke-width: 0.8"/>
      </g>
     </g>
     <g id="text_18">
      <!-- 100 -->
      <g transform="translate(423.912969 316.998594) scale(0.09 -0.09)">
       <use xlink:href="#DejaVuSerif-31"/>
       <use xlink:href="#DejaVuSerif-30" transform="translate(63.623047 0)"/>
       <use xlink:href="#DejaVuSerif-30" transform="translate(127.246094 0)"/>
      </g>
     </g>
    </g>
    <g id="text_19">
     <!-- Detection Rate (%) -->
     <g transform="translate(345.810469 328.949062) scale(0.08 -0.08)">
      <use xlink:href="#DejaVuSerif-44"/>
      <use xlink:href="#DejaVuSerif-65" transform="translate(80.175781 0)"/>
      <use xlink:href="#DejaVuSerif-74" transform="translate(139.355469 0)"/>
      <use xlink:href="#DejaVuSerif-65" transform="translate(179.541016 0)"/>
      <use xlink:href="#DejaVuSerif-63" transform="translate(238.720703 0)"/>
      <use xlink:href="#DejaVuSerif-74" transform="translate(294.726562 0)"/>
      <use xlink:href="#DejaVuSerif-69" transform="translate(334.912109 0)"/>
      <use xlink:href="#DejaVuSerif-6f" transform="translate(366.894531 0)"/>
      <use xlink:href="#DejaVuSerif-6e" transform="translate(427.099609 0)"/>
      <use xlink:href="#DejaVuSerif-20" transform="translate(491.503906 0)"/>
      <use xlink:href="#DejaVuSerif-52" transform="translate(523.291016 0)"/>
      <use xlink:href="#DejaVuSerif-61" transform="translate(600.833984 0)"/>
      <use xlink:href="#DejaVuSerif-74" transform="translate(660.453125 0)"/>
      <use xlink:href="#DejaVuSerif-65" transform="translate(700.638672 0)"/>
      <use xlink:href="#DejaVuSerif-20" transform="translate(759.818359 0)"/>
      <use xlink:href="#DejaVuSerif-28" transform="translate(791.605469 0)"/>
      <use xlink:href="#DejaVuSerif-25" transform="translate(830.619141 0)"/>
      <use xlink:href="#DejaVuSerif-29" transform="translate(925.638672 0)"/>
     </g>
    </g>
   </g>
   <g id="matplotlib.axis_4">
    <g id="ytick_3">
     <g id="line2d_13">
      <g>
       <use xlink:href="#m8a472f20ea" x="312.239844" y="96.578182" style="stroke: #000000; stroke-width: 0.8"/>
      </g>
     </g>
     <g id="text_20">
      <!-- Contention -->
      <g transform="translate(254.687969 95.642322) scale(0.09 -0.09)">
       <defs>
        <path id="DejaVuSerif-43" d="M 4513 1234 
Q 4306 581 3820 245 
Q 3334 -91 2591 -91 
Q 2134 -91 1743 65 
Q 1353 222 1050 525 
Q 700 875 529 1320 
Q 359 1766 359 2328 
Q 359 3416 987 4083 
Q 1616 4750 2644 4750 
Q 3025 4750 3456 4650 
Q 3888 4550 4384 4347 
L 4384 3272 
L 4031 3272 
Q 3916 3859 3567 4137 
Q 3219 4416 2591 4416 
Q 1844 4416 1459 3886 
Q 1075 3356 1075 2328 
Q 1075 1303 1459 773 
Q 1844 244 2591 244 
Q 3113 244 3450 492 
Q 3788 741 3938 1234 
L 4513 1234 
z
" transform="scale(0.015625)"/>
       </defs>
       <use xlink:href="#DejaVuSerif-43"/>
       <use xlink:href="#DejaVuSerif-6f" transform="translate(76.513672 0)"/>
       <use xlink:href="#DejaVuSerif-6e" transform="translate(136.71875 0)"/>
       <use xlink:href="#DejaVuSerif-74" transform="translate(201.123047 0)"/>
       <use xlink:href="#DejaVuSerif-65" transform="translate(241.308594 0)"/>
       <use xlink:href="#DejaVuSerif-6e" transform="translate(300.488281 0)"/>
       <use xlink:href="#DejaVuSerif-74" transform="translate(364.892578 0)"/>
       <use xlink:href="#DejaVuSerif-69" transform="translate(405.078125 0)"/>
       <use xlink:href="#DejaVuSerif-6f" transform="translate(437.060547 0)"/>
       <use xlink:href="#DejaVuSerif-6e" transform="translate(497.265625 0)"/>
      </g>
      <!-- Squeeze -->
      <g transform="translate(266.794375 105.720354) scale(0.09 -0.09)">
       <defs>
        <path id="DejaVuSerif-71" d="M 3359 2988 
L 3359 -997 
L 3909 -997 
L 3909 -1331 
L 2241 -1331 
L 2241 -997 
L 2784 -997 
L 2784 519 
Q 2616 206 2355 57 
Q 2094 -91 1709 -91 
Q 1097 -91 708 395 
Q 319 881 319 1663 
Q 319 2444 706 2928 
Q 1094 3413 1709 3413 
Q 2094 3413 2355 3264 
Q 2616 3116 2784 2803 
L 2784 3322 
L 3909 3322 
L 3909 2988 
L 3359 2988 
z
M 2784 1825 
Q 2784 2422 2554 2737 
Q 2325 3053 1888 3053 
Q 1444 3053 1217 2703 
Q 991 2353 991 1663 
Q 991 975 1217 622 
Q 1444 269 1888 269 
Q 2325 269 2554 583 
Q 2784 897 2784 1497 
L 2784 1825 
z
" transform="scale(0.015625)"/>
        <path id="DejaVuSerif-75" d="M 2266 3322 
L 3341 3322 
L 3341 331 
L 3884 331 
L 3884 0 
L 2766 0 
L 2766 588 
Q 2606 256 2353 82 
Q 2100 -91 1766 -91 
Q 1213 -91 952 223 
Q 691 538 691 1209 
L 691 2988 
L 172 2988 
L 172 3322 
L 1269 3322 
L 1269 1388 
Q 1269 781 1417 556 
Q 1566 331 1947 331 
Q 2347 331 2556 625 
Q 2766 919 2766 1478 
L 2766 2988 
L 2266 2988 
L 2266 3322 
z
" transform="scale(0.015625)"/>
        <path id="DejaVuSerif-7a" d="M 256 0 
L 256 269 
L 2338 2988 
L 691 2988 
L 691 2413 
L 359 2413 
L 359 3322 
L 3078 3322 
L 3078 3053 
L 997 331 
L 2803 331 
L 2803 934 
L 3138 934 
L 3138 0 
L 256 0 
z
" transform="scale(0.015625)"/>
       </defs>
       <use xlink:href="#DejaVuSerif-53"/>
       <use xlink:href="#DejaVuSerif-71" transform="translate(68.505859 0)"/>
       <use xlink:href="#DejaVuSerif-75" transform="translate(132.519531 0)"/>
       <use xlink:href="#DejaVuSerif-65" transform="translate(196.923828 0)"/>
       <use xlink:href="#DejaVuSerif-65" transform="translate(256.103516 0)"/>
       <use xlink:href="#DejaVuSerif-7a" transform="translate(315.283203 0)"/>
       <use xlink:href="#DejaVuSerif-65" transform="translate(367.96875 0)"/>
      </g>
     </g>
    </g>
    <g id="ytick_4">
     <g id="line2d_14">
      <g>
       <use xlink:href="#m8a472f20ea" x="312.239844" y="183.56" style="stroke: #000000; stroke-width: 0.8"/>
      </g>
     </g>
     <g id="text_21">
      <!-- Burst-Sustained -->
      <g transform="translate(231.925 182.624141) scale(0.09 -0.09)">
       <defs>
        <path id="DejaVuSerif-2d" d="M 281 1959 
L 1881 1959 
L 1881 1472 
L 281 1472 
L 281 1959 
z
" transform="scale(0.015625)"/>
       </defs>
       <use xlink:href="#DejaVuSerif-42"/>
       <use xlink:href="#DejaVuSerif-75" transform="translate(73.486328 0)"/>
       <use xlink:href="#DejaVuSerif-72" transform="translate(137.890625 0)"/>
       <use xlink:href="#DejaVuSerif-73" transform="translate(185.693359 0)"/>
       <use xlink:href="#DejaVuSerif-74" transform="translate(237.011719 0)"/>
       <use xlink:href="#DejaVuSerif-2d" transform="translate(277.197266 0)"/>
       <use xlink:href="#DejaVuSerif-53" transform="translate(310.986328 0)"/>
       <use xlink:href="#DejaVuSerif-75" transform="translate(379.492188 0)"/>
       <use xlink:href="#DejaVuSerif-73" transform="translate(443.896484 0)"/>
       <use xlink:href="#DejaVuSerif-74" transform="translate(495.214844 0)"/>
       <use xlink:href="#DejaVuSerif-61" transform="translate(535.400391 0)"/>
       <use xlink:href="#DejaVuSerif-69" transform="translate(595.019531 0)"/>
       <use xlink:href="#DejaVuSerif-6e" transform="translate(627.001953 0)"/>
       <use xlink:href="#DejaVuSerif-65" transform="translate(691.40625 0)"/>
       <use xlink:href="#DejaVuSerif-64" transform="translate(750.585938 0)"/>
      </g>
      <!-- Gap -->
      <g transform="translate(286.922031 192.702172) scale(0.09 -0.09)">
       <defs>
        <path id="DejaVuSerif-70" d="M 1313 1825 
L 1313 1497 
Q 1313 897 1542 583 
Q 1772 269 2209 269 
Q 2650 269 2876 622 
Q 3103 975 3103 1663 
Q 3103 2353 2876 2703 
Q 2650 3053 2209 3053 
Q 1772 3053 1542 2737 
Q 1313 2422 1313 1825 
z
M 738 2988 
L 184 2988 
L 184 3322 
L 1313 3322 
L 1313 2803 
Q 1481 3116 1742 3264 
Q 2003 3413 2388 3413 
Q 3000 3413 3387 2928 
Q 3775 2444 3775 1663 
Q 3775 881 3387 395 
Q 3000 -91 2388 -91 
Q 2003 -91 1742 57 
Q 1481 206 1313 519 
L 1313 -997 
L 1856 -997 
L 1856 -1331 
L 184 -1331 
L 184 -997 
L 738 -997 
L 738 2988 
z
" transform="scale(0.015625)"/>
       </defs>
       <use xlink:href="#DejaVuSerif-47"/>
       <use xlink:href="#DejaVuSerif-61" transform="translate(79.882812 0)"/>
       <use xlink:href="#DejaVuSerif-70" transform="translate(139.501953 0)"/>
      </g>
     </g>
    </g>
    <g id="ytick_5">
     <g id="line2d_15">
      <g>
       <use xlink:href="#m8a472f20ea" x="312.239844" y="270.541818" style="stroke: #000000; stroke-width: 0.8"/>
      </g>
     </g>
     <g id="text_22">
      <!-- Provisioning -->
      <g transform="translate(248.352813 269.47799) scale(0.09 -0.09)">
       <defs>
        <path id="DejaVuSerif-50" d="M 1581 2375 
L 2406 2375 
Q 2872 2375 3115 2626 
Q 3359 2878 3359 3353 
Q 3359 3831 3115 4081 
Q 2872 4331 2406 4331 
L 1581 4331 
L 1581 2375 
z
M 353 0 
L 353 331 
L 947 331 
L 947 4331 
L 353 4331 
L 353 4666 
L 2559 4666 
Q 3259 4666 3668 4311 
Q 4078 3956 4078 3353 
Q 4078 2753 3668 2397 
Q 3259 2041 2559 2041 
L 1581 2041 
L 1581 331 
L 2303 331 
L 2303 0 
L 353 0 
z
" transform="scale(0.015625)"/>
        <path id="DejaVuSerif-76" d="M 1581 0 
L 359 2988 
L -19 2988 
L -19 3322 
L 1509 3322 
L 1509 2988 
L 978 2988 
L 1913 703 
L 2847 2988 
L 2350 2988 
L 2350 3322 
L 3597 3322 
L 3597 2988 
L 3225 2988 
L 2003 0 
L 1581 0 
z
" transform="scale(0.015625)"/>
       </defs>
       <use xlink:href="#DejaVuSerif-50"/>
       <use xlink:href="#DejaVuSerif-72" transform="translate(67.285156 0)"/>
       <use xlink:href="#DejaVuSerif-6f" transform="translate(115.087891 0)"/>
       <use xlink:href="#DejaVuSerif-76" transform="translate(175.292969 0)"/>
       <use xlink:href="#DejaVuSerif-69" transform="translate(231.787109 0)"/>
       <use xlink:href="#DejaVuSerif-73" transform="translate(263.769531 0)"/>
       <use xlink:href="#DejaVuSerif-69" transform="translate(315.087891 0)"/>
       <use xlink:href="#DejaVuSerif-6f" transform="translate(347.070312 0)"/>
       <use xlink:href="#DejaVuSerif-6e" transform="translate(407.275391 0)"/>
       <use xlink:href="#DejaVuSerif-69" transform="translate(471.679688 0)"/>
       <use xlink:href="#DejaVuSerif-6e" transform="translate(503.662109 0)"/>
       <use xlink:href="#DejaVuSerif-67" transform="translate(568.066406 0)"/>
      </g>
      <!-- Overhead -->
      <g transform="translate(260.896563 279.68399) scale(0.09 -0.09)">
       <defs>
        <path id="DejaVuSerif-4f" d="M 2625 244 
Q 3391 244 3781 770 
Q 4172 1297 4172 2328 
Q 4172 3363 3781 3889 
Q 3391 4416 2625 4416 
Q 1856 4416 1465 3889 
Q 1075 3363 1075 2328 
Q 1075 1297 1465 770 
Q 1856 244 2625 244 
z
M 2625 -91 
Q 2150 -91 1751 65 
Q 1353 222 1050 525 
Q 700 875 529 1319 
Q 359 1763 359 2328 
Q 359 2894 529 3339 
Q 700 3784 1050 4134 
Q 1356 4441 1750 4595 
Q 2144 4750 2625 4750 
Q 3641 4750 4266 4084 
Q 4891 3419 4891 2328 
Q 4891 1769 4719 1320 
Q 4547 872 4197 525 
Q 3891 219 3497 64 
Q 3103 -91 2625 -91 
z
" transform="scale(0.015625)"/>
       </defs>
       <use xlink:href="#DejaVuSerif-4f"/>
       <use xlink:href="#DejaVuSerif-76" transform="translate(81.982422 0)"/>
       <use xlink:href="#DejaVuSerif-65" transform="translate(138.476562 0)"/>
       <use xlink:href="#DejaVuSerif-72" transform="translate(197.65625 0)"/>
       <use xlink:href="#DejaVuSerif-68" transform="translate(245.458984 0)"/>
       <use xlink:href="#DejaVuSerif-65" transform="translate(309.863281 0)"/>
       <use xlink:href="#DejaVuSerif-61" transform="translate(369.042969 0)"/>
       <use xlink:href="#DejaVuSerif-64" transform="translate(428.662109 0)"/>
      </g>
     </g>
    </g>
   </g>
   <g id="patch_11">
    <path d="M 312.239844 303.16 
L 312.239844 63.96 
" style="fill: none; stroke: #000000; stroke-width: 0.8; stroke-linejoin: miter; stroke-linecap: square"/>
   </g>
   <g id="patch_12">
    <path d="M 312.239844 303.16 
L 456.554844 303.16 
" style="fill: none; stroke: #000000; stroke-width: 0.8; stroke-linejoin: miter; stroke-linecap: square"/>
   </g>
   <g id="text_23">
    <!-- 100% -->
    <g transform="translate(433.704969 98.785682) scale(0.08 -0.08)">
     <use xlink:href="#DejaVuSerif-Bold-31"/>
     <use xlink:href="#DejaVuSerif-Bold-30" transform="translate(69.580078 0)"/>
     <use xlink:href="#DejaVuSerif-Bold-30" transform="translate(139.160156 0)"/>
     <use xlink:href="#DejaVuSerif-Bold-25" transform="translate(208.740234 0)"/>
    </g>
   </g>
   <g id="text_24">
    <!-- 66.7 % BW loss -->
    <g style="fill: #555555" transform="translate(314.645094 74.154835) scale(0.07 -0.07)">
     <defs>
      <path id="DejaVuSerif-36" d="M 2094 219 
Q 2534 219 2771 542 
Q 3009 866 3009 1472 
Q 3009 2078 2771 2401 
Q 2534 2725 2094 2725 
Q 1647 2725 1412 2412 
Q 1178 2100 1178 1509 
Q 1178 888 1415 553 
Q 1653 219 2094 219 
z
M 1075 2569 
Q 1288 2803 1556 2918 
Q 1825 3034 2163 3034 
Q 2859 3034 3264 2615 
Q 3669 2197 3669 1472 
Q 3669 763 3233 336 
Q 2797 -91 2069 -91 
Q 1278 -91 853 498 
Q 428 1088 428 2181 
Q 428 3406 931 4078 
Q 1434 4750 2350 4750 
Q 2597 4750 2869 4703 
Q 3141 4656 3425 4563 
L 3425 3794 
L 3072 3794 
Q 3034 4109 2831 4275 
Q 2628 4441 2284 4441 
Q 1678 4441 1381 3981 
Q 1084 3522 1075 2569 
z
" transform="scale(0.015625)"/>
      <path id="DejaVuSerif-57" d="M 4878 0 
L 4366 0 
L 3297 3794 
L 2228 0 
L 1716 0 
L 494 4331 
L 31 4331 
L 31 4666 
L 1734 4666 
L 1734 4331 
L 1153 4331 
L 2125 884 
L 3188 4666 
L 3694 4666 
L 4775 844 
L 5753 4331 
L 5216 4331 
L 5216 4666 
L 6559 4666 
L 6559 4331 
L 6100 4331 
L 4878 0 
z
" transform="scale(0.015625)"/>
     </defs>
     <use xlink:href="#DejaVuSerif-36"/>
     <use xlink:href="#DejaVuSerif-36" transform="translate(63.623047 0)"/>
     <use xlink:href="#DejaVuSerif-2e" transform="translate(127.246094 0)"/>
     <use xlink:href="#DejaVuSerif-37" transform="translate(159.033203 0)"/>
     <use xlink:href="#DejaVuSerif-20" transform="translate(222.65625 0)"/>
     <use xlink:href="#DejaVuSerif-25" transform="translate(254.443359 0)"/>
     <use xlink:href="#DejaVuSerif-20" transform="translate(349.462891 0)"/>
     <use xlink:href="#DejaVuSerif-42" transform="translate(381.25 0)"/>
     <use xlink:href="#DejaVuSerif-57" transform="translate(454.736328 0)"/>
     <use xlink:href="#DejaVuSerif-20" transform="translate(557.519531 0)"/>
     <use xlink:href="#DejaVuSerif-6c" transform="translate(589.306641 0)"/>
     <use xlink:href="#DejaVuSerif-6f" transform="translate(621.289062 0)"/>
     <use xlink:href="#DejaVuSerif-73" transform="translate(681.494141 0)"/>
     <use xlink:href="#DejaVuSerif-73" transform="translate(732.8125 0)"/>
    </g>
   </g>
   <g id="text_25">
    <!-- 56% -->
    <g transform="translate(381.390781 185.7675) scale(0.08 -0.08)">
     <defs>
      <path id="DejaVuSerif-Bold-36" d="M 1575 2766 
Q 1778 2928 2029 3009 
Q 2281 3091 2578 3091 
Q 3294 3091 3701 2672 
Q 4109 2253 4109 1522 
Q 4109 750 3650 329 
Q 3191 -91 2344 -91 
Q 1388 -91 895 486 
Q 403 1063 403 2181 
Q 403 3453 950 4101 
Q 1497 4750 2572 4750 
Q 2853 4750 3175 4703 
Q 3497 4656 3866 4563 
L 3866 3738 
L 3488 3738 
Q 3409 4056 3192 4220 
Q 2975 4384 2631 4384 
Q 2075 4384 1826 4003 
Q 1578 3622 1575 2766 
z
M 2272 275 
Q 2594 275 2731 548 
Q 2869 822 2869 1497 
Q 2869 2172 2731 2445 
Q 2594 2719 2272 2719 
Q 1950 2719 1814 2445 
Q 1678 2172 1678 1497 
Q 1678 822 1814 548 
Q 1950 275 2272 275 
z
" transform="scale(0.015625)"/>
     </defs>
     <use xlink:href="#DejaVuSerif-Bold-35"/>
     <use xlink:href="#DejaVuSerif-Bold-36" transform="translate(69.580078 0)"/>
     <use xlink:href="#DejaVuSerif-Bold-25" transform="translate(139.160156 0)"/>
    </g>
   </g>
   <g id="text_26">
    <!-- 1.7 % below spec -->
    <g style="fill: #555555" transform="translate(314.645094 161.136653) scale(0.07 -0.07)">
     <defs>
      <path id="DejaVuSerif-62" d="M 738 331 
L 738 4531 
L 184 4531 
L 184 4863 
L 1313 4863 
L 1313 2803 
Q 1481 3116 1742 3264 
Q 2003 3413 2388 3413 
Q 3000 3413 3387 2928 
Q 3775 2444 3775 1663 
Q 3775 881 3387 395 
Q 3000 -91 2388 -91 
Q 2003 -91 1742 57 
Q 1481 206 1313 519 
L 1313 0 
L 184 0 
L 184 331 
L 738 331 
z
M 1313 1497 
Q 1313 897 1542 583 
Q 1772 269 2209 269 
Q 2650 269 2876 622 
Q 3103 975 3103 1663 
Q 3103 2353 2876 2703 
Q 2650 3053 2209 3053 
Q 1772 3053 1542 2737 
Q 1313 2422 1313 1825 
L 1313 1497 
z
" transform="scale(0.015625)"/>
     </defs>
     <use xlink:href="#DejaVuSerif-31"/>
     <use xlink:href="#DejaVuSerif-2e" transform="translate(63.623047 0)"/>
     <use xlink:href="#DejaVuSerif-37" transform="translate(95.410156 0)"/>
     <use xlink:href="#DejaVuSerif-20" transform="translate(159.033203 0)"/>
     <use xlink:href="#DejaVuSerif-25" transform="translate(190.820312 0)"/>
     <use xlink:href="#DejaVuSerif-20" transform="translate(285.839844 0)"/>
     <use xlink:href="#DejaVuSerif-62" transform="translate(317.626953 0)"/>
     <use xlink:href="#DejaVuSerif-65" transform="translate(381.640625 0)"/>
     <use xlink:href="#DejaVuSerif-6c" transform="translate(440.820312 0)"/>
     <use xlink:href="#DejaVuSerif-6f" transform="translate(472.802734 0)"/>
     <use xlink:href="#DejaVuSerif-77" transform="translate(533.007812 0)"/>
     <use xlink:href="#DejaVuSerif-20" transform="translate(618.603516 0)"/>
     <use xlink:href="#DejaVuSerif-73" transform="translate(650.390625 0)"/>
     <use xlink:href="#DejaVuSerif-70" transform="translate(701.708984 0)"/>
     <use xlink:href="#DejaVuSerif-65" transform="translate(765.722656 0)"/>
     <use xlink:href="#DejaVuSerif-63" transform="translate(824.902344 0)"/>
    </g>
   </g>
   <g id="text_27">
    <!-- 100% -->
    <g transform="translate(433.704969 272.749318) scale(0.08 -0.08)">
     <use xlink:href="#DejaVuSerif-Bold-31"/>
     <use xlink:href="#DejaVuSerif-Bold-30" transform="translate(69.580078 0)"/>
     <use xlink:href="#DejaVuSerif-Bold-30" transform="translate(139.160156 0)"/>
     <use xlink:href="#DejaVuSerif-Bold-25" transform="translate(208.740234 0)"/>
    </g>
   </g>
   <g id="text_28">
    <!-- 246 ms latency -->
    <g style="fill: #555555" transform="translate(314.645094 248.068706) scale(0.07 -0.07)">
     <defs>
      <path id="DejaVuSerif-34" d="M 2234 1581 
L 2234 4063 
L 641 1581 
L 2234 1581 
z
M 3609 0 
L 1484 0 
L 1484 331 
L 2234 331 
L 2234 1247 
L 197 1247 
L 197 1588 
L 2241 4750 
L 2859 4750 
L 2859 1581 
L 3750 1581 
L 3750 1247 
L 2859 1247 
L 2859 331 
L 3609 331 
L 3609 0 
z
" transform="scale(0.015625)"/>
      <path id="DejaVuSerif-6d" d="M 3316 2675 
Q 3481 3041 3739 3227 
Q 3997 3413 4341 3413 
Q 4863 3413 5119 3089 
Q 5375 2766 5375 2113 
L 5375 331 
L 5894 331 
L 5894 0 
L 4300 0 
L 4300 331 
L 4800 331 
L 4800 2047 
Q 4800 2556 4650 2772 
Q 4500 2988 4153 2988 
Q 3769 2988 3567 2697 
Q 3366 2406 3366 1850 
L 3366 331 
L 3866 331 
L 3866 0 
L 2291 0 
L 2291 331 
L 2791 331 
L 2791 2069 
Q 2791 2566 2641 2777 
Q 2491 2988 2144 2988 
Q 1759 2988 1557 2697 
Q 1356 2406 1356 1850 
L 1356 331 
L 1856 331 
L 1856 0 
L 263 0 
L 263 331 
L 781 331 
L 781 2994 
L 231 2994 
L 231 3322 
L 1356 3322 
L 1356 2731 
Q 1516 3063 1762 3238 
Q 2009 3413 2322 3413 
Q 2709 3413 2968 3220 
Q 3228 3028 3316 2675 
z
" transform="scale(0.015625)"/>
      <path id="DejaVuSerif-79" d="M 1381 -609 
L 1600 -56 
L 359 2988 
L -19 2988 
L -19 3322 
L 1509 3322 
L 1509 2988 
L 978 2988 
L 1913 703 
L 2847 2988 
L 2350 2988 
L 2350 3322 
L 3597 3322 
L 3597 2988 
L 3225 2988 
L 1703 -750 
Q 1547 -1138 1356 -1280 
Q 1166 -1422 819 -1422 
Q 672 -1422 517 -1397 
Q 363 -1372 206 -1325 
L 206 -691 
L 500 -691 
Q 519 -903 608 -995 
Q 697 -1088 884 -1088 
Q 1056 -1088 1161 -992 
Q 1266 -897 1381 -609 
z
" transform="scale(0.015625)"/>
     </defs>
     <use xlink:href="#DejaVuSerif-32"/>
     <use xlink:href="#DejaVuSerif-34" transform="translate(63.623047 0)"/>
     <use xlink:href="#DejaVuSerif-36" transform="translate(127.246094 0)"/>
     <use xlink:href="#DejaVuSerif-20" transform="translate(190.869141 0)"/>
     <use xlink:href="#DejaVuSerif-6d" transform="translate(222.65625 0)"/>
     <use xlink:href="#DejaVuSerif-73" transform="translate(317.480469 0)"/>
     <use xlink:href="#DejaVuSerif-20" transform="translate(368.798828 0)"/>
     <use xlink:href="#DejaVuSerif-6c" transform="translate(400.585938 0)"/>
     <use xlink:href="#DejaVuSerif-61" transform="translate(432.568359 0)"/>
     <use xlink:href="#DejaVuSerif-74" transform="translate(492.1875 0)"/>
     <use xlink:href="#DejaVuSerif-65" transform="translate(532.373047 0)"/>
     <use xlink:href="#DejaVuSerif-6e" transform="translate(591.552734 0)"/>
     <use xlink:href="#DejaVuSerif-63" transform="translate(655.957031 0)"/>
     <use xlink:href="#DejaVuSerif-79" transform="translate(711.962891 0)"/>
    </g>
   </g>
   <g id="text_29">
    <!-- B: Decision Support -->
    <g style="fill: #7c3aed" transform="translate(328.181719 57.96) scale(0.1 -0.1)">
     <defs>
      <path id="DejaVuSerif-Bold-42" d="M 300 0 
L 300 378 
L 897 378 
L 897 4288 
L 300 4288 
L 300 4666 
L 3066 4666 
Q 3919 4666 4347 4378 
Q 4775 4091 4775 3513 
Q 4775 3097 4479 2853 
Q 4184 2609 3603 2547 
Q 4306 2481 4681 2172 
Q 5056 1863 5056 1350 
Q 5056 656 4532 328 
Q 4009 0 2894 0 
L 300 0 
z
M 2100 2719 
L 2509 2719 
Q 3047 2719 3306 2914 
Q 3566 3109 3566 3513 
Q 3566 3919 3314 4103 
Q 3063 4288 2509 4288 
L 2100 4288 
L 2100 2719 
z
M 2100 378 
L 2547 378 
Q 3144 378 3431 615 
Q 3719 853 3719 1350 
Q 3719 1850 3428 2097 
Q 3138 2344 2547 2344 
L 2100 2344 
L 2100 378 
z
" transform="scale(0.015625)"/>
      <path id="DejaVuSerif-Bold-73" d="M 300 97 
L 300 1025 
L 653 1025 
Q 697 653 931 458 
Q 1166 263 1569 263 
Q 1906 263 2086 380 
Q 2266 497 2266 716 
Q 2266 916 2152 1025 
Q 2038 1134 1709 1216 
L 1253 1331 
Q 738 1459 506 1698 
Q 275 1938 275 2344 
Q 275 2884 650 3148 
Q 1025 3413 1806 3413 
Q 2100 3413 2433 3364 
Q 2766 3316 3169 3213 
L 3169 2375 
L 2816 2375 
Q 2788 2716 2573 2887 
Q 2359 3059 1959 3059 
Q 1622 3059 1448 2951 
Q 1275 2844 1275 2638 
Q 1275 2469 1375 2372 
Q 1475 2275 1734 2209 
L 2188 2094 
Q 2841 1928 3091 1684 
Q 3341 1441 3341 1006 
Q 3341 444 2939 176 
Q 2538 -91 1691 -91 
Q 1381 -91 1034 -44 
Q 688 3 300 97 
z
" transform="scale(0.015625)"/>
      <path id="DejaVuSerif-Bold-6e" d="M 219 0 
L 219 378 
L 691 378 
L 691 2944 
L 219 2944 
L 219 3322 
L 1797 3322 
L 1797 2853 
Q 1997 3150 2253 3281 
Q 2509 3413 2900 3413 
Q 3459 3413 3745 3083 
Q 4031 2753 4031 2113 
L 4031 378 
L 4506 378 
L 4506 0 
L 2522 0 
L 2522 378 
L 2925 378 
L 2925 2144 
Q 2925 2566 2817 2730 
Q 2709 2894 2444 2894 
Q 2109 2894 1953 2648 
Q 1797 2403 1797 1869 
L 1797 378 
L 2203 378 
L 2203 0 
L 219 0 
z
" transform="scale(0.015625)"/>
      <path id="DejaVuSerif-Bold-53" d="M 494 225 
L 494 1331 
L 891 1331 
Q 981 806 1318 547 
Q 1656 288 2253 288 
Q 2738 288 2991 472 
Q 3244 656 3244 1013 
Q 3244 1294 3072 1450 
Q 2900 1606 2363 1741 
L 1663 1913 
Q 978 2088 700 2398 
Q 422 2709 422 3284 
Q 422 3978 883 4364 
Q 1344 4750 2175 4750 
Q 2584 4750 3026 4681 
Q 3469 4613 3944 4475 
L 3944 3444 
L 3547 3444 
Q 3456 3925 3150 4148 
Q 2844 4372 2278 4372 
Q 1816 4372 1580 4211 
Q 1344 4050 1344 3731 
Q 1344 3441 1506 3289 
Q 1669 3138 2303 2975 
L 3003 2803 
Q 3653 2641 3945 2297 
Q 4238 1953 4238 1350 
Q 4238 644 3750 276 
Q 3263 -91 2316 -91 
Q 1859 -91 1409 -12 
Q 959 66 494 225 
z
" transform="scale(0.015625)"/>
      <path id="DejaVuSerif-Bold-75" d="M 3963 3322 
L 3963 378 
L 4434 378 
L 4434 0 
L 2853 0 
L 2853 469 
Q 2656 172 2400 40 
Q 2144 -91 1753 -91 
Q 1194 -91 908 239 
Q 622 569 622 1209 
L 622 2944 
L 147 2944 
L 147 3322 
L 1728 3322 
L 1728 1381 
Q 1728 763 1831 595 
Q 1934 428 2209 428 
Q 2544 428 2698 675 
Q 2853 922 2853 1459 
L 2853 2944 
L 2450 2944 
L 2450 3322 
L 3963 3322 
z
" transform="scale(0.015625)"/>
      <path id="DejaVuSerif-Bold-70" d="M 1728 1825 
L 1728 1497 
Q 1728 916 1876 656 
Q 2025 397 2356 397 
Q 2697 397 2836 672 
Q 2975 947 2975 1663 
Q 2975 2378 2836 2651 
Q 2697 2925 2356 2925 
Q 2025 2925 1876 2665 
Q 1728 2406 1728 1825 
z
M 622 2944 
L 147 2944 
L 147 3322 
L 1728 3322 
L 1728 2900 
Q 1869 3159 2106 3286 
Q 2344 3413 2694 3413 
Q 3403 3413 3811 2945 
Q 4219 2478 4219 1663 
Q 4219 847 3811 378 
Q 3403 -91 2694 -91 
Q 2344 -91 2106 36 
Q 1869 163 1728 422 
L 1728 -953 
L 2241 -953 
L 2241 -1331 
L 147 -1331 
L 147 -953 
L 622 -953 
L 622 2944 
z
" transform="scale(0.015625)"/>
     </defs>
     <use xlink:href="#DejaVuSerif-Bold-42"/>
     <use xlink:href="#DejaVuSerif-Bold-3a" transform="translate(84.521484 0)"/>
     <use xlink:href="#DejaVuSerif-Bold-20" transform="translate(121.435547 0)"/>
     <use xlink:href="#DejaVuSerif-Bold-44" transform="translate(156.25 0)"/>
     <use xlink:href="#DejaVuSerif-Bold-65" transform="translate(242.96875 0)"/>
     <use xlink:href="#DejaVuSerif-Bold-63" transform="translate(306.591797 0)"/>
     <use xlink:href="#DejaVuSerif-Bold-69" transform="translate(367.480469 0)"/>
     <use xlink:href="#DejaVuSerif-Bold-73" transform="translate(405.46875 0)"/>
     <use xlink:href="#DejaVuSerif-Bold-69" transform="translate(461.767578 0)"/>
     <use xlink:href="#DejaVuSerif-Bold-6f" transform="translate(499.755859 0)"/>
     <use xlink:href="#DejaVuSerif-Bold-6e" transform="translate(566.455078 0)"/>
     <use xlink:href="#DejaVuSerif-Bold-20" transform="translate(639.160156 0)"/>
     <use xlink:href="#DejaVuSerif-Bold-53" transform="translate(673.974609 0)"/>
     <use xlink:href="#DejaVuSerif-Bold-75" transform="translate(746.191406 0)"/>
     <use xlink:href="#DejaVuSerif-Bold-70" transform="translate(818.896484 0)"/>
     <use xlink:href="#DejaVuSerif-Bold-70" transform="translate(888.818359 0)"/>
     <use xlink:href="#DejaVuSerif-Bold-6f" transform="translate(958.740234 0)"/>
     <use xlink:href="#DejaVuSerif-Bold-72" transform="translate(1025.439453 0)"/>
     <use xlink:href="#DejaVuSerif-Bold-74" transform="translate(1078.125 0)"/>
    </g>
   </g>
  </g>
  <g id="axes_3">
   <g id="patch_13">
    <path d="M 556.269844 303.16 
L 700.584844 303.16 
L 700.584844 63.96 
L 556.269844 63.96 
z
" style="fill: #ffffff"/>
   </g>
   <g id="patch_14">
    <path d="M 556.269844 74.832727 
L 676.532344 74.832727 
L 676.532344 292.287273 
L 556.269844 292.287273 
z
" clip-path="url(#pc5fb384670)" style="fill: #dc2626; opacity: 0.8; stroke: #ffffff; stroke-width: 0.5; stroke-linejoin: miter"/>
   </g>
   <g id="matplotlib.axis_5">
    <g id="xtick_11">
     <g id="line2d_16">
      <g>
       <use xlink:href="#mb7790b78ab" x="556.269844" y="303.16" style="stroke: #000000; stroke-width: 0.8"/>
      </g>
     </g>
     <g id="text_30">
      <!-- 0 -->
      <g transform="translate(553.406719 316.998594) scale(0.09 -0.09)">
       <use xlink:href="#DejaVuSerif-30"/>
      </g>
     </g>
    </g>
    <g id="xtick_12">
     <g id="line2d_17">
      <g>
       <use xlink:href="#mb7790b78ab" x="586.335469" y="303.16" style="stroke: #000000; stroke-width: 0.8"/>
      </g>
     </g>
     <g id="text_31">
      <!-- 25 -->
      <g transform="translate(580.609219 316.998594) scale(0.09 -0.09)">
       <use xlink:href="#DejaVuSerif-32"/>
       <use xlink:href="#DejaVuSerif-35" transform="translate(63.623047 0)"/>
      </g>
     </g>
    </g>
    <g id="xtick_13">
     <g id="line2d_18">
      <g>
       <use xlink:href="#mb7790b78ab" x="616.401094" y="303.16" style="stroke: #000000; stroke-width: 0.8"/>
      </g>
     </g>
     <g id="text_32">
      <!-- 50 -->
      <g transform="translate(610.674844 316.998594) scale(0.09 -0.09)">
       <use xlink:href="#DejaVuSerif-35"/>
       <use xlink:href="#DejaVuSerif-30" transform="translate(63.623047 0)"/>
      </g>
     </g>
    </g>
    <g id="xtick_14">
     <g id="line2d_19">
      <g>
       <use xlink:href="#mb7790b78ab" x="646.466719" y="303.16" style="stroke: #000000; stroke-width: 0.8"/>
      </g>
     </g>
     <g id="text_33">
      <!-- 75 -->
      <g transform="translate(640.740469 316.998594) scale(0.09 -0.09)">
       <use xlink:href="#DejaVuSerif-37"/>
       <use xlink:href="#DejaVuSerif-35" transform="translate(63.623047 0)"/>
      </g>
     </g>
    </g>
    <g id="xtick_15">
     <g id="line2d_20">
      <g>
       <use xlink:href="#mb7790b78ab" x="676.532344" y="303.16" style="stroke: #000000; stroke-width: 0.8"/>
      </g>
     </g>
     <g id="text_34">
      <!-- 100 -->
      <g transform="translate(667.942969 316.998594) scale(0.09 -0.09)">
       <use xlink:href="#DejaVuSerif-31"/>
       <use xlink:href="#DejaVuSerif-30" transform="translate(63.623047 0)"/>
       <use xlink:href="#DejaVuSerif-30" transform="translate(127.246094 0)"/>
      </g>
     </g>
    </g>
    <g id="text_35">
     <!-- Detection Rate (%) -->
     <g transform="translate(589.840469 328.949062) scale(0.08 -0.08)">
      <use xlink:href="#DejaVuSerif-44"/>
      <use xlink:href="#DejaVuSerif-65" transform="translate(80.175781 0)"/>
      <use xlink:href="#DejaVuSerif-74" transform="translate(139.355469 0)"/>
      <use xlink:href="#DejaVuSerif-65" transform="translate(179.541016 0)"/>
      <use xlink:href="#DejaVuSerif-63" transform="translate(238.720703 0)"/>
      <use xlink:href="#DejaVuSerif-74" transform="translate(294.726562 0)"/>
      <use xlink:href="#DejaVuSerif-69" transform="translate(334.912109 0)"/>
      <use xlink:href="#DejaVuSerif-6f" transform="translate(366.894531 0)"/>
      <use xlink:href="#DejaVuSerif-6e" transform="translate(427.099609 0)"/>
      <use xlink:href="#DejaVuSerif-20" transform="translate(491.503906 0)"/>
      <use xlink:href="#DejaVuSerif-52" transform="translate(523.291016 0)"/>
      <use xlink:href="#DejaVuSerif-61" transform="translate(600.833984 0)"/>
      <use xlink:href="#DejaVuSerif-74" transform="translate(660.453125 0)"/>
      <use xlink:href="#DejaVuSerif-65" transform="translate(700.638672 0)"/>
      <use xlink:href="#DejaVuSerif-20" transform="translate(759.818359 0)"/>
      <use xlink:href="#DejaVuSerif-28" transform="translate(791.605469 0)"/>
      <use xlink:href="#DejaVuSerif-25" transform="translate(830.619141 0)"/>
      <use xlink:href="#DejaVuSerif-29" transform="translate(925.638672 0)"/>
     </g>
    </g>
   </g>
   <g id="matplotlib.axis_6">
    <g id="ytick_6">
     <g id="line2d_21">
      <g>
       <use xlink:href="#m8a472f20ea" x="556.269844" y="183.56" style="stroke: #000000; stroke-width: 0.8"/>
      </g>
     </g>
     <g id="text_36">
      <!-- Over- -->
      <g transform="translate(524.135938 182.624141) scale(0.09 -0.09)">
       <use xlink:href="#DejaVuSerif-4f"/>
       <use xlink:href="#DejaVuSerif-76" transform="translate(81.982422 0)"/>
       <use xlink:href="#DejaVuSerif-65" transform="translate(138.476562 0)"/>
       <use xlink:href="#DejaVuSerif-72" transform="translate(197.65625 0)"/>
       <use xlink:href="#DejaVuSerif-2d" transform="translate(245.458984 0)"/>
      </g>
      <!-- subscription -->
      <g transform="translate(492.783594 192.702172) scale(0.09 -0.09)">
       <use xlink:href="#DejaVuSerif-73"/>
       <use xlink:href="#DejaVuSerif-75" transform="translate(51.318359 0)"/>
       <use xlink:href="#DejaVuSerif-62" transform="translate(115.722656 0)"/>
       <use xlink:href="#DejaVuSerif-73" transform="translate(179.736328 0)"/>
       <use xlink:href="#DejaVuSerif-63" transform="translate(231.054688 0)"/>
       <use xlink:href="#DejaVuSerif-72" transform="translate(287.060547 0)"/>
       <use xlink:href="#DejaVuSerif-69" transform="translate(334.863281 0)"/>
       <use xlink:href="#DejaVuSerif-70" transform="translate(366.845703 0)"/>
       <use xlink:href="#DejaVuSerif-74" transform="translate(430.859375 0)"/>
       <use xlink:href="#DejaVuSerif-69" transform="translate(471.044922 0)"/>
       <use xlink:href="#DejaVuSerif-6f" transform="translate(503.027344 0)"/>
       <use xlink:href="#DejaVuSerif-6e" transform="translate(563.232422 0)"/>
      </g>
     </g>
    </g>
   </g>
   <g id="patch_15">
    <path d="M 556.269844 303.16 
L 556.269844 63.96 
" style="fill: none; stroke: #000000; stroke-width: 0.8; stroke-linejoin: miter; stroke-linecap: square"/>
   </g>
   <g id="patch_16">
    <path d="M 556.269844 303.16 
L 700.584844 303.16 
" style="fill: none; stroke: #000000; stroke-width: 0.8; stroke-linejoin: miter; stroke-linecap: square"/>
   </g>
   <g id="text_37">
    <!-- 100% -->
    <g transform="translate(677.734969 185.7675) scale(0.08 -0.08)">
     <use xlink:href="#DejaVuSerif-Bold-31"/>
     <use xlink:href="#DejaVuSerif-Bold-30" transform="translate(69.580078 0)"/>
     <use xlink:href="#DejaVuSerif-Bold-30" transform="translate(139.160156 0)"/>
     <use xlink:href="#DejaVuSerif-Bold-25" transform="translate(208.740234 0)"/>
    </g>
   </g>
   <g id="text_38">
    <!-- 33.3 % degradation -->
    <g style="fill: #555555" transform="translate(558.675094 63.667251) scale(0.07 -0.07)">
     <defs>
      <path id="DejaVuSerif-33" d="M 622 4469 
Q 988 4606 1323 4678 
Q 1659 4750 1953 4750 
Q 2638 4750 3022 4454 
Q 3406 4159 3406 3634 
Q 3406 3213 3140 2930 
Q 2875 2647 2388 2547 
Q 2963 2466 3280 2130 
Q 3597 1794 3597 1259 
Q 3597 606 3158 257 
Q 2719 -91 1894 -91 
Q 1528 -91 1179 -12 
Q 831 66 488 225 
L 488 1131 
L 838 1131 
Q 869 681 1141 450 
Q 1413 219 1906 219 
Q 2384 219 2661 495 
Q 2938 772 2938 1253 
Q 2938 1803 2653 2086 
Q 2369 2369 1819 2369 
L 1522 2369 
L 1522 2688 
L 1678 2688 
Q 2225 2688 2498 2914 
Q 2772 3141 2772 3597 
Q 2772 4006 2547 4223 
Q 2322 4441 1900 4441 
Q 1478 4441 1245 4241 
Q 1013 4041 972 3647 
L 622 3647 
L 622 4469 
z
" transform="scale(0.015625)"/>
     </defs>
     <use xlink:href="#DejaVuSerif-33"/>
     <use xlink:href="#DejaVuSerif-33" transform="translate(63.623047 0)"/>
     <use xlink:href="#DejaVuSerif-2e" transform="translate(127.246094 0)"/>
     <use xlink:href="#DejaVuSerif-33" transform="translate(159.033203 0)"/>
     <use xlink:href="#DejaVuSerif-20" transform="translate(222.65625 0)"/>
     <use xlink:href="#DejaVuSerif-25" transform="translate(254.443359 0)"/>
     <use xlink:href="#DejaVuSerif-20" transform="translate(349.462891 0)"/>
     <use xlink:href="#DejaVuSerif-64" transform="translate(381.25 0)"/>
     <use xlink:href="#DejaVuSerif-65" transform="translate(445.263672 0)"/>
     <use xlink:href="#DejaVuSerif-67" transform="translate(504.443359 0)"/>
     <use xlink:href="#DejaVuSerif-72" transform="translate(568.457031 0)"/>
     <use xlink:href="#DejaVuSerif-61" transform="translate(616.259766 0)"/>
     <use xlink:href="#DejaVuSerif-64" transform="translate(675.878906 0)"/>
     <use xlink:href="#DejaVuSerif-61" transform="translate(739.892578 0)"/>
     <use xlink:href="#DejaVuSerif-74" transform="translate(799.511719 0)"/>
     <use xlink:href="#DejaVuSerif-69" transform="translate(839.697266 0)"/>
     <use xlink:href="#DejaVuSerif-6f" transform="translate(871.679688 0)"/>
     <use xlink:href="#DejaVuSerif-6e" transform="translate(931.884766 0)"/>
    </g>
   </g>
   <g id="text_39">
    <!-- C: Risk Prevention -->
    <g style="fill: #dc2626" transform="translate(576.310156 57.96) scale(0.1 -0.1)">
     <defs>
      <path id="DejaVuSerif-Bold-43" d="M 4769 1331 
Q 4584 609 4106 259 
Q 3628 -91 2822 -91 
Q 1641 -91 955 561 
Q 269 1213 269 2328 
Q 269 3447 955 4098 
Q 1641 4750 2822 4750 
Q 3238 4750 3688 4650 
Q 4138 4550 4641 4347 
L 4641 3200 
L 4244 3200 
Q 4122 3788 3800 4080 
Q 3478 4372 2950 4372 
Q 2269 4372 1937 3870 
Q 1606 3369 1606 2328 
Q 1606 1288 1937 788 
Q 2269 288 2956 288 
Q 3422 288 3717 547 
Q 4013 806 4147 1331 
L 4769 1331 
z
" transform="scale(0.015625)"/>
      <path id="DejaVuSerif-Bold-6b" d="M 2216 0 
L 219 0 
L 219 378 
L 691 378 
L 691 4488 
L 219 4488 
L 219 4863 
L 1797 4863 
L 1797 1741 
L 3138 2944 
L 2741 2944 
L 2741 3322 
L 4256 3322 
L 4256 2944 
L 3641 2944 
L 2784 2175 
L 4184 378 
L 4544 378 
L 4544 0 
L 2638 0 
L 2638 378 
L 3028 378 
L 2106 1563 
L 1797 1288 
L 1797 378 
L 2216 378 
L 2216 0 
z
" transform="scale(0.015625)"/>
      <path id="DejaVuSerif-Bold-50" d="M 300 0 
L 300 378 
L 897 378 
L 897 4288 
L 300 4288 
L 300 4666 
L 2956 4666 
Q 3734 4666 4193 4295 
Q 4653 3925 4653 3303 
Q 4653 2678 4192 2304 
Q 3731 1931 2956 1931 
L 2100 1931 
L 2100 378 
L 2853 378 
L 2853 0 
L 300 0 
z
M 2100 2309 
L 2450 2309 
Q 2856 2309 3098 2579 
Q 3341 2850 3341 3303 
Q 3341 3753 3100 4020 
Q 2859 4288 2450 4288 
L 2100 4288 
L 2100 2309 
z
" transform="scale(0.015625)"/>
     </defs>
     <use xlink:href="#DejaVuSerif-Bold-43"/>
     <use xlink:href="#DejaVuSerif-Bold-3a" transform="translate(79.589844 0)"/>
     <use xlink:href="#DejaVuSerif-Bold-20" transform="translate(116.503906 0)"/>
     <use xlink:href="#DejaVuSerif-Bold-52" transform="translate(151.318359 0)"/>
     <use xlink:href="#DejaVuSerif-Bold-69" transform="translate(234.423828 0)"/>
     <use xlink:href="#DejaVuSerif-Bold-73" transform="translate(272.412109 0)"/>
     <use xlink:href="#DejaVuSerif-Bold-6b" transform="translate(328.710938 0)"/>
     <use xlink:href="#DejaVuSerif-Bold-20" transform="translate(397.998047 0)"/>
     <use xlink:href="#DejaVuSerif-Bold-50" transform="translate(432.8125 0)"/>
     <use xlink:href="#DejaVuSerif-Bold-72" transform="translate(508.007812 0)"/>
     <use xlink:href="#DejaVuSerif-Bold-65" transform="translate(560.693359 0)"/>
     <use xlink:href="#DejaVuSerif-Bold-76" transform="translate(624.316406 0)"/>
     <use xlink:href="#DejaVuSerif-Bold-65" transform="translate(682.421875 0)"/>
     <use xlink:href="#DejaVuSerif-Bold-6e" transform="translate(746.044922 0)"/>
     <use xlink:href="#DejaVuSerif-Bold-74" transform="translate(818.75 0)"/>
     <use xlink:href="#DejaVuSerif-Bold-69" transform="translate(864.941406 0)"/>
     <use xlink:href="#DejaVuSerif-Bold-6f" transform="translate(902.929688 0)"/>
     <use xlink:href="#DejaVuSerif-Bold-6e" transform="translate(969.628906 0)"/>
    </g>
   </g>
  </g>
  <g id="text_40">
   <!-- Figure 3. Three Operational Action Buckets with Detection Rates and Per-Event Impact -->
   <g transform="translate(115.184297 19.158281) scale(0.11 -0.11)">
    <defs>
     <path id="DejaVuSerif-46" d="M 353 0 
L 353 331 
L 947 331 
L 947 4331 
L 353 4331 
L 353 4666 
L 4172 4666 
L 4172 3628 
L 3788 3628 
L 3788 4281 
L 1581 4281 
L 1581 2719 
L 3175 2719 
L 3175 3303 
L 3559 3303 
L 3559 1753 
L 3175 1753 
L 3175 2338 
L 1581 2338 
L 1581 331 
L 2328 331 
L 2328 0 
L 353 0 
z
" transform="scale(0.015625)"/>
     <path id="DejaVuSerif-6b" d="M 1831 0 
L 219 0 
L 219 331 
L 738 331 
L 738 4531 
L 184 4531 
L 184 4863 
L 1313 4863 
L 1313 1697 
L 2713 2988 
L 2234 2988 
L 2234 3322 
L 3738 3322 
L 3738 2988 
L 3169 2988 
L 2181 2075 
L 3444 331 
L 3922 331 
L 3922 0 
L 2284 0 
L 2284 331 
L 2759 331 
L 1766 1697 
L 1313 1275 
L 1313 331 
L 1831 331 
L 1831 0 
z
" transform="scale(0.015625)"/>
     <path id="DejaVuSerif-45" d="M 353 0 
L 353 331 
L 947 331 
L 947 4331 
L 353 4331 
L 353 4666 
L 4109 4666 
L 4109 3628 
L 3725 3628 
L 3725 4281 
L 1581 4281 
L 1581 2719 
L 3109 2719 
L 3109 3303 
L 3494 3303 
L 3494 1753 
L 3109 1753 
L 3109 2338 
L 1581 2338 
L 1581 384 
L 3775 384 
L 3775 1038 
L 4159 1038 
L 4159 0 
L 353 0 
z
" transform="scale(0.015625)"/>
     <path id="DejaVuSerif-49" d="M 1581 331 
L 2175 331 
L 2175 0 
L 353 0 
L 353 331 
L 947 331 
L 947 4331 
L 353 4331 
L 353 4666 
L 2175 4666 
L 2175 4331 
L 1581 4331 
L 1581 331 
z
" transform="scale(0.015625)"/>
    </defs>
    <use xlink:href="#DejaVuSerif-46"/>
    <use xlink:href="#DejaVuSerif-69" transform="translate(69.384766 0)"/>
    <use xlink:href="#DejaVuSerif-67" transform="translate(101.367188 0)"/>
    <use xlink:href="#DejaVuSerif-75" transform="translate(165.380859 0)"/>
    <use xlink:href="#DejaVuSerif-72" transform="translate(229.785156 0)"/>
    <use xlink:href="#DejaVuSerif-65" transform="translate(277.587891 0)"/>
    <use xlink:href="#DejaVuSerif-20" transform="translate(336.767578 0)"/>
    <use xlink:href="#DejaVuSerif-33" transform="translate(368.554688 0)"/>
    <use xlink:href="#DejaVuSerif-2e" transform="translate(432.177734 0)"/>
    <use xlink:href="#DejaVuSerif-20" transform="translate(463.964844 0)"/>
    <use xlink:href="#DejaVuSerif-54" transform="translate(495.751953 0)"/>
    <use xlink:href="#DejaVuSerif-68" transform="translate(562.451172 0)"/>
    <use xlink:href="#DejaVuSerif-72" transform="translate(626.855469 0)"/>
    <use xlink:href="#DejaVuSerif-65" transform="translate(674.658203 0)"/>
    <use xlink:href="#DejaVuSerif-65" transform="translate(733.837891 0)"/>
    <use xlink:href="#DejaVuSerif-20" transform="translate(793.017578 0)"/>
    <use xlink:href="#DejaVuSerif-4f" transform="translate(824.804688 0)"/>
    <use xlink:href="#DejaVuSerif-70" transform="translate(906.787109 0)"/>
    <use xlink:href="#DejaVuSerif-65" transform="translate(970.800781 0)"/>
    <use xlink:href="#DejaVuSerif-72" transform="translate(1029.980469 0)"/>
    <use xlink:href="#DejaVuSerif-61" transform="translate(1077.783203 0)"/>
    <use xlink:href="#DejaVuSerif-74" transform="translate(1137.402344 0)"/>
    <use xlink:href="#DejaVuSerif-69" transform="translate(1177.587891 0)"/>
    <use xlink:href="#DejaVuSerif-6f" transform="translate(1209.570312 0)"/>
    <use xlink:href="#DejaVuSerif-6e" transform="translate(1269.775391 0)"/>
    <use xlink:href="#DejaVuSerif-61" transform="translate(1334.179688 0)"/>
    <use xlink:href="#DejaVuSerif-6c" transform="translate(1393.798828 0)"/>
    <use xlink:href="#DejaVuSerif-20" transform="translate(1425.78125 0)"/>
    <use xlink:href="#DejaVuSerif-41" transform="translate(1457.568359 0)"/>
    <use xlink:href="#DejaVuSerif-63" transform="translate(1529.785156 0)"/>
    <use xlink:href="#DejaVuSerif-74" transform="translate(1585.791016 0)"/>
    <use xlink:href="#DejaVuSerif-69" transform="translate(1625.976562 0)"/>
    <use xlink:href="#DejaVuSerif-6f" transform="translate(1657.958984 0)"/>
    <use xlink:href="#DejaVuSerif-6e" transform="translate(1718.164062 0)"/>
    <use xlink:href="#DejaVuSerif-20" transform="translate(1782.568359 0)"/>
    <use xlink:href="#DejaVuSerif-42" transform="translate(1814.355469 0)"/>
    <use xlink:href="#DejaVuSerif-75" transform="translate(1887.841797 0)"/>
    <use xlink:href="#DejaVuSerif-63" transform="translate(1952.246094 0)"/>
    <use xlink:href="#DejaVuSerif-6b" transform="translate(2008.251953 0)"/>
    <use xlink:href="#DejaVuSerif-65" transform="translate(2068.847656 0)"/>
    <use xlink:href="#DejaVuSerif-74" transform="translate(2128.027344 0)"/>
    <use xlink:href="#DejaVuSerif-73" transform="translate(2168.212891 0)"/>
    <use xlink:href="#DejaVuSerif-20" transform="translate(2219.53125 0)"/>
    <use xlink:href="#DejaVuSerif-77" transform="translate(2251.318359 0)"/>
    <use xlink:href="#DejaVuSerif-69" transform="translate(2336.914062 0)"/>
    <use xlink:href="#DejaVuSerif-74" transform="translate(2368.896484 0)"/>
    <use xlink:href="#DejaVuSerif-68" transform="translate(2409.082031 0)"/>
    <use xlink:href="#DejaVuSerif-20" transform="translate(2473.486328 0)"/>
    <use xlink:href="#DejaVuSerif-44" transform="translate(2505.273438 0)"/>
    <use xlink:href="#DejaVuSerif-65" transform="translate(2585.449219 0)"/>
    <use xlink:href="#DejaVuSerif-74" transform="translate(2644.628906 0)"/>
    <use xlink:href="#DejaVuSerif-65" transform="translate(2684.814453 0)"/>
    <use xlink:href="#DejaVuSerif-63" transform="translate(2743.994141 0)"/>
    <use xlink:href="#DejaVuSerif-74" transform="translate(2800 0)"/>
    <use xlink:href="#DejaVuSerif-69" transform="translate(2840.185547 0)"/>
    <use xlink:href="#DejaVuSerif-6f" transform="translate(2872.167969 0)"/>
    <use xlink:href="#DejaVuSerif-6e" transform="translate(2932.373047 0)"/>
    <use xlink:href="#DejaVuSerif-20" transform="translate(2996.777344 0)"/>
    <use xlink:href="#DejaVuSerif-52" transform="translate(3028.564453 0)"/>
    <use xlink:href="#DejaVuSerif-61" transform="translate(3106.107422 0)"/>
    <use xlink:href="#DejaVuSerif-74" transform="translate(3165.726562 0)"/>
    <use xlink:href="#DejaVuSerif-65" transform="translate(3205.912109 0)"/>
    <use xlink:href="#DejaVuSerif-73" transform="translate(3265.091797 0)"/>
    <use xlink:href="#DejaVuSerif-20" transform="translate(3316.410156 0)"/>
    <use xlink:href="#DejaVuSerif-61" transform="translate(3348.197266 0)"/>
    <use xlink:href="#DejaVuSerif-6e" transform="translate(3407.816406 0)"/>
    <use xlink:href="#DejaVuSerif-64" transform="translate(3472.220703 0)"/>
    <use xlink:href="#DejaVuSerif-20" transform="translate(3536.234375 0)"/>
    <use xlink:href="#DejaVuSerif-50" transform="translate(3568.021484 0)"/>
    <use xlink:href="#DejaVuSerif-65" transform="translate(3630.806641 0)"/>
    <use xlink:href="#DejaVuSerif-72" transform="translate(3689.986328 0)"/>
    <use xlink:href="#DejaVuSerif-2d" transform="translate(3737.789062 0)"/>
    <use xlink:href="#DejaVuSerif-45" transform="translate(3771.578125 0)"/>
    <use xlink:href="#DejaVuSerif-76" transform="translate(3844.576172 0)"/>
    <use xlink:href="#DejaVuSerif-65" transform="translate(3901.070312 0)"/>
    <use xlink:href="#DejaVuSerif-6e" transform="translate(3960.25 0)"/>
    <use xlink:href="#DejaVuSerif-74" transform="translate(4024.654297 0)"/>
    <use xlink:href="#DejaVuSerif-20" transform="translate(4064.839844 0)"/>
    <use xlink:href="#DejaVuSerif-49" transform="translate(4096.626953 0)"/>
    <use xlink:href="#DejaVuSerif-6d" transform="translate(4136.128906 0)"/>
    <use xlink:href="#DejaVuSerif-70" transform="translate(4230.953125 0)"/>
    <use xlink:href="#DejaVuSerif-61" transform="translate(4294.966797 0)"/>
    <use xlink:href="#DejaVuSerif-63" transform="translate(4354.585938 0)"/>
    <use xlink:href="#DejaVuSerif-74" transform="translate(4410.591797 0)"/>
   </g>
  </g>
 </g>
 <defs>
  <clipPath id="p1f7e025a36">
   <rect x="68.209844" y="63.96" width="144.315" height="239.2"/>
  </clipPath>
  <clipPath id="p82d836546f">
   <rect x="312.239844" y="63.96" width="144.315" height="239.2"/>
  </clipPath>
  <clipPath id="pc5fb384670">
   <rect x="556.269844" y="63.96" width="144.315" height="239.2"/>
  </clipPath>
 </defs>
</svg>
