<?xml version="1.0" encoding="utf-8" standalone="no"?>
<!DOCTYPE svg PUBLIC "-//W3C//DTD SVG 1.1//EN"
  "http://www.w3.org/Graphics/SVG/1.1/DTD/svg11.dtd">
<svg xmlns:xlink="http://www.w3.org/1999/xlink" width="444.472812pt" height="299.580719pt" viewBox="0 0 444.472812 299.580719" xmlns="http://www.w3.org/2000/svg" version="1.1">
 <metadata>
  <rdf:RDF xmlns:dc="http://purl.org/dc/elements/1.1/" xmlns:cc="http://creativecommons.org/ns#" xmlns:rdf="http://www.w3.org/1999/02/22-rdf-syntax-ns#">
   <cc:Work>
    <dc:type rdf:resource="http://purl.org/dc/dcmitype/StillImage"/>
    <dc:date>2026-03-19T14:08:48.271224</dc:date>
    <dc:format>image/svg+xml</dc:format>
    <dc:creator>
     <cc:Agent>
      <dc:title>Matplotlib v3.10.8, https://matplotlib.org/</dc:title>
     </cc:Agent>
    </dc:creator>
   </cc:Work>
  </rdf:RDF>
 </metadata>
 <defs>
  <style type="text/css">*{stroke-linejoin: round; stroke-linecap: butt}</style>
 </defs>
 <g id="figure_1">
  <g id="patch_1">
   <path d="M 0 299.580719 
L 444.472812 299.580719 
L 444.472812 0 
L 0 0 
z
" style="fill: #ffffff"/>
  </g>
  <g id="axes_1">
   <g id="patch_2">
    <path d="M 43.072813 259.392281 
L 433.672813 259.392281 
L 433.672813 37.632281 
L 43.072813 37.632281 
z
" style="fill: #ffffff"/>
   </g>
   <g id="patch_3">
    <path d="M 60.827358 259.392281 
L 98.872813 259.392281 
L 98.872813 253.594634 
L 60.827358 253.594634 
z
" clip-path="url(#p403943075c)" style="fill: #16a34a; stroke: #ffffff; stroke-width: 0.5; stroke-linejoin: miter"/>
   </g>
   <g id="patch_4">
    <path d="M 124.236449 259.392281 
L 162.281903 259.392281 
L 162.281903 246.968752 
L 124.236449 246.968752 
z
" clip-path="url(#p403943075c)" style="fill: #16a34a; stroke: #ffffff; stroke-width: 0.5; stroke-linejoin: miter"/>
   </g>
   <g id="patch_5">
    <path d="M 187.64554 259.392281 
L 225.690994 259.392281 
L 225.690994 233.716987 
L 187.64554 233.716987 
z
" clip-path="url(#p403943075c)" style="fill: #16a34a; stroke: #ffffff; stroke-width: 0.5; stroke-linejoin: miter"/>
   </g>
   <g id="patch_6">
    <path d="M 251.054631 259.392281 
L 289.100085 259.392281 
L 289.100085 207.213458 
L 251.054631 207.213458 
z
" clip-path="url(#p403943075c)" style="fill: #16a34a; stroke: #ffffff; stroke-width: 0.5; stroke-linejoin: miter"/>
   </g>
   <g id="patch_7">
    <path d="M 314.463722 259.392281 
L 352.509176 259.392281 
L 352.509176 154.206399 
L 314.463722 154.206399 
z
" clip-path="url(#p403943075c)" style="fill: #16a34a; stroke: #ffffff; stroke-width: 0.5; stroke-linejoin: miter"/>
   </g>
   <g id="patch_8">
    <path d="M 377.872813 259.392281 
L 415.918267 259.392281 
L 415.918267 48.192281 
L 377.872813 48.192281 
z
" clip-path="url(#p403943075c)" style="fill: #16a34a; stroke: #ffffff; stroke-width: 0.5; stroke-linejoin: miter"/>
   </g>
   <g id="matplotlib.axis_1">
    <g id="xtick_1">
     <g id="line2d_1">
      <defs>
       <path id="mc95b369163" d="M 0 0 
L 0 3.5 
" style="stroke: #000000; stroke-width: 0.8"/>
      </defs>
      <g>
       <use xlink:href="#mc95b369163" x="79.850085" y="259.392281" style="stroke: #000000; stroke-width: 0.8"/>
      </g>
     </g>
     <g id="text_1">
      <!-- 8 -->
      <g transform="translate(76.98696 273.230875) scale(0.09 -0.09)">
       <defs>
        <path id="DejaVuSerif-38" d="M 2981 1275 
Q 2981 1775 2732 2051 
Q 2484 2328 2034 2328 
Q 1584 2328 1336 2051 
Q 1088 1775 1088 1275 
Q 1088 772 1336 495 
Q 1584 219 2034 219 
Q 2484 219 2732 495 
Q 2981 772 2981 1275 
z
M 2853 3541 
Q 2853 3966 2637 4203 
Q 2422 4441 2034 4441 
Q 1650 4441 1433 4203 
Q 1216 3966 1216 3541 
Q 1216 3113 1433 2875 
Q 1650 2638 2034 2638 
Q 2422 2638 2637 2875 
Q 2853 3113 2853 3541 
z
M 2516 2484 
Q 3047 2413 3344 2092 
Q 3641 1772 3641 1275 
Q 3641 619 3225 264 
Q 2809 -91 2034 -91 
Q 1263 -91 845 264 
Q 428 619 428 1275 
Q 428 1772 725 2092 
Q 1022 2413 1556 2484 
Q 1084 2569 832 2842 
Q 581 3116 581 3541 
Q 581 4103 968 4426 
Q 1356 4750 2034 4750 
Q 2713 4750 3100 4426 
Q 3488 4103 3488 3541 
Q 3488 3116 3236 2842 
Q 2984 2569 2516 2484 
z
" transform="scale(0.015625)"/>
       </defs>
       <use xlink:href="#DejaVuSerif-38"/>
      </g>
     </g>
    </g>
    <g id="xtick_2">
     <g id="line2d_2">
      <g>
       <use xlink:href="#mc95b369163" x="143.259176" y="259.392281" style="stroke: #000000; stroke-width: 0.8"/>
      </g>
     </g>
     <g id="text_2">
      <!-- 16 -->
      <g transform="translate(137.532926 273.230875) scale(0.09 -0.09)">
       <defs>
        <path id="DejaVuSerif-31" d="M 909 0 
L 909 331 
L 1722 331 
L 1722 4213 
L 781 3603 
L 781 4013 
L 1919 4750 
L 2350 4750 
L 2350 331 
L 3163 331 
L 3163 0 
L 909 0 
z
" transform="scale(0.015625)"/>
        <path id="DejaVuSerif-36" d="M 2094 219 
Q 2534 219 2771 542 
Q 3009 866 3009 1472 
Q 3009 2078 2771 2401 
Q 2534 2725 2094 2725 
Q 1647 2725 1412 2412 
Q 1178 2100 1178 1509 
Q 1178 888 1415 553 
Q 1653 219 2094 219 
z
M 1075 2569 
Q 1288 2803 1556 2918 
Q 1825 3034 2163 3034 
Q 2859 3034 3264 2615 
Q 3669 2197 3669 1472 
Q 3669 763 3233 336 
Q 2797 -91 2069 -91 
Q 1278 -91 853 498 
Q 428 1088 428 2181 
Q 428 3406 931 4078 
Q 1434 4750 2350 4750 
Q 2597 4750 2869 4703 
Q 3141 4656 3425 4563 
L 3425 3794 
L 3072 3794 
Q 3034 4109 2831 4275 
Q 2628 4441 2284 4441 
Q 1678 4441 1381 3981 
Q 1084 3522 1075 2569 
z
" transform="scale(0.015625)"/>
       </defs>
       <use xlink:href="#DejaVuSerif-31"/>
       <use xlink:href="#DejaVuSerif-36" transform="translate(63.623047 0)"/>
      </g>
     </g>
    </g>
    <g id="xtick_3">
     <g id="line2d_3">
      <g>
       <use xlink:href="#mc95b369163" x="206.668267" y="259.392281" style="stroke: #000000; stroke-width: 0.8"/>
      </g>
     </g>
     <g id="text_3">
      <!-- 32 -->
      <g transform="translate(200.942017 273.230875) scale(0.09 -0.09)">
       <defs>
        <path id="DejaVuSerif-33" d="M 622 4469 
Q 988 4606 1323 4678 
Q 1659 4750 1953 4750 
Q 2638 4750 3022 4454 
Q 3406 4159 3406 3634 
Q 3406 3213 3140 2930 
Q 2875 2647 2388 2547 
Q 2963 2466 3280 2130 
Q 3597 1794 3597 1259 
Q 3597 606 3158 257 
Q 2719 -91 1894 -91 
Q 1528 -91 1179 -12 
Q 831 66 488 225 
L 488 1131 
L 838 1131 
Q 869 681 1141 450 
Q 1413 219 1906 219 
Q 2384 219 2661 495 
Q 2938 772 2938 1253 
Q 2938 1803 2653 2086 
Q 2369 2369 1819 2369 
L 1522 2369 
L 1522 2688 
L 1678 2688 
Q 2225 2688 2498 2914 
Q 2772 3141 2772 3597 
Q 2772 4006 2547 4223 
Q 2322 4441 1900 4441 
Q 1478 4441 1245 4241 
Q 1013 4041 972 3647 
L 622 3647 
L 622 4469 
z
" transform="scale(0.015625)"/>
        <path id="DejaVuSerif-32" d="M 819 3553 
L 469 3553 
L 469 4384 
Q 803 4563 1142 4656 
Q 1481 4750 1806 4750 
Q 2534 4750 2956 4397 
Q 3378 4044 3378 3438 
Q 3378 2753 2422 1800 
Q 2347 1728 2309 1691 
L 1131 513 
L 3078 513 
L 3078 1088 
L 3444 1088 
L 3444 0 
L 434 0 
L 434 341 
L 1850 1753 
Q 2319 2222 2519 2614 
Q 2719 3006 2719 3438 
Q 2719 3909 2473 4175 
Q 2228 4441 1797 4441 
Q 1350 4441 1106 4219 
Q 863 3997 819 3553 
z
" transform="scale(0.015625)"/>
       </defs>
       <use xlink:href="#DejaVuSerif-33"/>
       <use xlink:href="#DejaVuSerif-32" transform="translate(63.623047 0)"/>
      </g>
     </g>
    </g>
    <g id="xtick_4">
     <g id="line2d_4">
      <g>
       <use xlink:href="#mc95b369163" x="270.077358" y="259.392281" style="stroke: #000000; stroke-width: 0.8"/>
      </g>
     </g>
     <g id="text_4">
      <!-- 64 -->
      <g transform="translate(264.351108 273.230875) scale(0.09 -0.09)">
       <defs>
        <path id="DejaVuSerif-34" d="M 2234 1581 
L 2234 4063 
L 641 1581 
L 2234 1581 
z
M 3609 0 
L 1484 0 
L 1484 331 
L 2234 331 
L 2234 1247 
L 197 1247 
L 197 1588 
L 2241 4750 
L 2859 4750 
L 2859 1581 
L 3750 1581 
L 3750 1247 
L 2859 1247 
L 2859 331 
L 3609 331 
L 3609 0 
z
" transform="scale(0.015625)"/>
       </defs>
       <use xlink:href="#DejaVuSerif-36"/>
       <use xlink:href="#DejaVuSerif-34" transform="translate(63.623047 0)"/>
      </g>
     </g>
    </g>
    <g id="xtick_5">
     <g id="line2d_5">
      <g>
       <use xlink:href="#mc95b369163" x="333.486449" y="259.392281" style="stroke: #000000; stroke-width: 0.8"/>
      </g>
     </g>
     <g id="text_5">
      <!-- 128 -->
      <g transform="translate(324.897074 273.230875) scale(0.09 -0.09)">
       <use xlink:href="#DejaVuSerif-31"/>
       <use xlink:href="#DejaVuSerif-32" transform="translate(63.623047 0)"/>
       <use xlink:href="#DejaVuSerif-38" transform="translate(127.246094 0)"/>
      </g>
     </g>
    </g>
    <g id="xtick_6">
     <g id="line2d_6">
      <g>
       <use xlink:href="#mc95b369163" x="396.89554" y="259.392281" style="stroke: #000000; stroke-width: 0.8"/>
      </g>
     </g>
     <g id="text_6">
      <!-- 256 -->
      <g transform="translate(388.306165 273.230875) scale(0.09 -0.09)">
       <defs>
        <path id="DejaVuSerif-35" d="M 3219 4666 
L 3219 4153 
L 1081 4153 
L 1081 2816 
Q 1244 2928 1461 2984 
Q 1678 3041 1947 3041 
Q 2703 3041 3140 2622 
Q 3578 2203 3578 1478 
Q 3578 738 3136 323 
Q 2694 -91 1894 -91 
Q 1572 -91 1234 -12 
Q 897 66 544 225 
L 544 1131 
L 897 1131 
Q 925 688 1179 453 
Q 1434 219 1894 219 
Q 2388 219 2653 544 
Q 2919 869 2919 1478 
Q 2919 2084 2655 2407 
Q 2391 2731 1894 2731 
Q 1613 2731 1398 2631 
Q 1184 2531 1019 2322 
L 750 2322 
L 750 4666 
L 3219 4666 
z
" transform="scale(0.015625)"/>
       </defs>
       <use xlink:href="#DejaVuSerif-32"/>
       <use xlink:href="#DejaVuSerif-35" transform="translate(63.623047 0)"/>
       <use xlink:href="#DejaVuSerif-36" transform="translate(127.246094 0)"/>
      </g>
     </g>
    </g>
    <g id="text_7">
     <!-- Fleet Size (GPUs) -->
     <g transform="translate(193.6275 286.701031) scale(0.1 -0.1)">
      <defs>
       <path id="DejaVuSerif-46" d="M 353 0 
L 353 331 
L 947 331 
L 947 4331 
L 353 4331 
L 353 4666 
L 4172 4666 
L 4172 3628 
L 3788 3628 
L 3788 4281 
L 1581 4281 
L 1581 2719 
L 3175 2719 
L 3175 3303 
L 3559 3303 
L 3559 1753 
L 3175 1753 
L 3175 2338 
L 1581 2338 
L 1581 331 
L 2328 331 
L 2328 0 
L 353 0 
z
" transform="scale(0.015625)"/>
       <path id="DejaVuSerif-6c" d="M 1313 331 
L 1856 331 
L 1856 0 
L 184 0 
L 184 331 
L 738 331 
L 738 4531 
L 184 4531 
L 184 4863 
L 1313 4863 
L 1313 331 
z
" transform="scale(0.015625)"/>
       <path id="DejaVuSerif-65" d="M 3469 1600 
L 991 1600 
L 991 1575 
Q 991 903 1244 561 
Q 1497 219 1991 219 
Q 2369 219 2611 417 
Q 2853 616 2950 1006 
L 3413 1006 
Q 3275 459 2904 184 
Q 2534 -91 1931 -91 
Q 1203 -91 761 389 
Q 319 869 319 1663 
Q 319 2450 753 2931 
Q 1188 3413 1894 3413 
Q 2647 3413 3050 2948 
Q 3453 2484 3469 1600 
z
M 2791 1931 
Q 2772 2513 2545 2808 
Q 2319 3103 1894 3103 
Q 1497 3103 1269 2806 
Q 1041 2509 991 1931 
L 2791 1931 
z
" transform="scale(0.015625)"/>
       <path id="DejaVuSerif-74" d="M 691 2988 
L 184 2988 
L 184 3322 
L 691 3322 
L 691 4353 
L 1269 4353 
L 1269 3322 
L 2350 3322 
L 2350 2988 
L 1269 2988 
L 1269 878 
Q 1269 456 1350 337 
Q 1431 219 1650 219 
Q 1875 219 1978 351 
Q 2081 484 2088 781 
L 2522 781 
Q 2497 328 2275 118 
Q 2053 -91 1600 -91 
Q 1103 -91 897 129 
Q 691 350 691 878 
L 691 2988 
z
" transform="scale(0.015625)"/>
       <path id="DejaVuSerif-20" transform="scale(0.015625)"/>
       <path id="DejaVuSerif-53" d="M 594 225 
L 594 1288 
L 953 1284 
Q 969 753 1261 498 
Q 1553 244 2150 244 
Q 2706 244 2998 464 
Q 3291 684 3291 1106 
Q 3291 1444 3114 1625 
Q 2938 1806 2369 1978 
L 1753 2163 
Q 1084 2366 811 2669 
Q 538 2972 538 3500 
Q 538 4094 959 4422 
Q 1381 4750 2144 4750 
Q 2469 4750 2856 4679 
Q 3244 4609 3681 4475 
L 3681 3481 
L 3328 3481 
Q 3275 3975 2998 4195 
Q 2722 4416 2156 4416 
Q 1663 4416 1405 4214 
Q 1147 4013 1147 3628 
Q 1147 3294 1340 3103 
Q 1534 2913 2163 2725 
L 2741 2553 
Q 3375 2363 3645 2067 
Q 3916 1772 3916 1275 
Q 3916 597 3481 253 
Q 3047 -91 2188 -91 
Q 1803 -91 1404 -12 
Q 1006 66 594 225 
z
" transform="scale(0.015625)"/>
       <path id="DejaVuSerif-69" d="M 622 4353 
Q 622 4497 726 4603 
Q 831 4709 978 4709 
Q 1122 4709 1226 4603 
Q 1331 4497 1331 4353 
Q 1331 4206 1228 4103 
Q 1125 4000 978 4000 
Q 831 4000 726 4103 
Q 622 4206 622 4353 
z
M 1356 331 
L 1900 331 
L 1900 0 
L 231 0 
L 231 331 
L 781 331 
L 781 2988 
L 231 2988 
L 231 3322 
L 1356 3322 
L 1356 331 
z
" transform="scale(0.015625)"/>
       <path id="DejaVuSerif-7a" d="M 256 0 
L 256 269 
L 2338 2988 
L 691 2988 
L 691 2413 
L 359 2413 
L 359 3322 
L 3078 3322 
L 3078 3053 
L 997 331 
L 2803 331 
L 2803 934 
L 3138 934 
L 3138 0 
L 256 0 
z
" transform="scale(0.015625)"/>
       <path id="DejaVuSerif-28" d="M 2041 -997 
Q 1281 -656 893 83 
Q 506 822 506 1931 
Q 506 3044 893 3783 
Q 1281 4522 2041 4863 
L 2041 4556 
Q 1559 4225 1350 3623 
Q 1141 3022 1141 1931 
Q 1141 844 1350 242 
Q 1559 -359 2041 -691 
L 2041 -997 
z
" transform="scale(0.015625)"/>
       <path id="DejaVuSerif-47" d="M 4097 3272 
Q 3988 3856 3641 4136 
Q 3294 4416 2675 4416 
Q 1869 4416 1472 3897 
Q 1075 3378 1075 2328 
Q 1075 1300 1484 772 
Q 1894 244 2688 244 
Q 3041 244 3362 331 
Q 3684 419 3975 594 
L 3975 1797 
L 3097 1797 
L 3097 2131 
L 4609 2131 
L 4609 391 
Q 4194 150 3714 29 
Q 3234 -91 2688 -91 
Q 1631 -91 995 570 
Q 359 1231 359 2328 
Q 359 3434 996 4092 
Q 1634 4750 2713 4750 
Q 3113 4750 3539 4658 
Q 3966 4566 4447 4378 
L 4447 3272 
L 4097 3272 
z
" transform="scale(0.015625)"/>
       <path id="DejaVuSerif-50" d="M 1581 2375 
L 2406 2375 
Q 2872 2375 3115 2626 
Q 3359 2878 3359 3353 
Q 3359 3831 3115 4081 
Q 2872 4331 2406 4331 
L 1581 4331 
L 1581 2375 
z
M 353 0 
L 353 331 
L 947 331 
L 947 4331 
L 353 4331 
L 353 4666 
L 2559 4666 
Q 3259 4666 3668 4311 
Q 4078 3956 4078 3353 
Q 4078 2753 3668 2397 
Q 3259 2041 2559 2041 
L 1581 2041 
L 1581 331 
L 2303 331 
L 2303 0 
L 353 0 
z
" transform="scale(0.015625)"/>
       <path id="DejaVuSerif-55" d="M 897 4331 
L 300 4331 
L 300 4666 
L 2125 4666 
L 2125 4331 
L 1528 4331 
L 1528 1919 
Q 1528 1025 1820 672 
Q 2113 319 2828 319 
Q 3544 319 3836 672 
Q 4128 1025 4128 1919 
L 4128 4331 
L 3531 4331 
L 3531 4666 
L 5106 4666 
L 5106 4331 
L 4513 4331 
L 4513 1856 
Q 4513 791 4103 350 
Q 3694 -91 2713 -91 
Q 1731 -91 1314 353 
Q 897 797 897 1856 
L 897 4331 
z
" transform="scale(0.015625)"/>
       <path id="DejaVuSerif-73" d="M 359 184 
L 359 959 
L 691 959 
Q 703 588 923 403 
Q 1144 219 1575 219 
Q 1963 219 2166 364 
Q 2369 509 2369 788 
Q 2369 1006 2220 1140 
Q 2072 1275 1594 1428 
L 1178 1569 
Q 750 1706 558 1912 
Q 366 2119 366 2438 
Q 366 2894 700 3153 
Q 1034 3413 1625 3413 
Q 1888 3413 2178 3344 
Q 2469 3275 2778 3144 
L 2778 2419 
L 2447 2419 
Q 2434 2741 2221 2922 
Q 2009 3103 1644 3103 
Q 1281 3103 1095 2975 
Q 909 2847 909 2591 
Q 909 2381 1050 2254 
Q 1191 2128 1613 1997 
L 2069 1856 
Q 2541 1709 2748 1489 
Q 2956 1269 2956 922 
Q 2956 450 2595 179 
Q 2234 -91 1600 -91 
Q 1278 -91 972 -22 
Q 666 47 359 184 
z
" transform="scale(0.015625)"/>
       <path id="DejaVuSerif-29" d="M 453 -997 
L 453 -691 
Q 934 -359 1145 242 
Q 1356 844 1356 1931 
Q 1356 3022 1145 3623 
Q 934 4225 453 4556 
L 453 4863 
Q 1216 4522 1603 3783 
Q 1991 3044 1991 1931 
Q 1991 822 1603 83 
Q 1216 -656 453 -997 
z
" transform="scale(0.015625)"/>
      </defs>
      <use xlink:href="#DejaVuSerif-46"/>
      <use xlink:href="#DejaVuSerif-6c" transform="translate(69.384766 0)"/>
      <use xlink:href="#DejaVuSerif-65" transform="translate(101.367188 0)"/>
      <use xlink:href="#DejaVuSerif-65" transform="translate(160.546875 0)"/>
      <use xlink:href="#DejaVuSerif-74" transform="translate(219.726562 0)"/>
      <use xlink:href="#DejaVuSerif-20" transform="translate(259.912109 0)"/>
      <use xlink:href="#DejaVuSerif-53" transform="translate(291.699219 0)"/>
      <use xlink:href="#DejaVuSerif-69" transform="translate(360.205078 0)"/>
      <use xlink:href="#DejaVuSerif-7a" transform="translate(392.1875 0)"/>
      <use xlink:href="#DejaVuSerif-65" transform="translate(444.873047 0)"/>
      <use xlink:href="#DejaVuSerif-20" transform="translate(504.052734 0)"/>
      <use xlink:href="#DejaVuSerif-28" transform="translate(535.839844 0)"/>
      <use xlink:href="#DejaVuSerif-47" transform="translate(574.853516 0)"/>
      <use xlink:href="#DejaVuSerif-50" transform="translate(654.736328 0)"/>
      <use xlink:href="#DejaVuSerif-55" transform="translate(720.271484 0)"/>
      <use xlink:href="#DejaVuSerif-73" transform="translate(804.548828 0)"/>
      <use xlink:href="#DejaVuSerif-29" transform="translate(855.867188 0)"/>
     </g>
    </g>
   </g>
   <g id="matplotlib.axis_2">
    <g id="ytick_1">
     <g id="line2d_7">
      <defs>
       <path id="m9b593a38a2" d="M 0 0 
L -3.5 0 
" style="stroke: #000000; stroke-width: 0.8"/>
      </defs>
      <g>
       <use xlink:href="#m9b593a38a2" x="43.072813" y="259.392281" style="stroke: #000000; stroke-width: 0.8"/>
      </g>
     </g>
     <g id="text_8">
      <!-- 0 -->
      <g transform="translate(30.346563 262.811578) scale(0.09 -0.09)">
       <defs>
        <path id="DejaVuSerif-30" d="M 2034 219 
Q 2513 219 2750 744 
Q 2988 1269 2988 2328 
Q 2988 3391 2750 3916 
Q 2513 4441 2034 4441 
Q 1556 4441 1318 3916 
Q 1081 3391 1081 2328 
Q 1081 1269 1318 744 
Q 1556 219 2034 219 
z
M 2034 -91 
Q 1275 -91 848 546 
Q 422 1184 422 2328 
Q 422 3475 848 4112 
Q 1275 4750 2034 4750 
Q 2797 4750 3222 4112 
Q 3647 3475 3647 2328 
Q 3647 1184 3222 546 
Q 2797 -91 2034 -91 
z
" transform="scale(0.015625)"/>
       </defs>
       <use xlink:href="#DejaVuSerif-30"/>
      </g>
     </g>
    </g>
    <g id="ytick_2">
     <g id="line2d_8">
      <g>
       <use xlink:href="#m9b593a38a2" x="43.072813" y="216.029177" style="stroke: #000000; stroke-width: 0.8"/>
      </g>
     </g>
     <g id="text_9">
      <!-- 10 -->
      <g transform="translate(24.620313 219.448474) scale(0.09 -0.09)">
       <use xlink:href="#DejaVuSerif-31"/>
       <use xlink:href="#DejaVuSerif-30" transform="translate(63.623047 0)"/>
      </g>
     </g>
    </g>
    <g id="ytick_3">
     <g id="line2d_9">
      <g>
       <use xlink:href="#m9b593a38a2" x="43.072813" y="172.666072" style="stroke: #000000; stroke-width: 0.8"/>
      </g>
     </g>
     <g id="text_10">
      <!-- 20 -->
      <g transform="translate(24.620313 176.085369) scale(0.09 -0.09)">
       <use xlink:href="#DejaVuSerif-32"/>
       <use xlink:href="#DejaVuSerif-30" transform="translate(63.623047 0)"/>
      </g>
     </g>
    </g>
    <g id="ytick_4">
     <g id="line2d_10">
      <g>
       <use xlink:href="#m9b593a38a2" x="43.072813" y="129.302968" style="stroke: #000000; stroke-width: 0.8"/>
      </g>
     </g>
     <g id="text_11">
      <!-- 30 -->
      <g transform="translate(24.620313 132.722265) scale(0.09 -0.09)">
       <use xlink:href="#DejaVuSerif-33"/>
       <use xlink:href="#DejaVuSerif-30" transform="translate(63.623047 0)"/>
      </g>
     </g>
    </g>
    <g id="ytick_5">
     <g id="line2d_11">
      <g>
       <use xlink:href="#m9b593a38a2" x="43.072813" y="85.939864" style="stroke: #000000; stroke-width: 0.8"/>
      </g>
     </g>
     <g id="text_12">
      <!-- 40 -->
      <g transform="translate(24.620313 89.359161) scale(0.09 -0.09)">
       <use xlink:href="#DejaVuSerif-34"/>
       <use xlink:href="#DejaVuSerif-30" transform="translate(63.623047 0)"/>
      </g>
     </g>
    </g>
    <g id="ytick_6">
     <g id="line2d_12">
      <g>
       <use xlink:href="#m9b593a38a2" x="43.072813" y="42.576759" style="stroke: #000000; stroke-width: 0.8"/>
      </g>
     </g>
     <g id="text_13">
      <!-- 50 -->
      <g transform="translate(24.620313 45.996056) scale(0.09 -0.09)">
       <use xlink:href="#DejaVuSerif-35"/>
       <use xlink:href="#DejaVuSerif-30" transform="translate(63.623047 0)"/>
      </g>
     </g>
    </g>
    <g id="text_14">
     <!-- Equivalent GPUs Wasted Per Straggler Event -->
     <g transform="translate(18.398438 263.499) rotate(-90) scale(0.1 -0.1)">
      <defs>
       <path id="DejaVuSerif-45" d="M 353 0 
L 353 331 
L 947 331 
L 947 4331 
L 353 4331 
L 353 4666 
L 4109 4666 
L 4109 3628 
L 3725 3628 
L 3725 4281 
L 1581 4281 
L 1581 2719 
L 3109 2719 
L 3109 3303 
L 3494 3303 
L 3494 1753 
L 3109 1753 
L 3109 2338 
L 1581 2338 
L 1581 384 
L 3775 384 
L 3775 1038 
L 4159 1038 
L 4159 0 
L 353 0 
z
" transform="scale(0.015625)"/>
       <path id="DejaVuSerif-71" d="M 3359 2988 
L 3359 -997 
L 3909 -997 
L 3909 -1331 
L 2241 -1331 
L 2241 -997 
L 2784 -997 
L 2784 519 
Q 2616 206 2355 57 
Q 2094 -91 1709 -91 
Q 1097 -91 708 395 
Q 319 881 319 1663 
Q 319 2444 706 2928 
Q 1094 3413 1709 3413 
Q 2094 3413 2355 3264 
Q 2616 3116 2784 2803 
L 2784 3322 
L 3909 3322 
L 3909 2988 
L 3359 2988 
z
M 2784 1825 
Q 2784 2422 2554 2737 
Q 2325 3053 1888 3053 
Q 1444 3053 1217 2703 
Q 991 2353 991 1663 
Q 991 975 1217 622 
Q 1444 269 1888 269 
Q 2325 269 2554 583 
Q 2784 897 2784 1497 
L 2784 1825 
z
" transform="scale(0.015625)"/>
       <path id="DejaVuSerif-75" d="M 2266 3322 
L 3341 3322 
L 3341 331 
L 3884 331 
L 3884 0 
L 2766 0 
L 2766 588 
Q 2606 256 2353 82 
Q 2100 -91 1766 -91 
Q 1213 -91 952 223 
Q 691 538 691 1209 
L 691 2988 
L 172 2988 
L 172 3322 
L 1269 3322 
L 1269 1388 
Q 1269 781 1417 556 
Q 1566 331 1947 331 
Q 2347 331 2556 625 
Q 2766 919 2766 1478 
L 2766 2988 
L 2266 2988 
L 2266 3322 
z
" transform="scale(0.015625)"/>
       <path id="DejaVuSerif-76" d="M 1581 0 
L 359 2988 
L -19 2988 
L -19 3322 
L 1509 3322 
L 1509 2988 
L 978 2988 
L 1913 703 
L 2847 2988 
L 2350 2988 
L 2350 3322 
L 3597 3322 
L 3597 2988 
L 3225 2988 
L 2003 0 
L 1581 0 
z
" transform="scale(0.015625)"/>
       <path id="DejaVuSerif-61" d="M 2547 1044 
L 2547 1747 
L 1806 1747 
Q 1378 1747 1168 1562 
Q 959 1378 959 997 
Q 959 650 1171 447 
Q 1384 244 1747 244 
Q 2106 244 2326 466 
Q 2547 688 2547 1044 
z
M 3122 2075 
L 3122 331 
L 3634 331 
L 3634 0 
L 2547 0 
L 2547 359 
Q 2356 128 2106 18 
Q 1856 -91 1522 -91 
Q 969 -91 644 203 
Q 319 497 319 997 
Q 319 1513 691 1797 
Q 1063 2081 1741 2081 
L 2547 2081 
L 2547 2309 
Q 2547 2688 2317 2895 
Q 2088 3103 1672 3103 
Q 1328 3103 1125 2947 
Q 922 2791 872 2484 
L 575 2484 
L 575 3156 
Q 875 3284 1158 3348 
Q 1441 3413 1709 3413 
Q 2400 3413 2761 3070 
Q 3122 2728 3122 2075 
z
" transform="scale(0.015625)"/>
       <path id="DejaVuSerif-6e" d="M 263 0 
L 263 331 
L 781 331 
L 781 2988 
L 231 2988 
L 231 3322 
L 1356 3322 
L 1356 2731 
Q 1516 3069 1770 3241 
Q 2025 3413 2363 3413 
Q 2913 3413 3172 3097 
Q 3431 2781 3431 2113 
L 3431 331 
L 3944 331 
L 3944 0 
L 2356 0 
L 2356 331 
L 2853 331 
L 2853 1931 
Q 2853 2541 2703 2767 
Q 2553 2994 2175 2994 
Q 1775 2994 1565 2701 
Q 1356 2409 1356 1850 
L 1356 331 
L 1856 331 
L 1856 0 
L 263 0 
z
" transform="scale(0.015625)"/>
       <path id="DejaVuSerif-57" d="M 4878 0 
L 4366 0 
L 3297 3794 
L 2228 0 
L 1716 0 
L 494 4331 
L 31 4331 
L 31 4666 
L 1734 4666 
L 1734 4331 
L 1153 4331 
L 2125 884 
L 3188 4666 
L 3694 4666 
L 4775 844 
L 5753 4331 
L 5216 4331 
L 5216 4666 
L 6559 4666 
L 6559 4331 
L 6100 4331 
L 4878 0 
z
" transform="scale(0.015625)"/>
       <path id="DejaVuSerif-64" d="M 3359 331 
L 3909 331 
L 3909 0 
L 2784 0 
L 2784 519 
Q 2616 206 2355 57 
Q 2094 -91 1709 -91 
Q 1097 -91 708 395 
Q 319 881 319 1663 
Q 319 2444 706 2928 
Q 1094 3413 1709 3413 
Q 2094 3413 2355 3264 
Q 2616 3116 2784 2803 
L 2784 4531 
L 2241 4531 
L 2241 4863 
L 3359 4863 
L 3359 331 
z
M 2784 1497 
L 2784 1825 
Q 2784 2422 2554 2737 
Q 2325 3053 1888 3053 
Q 1444 3053 1217 2703 
Q 991 2353 991 1663 
Q 991 975 1217 622 
Q 1444 269 1888 269 
Q 2325 269 2554 583 
Q 2784 897 2784 1497 
z
" transform="scale(0.015625)"/>
       <path id="DejaVuSerif-72" d="M 3059 3328 
L 3059 2497 
L 2728 2497 
Q 2713 2744 2591 2866 
Q 2469 2988 2234 2988 
Q 1809 2988 1582 2694 
Q 1356 2400 1356 1850 
L 1356 331 
L 2022 331 
L 2022 0 
L 263 0 
L 263 331 
L 781 331 
L 781 2994 
L 231 2994 
L 231 3322 
L 1356 3322 
L 1356 2731 
Q 1525 3078 1790 3245 
Q 2056 3413 2438 3413 
Q 2578 3413 2733 3391 
Q 2888 3369 3059 3328 
z
" transform="scale(0.015625)"/>
       <path id="DejaVuSerif-67" d="M 3359 2988 
L 3359 72 
Q 3359 -644 2965 -1033 
Q 2572 -1422 1844 -1422 
Q 1516 -1422 1216 -1362 
Q 916 -1303 641 -1184 
L 641 -488 
L 941 -488 
Q 997 -813 1206 -963 
Q 1416 -1113 1806 -1113 
Q 2313 -1113 2548 -827 
Q 2784 -541 2784 72 
L 2784 519 
Q 2616 206 2355 57 
Q 2094 -91 1709 -91 
Q 1097 -91 708 395 
Q 319 881 319 1663 
Q 319 2444 706 2928 
Q 1094 3413 1709 3413 
Q 2094 3413 2355 3264 
Q 2616 3116 2784 2803 
L 2784 3322 
L 3909 3322 
L 3909 2988 
L 3359 2988 
z
M 2784 1825 
Q 2784 2422 2554 2737 
Q 2325 3053 1888 3053 
Q 1444 3053 1217 2703 
Q 991 2353 991 1663 
Q 991 975 1217 622 
Q 1444 269 1888 269 
Q 2325 269 2554 583 
Q 2784 897 2784 1497 
L 2784 1825 
z
" transform="scale(0.015625)"/>
      </defs>
      <use xlink:href="#DejaVuSerif-45"/>
      <use xlink:href="#DejaVuSerif-71" transform="translate(72.998047 0)"/>
      <use xlink:href="#DejaVuSerif-75" transform="translate(137.011719 0)"/>
      <use xlink:href="#DejaVuSerif-69" transform="translate(201.416016 0)"/>
      <use xlink:href="#DejaVuSerif-76" transform="translate(233.398438 0)"/>
      <use xlink:href="#DejaVuSerif-61" transform="translate(289.892578 0)"/>
      <use xlink:href="#DejaVuSerif-6c" transform="translate(349.511719 0)"/>
      <use xlink:href="#DejaVuSerif-65" transform="translate(381.494141 0)"/>
      <use xlink:href="#DejaVuSerif-6e" transform="translate(440.673828 0)"/>
      <use xlink:href="#DejaVuSerif-74" transform="translate(505.078125 0)"/>
      <use xlink:href="#DejaVuSerif-20" transform="translate(545.263672 0)"/>
      <use xlink:href="#DejaVuSerif-47" transform="translate(577.050781 0)"/>
      <use xlink:href="#DejaVuSerif-50" transform="translate(656.933594 0)"/>
      <use xlink:href="#DejaVuSerif-55" transform="translate(722.46875 0)"/>
      <use xlink:href="#DejaVuSerif-73" transform="translate(806.746094 0)"/>
      <use xlink:href="#DejaVuSerif-20" transform="translate(858.064453 0)"/>
      <use xlink:href="#DejaVuSerif-57" transform="translate(889.851562 0)"/>
      <use xlink:href="#DejaVuSerif-61" transform="translate(983.884766 0)"/>
      <use xlink:href="#DejaVuSerif-73" transform="translate(1043.503906 0)"/>
      <use xlink:href="#DejaVuSerif-74" transform="translate(1094.822266 0)"/>
      <use xlink:href="#DejaVuSerif-65" transform="translate(1135.007812 0)"/>
      <use xlink:href="#DejaVuSerif-64" transform="translate(1194.1875 0)"/>
      <use xlink:href="#DejaVuSerif-20" transform="translate(1258.201172 0)"/>
      <use xlink:href="#DejaVuSerif-50" transform="translate(1289.988281 0)"/>
      <use xlink:href="#DejaVuSerif-65" transform="translate(1352.773438 0)"/>
      <use xlink:href="#DejaVuSerif-72" transform="translate(1411.953125 0)"/>
      <use xlink:href="#DejaVuSerif-20" transform="translate(1459.755859 0)"/>
      <use xlink:href="#DejaVuSerif-53" transform="translate(1491.542969 0)"/>
      <use xlink:href="#DejaVuSerif-74" transform="translate(1560.048828 0)"/>
      <use xlink:href="#DejaVuSerif-72" transform="translate(1600.234375 0)"/>
      <use xlink:href="#DejaVuSerif-61" transform="translate(1648.037109 0)"/>
      <use xlink:href="#DejaVuSerif-67" transform="translate(1707.65625 0)"/>
      <use xlink:href="#DejaVuSerif-67" transform="translate(1771.669922 0)"/>
      <use xlink:href="#DejaVuSerif-6c" transform="translate(1835.683594 0)"/>
      <use xlink:href="#DejaVuSerif-65" transform="translate(1867.666016 0)"/>
      <use xlink:href="#DejaVuSerif-72" transform="translate(1926.845703 0)"/>
      <use xlink:href="#DejaVuSerif-20" transform="translate(1974.648438 0)"/>
      <use xlink:href="#DejaVuSerif-45" transform="translate(2006.435547 0)"/>
      <use xlink:href="#DejaVuSerif-76" transform="translate(2079.433594 0)"/>
      <use xlink:href="#DejaVuSerif-65" transform="translate(2135.927734 0)"/>
      <use xlink:href="#DejaVuSerif-6e" transform="translate(2195.107422 0)"/>
      <use xlink:href="#DejaVuSerif-74" transform="translate(2259.511719 0)"/>
     </g>
    </g>
   </g>
   <g id="patch_9">
    <path d="M 43.072813 259.392281 
L 43.072813 37.632281 
" style="fill: none; stroke: #000000; stroke-width: 0.8; stroke-linejoin: miter; stroke-linecap: square"/>
   </g>
   <g id="patch_10">
    <path d="M 43.072812 259.392281 
L 433.672813 259.392281 
" style="fill: none; stroke: #000000; stroke-width: 0.8; stroke-linejoin: miter; stroke-linecap: square"/>
   </g>
   <g id="text_15">
    <!-- 1.3 -->
    <g transform="translate(72.021491 249.55476) scale(0.09 -0.09)">
     <defs>
      <path id="DejaVuSerif-Bold-31" d="M 878 0 
L 878 378 
L 1753 378 
L 1753 4153 
L 781 3578 
L 781 4044 
L 1953 4750 
L 2938 4750 
L 2938 378 
L 3816 378 
L 3816 0 
L 878 0 
z
" transform="scale(0.015625)"/>
      <path id="DejaVuSerif-Bold-2e" d="M 519 506 
Q 519 750 694 925 
Q 869 1100 1113 1100 
Q 1359 1100 1534 925 
Q 1709 750 1709 506 
Q 1709 259 1534 84 
Q 1359 -91 1113 -91 
Q 869 -91 694 84 
Q 519 259 519 506 
z
" transform="scale(0.015625)"/>
      <path id="DejaVuSerif-Bold-33" d="M 550 4531 
Q 963 4641 1350 4695 
Q 1738 4750 2106 4750 
Q 2950 4750 3401 4448 
Q 3853 4147 3853 3584 
Q 3853 3163 3593 2900 
Q 3334 2638 2834 2547 
Q 3444 2450 3744 2131 
Q 4044 1813 4044 1259 
Q 4044 606 3526 257 
Q 3009 -91 2028 -91 
Q 1659 -91 1267 -28 
Q 875 34 447 159 
L 447 1184 
L 825 1184 
Q 859 741 1103 508 
Q 1347 275 1778 275 
Q 2253 275 2512 539 
Q 2772 803 2772 1288 
Q 2772 1794 2501 2069 
Q 2231 2344 1734 2344 
L 1528 2344 
L 1528 2719 
L 1691 2719 
Q 2150 2719 2381 2931 
Q 2613 3144 2613 3566 
Q 2613 3963 2395 4173 
Q 2178 4384 1772 4384 
Q 1403 4384 1187 4182 
Q 972 3981 928 3597 
L 550 3597 
L 550 4531 
z
" transform="scale(0.015625)"/>
     </defs>
     <use xlink:href="#DejaVuSerif-Bold-31"/>
     <use xlink:href="#DejaVuSerif-Bold-2e" transform="translate(69.580078 0)"/>
     <use xlink:href="#DejaVuSerif-Bold-33" transform="translate(104.394531 0)"/>
    </g>
   </g>
   <g id="text_16">
    <!-- 2.9 -->
    <g transform="translate(135.430582 242.928878) scale(0.09 -0.09)">
     <defs>
      <path id="DejaVuSerif-Bold-32" d="M 844 3513 
L 469 3513 
L 469 4519 
Q 850 4634 1223 4692 
Q 1597 4750 1978 4750 
Q 2869 4750 3367 4386 
Q 3866 4022 3866 3372 
Q 3866 2909 3591 2542 
Q 3316 2175 2541 1672 
L 1241 819 
L 3450 819 
L 3450 1369 
L 3878 1369 
L 3878 0 
L 428 0 
L 428 763 
L 1119 1241 
Q 2003 1850 2297 2278 
Q 2591 2706 2591 3278 
Q 2591 3819 2367 4101 
Q 2144 4384 1716 4384 
Q 1347 4384 1125 4161 
Q 903 3938 844 3513 
z
" transform="scale(0.015625)"/>
      <path id="DejaVuSerif-Bold-39" d="M 2181 4384 
Q 1859 4384 1723 4111 
Q 1588 3838 1588 3163 
Q 1588 2488 1723 2214 
Q 1859 1941 2181 1941 
Q 2503 1941 2640 2214 
Q 2778 2488 2778 3163 
Q 2778 3838 2640 4111 
Q 2503 4384 2181 4384 
z
M 2878 1900 
Q 2672 1734 2420 1651 
Q 2169 1569 1875 1569 
Q 1163 1569 755 1986 
Q 347 2403 347 3138 
Q 347 3913 803 4331 
Q 1259 4750 2106 4750 
Q 3063 4750 3556 4172 
Q 4050 3594 4050 2478 
Q 4050 1206 3503 557 
Q 2956 -91 1881 -91 
Q 1600 -91 1278 -44 
Q 956 3 588 97 
L 588 922 
L 966 922 
Q 1044 603 1261 439 
Q 1478 275 1825 275 
Q 2375 275 2625 658 
Q 2875 1041 2878 1900 
z
" transform="scale(0.015625)"/>
     </defs>
     <use xlink:href="#DejaVuSerif-Bold-32"/>
     <use xlink:href="#DejaVuSerif-Bold-2e" transform="translate(69.580078 0)"/>
     <use xlink:href="#DejaVuSerif-Bold-39" transform="translate(104.394531 0)"/>
    </g>
   </g>
   <g id="text_17">
    <!-- 5.9 -->
    <g transform="translate(198.839673 229.677113) scale(0.09 -0.09)">
     <defs>
      <path id="DejaVuSerif-Bold-35" d="M 3609 4666 
L 3609 3847 
L 1113 3847 
L 1113 2822 
Q 1319 2981 1572 3062 
Q 1825 3144 2106 3144 
Q 2969 3144 3469 2708 
Q 3969 2272 3969 1522 
Q 3969 759 3469 334 
Q 2969 -91 2069 -91 
Q 1688 -91 1311 -28 
Q 934 34 525 166 
L 525 1184 
L 900 1184 
Q 919 725 1139 500 
Q 1359 275 1791 275 
Q 2250 275 2472 583 
Q 2694 891 2694 1522 
Q 2694 2144 2476 2451 
Q 2259 2759 1819 2759 
Q 1581 2759 1395 2661 
Q 1209 2563 1050 2356 
L 738 2356 
L 738 4666 
L 3609 4666 
z
" transform="scale(0.015625)"/>
     </defs>
     <use xlink:href="#DejaVuSerif-Bold-35"/>
     <use xlink:href="#DejaVuSerif-Bold-2e" transform="translate(69.580078 0)"/>
     <use xlink:href="#DejaVuSerif-Bold-39" transform="translate(104.394531 0)"/>
    </g>
   </g>
   <g id="text_18">
    <!-- 12.0 -->
    <g transform="translate(259.117749 203.173584) scale(0.09 -0.09)">
     <defs>
      <path id="DejaVuSerif-Bold-30" d="M 2228 275 
Q 2603 275 2742 615 
Q 2881 956 2881 2328 
Q 2881 3691 2742 4037 
Q 2603 4384 2228 4384 
Q 1853 4384 1714 4043 
Q 1575 3703 1575 2328 
Q 1575 956 1714 615 
Q 1853 275 2228 275 
z
M 2228 -91 
Q 1294 -91 797 532 
Q 300 1156 300 2328 
Q 300 3500 797 4125 
Q 1294 4750 2228 4750 
Q 3159 4750 3656 4125 
Q 4153 3500 4153 2328 
Q 4153 1156 3656 532 
Q 3159 -91 2228 -91 
z
" transform="scale(0.015625)"/>
     </defs>
     <use xlink:href="#DejaVuSerif-Bold-31"/>
     <use xlink:href="#DejaVuSerif-Bold-32" transform="translate(69.580078 0)"/>
     <use xlink:href="#DejaVuSerif-Bold-2e" transform="translate(139.160156 0)"/>
     <use xlink:href="#DejaVuSerif-Bold-30" transform="translate(173.974609 0)"/>
    </g>
   </g>
   <g id="text_19">
    <!-- 24.3 -->
    <g transform="translate(322.526839 150.166525) scale(0.09 -0.09)">
     <defs>
      <path id="DejaVuSerif-Bold-34" d="M 4084 0 
L 1516 0 
L 1516 378 
L 2209 378 
L 2209 1228 
L 263 1228 
L 263 1588 
L 2216 4750 
L 3391 4750 
L 3391 1631 
L 4191 1631 
L 4191 1228 
L 3391 1228 
L 3391 378 
L 4084 378 
L 4084 0 
z
M 2209 1631 
L 2209 3897 
L 819 1631 
L 2209 1631 
z
" transform="scale(0.015625)"/>
     </defs>
     <use xlink:href="#DejaVuSerif-Bold-32"/>
     <use xlink:href="#DejaVuSerif-Bold-34" transform="translate(69.580078 0)"/>
     <use xlink:href="#DejaVuSerif-Bold-2e" transform="translate(139.160156 0)"/>
     <use xlink:href="#DejaVuSerif-Bold-33" transform="translate(173.974609 0)"/>
    </g>
   </g>
   <g id="text_20">
    <!-- 48.7 -->
    <g transform="translate(385.93593 44.152407) scale(0.09 -0.09)">
     <defs>
      <path id="DejaVuSerif-Bold-38" d="M 2975 2484 
Q 3531 2394 3820 2075 
Q 4109 1756 4109 1241 
Q 4109 597 3623 253 
Q 3138 -91 2222 -91 
Q 1306 -91 818 253 
Q 331 597 331 1241 
Q 331 1756 622 2075 
Q 913 2394 1466 2484 
Q 975 2597 731 2861 
Q 488 3125 488 3531 
Q 488 4125 931 4437 
Q 1375 4750 2222 4750 
Q 3066 4750 3511 4437 
Q 3956 4125 3956 3531 
Q 3956 3125 3711 2861 
Q 3466 2597 2975 2484 
z
M 2747 3519 
Q 2747 4013 2628 4198 
Q 2509 4384 2222 4384 
Q 1931 4384 1814 4198 
Q 1697 4013 1697 3519 
Q 1697 3028 1814 2845 
Q 1931 2663 2222 2663 
Q 2513 2663 2630 2845 
Q 2747 3028 2747 3519 
z
M 2869 1294 
Q 2869 1866 2723 2081 
Q 2578 2297 2222 2297 
Q 1863 2297 1719 2081 
Q 1575 1866 1575 1294 
Q 1575 716 1720 495 
Q 1866 275 2222 275 
Q 2575 275 2722 495 
Q 2869 716 2869 1294 
z
" transform="scale(0.015625)"/>
      <path id="DejaVuSerif-Bold-37" d="M 3922 3872 
L 1997 0 
L 1363 0 
L 3238 3781 
L 934 3781 
L 934 3150 
L 506 3150 
L 506 4666 
L 3922 4666 
L 3922 3872 
z
" transform="scale(0.015625)"/>
     </defs>
     <use xlink:href="#DejaVuSerif-Bold-34"/>
     <use xlink:href="#DejaVuSerif-Bold-38" transform="translate(69.580078 0)"/>
     <use xlink:href="#DejaVuSerif-Bold-2e" transform="translate(139.160156 0)"/>
     <use xlink:href="#DejaVuSerif-Bold-37" transform="translate(173.974609 0)"/>
    </g>
   </g>
   <g id="patch_11">
    <path d="M 307.92529 124.799977 
Q 320.049055 138.747566 331.586042 152.020106 
" style="fill: none; stroke: #555555; stroke-width: 0.8; stroke-linecap: round"/>
    <path d="M 330.694286 148.555316 
L 331.586042 152.020106 
L 328.279156 150.654637 
" style="fill: none; stroke: #555555; stroke-width: 0.8; stroke-linecap: round"/>
   </g>
   <g id="text_21">
    <!-- At 128 GPUs, one bad GPU -->
    <g style="fill: #555555" transform="translate(238.372813 101.599415) scale(0.08 -0.08)">
     <defs>
      <path id="DejaVuSerif-41" d="M 1281 1691 
L 2994 1691 
L 2138 3909 
L 1281 1691 
z
M -38 0 
L -38 331 
L 372 331 
L 2034 4666 
L 2559 4666 
L 4225 331 
L 4684 331 
L 4684 0 
L 2988 0 
L 2988 331 
L 3506 331 
L 3116 1356 
L 1153 1356 
L 763 331 
L 1275 331 
L 1275 0 
L -38 0 
z
" transform="scale(0.015625)"/>
      <path id="DejaVuSerif-2c" d="M 231 -622 
Q 525 -406 662 -114 
Q 800 178 800 594 
L 800 709 
L 1416 709 
Q 1391 175 1164 -208 
Q 938 -591 481 -872 
L 231 -622 
z
" transform="scale(0.015625)"/>
      <path id="DejaVuSerif-6f" d="M 1925 219 
Q 2388 219 2623 584 
Q 2859 950 2859 1663 
Q 2859 2375 2623 2739 
Q 2388 3103 1925 3103 
Q 1463 3103 1227 2739 
Q 991 2375 991 1663 
Q 991 950 1228 584 
Q 1466 219 1925 219 
z
M 1925 -91 
Q 1200 -91 759 389 
Q 319 869 319 1663 
Q 319 2456 758 2934 
Q 1197 3413 1925 3413 
Q 2653 3413 3092 2934 
Q 3531 2456 3531 1663 
Q 3531 869 3092 389 
Q 2653 -91 1925 -91 
z
" transform="scale(0.015625)"/>
      <path id="DejaVuSerif-62" d="M 738 331 
L 738 4531 
L 184 4531 
L 184 4863 
L 1313 4863 
L 1313 2803 
Q 1481 3116 1742 3264 
Q 2003 3413 2388 3413 
Q 3000 3413 3387 2928 
Q 3775 2444 3775 1663 
Q 3775 881 3387 395 
Q 3000 -91 2388 -91 
Q 2003 -91 1742 57 
Q 1481 206 1313 519 
L 1313 0 
L 184 0 
L 184 331 
L 738 331 
z
M 1313 1497 
Q 1313 897 1542 583 
Q 1772 269 2209 269 
Q 2650 269 2876 622 
Q 3103 975 3103 1663 
Q 3103 2353 2876 2703 
Q 2650 3053 2209 3053 
Q 1772 3053 1542 2737 
Q 1313 2422 1313 1825 
L 1313 1497 
z
" transform="scale(0.015625)"/>
     </defs>
     <use xlink:href="#DejaVuSerif-41"/>
     <use xlink:href="#DejaVuSerif-74" transform="translate(70.466797 0)"/>
     <use xlink:href="#DejaVuSerif-20" transform="translate(110.652344 0)"/>
     <use xlink:href="#DejaVuSerif-31" transform="translate(142.439453 0)"/>
     <use xlink:href="#DejaVuSerif-32" transform="translate(206.0625 0)"/>
     <use xlink:href="#DejaVuSerif-38" transform="translate(269.685547 0)"/>
     <use xlink:href="#DejaVuSerif-20" transform="translate(333.308594 0)"/>
     <use xlink:href="#DejaVuSerif-47" transform="translate(365.095703 0)"/>
     <use xlink:href="#DejaVuSerif-50" transform="translate(444.978516 0)"/>
     <use xlink:href="#DejaVuSerif-55" transform="translate(510.513672 0)"/>
     <use xlink:href="#DejaVuSerif-73" transform="translate(594.791016 0)"/>
     <use xlink:href="#DejaVuSerif-2c" transform="translate(646.109375 0)"/>
     <use xlink:href="#DejaVuSerif-20" transform="translate(677.896484 0)"/>
     <use xlink:href="#DejaVuSerif-6f" transform="translate(709.683594 0)"/>
     <use xlink:href="#DejaVuSerif-6e" transform="translate(769.888672 0)"/>
     <use xlink:href="#DejaVuSerif-65" transform="translate(834.292969 0)"/>
     <use xlink:href="#DejaVuSerif-20" transform="translate(893.472656 0)"/>
     <use xlink:href="#DejaVuSerif-62" transform="translate(925.259766 0)"/>
     <use xlink:href="#DejaVuSerif-61" transform="translate(989.273438 0)"/>
     <use xlink:href="#DejaVuSerif-64" transform="translate(1048.892578 0)"/>
     <use xlink:href="#DejaVuSerif-20" transform="translate(1112.90625 0)"/>
     <use xlink:href="#DejaVuSerif-47" transform="translate(1144.693359 0)"/>
     <use xlink:href="#DejaVuSerif-50" transform="translate(1224.576172 0)"/>
     <use xlink:href="#DejaVuSerif-55" transform="translate(1290.111328 0)"/>
    </g>
    <!-- wastes 24 GPU-equivalents -->
    <g style="fill: #555555" transform="translate(238.372813 110.557665) scale(0.08 -0.08)">
     <defs>
      <path id="DejaVuSerif-77" d="M 3072 3322 
L 3922 728 
L 4672 2988 
L 4191 2988 
L 4191 3322 
L 5394 3322 
L 5394 2988 
L 5025 2988 
L 4038 0 
L 3559 0 
L 2741 2484 
L 1919 0 
L 1459 0 
L 475 2988 
L 103 2988 
L 103 3322 
L 1606 3322 
L 1606 2988 
L 1069 2988 
L 1813 728 
L 2669 3322 
L 3072 3322 
z
" transform="scale(0.015625)"/>
      <path id="DejaVuSerif-2d" d="M 281 1959 
L 1881 1959 
L 1881 1472 
L 281 1472 
L 281 1959 
z
" transform="scale(0.015625)"/>
     </defs>
     <use xlink:href="#DejaVuSerif-77"/>
     <use xlink:href="#DejaVuSerif-61" transform="translate(85.595703 0)"/>
     <use xlink:href="#DejaVuSerif-73" transform="translate(145.214844 0)"/>
     <use xlink:href="#DejaVuSerif-74" transform="translate(196.533203 0)"/>
     <use xlink:href="#DejaVuSerif-65" transform="translate(236.71875 0)"/>
     <use xlink:href="#DejaVuSerif-73" transform="translate(295.898438 0)"/>
     <use xlink:href="#DejaVuSerif-20" transform="translate(347.216797 0)"/>
     <use xlink:href="#DejaVuSerif-32" transform="translate(379.003906 0)"/>
     <use xlink:href="#DejaVuSerif-34" transform="translate(442.626953 0)"/>
     <use xlink:href="#DejaVuSerif-20" transform="translate(506.25 0)"/>
     <use xlink:href="#DejaVuSerif-47" transform="translate(538.037109 0)"/>
     <use xlink:href="#DejaVuSerif-50" transform="translate(617.919922 0)"/>
     <use xlink:href="#DejaVuSerif-55" transform="translate(683.455078 0)"/>
     <use xlink:href="#DejaVuSerif-2d" transform="translate(765.982422 0)"/>
     <use xlink:href="#DejaVuSerif-65" transform="translate(799.771484 0)"/>
     <use xlink:href="#DejaVuSerif-71" transform="translate(858.951172 0)"/>
     <use xlink:href="#DejaVuSerif-75" transform="translate(922.964844 0)"/>
     <use xlink:href="#DejaVuSerif-69" transform="translate(987.369141 0)"/>
     <use xlink:href="#DejaVuSerif-76" transform="translate(1019.351562 0)"/>
     <use xlink:href="#DejaVuSerif-61" transform="translate(1075.845703 0)"/>
     <use xlink:href="#DejaVuSerif-6c" transform="translate(1135.464844 0)"/>
     <use xlink:href="#DejaVuSerif-65" transform="translate(1167.447266 0)"/>
     <use xlink:href="#DejaVuSerif-6e" transform="translate(1226.626953 0)"/>
     <use xlink:href="#DejaVuSerif-74" transform="translate(1291.03125 0)"/>
     <use xlink:href="#DejaVuSerif-73" transform="translate(1331.216797 0)"/>
    </g>
    <!-- at every sync barrier -->
    <g style="fill: #555555" transform="translate(238.372813 119.515915) scale(0.08 -0.08)">
     <defs>
      <path id="DejaVuSerif-79" d="M 1381 -609 
L 1600 -56 
L 359 2988 
L -19 2988 
L -19 3322 
L 1509 3322 
L 1509 2988 
L 978 2988 
L 1913 703 
L 2847 2988 
L 2350 2988 
L 2350 3322 
L 3597 3322 
L 3597 2988 
L 3225 2988 
L 1703 -750 
Q 1547 -1138 1356 -1280 
Q 1166 -1422 819 -1422 
Q 672 -1422 517 -1397 
Q 363 -1372 206 -1325 
L 206 -691 
L 500 -691 
Q 519 -903 608 -995 
Q 697 -1088 884 -1088 
Q 1056 -1088 1161 -992 
Q 1266 -897 1381 -609 
z
" transform="scale(0.015625)"/>
      <path id="DejaVuSerif-63" d="M 3291 997 
Q 3169 466 2822 187 
Q 2475 -91 1925 -91 
Q 1200 -91 759 389 
Q 319 869 319 1663 
Q 319 2459 759 2936 
Q 1200 3413 1925 3413 
Q 2241 3413 2553 3339 
Q 2866 3266 3181 3116 
L 3181 2266 
L 2847 2266 
Q 2781 2703 2561 2903 
Q 2341 3103 1931 3103 
Q 1466 3103 1228 2742 
Q 991 2381 991 1663 
Q 991 944 1227 581 
Q 1463 219 1931 219 
Q 2303 219 2525 412 
Q 2747 606 2828 997 
L 3291 997 
z
" transform="scale(0.015625)"/>
     </defs>
     <use xlink:href="#DejaVuSerif-61"/>
     <use xlink:href="#DejaVuSerif-74" transform="translate(59.619141 0)"/>
     <use xlink:href="#DejaVuSerif-20" transform="translate(99.804688 0)"/>
     <use xlink:href="#DejaVuSerif-65" transform="translate(131.591797 0)"/>
     <use xlink:href="#DejaVuSerif-76" transform="translate(190.771484 0)"/>
     <use xlink:href="#DejaVuSerif-65" transform="translate(247.265625 0)"/>
     <use xlink:href="#DejaVuSerif-72" transform="translate(306.445312 0)"/>
     <use xlink:href="#DejaVuSerif-79" transform="translate(354.248047 0)"/>
     <use xlink:href="#DejaVuSerif-20" transform="translate(410.742188 0)"/>
     <use xlink:href="#DejaVuSerif-73" transform="translate(442.529297 0)"/>
     <use xlink:href="#DejaVuSerif-79" transform="translate(493.847656 0)"/>
     <use xlink:href="#DejaVuSerif-6e" transform="translate(550.341797 0)"/>
     <use xlink:href="#DejaVuSerif-63" transform="translate(614.746094 0)"/>
     <use xlink:href="#DejaVuSerif-20" transform="translate(670.751953 0)"/>
     <use xlink:href="#DejaVuSerif-62" transform="translate(702.539062 0)"/>
     <use xlink:href="#DejaVuSerif-61" transform="translate(766.552734 0)"/>
     <use xlink:href="#DejaVuSerif-72" transform="translate(826.171875 0)"/>
     <use xlink:href="#DejaVuSerif-72" transform="translate(873.974609 0)"/>
     <use xlink:href="#DejaVuSerif-69" transform="translate(921.777344 0)"/>
     <use xlink:href="#DejaVuSerif-65" transform="translate(953.759766 0)"/>
     <use xlink:href="#DejaVuSerif-72" transform="translate(1012.939453 0)"/>
    </g>
   </g>
   <g id="text_22">
    <!-- Figure 4. Straggler Tax Scales with Fleet Size -->
    <g transform="translate(110.013125 19.158281) scale(0.11 -0.11)">
     <defs>
      <path id="DejaVuSerif-2e" d="M 603 325 
Q 603 500 722 622 
Q 841 744 1019 744 
Q 1191 744 1312 622 
Q 1434 500 1434 325 
Q 1434 153 1312 31 
Q 1191 -91 1019 -91 
Q 841 -91 722 29 
Q 603 150 603 325 
z
" transform="scale(0.015625)"/>
      <path id="DejaVuSerif-54" d="M 1222 0 
L 1222 331 
L 1819 331 
L 1819 4294 
L 447 4294 
L 447 3566 
L 63 3566 
L 63 4666 
L 4206 4666 
L 4206 3566 
L 3822 3566 
L 3822 4294 
L 2450 4294 
L 2450 331 
L 3047 331 
L 3047 0 
L 1222 0 
z
" transform="scale(0.015625)"/>
      <path id="DejaVuSerif-78" d="M 1863 2028 
L 2559 2988 
L 2113 2988 
L 2113 3322 
L 3391 3322 
L 3391 2988 
L 2950 2988 
L 2059 1759 
L 3097 331 
L 3531 331 
L 3531 0 
L 1997 0 
L 1997 331 
L 2419 331 
L 1697 1325 
L 972 331 
L 1403 331 
L 1403 0 
L 141 0 
L 141 331 
L 581 331 
L 1497 1594 
L 488 2988 
L 78 2988 
L 78 3322 
L 1563 3322 
L 1563 2988 
L 1166 2988 
L 1863 2028 
z
" transform="scale(0.015625)"/>
      <path id="DejaVuSerif-68" d="M 263 0 
L 263 331 
L 781 331 
L 781 4531 
L 231 4531 
L 231 4863 
L 1356 4863 
L 1356 2731 
Q 1516 3069 1770 3241 
Q 2025 3413 2363 3413 
Q 2913 3413 3172 3097 
Q 3431 2781 3431 2113 
L 3431 331 
L 3944 331 
L 3944 0 
L 2356 0 
L 2356 331 
L 2853 331 
L 2853 1931 
Q 2853 2541 2704 2764 
Q 2556 2988 2175 2988 
Q 1775 2988 1565 2697 
Q 1356 2406 1356 1850 
L 1356 331 
L 1856 331 
L 1856 0 
L 263 0 
z
" transform="scale(0.015625)"/>
     </defs>
     <use xlink:href="#DejaVuSerif-46"/>
     <use xlink:href="#DejaVuSerif-69" transform="translate(69.384766 0)"/>
     <use xlink:href="#DejaVuSerif-67" transform="translate(101.367188 0)"/>
     <use xlink:href="#DejaVuSerif-75" transform="translate(165.380859 0)"/>
     <use xlink:href="#DejaVuSerif-72" transform="translate(229.785156 0)"/>
     <use xlink:href="#DejaVuSerif-65" transform="translate(277.587891 0)"/>
     <use xlink:href="#DejaVuSerif-20" transform="translate(336.767578 0)"/>
     <use xlink:href="#DejaVuSerif-34" transform="translate(368.554688 0)"/>
     <use xlink:href="#DejaVuSerif-2e" transform="translate(432.177734 0)"/>
     <use xlink:href="#DejaVuSerif-20" transform="translate(463.964844 0)"/>
     <use xlink:href="#DejaVuSerif-53" transform="translate(495.751953 0)"/>
     <use xlink:href="#DejaVuSerif-74" transform="translate(564.257812 0)"/>
     <use xlink:href="#DejaVuSerif-72" transform="translate(604.443359 0)"/>
     <use xlink:href="#DejaVuSerif-61" transform="translate(652.246094 0)"/>
     <use xlink:href="#DejaVuSerif-67" transform="translate(711.865234 0)"/>
     <use xlink:href="#DejaVuSerif-67" transform="translate(775.878906 0)"/>
     <use xlink:href="#DejaVuSerif-6c" transform="translate(839.892578 0)"/>
     <use xlink:href="#DejaVuSerif-65" transform="translate(871.875 0)"/>
     <use xlink:href="#DejaVuSerif-72" transform="translate(931.054688 0)"/>
     <use xlink:href="#DejaVuSerif-20" transform="translate(978.857422 0)"/>
     <use xlink:href="#DejaVuSerif-54" transform="translate(1010.644531 0)"/>
     <use xlink:href="#DejaVuSerif-61" transform="translate(1069.59375 0)"/>
     <use xlink:href="#DejaVuSerif-78" transform="translate(1129.212891 0)"/>
     <use xlink:href="#DejaVuSerif-20" transform="translate(1185.609375 0)"/>
     <use xlink:href="#DejaVuSerif-53" transform="translate(1217.396484 0)"/>
     <use xlink:href="#DejaVuSerif-63" transform="translate(1285.902344 0)"/>
     <use xlink:href="#DejaVuSerif-61" transform="translate(1341.908203 0)"/>
     <use xlink:href="#DejaVuSerif-6c" transform="translate(1401.527344 0)"/>
     <use xlink:href="#DejaVuSerif-65" transform="translate(1433.509766 0)"/>
     <use xlink:href="#DejaVuSerif-73" transform="translate(1492.689453 0)"/>
     <use xlink:href="#DejaVuSerif-20" transform="translate(1544.007812 0)"/>
     <use xlink:href="#DejaVuSerif-77" transform="translate(1575.794922 0)"/>
     <use xlink:href="#DejaVuSerif-69" transform="translate(1661.390625 0)"/>
     <use xlink:href="#DejaVuSerif-74" transform="translate(1693.373047 0)"/>
     <use xlink:href="#DejaVuSerif-68" transform="translate(1733.558594 0)"/>
     <use xlink:href="#DejaVuSerif-20" transform="translate(1797.962891 0)"/>
     <use xlink:href="#DejaVuSerif-46" transform="translate(1829.75 0)"/>
     <use xlink:href="#DejaVuSerif-6c" transform="translate(1899.134766 0)"/>
     <use xlink:href="#DejaVuSerif-65" transform="translate(1931.117188 0)"/>
     <use xlink:href="#DejaVuSerif-65" transform="translate(1990.296875 0)"/>
     <use xlink:href="#DejaVuSerif-74" transform="translate(2049.476562 0)"/>
     <use xlink:href="#DejaVuSerif-20" transform="translate(2089.662109 0)"/>
     <use xlink:href="#DejaVuSerif-53" transform="translate(2121.449219 0)"/>
     <use xlink:href="#DejaVuSerif-69" transform="translate(2189.955078 0)"/>
     <use xlink:href="#DejaVuSerif-7a" transform="translate(2221.9375 0)"/>
     <use xlink:href="#DejaVuSerif-65" transform="translate(2274.623047 0)"/>
    </g>
    <!-- (median straggler tax = 19.1%, one degraded GPU) -->
    <g transform="translate(93.982344 31.632281) scale(0.11 -0.11)">
     <defs>
      <path id="DejaVuSerif-6d" d="M 3316 2675 
Q 3481 3041 3739 3227 
Q 3997 3413 4341 3413 
Q 4863 3413 5119 3089 
Q 5375 2766 5375 2113 
L 5375 331 
L 5894 331 
L 5894 0 
L 4300 0 
L 4300 331 
L 4800 331 
L 4800 2047 
Q 4800 2556 4650 2772 
Q 4500 2988 4153 2988 
Q 3769 2988 3567 2697 
Q 3366 2406 3366 1850 
L 3366 331 
L 3866 331 
L 3866 0 
L 2291 0 
L 2291 331 
L 2791 331 
L 2791 2069 
Q 2791 2566 2641 2777 
Q 2491 2988 2144 2988 
Q 1759 2988 1557 2697 
Q 1356 2406 1356 1850 
L 1356 331 
L 1856 331 
L 1856 0 
L 263 0 
L 263 331 
L 781 331 
L 781 2994 
L 231 2994 
L 231 3322 
L 1356 3322 
L 1356 2731 
Q 1516 3063 1762 3238 
Q 2009 3413 2322 3413 
Q 2709 3413 2968 3220 
Q 3228 3028 3316 2675 
z
" transform="scale(0.015625)"/>
      <path id="DejaVuSerif-3d" d="M 678 2894 
L 4684 2894 
L 4684 2394 
L 678 2394 
L 678 2894 
z
M 678 1619 
L 4684 1619 
L 4684 1119 
L 678 1119 
L 678 1619 
z
" transform="scale(0.015625)"/>
      <path id="DejaVuSerif-39" d="M 2994 2091 
Q 2784 1856 2512 1740 
Q 2241 1625 1900 1625 
Q 1206 1625 804 2044 
Q 403 2463 403 3188 
Q 403 3897 839 4323 
Q 1275 4750 2003 4750 
Q 2794 4750 3217 4161 
Q 3641 3572 3641 2478 
Q 3641 1253 3137 581 
Q 2634 -91 1722 -91 
Q 1475 -91 1203 -44 
Q 931 3 647 97 
L 647 872 
L 997 872 
Q 1038 556 1241 387 
Q 1444 219 1784 219 
Q 2391 219 2687 676 
Q 2984 1134 2994 2091 
z
M 1978 4441 
Q 1534 4441 1298 4117 
Q 1063 3794 1063 3188 
Q 1063 2581 1298 2256 
Q 1534 1931 1978 1931 
Q 2422 1931 2658 2245 
Q 2894 2559 2894 3150 
Q 2894 3772 2656 4106 
Q 2419 4441 1978 4441 
z
" transform="scale(0.015625)"/>
      <path id="DejaVuSerif-25" d="M 1434 4459 
Q 1159 4459 1004 4200 
Q 850 3941 850 3475 
Q 850 3016 1008 2753 
Q 1166 2491 1434 2491 
Q 1700 2491 1854 2752 
Q 2009 3013 2009 3475 
Q 2009 3938 1854 4198 
Q 1700 4459 1434 4459 
z
M 4653 2169 
Q 4381 2169 4226 1906 
Q 4072 1644 4072 1178 
Q 4072 719 4228 458 
Q 4384 197 4653 197 
Q 4922 197 5075 458 
Q 5228 719 5228 1178 
Q 5228 1641 5073 1905 
Q 4919 2169 4653 2169 
z
M 4653 2450 
Q 5147 2450 5437 2106 
Q 5728 1763 5728 1178 
Q 5728 594 5436 251 
Q 5144 -91 4653 -91 
Q 4153 -91 3862 251 
Q 3572 594 3572 1178 
Q 3572 1766 3864 2108 
Q 4156 2450 4653 2450 
z
M 4263 4750 
L 4738 4750 
L 1819 -91 
L 1344 -91 
L 4263 4750 
z
M 1428 4750 
Q 1922 4750 2215 4408 
Q 2509 4066 2509 3481 
Q 2509 2891 2217 2550 
Q 1925 2209 1428 2209 
Q 931 2209 642 2551 
Q 353 2894 353 3481 
Q 353 4063 643 4406 
Q 934 4750 1428 4750 
z
" transform="scale(0.015625)"/>
     </defs>
     <use xlink:href="#DejaVuSerif-28"/>
     <use xlink:href="#DejaVuSerif-6d" transform="translate(39.013672 0)"/>
     <use xlink:href="#DejaVuSerif-65" transform="translate(133.837891 0)"/>
     <use xlink:href="#DejaVuSerif-64" transform="translate(193.017578 0)"/>
     <use xlink:href="#DejaVuSerif-69" transform="translate(257.03125 0)"/>
     <use xlink:href="#DejaVuSerif-61" transform="translate(289.013672 0)"/>
     <use xlink:href="#DejaVuSerif-6e" transform="translate(348.632812 0)"/>
     <use xlink:href="#DejaVuSerif-20" transform="translate(413.037109 0)"/>
     <use xlink:href="#DejaVuSerif-73" transform="translate(444.824219 0)"/>
     <use xlink:href="#DejaVuSerif-74" transform="translate(496.142578 0)"/>
     <use xlink:href="#DejaVuSerif-72" transform="translate(536.328125 0)"/>
     <use xlink:href="#DejaVuSerif-61" transform="translate(584.130859 0)"/>
     <use xlink:href="#DejaVuSerif-67" transform="translate(643.75 0)"/>
     <use xlink:href="#DejaVuSerif-67" transform="translate(707.763672 0)"/>
     <use xlink:href="#DejaVuSerif-6c" transform="translate(771.777344 0)"/>
     <use xlink:href="#DejaVuSerif-65" transform="translate(803.759766 0)"/>
     <use xlink:href="#DejaVuSerif-72" transform="translate(862.939453 0)"/>
     <use xlink:href="#DejaVuSerif-20" transform="translate(910.742188 0)"/>
     <use xlink:href="#DejaVuSerif-74" transform="translate(942.529297 0)"/>
     <use xlink:href="#DejaVuSerif-61" transform="translate(982.714844 0)"/>
     <use xlink:href="#DejaVuSerif-78" transform="translate(1042.333984 0)"/>
     <use xlink:href="#DejaVuSerif-20" transform="translate(1098.730469 0)"/>
     <use xlink:href="#DejaVuSerif-3d" transform="translate(1130.517578 0)"/>
     <use xlink:href="#DejaVuSerif-20" transform="translate(1214.306641 0)"/>
     <use xlink:href="#DejaVuSerif-31" transform="translate(1246.09375 0)"/>
     <use xlink:href="#DejaVuSerif-39" transform="translate(1309.716797 0)"/>
     <use xlink:href="#DejaVuSerif-2e" transform="translate(1373.339844 0)"/>
     <use xlink:href="#DejaVuSerif-31" transform="translate(1405.126953 0)"/>
     <use xlink:href="#DejaVuSerif-25" transform="translate(1468.75 0)"/>
     <use xlink:href="#DejaVuSerif-2c" transform="translate(1563.769531 0)"/>
     <use xlink:href="#DejaVuSerif-20" transform="translate(1595.556641 0)"/>
     <use xlink:href="#DejaVuSerif-6f" transform="translate(1627.34375 0)"/>
     <use xlink:href="#DejaVuSerif-6e" transform="translate(1687.548828 0)"/>
     <use xlink:href="#DejaVuSerif-65" transform="translate(1751.953125 0)"/>
     <use xlink:href="#DejaVuSerif-20" transform="translate(1811.132812 0)"/>
     <use xlink:href="#DejaVuSerif-64" transform="translate(1842.919922 0)"/>
     <use xlink:href="#DejaVuSerif-65" transform="translate(1906.933594 0)"/>
     <use xlink:href="#DejaVuSerif-67" transform="translate(1966.113281 0)"/>
     <use xlink:href="#DejaVuSerif-72" transform="translate(2030.126953 0)"/>
     <use xlink:href="#DejaVuSerif-61" transform="translate(2077.929688 0)"/>
     <use xlink:href="#DejaVuSerif-64" transform="translate(2137.548828 0)"/>
     <use xlink:href="#DejaVuSerif-65" transform="translate(2201.5625 0)"/>
     <use xlink:href="#DejaVuSerif-64" transform="translate(2260.742188 0)"/>
     <use xlink:href="#DejaVuSerif-20" transform="translate(2324.755859 0)"/>
     <use xlink:href="#DejaVuSerif-47" transform="translate(2356.542969 0)"/>
     <use xlink:href="#DejaVuSerif-50" transform="translate(2436.425781 0)"/>
     <use xlink:href="#DejaVuSerif-55" transform="translate(2501.960938 0)"/>
     <use xlink:href="#DejaVuSerif-29" transform="translate(2586.238281 0)"/>
    </g>
   </g>
  </g>
 </g>
 <defs>
  <clipPath id="p403943075c">
   <rect x="43.072813" y="37.632281" width="390.6" height="221.76"/>
  </clipPath>
 </defs>
</svg>
