<?xml version="1.0" encoding="utf-8" standalone="no"?>
<!DOCTYPE svg PUBLIC "-//W3C//DTD SVG 1.1//EN"
  "http://www.w3.org/Graphics/SVG/1.1/DTD/svg11.dtd">
<svg xmlns:xlink="http://www.w3.org/1999/xlink" width="416.78125pt" height="268.841937pt" viewBox="0 0 416.78125 268.841937" xmlns="http://www.w3.org/2000/svg" version="1.1">
 <metadata>
  <rdf:RDF xmlns:dc="http://purl.org/dc/elements/1.1/" xmlns:cc="http://creativecommons.org/ns#" xmlns:rdf="http://www.w3.org/1999/02/22-rdf-syntax-ns#">
   <cc:Work>
    <dc:type rdf:resource="http://purl.org/dc/dcmitype/StillImage"/>
    <dc:date>2026-03-19T16:57:09.036868</dc:date>
    <dc:format>image/svg+xml</dc:format>
    <dc:creator>
     <cc:Agent>
      <dc:title>Matplotlib v3.10.8, https://matplotlib.org/</dc:title>
     </cc:Agent>
    </dc:creator>
   </cc:Work>
  </rdf:RDF>
 </metadata>
 <defs>
  <style type="text/css">*{stroke-linejoin: round; stroke-linecap: butt}</style>
 </defs>
 <g id="figure_1">
  <g id="patch_1">
   <path d="M 0 268.841937 
L 416.78125 268.841937 
L 416.78125 0 
L 0 0 
z
" style="fill: #ffffff"/>
  </g>
  <g id="axes_1">
   <g id="patch_2">
    <path d="M 39.68125 229.802719 
L 402.38125 229.802719 
L 402.38125 35.762719 
L 39.68125 35.762719 
z
" style="fill: #ffffff"/>
   </g>
   <g id="matplotlib.axis_1">
    <g id="xtick_1">
     <g id="line2d_1">
      <defs>
       <path id="m73c8321390" d="M 0 0 
L 0 3.5 
" style="stroke: #000000; stroke-width: 0.8"/>
      </defs>
      <g>
       <use xlink:href="#m73c8321390" x="73.831575" y="229.802719" style="stroke: #000000; stroke-width: 0.8"/>
      </g>
     </g>
     <g id="text_1">
      <!-- 8 GPUs -->
      <g transform="translate(62.842668 241.663344) scale(0.07 -0.07)">
       <defs>
        <path id="TimesNewRomanPSMT-38" d="M 1228 2134 
Q 725 2547 579 2797 
Q 434 3047 434 3316 
Q 434 3728 753 4026 
Q 1072 4325 1600 4325 
Q 2113 4325 2425 4047 
Q 2738 3769 2738 3413 
Q 2738 3175 2569 2928 
Q 2400 2681 1866 2347 
Q 2416 1922 2594 1678 
Q 2831 1359 2831 1006 
Q 2831 559 2490 242 
Q 2150 -75 1597 -75 
Q 994 -75 656 303 
Q 388 606 388 966 
Q 388 1247 577 1523 
Q 766 1800 1228 2134 
z
M 1719 2469 
Q 2094 2806 2194 3001 
Q 2294 3197 2294 3444 
Q 2294 3772 2109 3958 
Q 1925 4144 1606 4144 
Q 1288 4144 1088 3959 
Q 888 3775 888 3528 
Q 888 3366 970 3203 
Q 1053 3041 1206 2894 
L 1719 2469 
z
M 1375 2016 
Q 1116 1797 991 1539 
Q 866 1281 866 981 
Q 866 578 1086 336 
Q 1306 94 1647 94 
Q 1984 94 2187 284 
Q 2391 475 2391 747 
Q 2391 972 2272 1150 
Q 2050 1481 1375 2016 
z
" transform="scale(0.015625)"/>
        <path id="TimesNewRomanPSMT-20" transform="scale(0.015625)"/>
        <path id="TimesNewRomanPSMT-47" d="M 3928 4334 
L 4038 2997 
L 3928 2997 
Q 3763 3497 3500 3750 
Q 3122 4116 2528 4116 
Q 1719 4116 1297 3475 
Q 944 2934 944 2188 
Q 944 1581 1178 1081 
Q 1413 581 1792 348 
Q 2172 116 2572 116 
Q 2806 116 3025 175 
Q 3244 234 3447 350 
L 3447 1575 
Q 3447 1894 3398 1992 
Q 3350 2091 3248 2142 
Q 3147 2194 2891 2194 
L 2891 2313 
L 4531 2313 
L 4531 2194 
L 4453 2194 
Q 4209 2194 4119 2031 
Q 4056 1916 4056 1575 
L 4056 278 
Q 3697 84 3347 -6 
Q 2997 -97 2569 -97 
Q 1341 -97 703 691 
Q 225 1281 225 2053 
Q 225 2613 494 3125 
Q 813 3734 1369 4063 
Q 1834 4334 2469 4334 
Q 2700 4334 2889 4296 
Q 3078 4259 3425 4131 
Q 3600 4066 3659 4066 
Q 3719 4066 3761 4120 
Q 3803 4175 3813 4334 
L 3928 4334 
z
" transform="scale(0.015625)"/>
        <path id="TimesNewRomanPSMT-50" d="M 1313 1984 
L 1313 750 
Q 1313 350 1400 253 
Q 1519 116 1759 116 
L 1922 116 
L 1922 0 
L 106 0 
L 106 116 
L 266 116 
Q 534 116 650 291 
Q 713 388 713 750 
L 713 3488 
Q 713 3888 628 3984 
Q 506 4122 266 4122 
L 106 4122 
L 106 4238 
L 1659 4238 
Q 2228 4238 2556 4120 
Q 2884 4003 3109 3725 
Q 3334 3447 3334 3066 
Q 3334 2547 2992 2222 
Q 2650 1897 2025 1897 
Q 1872 1897 1694 1919 
Q 1516 1941 1313 1984 
z
M 1313 2163 
Q 1478 2131 1606 2115 
Q 1734 2100 1825 2100 
Q 2150 2100 2386 2351 
Q 2622 2603 2622 3003 
Q 2622 3278 2509 3514 
Q 2397 3750 2190 3867 
Q 1984 3984 1722 3984 
Q 1563 3984 1313 3925 
L 1313 2163 
z
" transform="scale(0.015625)"/>
        <path id="TimesNewRomanPSMT-55" d="M 3053 4122 
L 3053 4238 
L 4553 4238 
L 4553 4122 
L 4394 4122 
Q 4144 4122 4009 3913 
Q 3944 3816 3944 3463 
L 3944 1744 
Q 3944 1106 3817 754 
Q 3691 403 3320 151 
Q 2950 -100 2313 -100 
Q 1619 -100 1259 140 
Q 900 381 750 788 
Q 650 1066 650 1831 
L 650 3488 
Q 650 3878 542 4000 
Q 434 4122 194 4122 
L 34 4122 
L 34 4238 
L 1866 4238 
L 1866 4122 
L 1703 4122 
Q 1441 4122 1328 3956 
Q 1250 3844 1250 3488 
L 1250 1641 
Q 1250 1394 1295 1075 
Q 1341 756 1459 578 
Q 1578 400 1801 284 
Q 2025 169 2350 169 
Q 2766 169 3094 350 
Q 3422 531 3542 814 
Q 3663 1097 3663 1772 
L 3663 3488 
Q 3663 3884 3575 3984 
Q 3453 4122 3213 4122 
L 3053 4122 
z
" transform="scale(0.015625)"/>
        <path id="TimesNewRomanPSMT-73" d="M 2050 2947 
L 2050 1972 
L 1947 1972 
Q 1828 2431 1642 2597 
Q 1456 2763 1169 2763 
Q 950 2763 815 2647 
Q 681 2531 681 2391 
Q 681 2216 781 2091 
Q 878 1963 1175 1819 
L 1631 1597 
Q 2266 1288 2266 781 
Q 2266 391 1970 151 
Q 1675 -88 1309 -88 
Q 1047 -88 709 6 
Q 606 38 541 38 
Q 469 38 428 -44 
L 325 -44 
L 325 978 
L 428 978 
Q 516 541 762 319 
Q 1009 97 1316 97 
Q 1531 97 1667 223 
Q 1803 350 1803 528 
Q 1803 744 1651 891 
Q 1500 1038 1047 1263 
Q 594 1488 453 1669 
Q 313 1847 313 2119 
Q 313 2472 555 2709 
Q 797 2947 1181 2947 
Q 1350 2947 1591 2875 
Q 1750 2828 1803 2828 
Q 1853 2828 1881 2850 
Q 1909 2872 1947 2947 
L 2050 2947 
z
" transform="scale(0.015625)"/>
       </defs>
       <use xlink:href="#TimesNewRomanPSMT-38"/>
       <use xlink:href="#TimesNewRomanPSMT-20" transform="translate(50 0)"/>
       <use xlink:href="#TimesNewRomanPSMT-47" transform="translate(75 0)"/>
       <use xlink:href="#TimesNewRomanPSMT-50" transform="translate(147.216797 0)"/>
       <use xlink:href="#TimesNewRomanPSMT-55" transform="translate(202.832031 0)"/>
       <use xlink:href="#TimesNewRomanPSMT-73" transform="translate(275.048828 0)"/>
      </g>
     </g>
    </g>
    <g id="xtick_2">
     <g id="line2d_2">
      <g>
       <use xlink:href="#m73c8321390" x="132.711445" y="229.802719" style="stroke: #000000; stroke-width: 0.8"/>
      </g>
     </g>
     <g id="text_2">
      <!-- 16 GPUs -->
      <g transform="translate(119.972539 241.663344) scale(0.07 -0.07)">
       <defs>
        <path id="TimesNewRomanPSMT-31" d="M 750 3822 
L 1781 4325 
L 1884 4325 
L 1884 747 
Q 1884 391 1914 303 
Q 1944 216 2037 169 
Q 2131 122 2419 116 
L 2419 0 
L 825 0 
L 825 116 
Q 1125 122 1212 167 
Q 1300 213 1334 289 
Q 1369 366 1369 747 
L 1369 3034 
Q 1369 3497 1338 3628 
Q 1316 3728 1258 3775 
Q 1200 3822 1119 3822 
Q 1003 3822 797 3725 
L 750 3822 
z
" transform="scale(0.015625)"/>
        <path id="TimesNewRomanPSMT-36" d="M 2869 4325 
L 2869 4209 
Q 2456 4169 2195 4045 
Q 1934 3922 1679 3669 
Q 1425 3416 1258 3105 
Q 1091 2794 978 2366 
Q 1428 2675 1881 2675 
Q 2316 2675 2634 2325 
Q 2953 1975 2953 1425 
Q 2953 894 2631 456 
Q 2244 -75 1606 -75 
Q 1172 -75 869 213 
Q 275 772 275 1663 
Q 275 2231 503 2743 
Q 731 3256 1154 3653 
Q 1578 4050 1965 4187 
Q 2353 4325 2688 4325 
L 2869 4325 
z
M 925 2138 
Q 869 1716 869 1456 
Q 869 1156 980 804 
Q 1091 453 1309 247 
Q 1469 100 1697 100 
Q 1969 100 2183 356 
Q 2397 613 2397 1088 
Q 2397 1622 2184 2012 
Q 1972 2403 1581 2403 
Q 1463 2403 1327 2353 
Q 1191 2303 925 2138 
z
" transform="scale(0.015625)"/>
       </defs>
       <use xlink:href="#TimesNewRomanPSMT-31"/>
       <use xlink:href="#TimesNewRomanPSMT-36" transform="translate(50 0)"/>
       <use xlink:href="#TimesNewRomanPSMT-20" transform="translate(100 0)"/>
       <use xlink:href="#TimesNewRomanPSMT-47" transform="translate(125 0)"/>
       <use xlink:href="#TimesNewRomanPSMT-50" transform="translate(197.216797 0)"/>
       <use xlink:href="#TimesNewRomanPSMT-55" transform="translate(252.832031 0)"/>
       <use xlink:href="#TimesNewRomanPSMT-73" transform="translate(325.048828 0)"/>
      </g>
     </g>
    </g>
    <g id="xtick_3">
     <g id="line2d_3">
      <g>
       <use xlink:href="#m73c8321390" x="191.591315" y="229.802719" style="stroke: #000000; stroke-width: 0.8"/>
      </g>
     </g>
     <g id="text_3">
      <!-- 32 GPUs -->
      <g transform="translate(178.852409 241.663344) scale(0.07 -0.07)">
       <defs>
        <path id="TimesNewRomanPSMT-33" d="M 325 3431 
Q 506 3859 782 4092 
Q 1059 4325 1472 4325 
Q 1981 4325 2253 3994 
Q 2459 3747 2459 3466 
Q 2459 3003 1878 2509 
Q 2269 2356 2469 2072 
Q 2669 1788 2669 1403 
Q 2669 853 2319 450 
Q 1863 -75 997 -75 
Q 569 -75 414 31 
Q 259 138 259 259 
Q 259 350 332 419 
Q 406 488 509 488 
Q 588 488 669 463 
Q 722 447 909 348 
Q 1097 250 1169 231 
Q 1284 197 1416 197 
Q 1734 197 1970 444 
Q 2206 691 2206 1028 
Q 2206 1275 2097 1509 
Q 2016 1684 1919 1775 
Q 1784 1900 1550 2001 
Q 1316 2103 1072 2103 
L 972 2103 
L 972 2197 
Q 1219 2228 1467 2375 
Q 1716 2522 1828 2728 
Q 1941 2934 1941 3181 
Q 1941 3503 1739 3701 
Q 1538 3900 1238 3900 
Q 753 3900 428 3381 
L 325 3431 
z
" transform="scale(0.015625)"/>
        <path id="TimesNewRomanPSMT-32" d="M 2934 816 
L 2638 0 
L 138 0 
L 138 116 
Q 1241 1122 1691 1759 
Q 2141 2397 2141 2925 
Q 2141 3328 1894 3587 
Q 1647 3847 1303 3847 
Q 991 3847 742 3664 
Q 494 3481 375 3128 
L 259 3128 
Q 338 3706 661 4015 
Q 984 4325 1469 4325 
Q 1984 4325 2329 3994 
Q 2675 3663 2675 3213 
Q 2675 2891 2525 2569 
Q 2294 2063 1775 1497 
Q 997 647 803 472 
L 1909 472 
Q 2247 472 2383 497 
Q 2519 522 2628 598 
Q 2738 675 2819 816 
L 2934 816 
z
" transform="scale(0.015625)"/>
       </defs>
       <use xlink:href="#TimesNewRomanPSMT-33"/>
       <use xlink:href="#TimesNewRomanPSMT-32" transform="translate(50 0)"/>
       <use xlink:href="#TimesNewRomanPSMT-20" transform="translate(100 0)"/>
       <use xlink:href="#TimesNewRomanPSMT-47" transform="translate(125 0)"/>
       <use xlink:href="#TimesNewRomanPSMT-50" transform="translate(197.216797 0)"/>
       <use xlink:href="#TimesNewRomanPSMT-55" transform="translate(252.832031 0)"/>
       <use xlink:href="#TimesNewRomanPSMT-73" transform="translate(325.048828 0)"/>
      </g>
     </g>
    </g>
    <g id="xtick_4">
     <g id="line2d_4">
      <g>
       <use xlink:href="#m73c8321390" x="250.471185" y="229.802719" style="stroke: #000000; stroke-width: 0.8"/>
      </g>
     </g>
     <g id="text_4">
      <!-- 64 GPUs -->
      <g transform="translate(237.732279 241.663344) scale(0.07 -0.07)">
       <defs>
        <path id="TimesNewRomanPSMT-34" d="M 2978 1563 
L 2978 1119 
L 2409 1119 
L 2409 0 
L 1894 0 
L 1894 1119 
L 100 1119 
L 100 1519 
L 2066 4325 
L 2409 4325 
L 2409 1563 
L 2978 1563 
z
M 1894 1563 
L 1894 3666 
L 406 1563 
L 1894 1563 
z
" transform="scale(0.015625)"/>
       </defs>
       <use xlink:href="#TimesNewRomanPSMT-36"/>
       <use xlink:href="#TimesNewRomanPSMT-34" transform="translate(50 0)"/>
       <use xlink:href="#TimesNewRomanPSMT-20" transform="translate(100 0)"/>
       <use xlink:href="#TimesNewRomanPSMT-47" transform="translate(125 0)"/>
       <use xlink:href="#TimesNewRomanPSMT-50" transform="translate(197.216797 0)"/>
       <use xlink:href="#TimesNewRomanPSMT-55" transform="translate(252.832031 0)"/>
       <use xlink:href="#TimesNewRomanPSMT-73" transform="translate(325.048828 0)"/>
      </g>
     </g>
    </g>
    <g id="xtick_5">
     <g id="line2d_5">
      <g>
       <use xlink:href="#m73c8321390" x="309.351055" y="229.802719" style="stroke: #000000; stroke-width: 0.8"/>
      </g>
     </g>
     <g id="text_5">
      <!-- 128 GPUs -->
      <g transform="translate(294.862149 241.663344) scale(0.07 -0.07)">
       <use xlink:href="#TimesNewRomanPSMT-31"/>
       <use xlink:href="#TimesNewRomanPSMT-32" transform="translate(50 0)"/>
       <use xlink:href="#TimesNewRomanPSMT-38" transform="translate(100 0)"/>
       <use xlink:href="#TimesNewRomanPSMT-20" transform="translate(150 0)"/>
       <use xlink:href="#TimesNewRomanPSMT-47" transform="translate(175 0)"/>
       <use xlink:href="#TimesNewRomanPSMT-50" transform="translate(247.216797 0)"/>
       <use xlink:href="#TimesNewRomanPSMT-55" transform="translate(302.832031 0)"/>
       <use xlink:href="#TimesNewRomanPSMT-73" transform="translate(375.048828 0)"/>
      </g>
     </g>
    </g>
    <g id="xtick_6">
     <g id="line2d_6">
      <g>
       <use xlink:href="#m73c8321390" x="368.230925" y="229.802719" style="stroke: #000000; stroke-width: 0.8"/>
      </g>
     </g>
     <g id="text_6">
      <!-- 256 GPUs -->
      <g transform="translate(353.742019 241.663344) scale(0.07 -0.07)">
       <defs>
        <path id="TimesNewRomanPSMT-35" d="M 2778 4238 
L 2534 3706 
L 1259 3706 
L 981 3138 
Q 1809 3016 2294 2522 
Q 2709 2097 2709 1522 
Q 2709 1188 2573 903 
Q 2438 619 2231 419 
Q 2025 219 1772 97 
Q 1413 -75 1034 -75 
Q 653 -75 479 54 
Q 306 184 306 341 
Q 306 428 378 495 
Q 450 563 559 563 
Q 641 563 702 538 
Q 763 513 909 409 
Q 1144 247 1384 247 
Q 1750 247 2026 523 
Q 2303 800 2303 1197 
Q 2303 1581 2056 1914 
Q 1809 2247 1375 2428 
Q 1034 2569 447 2591 
L 1259 4238 
L 2778 4238 
z
" transform="scale(0.015625)"/>
       </defs>
       <use xlink:href="#TimesNewRomanPSMT-32"/>
       <use xlink:href="#TimesNewRomanPSMT-35" transform="translate(50 0)"/>
       <use xlink:href="#TimesNewRomanPSMT-36" transform="translate(100 0)"/>
       <use xlink:href="#TimesNewRomanPSMT-20" transform="translate(150 0)"/>
       <use xlink:href="#TimesNewRomanPSMT-47" transform="translate(175 0)"/>
       <use xlink:href="#TimesNewRomanPSMT-50" transform="translate(247.216797 0)"/>
       <use xlink:href="#TimesNewRomanPSMT-55" transform="translate(302.832031 0)"/>
       <use xlink:href="#TimesNewRomanPSMT-73" transform="translate(375.048828 0)"/>
      </g>
     </g>
    </g>
    <g id="text_7">
     <!-- Training Fleet Size -->
     <g transform="translate(190.513125 252.715687) scale(0.08 -0.08)">
      <defs>
       <path id="TimesNewRomanPSMT-54" d="M 3703 4238 
L 3750 3244 
L 3631 3244 
Q 3597 3506 3538 3619 
Q 3441 3800 3280 3886 
Q 3119 3972 2856 3972 
L 2259 3972 
L 2259 734 
Q 2259 344 2344 247 
Q 2463 116 2709 116 
L 2856 116 
L 2856 0 
L 1059 0 
L 1059 116 
L 1209 116 
Q 1478 116 1591 278 
Q 1659 378 1659 734 
L 1659 3972 
L 1150 3972 
Q 853 3972 728 3928 
Q 566 3869 450 3700 
Q 334 3531 313 3244 
L 194 3244 
L 244 4238 
L 3703 4238 
z
" transform="scale(0.015625)"/>
       <path id="TimesNewRomanPSMT-72" d="M 1038 2947 
L 1038 2303 
Q 1397 2947 1775 2947 
Q 1947 2947 2059 2842 
Q 2172 2738 2172 2600 
Q 2172 2478 2090 2393 
Q 2009 2309 1897 2309 
Q 1788 2309 1652 2417 
Q 1516 2525 1450 2525 
Q 1394 2525 1328 2463 
Q 1188 2334 1038 2041 
L 1038 669 
Q 1038 431 1097 309 
Q 1138 225 1241 169 
Q 1344 113 1538 113 
L 1538 0 
L 72 0 
L 72 113 
Q 291 113 397 181 
Q 475 231 506 341 
Q 522 394 522 644 
L 522 1753 
Q 522 2253 501 2348 
Q 481 2444 426 2487 
Q 372 2531 291 2531 
Q 194 2531 72 2484 
L 41 2597 
L 906 2947 
L 1038 2947 
z
" transform="scale(0.015625)"/>
       <path id="TimesNewRomanPSMT-61" d="M 1822 413 
Q 1381 72 1269 19 
Q 1100 -59 909 -59 
Q 613 -59 420 144 
Q 228 347 228 678 
Q 228 888 322 1041 
Q 450 1253 767 1440 
Q 1084 1628 1822 1897 
L 1822 2009 
Q 1822 2438 1686 2597 
Q 1550 2756 1291 2756 
Q 1094 2756 978 2650 
Q 859 2544 859 2406 
L 866 2225 
Q 866 2081 792 2003 
Q 719 1925 600 1925 
Q 484 1925 411 2006 
Q 338 2088 338 2228 
Q 338 2497 613 2722 
Q 888 2947 1384 2947 
Q 1766 2947 2009 2819 
Q 2194 2722 2281 2516 
Q 2338 2381 2338 1966 
L 2338 994 
Q 2338 584 2353 492 
Q 2369 400 2405 369 
Q 2441 338 2488 338 
Q 2538 338 2575 359 
Q 2641 400 2828 588 
L 2828 413 
Q 2478 -56 2159 -56 
Q 2006 -56 1915 50 
Q 1825 156 1822 413 
z
M 1822 616 
L 1822 1706 
Q 1350 1519 1213 1441 
Q 966 1303 859 1153 
Q 753 1003 753 825 
Q 753 600 887 451 
Q 1022 303 1197 303 
Q 1434 303 1822 616 
z
" transform="scale(0.015625)"/>
       <path id="TimesNewRomanPSMT-69" d="M 928 4444 
Q 1059 4444 1151 4351 
Q 1244 4259 1244 4128 
Q 1244 3997 1151 3903 
Q 1059 3809 928 3809 
Q 797 3809 703 3903 
Q 609 3997 609 4128 
Q 609 4259 701 4351 
Q 794 4444 928 4444 
z
M 1188 2947 
L 1188 647 
Q 1188 378 1227 289 
Q 1266 200 1342 156 
Q 1419 113 1622 113 
L 1622 0 
L 231 0 
L 231 113 
Q 441 113 512 153 
Q 584 194 626 287 
Q 669 381 669 647 
L 669 1750 
Q 669 2216 641 2353 
Q 619 2453 572 2492 
Q 525 2531 444 2531 
Q 356 2531 231 2484 
L 188 2597 
L 1050 2947 
L 1188 2947 
z
" transform="scale(0.015625)"/>
       <path id="TimesNewRomanPSMT-6e" d="M 1034 2341 
Q 1538 2947 1994 2947 
Q 2228 2947 2397 2830 
Q 2566 2713 2666 2444 
Q 2734 2256 2734 1869 
L 2734 647 
Q 2734 375 2778 278 
Q 2813 200 2889 156 
Q 2966 113 3172 113 
L 3172 0 
L 1756 0 
L 1756 113 
L 1816 113 
Q 2016 113 2095 173 
Q 2175 234 2206 353 
Q 2219 400 2219 647 
L 2219 1819 
Q 2219 2209 2117 2386 
Q 2016 2563 1775 2563 
Q 1403 2563 1034 2156 
L 1034 647 
Q 1034 356 1069 288 
Q 1113 197 1189 155 
Q 1266 113 1500 113 
L 1500 0 
L 84 0 
L 84 113 
L 147 113 
Q 366 113 442 223 
Q 519 334 519 647 
L 519 1709 
Q 519 2225 495 2337 
Q 472 2450 423 2490 
Q 375 2531 294 2531 
Q 206 2531 84 2484 
L 38 2597 
L 900 2947 
L 1034 2947 
L 1034 2341 
z
" transform="scale(0.015625)"/>
       <path id="TimesNewRomanPSMT-67" d="M 966 1044 
Q 703 1172 562 1401 
Q 422 1631 422 1909 
Q 422 2334 742 2640 
Q 1063 2947 1563 2947 
Q 1972 2947 2272 2747 
L 2878 2747 
Q 3013 2747 3034 2739 
Q 3056 2731 3066 2713 
Q 3084 2684 3084 2613 
Q 3084 2531 3069 2500 
Q 3059 2484 3036 2475 
Q 3013 2466 2878 2466 
L 2506 2466 
Q 2681 2241 2681 1891 
Q 2681 1491 2375 1206 
Q 2069 922 1553 922 
Q 1341 922 1119 984 
Q 981 866 932 777 
Q 884 688 884 625 
Q 884 572 936 522 
Q 988 472 1138 450 
Q 1225 438 1575 428 
Q 2219 413 2409 384 
Q 2700 344 2873 169 
Q 3047 -6 3047 -263 
Q 3047 -616 2716 -925 
Q 2228 -1381 1444 -1381 
Q 841 -1381 425 -1109 
Q 191 -953 191 -784 
Q 191 -709 225 -634 
Q 278 -519 444 -313 
Q 466 -284 763 25 
Q 600 122 533 198 
Q 466 275 466 372 
Q 466 481 555 628 
Q 644 775 966 1044 
z
M 1509 2797 
Q 1278 2797 1122 2612 
Q 966 2428 966 2047 
Q 966 1553 1178 1281 
Q 1341 1075 1591 1075 
Q 1828 1075 1981 1253 
Q 2134 1431 2134 1813 
Q 2134 2309 1919 2591 
Q 1759 2797 1509 2797 
z
M 934 0 
Q 788 -159 713 -296 
Q 638 -434 638 -550 
Q 638 -700 819 -813 
Q 1131 -1006 1722 -1006 
Q 2284 -1006 2551 -807 
Q 2819 -609 2819 -384 
Q 2819 -222 2659 -153 
Q 2497 -84 2016 -72 
Q 1313 -53 934 0 
z
" transform="scale(0.015625)"/>
       <path id="TimesNewRomanPSMT-46" d="M 1309 4006 
L 1309 2341 
L 2081 2341 
Q 2347 2341 2470 2458 
Q 2594 2575 2634 2922 
L 2750 2922 
L 2750 1488 
L 2634 1488 
Q 2631 1734 2570 1850 
Q 2509 1966 2401 2023 
Q 2294 2081 2081 2081 
L 1309 2081 
L 1309 750 
Q 1309 428 1350 325 
Q 1381 247 1481 191 
Q 1619 116 1769 116 
L 1922 116 
L 1922 0 
L 103 0 
L 103 116 
L 253 116 
Q 516 116 634 269 
Q 709 369 709 750 
L 709 3488 
Q 709 3809 669 3913 
Q 638 3991 541 4047 
Q 406 4122 253 4122 
L 103 4122 
L 103 4238 
L 3256 4238 
L 3297 3306 
L 3188 3306 
Q 3106 3603 2998 3742 
Q 2891 3881 2733 3943 
Q 2575 4006 2244 4006 
L 1309 4006 
z
" transform="scale(0.015625)"/>
       <path id="TimesNewRomanPSMT-6c" d="M 1184 4444 
L 1184 647 
Q 1184 378 1223 290 
Q 1263 203 1344 158 
Q 1425 113 1647 113 
L 1647 0 
L 244 0 
L 244 113 
Q 441 113 512 153 
Q 584 194 625 287 
Q 666 381 666 647 
L 666 3247 
Q 666 3731 644 3842 
Q 622 3953 573 3993 
Q 525 4034 450 4034 
Q 369 4034 244 3984 
L 191 4094 
L 1044 4444 
L 1184 4444 
z
" transform="scale(0.015625)"/>
       <path id="TimesNewRomanPSMT-65" d="M 681 1784 
Q 678 1147 991 784 
Q 1303 422 1725 422 
Q 2006 422 2214 576 
Q 2422 731 2563 1106 
L 2659 1044 
Q 2594 616 2278 264 
Q 1963 -88 1488 -88 
Q 972 -88 605 314 
Q 238 716 238 1394 
Q 238 2128 614 2539 
Q 991 2950 1559 2950 
Q 2041 2950 2350 2633 
Q 2659 2316 2659 1784 
L 681 1784 
z
M 681 1966 
L 2006 1966 
Q 1991 2241 1941 2353 
Q 1863 2528 1708 2628 
Q 1553 2728 1384 2728 
Q 1125 2728 920 2526 
Q 716 2325 681 1966 
z
" transform="scale(0.015625)"/>
       <path id="TimesNewRomanPSMT-74" d="M 1031 3803 
L 1031 2863 
L 1700 2863 
L 1700 2644 
L 1031 2644 
L 1031 788 
Q 1031 509 1111 412 
Q 1191 316 1316 316 
Q 1419 316 1516 380 
Q 1613 444 1666 569 
L 1788 569 
Q 1678 263 1478 108 
Q 1278 -47 1066 -47 
Q 922 -47 784 33 
Q 647 113 581 261 
Q 516 409 516 719 
L 516 2644 
L 63 2644 
L 63 2747 
Q 234 2816 414 2980 
Q 594 3144 734 3369 
Q 806 3488 934 3803 
L 1031 3803 
z
" transform="scale(0.015625)"/>
       <path id="TimesNewRomanPSMT-53" d="M 2934 4334 
L 2934 2869 
L 2819 2869 
Q 2763 3291 2617 3541 
Q 2472 3791 2203 3937 
Q 1934 4084 1647 4084 
Q 1322 4084 1109 3886 
Q 897 3688 897 3434 
Q 897 3241 1031 3081 
Q 1225 2847 1953 2456 
Q 2547 2138 2764 1967 
Q 2981 1797 3098 1565 
Q 3216 1334 3216 1081 
Q 3216 600 2842 251 
Q 2469 -97 1881 -97 
Q 1697 -97 1534 -69 
Q 1438 -53 1133 45 
Q 828 144 747 144 
Q 669 144 623 97 
Q 578 50 556 -97 
L 441 -97 
L 441 1356 
L 556 1356 
Q 638 900 775 673 
Q 913 447 1195 297 
Q 1478 147 1816 147 
Q 2206 147 2432 353 
Q 2659 559 2659 841 
Q 2659 997 2573 1156 
Q 2488 1316 2306 1453 
Q 2184 1547 1640 1851 
Q 1097 2156 867 2337 
Q 638 2519 519 2737 
Q 400 2956 400 3219 
Q 400 3675 750 4004 
Q 1100 4334 1641 4334 
Q 1978 4334 2356 4169 
Q 2531 4091 2603 4091 
Q 2684 4091 2736 4139 
Q 2788 4188 2819 4334 
L 2934 4334 
z
" transform="scale(0.015625)"/>
       <path id="TimesNewRomanPSMT-7a" d="M 2688 878 
L 2653 0 
L 128 0 
L 128 113 
L 2028 2644 
L 1091 2644 
Q 788 2644 694 2605 
Q 600 2566 541 2456 
Q 456 2300 444 2069 
L 319 2069 
L 338 2863 
L 2738 2863 
L 2738 2747 
L 819 209 
L 1863 209 
Q 2191 209 2308 264 
Q 2425 319 2497 456 
Q 2547 556 2581 878 
L 2688 878 
z
" transform="scale(0.015625)"/>
      </defs>
      <use xlink:href="#TimesNewRomanPSMT-54"/>
      <use xlink:href="#TimesNewRomanPSMT-72" transform="translate(57.583984 0)"/>
      <use xlink:href="#TimesNewRomanPSMT-61" transform="translate(90.884766 0)"/>
      <use xlink:href="#TimesNewRomanPSMT-69" transform="translate(135.269531 0)"/>
      <use xlink:href="#TimesNewRomanPSMT-6e" transform="translate(163.052734 0)"/>
      <use xlink:href="#TimesNewRomanPSMT-69" transform="translate(213.052734 0)"/>
      <use xlink:href="#TimesNewRomanPSMT-6e" transform="translate(240.835938 0)"/>
      <use xlink:href="#TimesNewRomanPSMT-67" transform="translate(290.835938 0)"/>
      <use xlink:href="#TimesNewRomanPSMT-20" transform="translate(340.835938 0)"/>
      <use xlink:href="#TimesNewRomanPSMT-46" transform="translate(365.835938 0)"/>
      <use xlink:href="#TimesNewRomanPSMT-6c" transform="translate(421.451172 0)"/>
      <use xlink:href="#TimesNewRomanPSMT-65" transform="translate(449.234375 0)"/>
      <use xlink:href="#TimesNewRomanPSMT-65" transform="translate(493.619141 0)"/>
      <use xlink:href="#TimesNewRomanPSMT-74" transform="translate(538.003906 0)"/>
      <use xlink:href="#TimesNewRomanPSMT-20" transform="translate(565.787109 0)"/>
      <use xlink:href="#TimesNewRomanPSMT-53" transform="translate(590.787109 0)"/>
      <use xlink:href="#TimesNewRomanPSMT-69" transform="translate(646.402344 0)"/>
      <use xlink:href="#TimesNewRomanPSMT-7a" transform="translate(674.185547 0)"/>
      <use xlink:href="#TimesNewRomanPSMT-65" transform="translate(718.570312 0)"/>
     </g>
    </g>
   </g>
   <g id="matplotlib.axis_2">
    <g id="ytick_1">
     <g id="line2d_7">
      <path d="M 39.68125 229.802719 
L 402.38125 229.802719 
" clip-path="url(#p555996e5f4)" style="fill: none; stroke: #e2e8f0; stroke-opacity: 0.3; stroke-width: 0.8; stroke-linecap: square"/>
     </g>
     <g id="line2d_8">
      <defs>
       <path id="mb8d4f013e6" d="M 0 0 
L -3.5 0 
" style="stroke: #000000; stroke-width: 0.8"/>
      </defs>
      <g>
       <use xlink:href="#mb8d4f013e6" x="39.68125" y="229.802719" style="stroke: #000000; stroke-width: 0.8"/>
      </g>
     </g>
     <g id="text_8">
      <!-- 0 -->
      <g transform="translate(29.18125 232.233031) scale(0.07 -0.07)">
       <defs>
        <path id="TimesNewRomanPSMT-30" d="M 231 2094 
Q 231 2819 450 3342 
Q 669 3866 1031 4122 
Q 1313 4325 1613 4325 
Q 2100 4325 2488 3828 
Q 2972 3213 2972 2159 
Q 2972 1422 2759 906 
Q 2547 391 2217 158 
Q 1888 -75 1581 -75 
Q 975 -75 572 641 
Q 231 1244 231 2094 
z
M 844 2016 
Q 844 1141 1059 588 
Q 1238 122 1591 122 
Q 1759 122 1940 273 
Q 2122 425 2216 781 
Q 2359 1319 2359 2297 
Q 2359 3022 2209 3506 
Q 2097 3866 1919 4016 
Q 1791 4119 1609 4119 
Q 1397 4119 1231 3928 
Q 1006 3669 925 3112 
Q 844 2556 844 2016 
z
" transform="scale(0.015625)"/>
       </defs>
       <use xlink:href="#TimesNewRomanPSMT-30"/>
      </g>
     </g>
    </g>
    <g id="ytick_2">
     <g id="line2d_9">
      <path d="M 39.68125 191.860002 
L 402.38125 191.860002 
" clip-path="url(#p555996e5f4)" style="fill: none; stroke: #e2e8f0; stroke-opacity: 0.3; stroke-width: 0.8; stroke-linecap: square"/>
     </g>
     <g id="line2d_10">
      <g>
       <use xlink:href="#mb8d4f013e6" x="39.68125" y="191.860002" style="stroke: #000000; stroke-width: 0.8"/>
      </g>
     </g>
     <g id="text_9">
      <!-- 10 -->
      <g transform="translate(25.68125 194.290315) scale(0.07 -0.07)">
       <use xlink:href="#TimesNewRomanPSMT-31"/>
       <use xlink:href="#TimesNewRomanPSMT-30" transform="translate(50 0)"/>
      </g>
     </g>
    </g>
    <g id="ytick_3">
     <g id="line2d_11">
      <path d="M 39.68125 153.917286 
L 402.38125 153.917286 
" clip-path="url(#p555996e5f4)" style="fill: none; stroke: #e2e8f0; stroke-opacity: 0.3; stroke-width: 0.8; stroke-linecap: square"/>
     </g>
     <g id="line2d_12">
      <g>
       <use xlink:href="#mb8d4f013e6" x="39.68125" y="153.917286" style="stroke: #000000; stroke-width: 0.8"/>
      </g>
     </g>
     <g id="text_10">
      <!-- 20 -->
      <g transform="translate(25.68125 156.347599) scale(0.07 -0.07)">
       <use xlink:href="#TimesNewRomanPSMT-32"/>
       <use xlink:href="#TimesNewRomanPSMT-30" transform="translate(50 0)"/>
      </g>
     </g>
    </g>
    <g id="ytick_4">
     <g id="line2d_13">
      <path d="M 39.68125 115.97457 
L 402.38125 115.97457 
" clip-path="url(#p555996e5f4)" style="fill: none; stroke: #e2e8f0; stroke-opacity: 0.3; stroke-width: 0.8; stroke-linecap: square"/>
     </g>
     <g id="line2d_14">
      <g>
       <use xlink:href="#mb8d4f013e6" x="39.68125" y="115.97457" style="stroke: #000000; stroke-width: 0.8"/>
      </g>
     </g>
     <g id="text_11">
      <!-- 30 -->
      <g transform="translate(25.68125 118.404882) scale(0.07 -0.07)">
       <use xlink:href="#TimesNewRomanPSMT-33"/>
       <use xlink:href="#TimesNewRomanPSMT-30" transform="translate(50 0)"/>
      </g>
     </g>
    </g>
    <g id="ytick_5">
     <g id="line2d_15">
      <path d="M 39.68125 78.031853 
L 402.38125 78.031853 
" clip-path="url(#p555996e5f4)" style="fill: none; stroke: #e2e8f0; stroke-opacity: 0.3; stroke-width: 0.8; stroke-linecap: square"/>
     </g>
     <g id="line2d_16">
      <g>
       <use xlink:href="#mb8d4f013e6" x="39.68125" y="78.031853" style="stroke: #000000; stroke-width: 0.8"/>
      </g>
     </g>
     <g id="text_12">
      <!-- 40 -->
      <g transform="translate(25.68125 80.462166) scale(0.07 -0.07)">
       <use xlink:href="#TimesNewRomanPSMT-34"/>
       <use xlink:href="#TimesNewRomanPSMT-30" transform="translate(50 0)"/>
      </g>
     </g>
    </g>
    <g id="ytick_6">
     <g id="line2d_17">
      <path d="M 39.68125 40.089137 
L 402.38125 40.089137 
" clip-path="url(#p555996e5f4)" style="fill: none; stroke: #e2e8f0; stroke-opacity: 0.3; stroke-width: 0.8; stroke-linecap: square"/>
     </g>
     <g id="line2d_18">
      <g>
       <use xlink:href="#mb8d4f013e6" x="39.68125" y="40.089137" style="stroke: #000000; stroke-width: 0.8"/>
      </g>
     </g>
     <g id="text_13">
      <!-- 50 -->
      <g transform="translate(25.68125 42.519449) scale(0.07 -0.07)">
       <use xlink:href="#TimesNewRomanPSMT-35"/>
       <use xlink:href="#TimesNewRomanPSMT-30" transform="translate(50 0)"/>
      </g>
     </g>
    </g>
    <g id="text_14">
     <!-- GPU-Equivalents Wasted per Straggler -->
     <g transform="translate(19.955 195.375844) rotate(-90) scale(0.08 -0.08)">
      <defs>
       <path id="TimesNewRomanPSMT-2d" d="M 259 1672 
L 1875 1672 
L 1875 1200 
L 259 1200 
L 259 1672 
z
" transform="scale(0.015625)"/>
       <path id="TimesNewRomanPSMT-45" d="M 1338 4006 
L 1338 2331 
L 2269 2331 
Q 2631 2331 2753 2441 
Q 2916 2584 2934 2947 
L 3050 2947 
L 3050 1472 
L 2934 1472 
Q 2891 1781 2847 1869 
Q 2791 1978 2662 2040 
Q 2534 2103 2269 2103 
L 1338 2103 
L 1338 706 
Q 1338 425 1363 364 
Q 1388 303 1450 267 
Q 1513 231 1688 231 
L 2406 231 
Q 2766 231 2928 281 
Q 3091 331 3241 478 
Q 3434 672 3638 1063 
L 3763 1063 
L 3397 0 
L 131 0 
L 131 116 
L 281 116 
Q 431 116 566 188 
Q 666 238 702 338 
Q 738 438 738 747 
L 738 3500 
Q 738 3903 656 3997 
Q 544 4122 281 4122 
L 131 4122 
L 131 4238 
L 3397 4238 
L 3444 3309 
L 3322 3309 
Q 3256 3644 3176 3769 
Q 3097 3894 2941 3959 
Q 2816 4006 2500 4006 
L 1338 4006 
z
" transform="scale(0.015625)"/>
       <path id="TimesNewRomanPSMT-71" d="M 2734 2947 
L 2734 -734 
Q 2734 -1009 2771 -1087 
Q 2809 -1166 2889 -1209 
Q 2969 -1253 3200 -1253 
L 3200 -1369 
L 1756 -1369 
L 1756 -1253 
L 1816 -1253 
Q 1991 -1253 2081 -1203 
Q 2144 -1169 2181 -1080 
Q 2219 -991 2219 -734 
L 2219 497 
Q 1934 159 1721 35 
Q 1509 -88 1281 -88 
Q 866 -88 539 290 
Q 213 669 213 1303 
Q 213 2031 644 2489 
Q 1075 2947 1684 2947 
Q 1863 2947 2013 2897 
Q 2163 2847 2281 2747 
Q 2463 2834 2628 2947 
L 2734 2947 
z
M 2219 694 
L 2219 2038 
Q 2219 2272 2158 2406 
Q 2097 2541 1940 2634 
Q 1784 2728 1588 2728 
Q 1238 2728 988 2431 
Q 738 2134 738 1531 
Q 738 953 992 653 
Q 1247 353 1606 353 
Q 1791 353 1934 433 
Q 2078 513 2219 694 
z
" transform="scale(0.015625)"/>
       <path id="TimesNewRomanPSMT-75" d="M 2709 2863 
L 2709 1128 
Q 2709 631 2732 520 
Q 2756 409 2807 365 
Q 2859 322 2928 322 
Q 3025 322 3147 375 
L 3191 266 
L 2334 -88 
L 2194 -88 
L 2194 519 
Q 1825 119 1631 15 
Q 1438 -88 1222 -88 
Q 981 -88 804 51 
Q 628 191 559 409 
Q 491 628 491 1028 
L 491 2306 
Q 491 2509 447 2587 
Q 403 2666 317 2708 
Q 231 2750 6 2747 
L 6 2863 
L 1009 2863 
L 1009 947 
Q 1009 547 1148 422 
Q 1288 297 1484 297 
Q 1619 297 1789 381 
Q 1959 466 2194 703 
L 2194 2325 
Q 2194 2569 2105 2655 
Q 2016 2741 1734 2747 
L 1734 2863 
L 2709 2863 
z
" transform="scale(0.015625)"/>
       <path id="TimesNewRomanPSMT-76" d="M 53 2863 
L 1400 2863 
L 1400 2747 
L 1313 2747 
Q 1191 2747 1127 2687 
Q 1063 2628 1063 2528 
Q 1063 2419 1128 2269 
L 1794 688 
L 2463 2328 
Q 2534 2503 2534 2594 
Q 2534 2638 2509 2666 
Q 2475 2713 2422 2730 
Q 2369 2747 2206 2747 
L 2206 2863 
L 3141 2863 
L 3141 2747 
Q 2978 2734 2916 2681 
Q 2806 2588 2719 2369 
L 1703 -88 
L 1575 -88 
L 553 2328 
Q 484 2497 421 2570 
Q 359 2644 263 2694 
Q 209 2722 53 2747 
L 53 2863 
z
" transform="scale(0.015625)"/>
       <path id="TimesNewRomanPSMT-57" d="M 5991 4238 
L 5991 4122 
Q 5825 4122 5722 4062 
Q 5619 4003 5525 3841 
Q 5463 3731 5328 3319 
L 4147 -97 
L 4022 -97 
L 3056 2613 
L 2097 -97 
L 1984 -97 
L 725 3422 
Q 584 3816 547 3888 
Q 484 4006 376 4064 
Q 269 4122 84 4122 
L 84 4238 
L 1653 4238 
L 1653 4122 
L 1578 4122 
Q 1413 4122 1325 4047 
Q 1238 3972 1238 3866 
Q 1238 3756 1375 3363 
L 2209 984 
L 2913 3006 
L 2788 3363 
L 2688 3647 
Q 2622 3803 2541 3922 
Q 2500 3981 2441 4022 
Q 2363 4078 2284 4103 
Q 2225 4122 2097 4122 
L 2097 4238 
L 3747 4238 
L 3747 4122 
L 3634 4122 
Q 3459 4122 3378 4047 
Q 3297 3972 3297 3844 
Q 3297 3684 3438 3288 
L 4250 984 
L 5056 3319 
Q 5194 3706 5194 3856 
Q 5194 3928 5148 3990 
Q 5103 4053 5034 4078 
Q 4916 4122 4725 4122 
L 4725 4238 
L 5991 4238 
z
" transform="scale(0.015625)"/>
       <path id="TimesNewRomanPSMT-64" d="M 2222 322 
Q 2013 103 1813 7 
Q 1613 -88 1381 -88 
Q 913 -88 563 304 
Q 213 697 213 1313 
Q 213 1928 600 2439 
Q 988 2950 1597 2950 
Q 1975 2950 2222 2709 
L 2222 3238 
Q 2222 3728 2198 3840 
Q 2175 3953 2125 3993 
Q 2075 4034 2000 4034 
Q 1919 4034 1784 3984 
L 1744 4094 
L 2597 4444 
L 2738 4444 
L 2738 1134 
Q 2738 631 2761 520 
Q 2784 409 2836 365 
Q 2888 322 2956 322 
Q 3041 322 3181 375 
L 3216 266 
L 2366 -88 
L 2222 -88 
L 2222 322 
z
M 2222 541 
L 2222 2016 
Q 2203 2228 2109 2403 
Q 2016 2578 1861 2667 
Q 1706 2756 1559 2756 
Q 1284 2756 1069 2509 
Q 784 2184 784 1559 
Q 784 928 1059 592 
Q 1334 256 1672 256 
Q 1956 256 2222 541 
z
" transform="scale(0.015625)"/>
       <path id="TimesNewRomanPSMT-70" d="M -6 2578 
L 875 2934 
L 994 2934 
L 994 2266 
Q 1216 2644 1439 2795 
Q 1663 2947 1909 2947 
Q 2341 2947 2628 2609 
Q 2981 2197 2981 1534 
Q 2981 794 2556 309 
Q 2206 -88 1675 -88 
Q 1444 -88 1275 -22 
Q 1150 25 994 166 
L 994 -706 
Q 994 -1000 1030 -1079 
Q 1066 -1159 1155 -1206 
Q 1244 -1253 1478 -1253 
L 1478 -1369 
L -22 -1369 
L -22 -1253 
L 56 -1253 
Q 228 -1256 350 -1188 
Q 409 -1153 442 -1076 
Q 475 -1000 475 -688 
L 475 2019 
Q 475 2297 450 2372 
Q 425 2447 370 2484 
Q 316 2522 222 2522 
Q 147 2522 31 2478 
L -6 2578 
z
M 994 2081 
L 994 1013 
Q 994 666 1022 556 
Q 1066 375 1236 237 
Q 1406 100 1666 100 
Q 1978 100 2172 344 
Q 2425 663 2425 1241 
Q 2425 1897 2138 2250 
Q 1938 2494 1663 2494 
Q 1513 2494 1366 2419 
Q 1253 2363 994 2081 
z
" transform="scale(0.015625)"/>
      </defs>
      <use xlink:href="#TimesNewRomanPSMT-47"/>
      <use xlink:href="#TimesNewRomanPSMT-50" transform="translate(72.216797 0)"/>
      <use xlink:href="#TimesNewRomanPSMT-55" transform="translate(127.832031 0)"/>
      <use xlink:href="#TimesNewRomanPSMT-2d" transform="translate(200.048828 0)"/>
      <use xlink:href="#TimesNewRomanPSMT-45" transform="translate(233.349609 0)"/>
      <use xlink:href="#TimesNewRomanPSMT-71" transform="translate(294.433594 0)"/>
      <use xlink:href="#TimesNewRomanPSMT-75" transform="translate(344.433594 0)"/>
      <use xlink:href="#TimesNewRomanPSMT-69" transform="translate(394.433594 0)"/>
      <use xlink:href="#TimesNewRomanPSMT-76" transform="translate(422.216797 0)"/>
      <use xlink:href="#TimesNewRomanPSMT-61" transform="translate(472.216797 0)"/>
      <use xlink:href="#TimesNewRomanPSMT-6c" transform="translate(516.601562 0)"/>
      <use xlink:href="#TimesNewRomanPSMT-65" transform="translate(544.384766 0)"/>
      <use xlink:href="#TimesNewRomanPSMT-6e" transform="translate(588.769531 0)"/>
      <use xlink:href="#TimesNewRomanPSMT-74" transform="translate(638.769531 0)"/>
      <use xlink:href="#TimesNewRomanPSMT-73" transform="translate(666.552734 0)"/>
      <use xlink:href="#TimesNewRomanPSMT-20" transform="translate(705.46875 0)"/>
      <use xlink:href="#TimesNewRomanPSMT-57" transform="translate(728.71875 0)"/>
      <use xlink:href="#TimesNewRomanPSMT-61" transform="translate(815.103516 0)"/>
      <use xlink:href="#TimesNewRomanPSMT-73" transform="translate(859.488281 0)"/>
      <use xlink:href="#TimesNewRomanPSMT-74" transform="translate(898.404297 0)"/>
      <use xlink:href="#TimesNewRomanPSMT-65" transform="translate(926.1875 0)"/>
      <use xlink:href="#TimesNewRomanPSMT-64" transform="translate(970.572266 0)"/>
      <use xlink:href="#TimesNewRomanPSMT-20" transform="translate(1020.572266 0)"/>
      <use xlink:href="#TimesNewRomanPSMT-70" transform="translate(1045.572266 0)"/>
      <use xlink:href="#TimesNewRomanPSMT-65" transform="translate(1095.572266 0)"/>
      <use xlink:href="#TimesNewRomanPSMT-72" transform="translate(1139.957031 0)"/>
      <use xlink:href="#TimesNewRomanPSMT-20" transform="translate(1173.257812 0)"/>
      <use xlink:href="#TimesNewRomanPSMT-53" transform="translate(1198.257812 0)"/>
      <use xlink:href="#TimesNewRomanPSMT-74" transform="translate(1253.873047 0)"/>
      <use xlink:href="#TimesNewRomanPSMT-72" transform="translate(1281.65625 0)"/>
      <use xlink:href="#TimesNewRomanPSMT-61" transform="translate(1314.957031 0)"/>
      <use xlink:href="#TimesNewRomanPSMT-67" transform="translate(1359.341797 0)"/>
      <use xlink:href="#TimesNewRomanPSMT-67" transform="translate(1409.341797 0)"/>
      <use xlink:href="#TimesNewRomanPSMT-6c" transform="translate(1459.341797 0)"/>
      <use xlink:href="#TimesNewRomanPSMT-65" transform="translate(1487.125 0)"/>
      <use xlink:href="#TimesNewRomanPSMT-72" transform="translate(1531.509766 0)"/>
     </g>
    </g>
   </g>
   <g id="patch_3">
    <path d="M 39.68125 229.802719 
L 39.68125 35.762719 
" style="fill: none; stroke: #000000; stroke-width: 0.8; stroke-linejoin: miter; stroke-linecap: square"/>
   </g>
   <g id="patch_4">
    <path d="M 39.68125 229.802719 
L 402.38125 229.802719 
" style="fill: none; stroke: #000000; stroke-width: 0.8; stroke-linejoin: miter; stroke-linecap: square"/>
   </g>
   <g id="patch_5">
    <path d="M 56.167614 229.802719 
L 91.495536 229.802719 
L 91.495536 224.729778 
L 56.167614 224.729778 
z
" clip-path="url(#p555996e5f4)" style="fill: #15803d; opacity: 0.85; stroke: #ffffff; stroke-linejoin: miter"/>
   </g>
   <g id="patch_6">
    <path d="M 115.047484 229.802719 
L 150.375406 229.802719 
L 150.375406 218.932131 
L 115.047484 218.932131 
z
" clip-path="url(#p555996e5f4)" style="fill: #15803d; opacity: 0.85; stroke: #ffffff; stroke-linejoin: miter"/>
   </g>
   <g id="patch_7">
    <path d="M 173.927354 229.802719 
L 209.255276 229.802719 
L 209.255276 207.336836 
L 173.927354 207.336836 
z
" clip-path="url(#p555996e5f4)" style="fill: #15803d; opacity: 0.85; stroke: #ffffff; stroke-linejoin: miter"/>
   </g>
   <g id="patch_8">
    <path d="M 232.807224 229.802719 
L 268.135146 229.802719 
L 268.135146 184.146248 
L 232.807224 184.146248 
z
" clip-path="url(#p555996e5f4)" style="fill: #15803d; opacity: 0.85; stroke: #ffffff; stroke-linejoin: miter"/>
   </g>
   <g id="patch_9">
    <path d="M 291.687094 229.802719 
L 327.015016 229.802719 
L 327.015016 137.765072 
L 291.687094 137.765072 
z
" clip-path="url(#p555996e5f4)" style="fill: #15803d; opacity: 0.85; stroke: #ffffff; stroke-linejoin: miter"/>
   </g>
   <g id="patch_10">
    <path d="M 350.566964 229.802719 
L 385.894886 229.802719 
L 385.894886 45.002719 
L 350.566964 45.002719 
z
" clip-path="url(#p555996e5f4)" style="fill: #15803d; opacity: 0.85; stroke: #ffffff; stroke-linejoin: miter"/>
   </g>
   <g id="text_15">
    <!-- 1.3 -->
    <g style="fill: #15803d" transform="translate(69.456575 221.335298) scale(0.07 -0.07)">
     <defs>
      <path id="TimesNewRomanPS-BoldMT-31" d="M 2084 4325 
L 2084 859 
Q 2084 469 2118 361 
Q 2153 253 2262 184 
Q 2372 116 2613 116 
L 2709 116 
L 2709 0 
L 478 0 
L 478 116 
L 591 116 
Q 863 116 978 178 
Q 1094 241 1134 350 
Q 1175 459 1175 859 
L 1175 3056 
Q 1175 3350 1147 3423 
Q 1119 3497 1042 3548 
Q 966 3600 866 3600 
Q 706 3600 478 3500 
L 422 3613 
L 1981 4325 
L 2084 4325 
z
" transform="scale(0.015625)"/>
      <path id="TimesNewRomanPS-BoldMT-2e" d="M 800 963 
Q 1019 963 1170 809 
Q 1322 656 1322 441 
Q 1322 225 1169 73 
Q 1016 -78 800 -78 
Q 584 -78 432 73 
Q 281 225 281 441 
Q 281 656 432 809 
Q 584 963 800 963 
z
" transform="scale(0.015625)"/>
      <path id="TimesNewRomanPS-BoldMT-33" d="M 947 2125 
L 947 2234 
Q 1303 2338 1440 2427 
Q 1578 2516 1678 2698 
Q 1778 2881 1778 3069 
Q 1778 3328 1589 3514 
Q 1400 3700 1119 3700 
Q 681 3700 375 3238 
L 259 3278 
Q 484 3800 836 4062 
Q 1188 4325 1619 4325 
Q 2059 4325 2345 4056 
Q 2631 3788 2631 3428 
Q 2631 3194 2498 2976 
Q 2366 2759 2081 2594 
Q 2447 2416 2639 2155 
Q 2831 1894 2831 1500 
Q 2831 838 2351 373 
Q 1872 -91 1066 -91 
Q 528 -91 281 88 
Q 103 213 103 409 
Q 103 553 206 654 
Q 309 756 444 756 
Q 547 756 638 713 
Q 688 688 992 439 
Q 1297 191 1563 191 
Q 1794 191 1959 373 
Q 2125 556 2125 838 
Q 2125 1266 1825 1627 
Q 1525 1988 947 2125 
z
" transform="scale(0.015625)"/>
     </defs>
     <use xlink:href="#TimesNewRomanPS-BoldMT-31"/>
     <use xlink:href="#TimesNewRomanPS-BoldMT-2e" transform="translate(50 0)"/>
     <use xlink:href="#TimesNewRomanPS-BoldMT-33" transform="translate(75 0)"/>
    </g>
   </g>
   <g id="text_16">
    <!-- 2.9 -->
    <g style="fill: #15803d" transform="translate(128.336445 215.537651) scale(0.07 -0.07)">
     <defs>
      <path id="TimesNewRomanPS-BoldMT-32" d="M 2650 0 
L 156 0 
L 156 69 
Q 1303 1434 1548 1906 
Q 1794 2378 1794 2828 
Q 1794 3156 1591 3373 
Q 1388 3591 1094 3591 
Q 613 3591 347 3109 
L 231 3150 
Q 400 3750 744 4037 
Q 1088 4325 1538 4325 
Q 1859 4325 2125 4175 
Q 2391 4025 2541 3764 
Q 2691 3503 2691 3275 
Q 2691 2859 2459 2431 
Q 2144 1853 1081 819 
L 1997 819 
Q 2334 819 2436 847 
Q 2538 875 2603 942 
Q 2669 1009 2775 1225 
L 2888 1225 
L 2650 0 
z
" transform="scale(0.015625)"/>
      <path id="TimesNewRomanPS-BoldMT-39" d="M 197 -88 
L 197 0 
Q 716 119 1077 350 
Q 1438 581 1648 922 
Q 1859 1263 1944 1706 
Q 1750 1606 1614 1567 
Q 1478 1528 1328 1528 
Q 847 1528 526 1875 
Q 206 2222 206 2825 
Q 206 3244 379 3592 
Q 553 3941 875 4133 
Q 1197 4325 1544 4325 
Q 1916 4325 2247 4112 
Q 2578 3900 2775 3497 
Q 2972 3094 2972 2578 
Q 2972 1909 2651 1296 
Q 2331 684 1697 314 
Q 1063 -56 197 -88 
z
M 1991 1969 
Q 2022 2319 2022 2584 
Q 2022 3153 1891 3644 
Q 1816 3916 1669 4044 
Q 1591 4113 1466 4113 
Q 1309 4113 1222 3978 
Q 1100 3794 1100 3275 
Q 1100 2409 1306 2081 
Q 1441 1869 1669 1869 
Q 1791 1869 1991 1969 
z
" transform="scale(0.015625)"/>
     </defs>
     <use xlink:href="#TimesNewRomanPS-BoldMT-32"/>
     <use xlink:href="#TimesNewRomanPS-BoldMT-2e" transform="translate(50 0)"/>
     <use xlink:href="#TimesNewRomanPS-BoldMT-39" transform="translate(75 0)"/>
    </g>
   </g>
   <g id="text_17">
    <!-- 5.9 -->
    <g style="fill: #15803d" transform="translate(187.216315 203.942357) scale(0.07 -0.07)">
     <defs>
      <path id="TimesNewRomanPS-BoldMT-35" d="M 975 4238 
L 2959 4238 
L 2644 3431 
L 975 3431 
L 816 3009 
Q 1894 2969 2475 2472 
Q 2953 2063 2953 1453 
Q 2953 1063 2731 689 
Q 2509 316 2106 114 
Q 1703 -88 1222 -88 
Q 703 -88 425 106 
Q 231 244 231 419 
Q 231 553 332 656 
Q 434 759 569 759 
Q 691 759 816 709 
Q 941 659 1244 447 
Q 1434 316 1572 266 
Q 1669 228 1791 228 
Q 2047 228 2226 415 
Q 2406 603 2406 866 
Q 2406 1416 1856 1759 
Q 1306 2103 469 2103 
Q 384 2103 216 2100 
L 975 4238 
z
" transform="scale(0.015625)"/>
     </defs>
     <use xlink:href="#TimesNewRomanPS-BoldMT-35"/>
     <use xlink:href="#TimesNewRomanPS-BoldMT-2e" transform="translate(50 0)"/>
     <use xlink:href="#TimesNewRomanPS-BoldMT-39" transform="translate(75 0)"/>
    </g>
   </g>
   <g id="text_18">
    <!-- 12.0 -->
    <g style="fill: #15803d" transform="translate(244.346185 180.751769) scale(0.07 -0.07)">
     <defs>
      <path id="TimesNewRomanPS-BoldMT-30" d="M 2966 2119 
Q 2966 1484 2788 934 
Q 2681 597 2501 381 
Q 2322 166 2094 39 
Q 1866 -88 1597 -88 
Q 1291 -88 1044 68 
Q 797 225 606 516 
Q 469 728 366 1081 
Q 231 1559 231 2069 
Q 231 2759 425 3338 
Q 584 3816 909 4070 
Q 1234 4325 1597 4325 
Q 1966 4325 2286 4073 
Q 2606 3822 2756 3397 
Q 2966 2813 2966 2119 
z
M 2003 2125 
Q 2003 3238 1991 3422 
Q 1959 3856 1841 4009 
Q 1763 4109 1588 4109 
Q 1453 4109 1375 4034 
Q 1259 3925 1218 3648 
Q 1178 3372 1178 1719 
Q 1178 819 1241 513 
Q 1288 291 1375 216 
Q 1463 141 1606 141 
Q 1763 141 1841 241 
Q 1972 416 1991 781 
L 2003 2125 
z
" transform="scale(0.015625)"/>
     </defs>
     <use xlink:href="#TimesNewRomanPS-BoldMT-31"/>
     <use xlink:href="#TimesNewRomanPS-BoldMT-32" transform="translate(50 0)"/>
     <use xlink:href="#TimesNewRomanPS-BoldMT-2e" transform="translate(100 0)"/>
     <use xlink:href="#TimesNewRomanPS-BoldMT-30" transform="translate(125 0)"/>
    </g>
   </g>
   <g id="text_19">
    <!-- 24.3 -->
    <g style="fill: #15803d" transform="translate(303.226055 134.370592) scale(0.07 -0.07)">
     <defs>
      <path id="TimesNewRomanPS-BoldMT-34" d="M 159 1597 
L 2172 4325 
L 2553 4325 
L 2553 1597 
L 2941 1597 
L 2941 950 
L 2553 950 
L 2553 0 
L 1694 0 
L 1694 950 
L 159 950 
L 159 1597 
z
M 463 1597 
L 1694 1597 
L 1694 3269 
L 463 1597 
z
" transform="scale(0.015625)"/>
     </defs>
     <use xlink:href="#TimesNewRomanPS-BoldMT-32"/>
     <use xlink:href="#TimesNewRomanPS-BoldMT-34" transform="translate(50 0)"/>
     <use xlink:href="#TimesNewRomanPS-BoldMT-2e" transform="translate(100 0)"/>
     <use xlink:href="#TimesNewRomanPS-BoldMT-33" transform="translate(125 0)"/>
    </g>
   </g>
   <g id="text_20">
    <!-- 48.7 -->
    <g style="fill: #15803d" transform="translate(362.105925 41.608239) scale(0.07 -0.07)">
     <defs>
      <path id="TimesNewRomanPS-BoldMT-38" d="M 2181 2394 
Q 2628 2066 2801 1783 
Q 2975 1500 2975 1134 
Q 2975 622 2589 267 
Q 2203 -88 1541 -88 
Q 913 -88 569 221 
Q 225 531 225 978 
Q 225 1319 423 1575 
Q 622 1831 1084 2044 
Q 581 2428 439 2672 
Q 297 2916 297 3238 
Q 297 3663 658 3986 
Q 1019 4309 1647 4309 
Q 2253 4309 2579 4023 
Q 2906 3738 2906 3338 
Q 2906 3038 2729 2808 
Q 2553 2578 2181 2394 
z
M 1944 2553 
Q 2059 2709 2115 2903 
Q 2172 3097 2172 3328 
Q 2172 3734 1997 3950 
Q 1866 4116 1634 4116 
Q 1425 4116 1278 3964 
Q 1131 3813 1131 3588 
Q 1131 3359 1295 3114 
Q 1459 2869 1944 2553 
z
M 1319 1894 
Q 1222 1806 1181 1734 
Q 1119 1625 1069 1415 
Q 1019 1206 1019 978 
Q 1019 684 1094 486 
Q 1169 288 1308 200 
Q 1447 113 1594 113 
Q 1822 113 1978 280 
Q 2134 447 2134 738 
Q 2134 1344 1319 1894 
z
" transform="scale(0.015625)"/>
      <path id="TimesNewRomanPS-BoldMT-37" d="M 1134 -88 
L 2288 3409 
L 1409 3409 
Q 894 3409 634 3275 
Q 453 3181 334 2922 
L 216 2922 
L 522 4238 
L 3047 4238 
L 1625 -88 
L 1134 -88 
z
" transform="scale(0.015625)"/>
     </defs>
     <use xlink:href="#TimesNewRomanPS-BoldMT-34"/>
     <use xlink:href="#TimesNewRomanPS-BoldMT-38" transform="translate(50 0)"/>
     <use xlink:href="#TimesNewRomanPS-BoldMT-2e" transform="translate(100 0)"/>
     <use xlink:href="#TimesNewRomanPS-BoldMT-37" transform="translate(125 0)"/>
    </g>
   </g>
   <g id="patch_11">
    <path d="M 250.036701 106.059032 
Q 273.475172 129.444941 306.088991 137.02198 
" style="fill: none; stroke: #64748b; stroke-width: 1.2; stroke-linecap: round"/>
    <path d="M 303.678447 135.024662 
L 306.088991 137.02198 
L 303.04481 137.752024 
" style="fill: none; stroke: #64748b; stroke-width: 1.2; stroke-linecap: round"/>
   </g>
   <g id="text_21">
    <g id="patch_12">
     <path d="M 203.367289 104.132824 
L 265.581976 104.132824 
Q 268.381976 104.132824 268.381976 101.332824 
L 268.381976 72.971449 
Q 268.381976 70.171449 265.581976 70.171449 
L 203.367289 70.171449 
Q 200.567289 70.171449 200.567289 72.971449 
L 200.567289 101.332824 
Q 200.567289 104.132824 203.367289 104.132824 
z
" style="fill: #e2e8f0; opacity: 0.8; stroke: #64748b; stroke-linejoin: miter"/>
    </g>
    <!-- At 128 GPUs: -->
    <g style="fill: #64748b" transform="translate(203.367289 77.818949) scale(0.07 -0.07)">
     <defs>
      <path id="TimesNewRomanPSMT-41" d="M 2928 1419 
L 1288 1419 
L 1000 750 
Q 894 503 894 381 
Q 894 284 986 211 
Q 1078 138 1384 116 
L 1384 0 
L 50 0 
L 50 116 
Q 316 163 394 238 
Q 553 388 747 847 
L 2238 4334 
L 2347 4334 
L 3822 809 
Q 4000 384 4145 257 
Q 4291 131 4550 116 
L 4550 0 
L 2878 0 
L 2878 116 
Q 3131 128 3220 200 
Q 3309 272 3309 375 
Q 3309 513 3184 809 
L 2928 1419 
z
M 2841 1650 
L 2122 3363 
L 1384 1650 
L 2841 1650 
z
" transform="scale(0.015625)"/>
      <path id="TimesNewRomanPSMT-3a" d="M 903 2950 
Q 1047 2950 1148 2848 
Q 1250 2747 1250 2603 
Q 1250 2459 1148 2357 
Q 1047 2256 903 2256 
Q 759 2256 657 2357 
Q 556 2459 556 2603 
Q 556 2747 657 2848 
Q 759 2950 903 2950 
z
M 897 609 
Q 1044 609 1145 506 
Q 1247 403 1247 259 
Q 1247 116 1144 14 
Q 1041 -88 897 -88 
Q 753 -88 651 14 
Q 550 116 550 259 
Q 550 403 651 506 
Q 753 609 897 609 
z
" transform="scale(0.015625)"/>
     </defs>
     <use xlink:href="#TimesNewRomanPSMT-41"/>
     <use xlink:href="#TimesNewRomanPSMT-74" transform="translate(72.216797 0)"/>
     <use xlink:href="#TimesNewRomanPSMT-20" transform="translate(100 0)"/>
     <use xlink:href="#TimesNewRomanPSMT-31" transform="translate(125 0)"/>
     <use xlink:href="#TimesNewRomanPSMT-32" transform="translate(175 0)"/>
     <use xlink:href="#TimesNewRomanPSMT-38" transform="translate(225 0)"/>
     <use xlink:href="#TimesNewRomanPSMT-20" transform="translate(275 0)"/>
     <use xlink:href="#TimesNewRomanPSMT-47" transform="translate(300 0)"/>
     <use xlink:href="#TimesNewRomanPSMT-50" transform="translate(372.216797 0)"/>
     <use xlink:href="#TimesNewRomanPSMT-55" transform="translate(427.832031 0)"/>
     <use xlink:href="#TimesNewRomanPSMT-73" transform="translate(500.048828 0)"/>
     <use xlink:href="#TimesNewRomanPSMT-3a" transform="translate(538.964844 0)"/>
    </g>
    <!-- one straggler wastes -->
    <g style="fill: #64748b" transform="translate(203.367289 85.149043) scale(0.07 -0.07)">
     <defs>
      <path id="TimesNewRomanPSMT-6f" d="M 1600 2947 
Q 2250 2947 2644 2453 
Q 2978 2031 2978 1484 
Q 2978 1100 2793 706 
Q 2609 313 2286 112 
Q 1963 -88 1566 -88 
Q 919 -88 538 428 
Q 216 863 216 1403 
Q 216 1797 411 2186 
Q 606 2575 925 2761 
Q 1244 2947 1600 2947 
z
M 1503 2744 
Q 1338 2744 1170 2645 
Q 1003 2547 900 2300 
Q 797 2053 797 1666 
Q 797 1041 1045 587 
Q 1294 134 1700 134 
Q 2003 134 2200 384 
Q 2397 634 2397 1244 
Q 2397 2006 2069 2444 
Q 1847 2744 1503 2744 
z
" transform="scale(0.015625)"/>
      <path id="TimesNewRomanPSMT-77" d="M 41 2863 
L 1241 2863 
L 1241 2747 
Q 1075 2734 1023 2687 
Q 972 2641 972 2553 
Q 972 2456 1025 2319 
L 1638 672 
L 2253 2013 
L 2091 2434 
Q 2016 2622 1894 2694 
Q 1825 2738 1638 2747 
L 1638 2863 
L 3000 2863 
L 3000 2747 
Q 2775 2738 2681 2666 
Q 2619 2616 2619 2506 
Q 2619 2444 2644 2378 
L 3294 734 
L 3897 2319 
Q 3959 2488 3959 2588 
Q 3959 2647 3898 2694 
Q 3838 2741 3659 2747 
L 3659 2863 
L 4563 2863 
L 4563 2747 
Q 4291 2706 4163 2378 
L 3206 -88 
L 3078 -88 
L 2363 1741 
L 1528 -88 
L 1413 -88 
L 494 2319 
Q 403 2547 315 2626 
Q 228 2706 41 2747 
L 41 2863 
z
" transform="scale(0.015625)"/>
     </defs>
     <use xlink:href="#TimesNewRomanPSMT-6f"/>
     <use xlink:href="#TimesNewRomanPSMT-6e" transform="translate(50 0)"/>
     <use xlink:href="#TimesNewRomanPSMT-65" transform="translate(100 0)"/>
     <use xlink:href="#TimesNewRomanPSMT-20" transform="translate(144.384766 0)"/>
     <use xlink:href="#TimesNewRomanPSMT-73" transform="translate(169.384766 0)"/>
     <use xlink:href="#TimesNewRomanPSMT-74" transform="translate(208.300781 0)"/>
     <use xlink:href="#TimesNewRomanPSMT-72" transform="translate(236.083984 0)"/>
     <use xlink:href="#TimesNewRomanPSMT-61" transform="translate(269.384766 0)"/>
     <use xlink:href="#TimesNewRomanPSMT-67" transform="translate(313.769531 0)"/>
     <use xlink:href="#TimesNewRomanPSMT-67" transform="translate(363.769531 0)"/>
     <use xlink:href="#TimesNewRomanPSMT-6c" transform="translate(413.769531 0)"/>
     <use xlink:href="#TimesNewRomanPSMT-65" transform="translate(441.552734 0)"/>
     <use xlink:href="#TimesNewRomanPSMT-72" transform="translate(485.9375 0)"/>
     <use xlink:href="#TimesNewRomanPSMT-20" transform="translate(519.238281 0)"/>
     <use xlink:href="#TimesNewRomanPSMT-77" transform="translate(544.238281 0)"/>
     <use xlink:href="#TimesNewRomanPSMT-61" transform="translate(616.455078 0)"/>
     <use xlink:href="#TimesNewRomanPSMT-73" transform="translate(660.839844 0)"/>
     <use xlink:href="#TimesNewRomanPSMT-74" transform="translate(699.755859 0)"/>
     <use xlink:href="#TimesNewRomanPSMT-65" transform="translate(727.539062 0)"/>
     <use xlink:href="#TimesNewRomanPSMT-73" transform="translate(771.923828 0)"/>
    </g>
    <!-- 24.3 GPU-equivalents -->
    <g style="fill: #64748b" transform="translate(203.367289 92.492262) scale(0.07 -0.07)">
     <defs>
      <path id="TimesNewRomanPSMT-2e" d="M 800 606 
Q 947 606 1047 504 
Q 1147 403 1147 259 
Q 1147 116 1045 14 
Q 944 -88 800 -88 
Q 656 -88 554 14 
Q 453 116 453 259 
Q 453 406 554 506 
Q 656 606 800 606 
z
" transform="scale(0.015625)"/>
     </defs>
     <use xlink:href="#TimesNewRomanPSMT-32"/>
     <use xlink:href="#TimesNewRomanPSMT-34" transform="translate(50 0)"/>
     <use xlink:href="#TimesNewRomanPSMT-2e" transform="translate(100 0)"/>
     <use xlink:href="#TimesNewRomanPSMT-33" transform="translate(125 0)"/>
     <use xlink:href="#TimesNewRomanPSMT-20" transform="translate(175 0)"/>
     <use xlink:href="#TimesNewRomanPSMT-47" transform="translate(200 0)"/>
     <use xlink:href="#TimesNewRomanPSMT-50" transform="translate(272.216797 0)"/>
     <use xlink:href="#TimesNewRomanPSMT-55" transform="translate(327.832031 0)"/>
     <use xlink:href="#TimesNewRomanPSMT-2d" transform="translate(400.048828 0)"/>
     <use xlink:href="#TimesNewRomanPSMT-65" transform="translate(433.349609 0)"/>
     <use xlink:href="#TimesNewRomanPSMT-71" transform="translate(477.734375 0)"/>
     <use xlink:href="#TimesNewRomanPSMT-75" transform="translate(527.734375 0)"/>
     <use xlink:href="#TimesNewRomanPSMT-69" transform="translate(577.734375 0)"/>
     <use xlink:href="#TimesNewRomanPSMT-76" transform="translate(605.517578 0)"/>
     <use xlink:href="#TimesNewRomanPSMT-61" transform="translate(655.517578 0)"/>
     <use xlink:href="#TimesNewRomanPSMT-6c" transform="translate(699.902344 0)"/>
     <use xlink:href="#TimesNewRomanPSMT-65" transform="translate(727.685547 0)"/>
     <use xlink:href="#TimesNewRomanPSMT-6e" transform="translate(772.070312 0)"/>
     <use xlink:href="#TimesNewRomanPSMT-74" transform="translate(822.070312 0)"/>
     <use xlink:href="#TimesNewRomanPSMT-73" transform="translate(849.853516 0)"/>
    </g>
    <!-- at every barrier -->
    <g style="fill: #64748b" transform="translate(203.367289 99.822355) scale(0.07 -0.07)">
     <defs>
      <path id="TimesNewRomanPSMT-79" d="M 38 2863 
L 1372 2863 
L 1372 2747 
L 1306 2747 
Q 1166 2747 1095 2686 
Q 1025 2625 1025 2534 
Q 1025 2413 1128 2197 
L 1825 753 
L 2466 2334 
Q 2519 2463 2519 2588 
Q 2519 2644 2497 2672 
Q 2472 2706 2419 2726 
Q 2366 2747 2231 2747 
L 2231 2863 
L 3163 2863 
L 3163 2747 
Q 3047 2734 2984 2696 
Q 2922 2659 2847 2556 
Q 2819 2513 2741 2316 
L 1575 -541 
Q 1406 -956 1132 -1168 
Q 859 -1381 606 -1381 
Q 422 -1381 303 -1275 
Q 184 -1169 184 -1031 
Q 184 -900 270 -820 
Q 356 -741 506 -741 
Q 609 -741 788 -809 
Q 913 -856 944 -856 
Q 1038 -856 1148 -759 
Q 1259 -663 1372 -384 
L 1575 113 
L 547 2272 
Q 500 2369 397 2513 
Q 319 2622 269 2659 
Q 197 2709 38 2747 
L 38 2863 
z
" transform="scale(0.015625)"/>
      <path id="TimesNewRomanPSMT-62" d="M 984 2369 
Q 1400 2947 1881 2947 
Q 2322 2947 2650 2570 
Q 2978 2194 2978 1541 
Q 2978 778 2472 313 
Q 2038 -88 1503 -88 
Q 1253 -88 995 3 
Q 738 94 469 275 
L 469 3241 
Q 469 3728 445 3840 
Q 422 3953 372 3993 
Q 322 4034 247 4034 
Q 159 4034 28 3984 
L -16 4094 
L 844 4444 
L 984 4444 
L 984 2369 
z
M 984 2169 
L 984 456 
Q 1144 300 1314 220 
Q 1484 141 1663 141 
Q 1947 141 2192 453 
Q 2438 766 2438 1363 
Q 2438 1913 2192 2208 
Q 1947 2503 1634 2503 
Q 1469 2503 1303 2419 
Q 1178 2356 984 2169 
z
" transform="scale(0.015625)"/>
     </defs>
     <use xlink:href="#TimesNewRomanPSMT-61"/>
     <use xlink:href="#TimesNewRomanPSMT-74" transform="translate(44.384766 0)"/>
     <use xlink:href="#TimesNewRomanPSMT-20" transform="translate(72.167969 0)"/>
     <use xlink:href="#TimesNewRomanPSMT-65" transform="translate(97.167969 0)"/>
     <use xlink:href="#TimesNewRomanPSMT-76" transform="translate(141.552734 0)"/>
     <use xlink:href="#TimesNewRomanPSMT-65" transform="translate(191.552734 0)"/>
     <use xlink:href="#TimesNewRomanPSMT-72" transform="translate(235.9375 0)"/>
     <use xlink:href="#TimesNewRomanPSMT-79" transform="translate(269.238281 0)"/>
     <use xlink:href="#TimesNewRomanPSMT-20" transform="translate(319.238281 0)"/>
     <use xlink:href="#TimesNewRomanPSMT-62" transform="translate(344.238281 0)"/>
     <use xlink:href="#TimesNewRomanPSMT-61" transform="translate(394.238281 0)"/>
     <use xlink:href="#TimesNewRomanPSMT-72" transform="translate(438.623047 0)"/>
     <use xlink:href="#TimesNewRomanPSMT-72" transform="translate(471.923828 0)"/>
     <use xlink:href="#TimesNewRomanPSMT-69" transform="translate(505.224609 0)"/>
     <use xlink:href="#TimesNewRomanPSMT-65" transform="translate(533.007812 0)"/>
     <use xlink:href="#TimesNewRomanPSMT-72" transform="translate(577.392578 0)"/>
    </g>
   </g>
   <g id="text_22">
    <!-- Figure 4.  Straggler Tax Scales with Fleet Size -->
    <g transform="translate(133.571641 20.500312) scale(0.09 -0.09)">
     <defs>
      <path id="TimesNewRomanPS-BoldMT-46" d="M 1759 3994 
L 1759 2253 
L 1881 2253 
Q 2163 2253 2341 2337 
Q 2519 2422 2642 2622 
Q 2766 2822 2803 3163 
L 2913 3163 
L 2913 1034 
L 2803 1034 
Q 2744 1638 2480 1830 
Q 2216 2022 1881 2022 
L 1759 2022 
L 1759 725 
Q 1759 400 1795 319 
Q 1831 238 1936 177 
Q 2041 116 2219 116 
L 2359 116 
L 2359 0 
L 144 0 
L 144 116 
L 284 116 
Q 469 116 581 181 
Q 663 225 706 331 
Q 741 406 741 725 
L 741 3513 
Q 741 3838 706 3919 
Q 672 4000 567 4061 
Q 463 4122 284 4122 
L 144 4122 
L 144 4238 
L 3719 4238 
L 3719 3022 
L 3591 3022 
Q 3547 3450 3367 3656 
Q 3188 3863 2847 3947 
Q 2659 3994 2153 3994 
L 1759 3994 
z
" transform="scale(0.015625)"/>
      <path id="TimesNewRomanPS-BoldMT-69" d="M 919 4338 
Q 1122 4338 1262 4195 
Q 1403 4053 1403 3853 
Q 1403 3653 1261 3512 
Q 1119 3372 919 3372 
Q 719 3372 578 3512 
Q 438 3653 438 3853 
Q 438 4053 578 4195 
Q 719 4338 919 4338 
z
M 1356 2922 
L 1356 606 
Q 1356 297 1428 211 
Q 1500 125 1709 113 
L 1709 0 
L 131 0 
L 131 113 
Q 325 119 419 225 
Q 481 297 481 606 
L 481 2313 
Q 481 2622 409 2708 
Q 338 2794 131 2806 
L 131 2922 
L 1356 2922 
z
" transform="scale(0.015625)"/>
      <path id="TimesNewRomanPS-BoldMT-67" d="M 2091 2888 
L 3075 2888 
L 3075 2544 
L 2516 2544 
Q 2669 2391 2728 2266 
Q 2803 2097 2803 1913 
Q 2803 1600 2629 1370 
Q 2456 1141 2157 1011 
Q 1859 881 1628 881 
Q 1609 881 1253 897 
Q 1113 897 1017 805 
Q 922 713 922 584 
Q 922 472 1008 400 
Q 1094 328 1288 328 
L 1828 334 
Q 2484 334 2731 191 
Q 3084 -9 3084 -425 
Q 3084 -691 2921 -908 
Q 2759 -1125 2494 -1228 
Q 2091 -1381 1566 -1381 
Q 1172 -1381 847 -1304 
Q 522 -1228 381 -1092 
Q 241 -956 241 -806 
Q 241 -663 348 -548 
Q 456 -434 750 -356 
Q 344 -156 344 200 
Q 344 416 509 619 
Q 675 822 1034 972 
Q 616 1125 428 1375 
Q 241 1625 241 1953 
Q 241 2381 591 2695 
Q 941 3009 1491 3009 
Q 1781 3009 2091 2888 
z
M 1550 2816 
Q 1369 2816 1244 2633 
Q 1119 2450 1119 1875 
Q 1119 1409 1242 1236 
Q 1366 1063 1534 1063 
Q 1722 1063 1847 1234 
Q 1972 1406 1972 1903 
Q 1972 2463 1831 2666 
Q 1731 2816 1550 2816 
z
M 1366 -431 
Q 1047 -431 944 -484 
Q 766 -581 766 -747 
Q 766 -906 950 -1036 
Q 1134 -1166 1644 -1166 
Q 2078 -1166 2326 -1050 
Q 2575 -934 2575 -725 
Q 2575 -647 2528 -594 
Q 2444 -500 2273 -465 
Q 2103 -431 1366 -431 
z
" transform="scale(0.015625)"/>
      <path id="TimesNewRomanPS-BoldMT-75" d="M 3038 2922 
L 3038 634 
Q 3038 300 3100 217 
Q 3163 134 3353 113 
L 3353 0 
L 2163 0 
L 2163 391 
Q 1953 141 1743 26 
Q 1534 -88 1275 -88 
Q 1028 -88 836 64 
Q 644 216 578 419 
Q 513 622 513 1128 
L 513 2288 
Q 513 2619 452 2700 
Q 391 2781 197 2806 
L 197 2922 
L 1388 2922 
L 1388 925 
Q 1388 613 1417 522 
Q 1447 431 1511 384 
Q 1575 338 1659 338 
Q 1772 338 1863 397 
Q 1988 478 2163 725 
L 2163 2288 
Q 2163 2619 2102 2700 
Q 2041 2781 1847 2806 
L 1847 2922 
L 3038 2922 
z
" transform="scale(0.015625)"/>
      <path id="TimesNewRomanPS-BoldMT-72" d="M 1428 2922 
L 1428 2259 
Q 1719 2713 1937 2861 
Q 2156 3009 2359 3009 
Q 2534 3009 2639 2901 
Q 2744 2794 2744 2597 
Q 2744 2388 2642 2272 
Q 2541 2156 2397 2156 
Q 2231 2156 2109 2262 
Q 1988 2369 1966 2381 
Q 1934 2400 1894 2400 
Q 1803 2400 1722 2331 
Q 1594 2225 1528 2028 
Q 1428 1725 1428 1359 
L 1428 688 
L 1431 513 
Q 1431 334 1453 284 
Q 1491 200 1564 161 
Q 1638 122 1813 113 
L 1813 0 
L 234 0 
L 234 113 
Q 425 128 492 217 
Q 559 306 559 688 
L 559 2303 
Q 559 2553 534 2622 
Q 503 2709 443 2750 
Q 384 2791 234 2806 
L 234 2922 
L 1428 2922 
z
" transform="scale(0.015625)"/>
      <path id="TimesNewRomanPS-BoldMT-65" d="M 2691 1566 
L 1088 1566 
Q 1116 984 1397 647 
Q 1613 388 1916 388 
Q 2103 388 2256 492 
Q 2409 597 2584 869 
L 2691 800 
Q 2453 316 2165 114 
Q 1878 -88 1500 -88 
Q 850 -88 516 413 
Q 247 816 247 1413 
Q 247 2144 642 2576 
Q 1038 3009 1569 3009 
Q 2013 3009 2339 2645 
Q 2666 2281 2691 1566 
z
M 1922 1775 
Q 1922 2278 1867 2465 
Q 1813 2653 1697 2750 
Q 1631 2806 1522 2806 
Q 1359 2806 1256 2647 
Q 1072 2369 1072 1884 
L 1072 1775 
L 1922 1775 
z
" transform="scale(0.015625)"/>
      <path id="TimesNewRomanPS-BoldMT-20" transform="scale(0.015625)"/>
      <path id="TimesNewRomanPS-BoldMT-53" d="M 3006 4334 
L 3041 2922 
L 2913 2922 
Q 2822 3453 2467 3776 
Q 2113 4100 1700 4100 
Q 1381 4100 1195 3929 
Q 1009 3759 1009 3538 
Q 1009 3397 1075 3288 
Q 1166 3141 1366 2997 
Q 1513 2894 2044 2631 
Q 2788 2266 3047 1941 
Q 3303 1616 3303 1197 
Q 3303 666 2889 283 
Q 2475 -100 1838 -100 
Q 1638 -100 1459 -59 
Q 1281 -19 1013 94 
Q 863 156 766 156 
Q 684 156 593 93 
Q 503 31 447 -97 
L 331 -97 
L 331 1503 
L 447 1503 
Q 584 828 976 473 
Q 1369 119 1822 119 
Q 2172 119 2380 309 
Q 2588 500 2588 753 
Q 2588 903 2508 1043 
Q 2428 1184 2265 1311 
Q 2103 1438 1691 1641 
Q 1113 1925 859 2125 
Q 606 2325 470 2572 
Q 334 2819 334 3116 
Q 334 3622 706 3978 
Q 1078 4334 1644 4334 
Q 1850 4334 2044 4284 
Q 2191 4247 2402 4145 
Q 2613 4044 2697 4044 
Q 2778 4044 2825 4094 
Q 2872 4144 2913 4334 
L 3006 4334 
z
" transform="scale(0.015625)"/>
      <path id="TimesNewRomanPS-BoldMT-74" d="M 1375 3991 
L 1375 2922 
L 2069 2922 
L 2069 2613 
L 1375 2613 
L 1375 809 
Q 1375 556 1398 482 
Q 1422 409 1481 364 
Q 1541 319 1591 319 
Q 1794 319 1975 628 
L 2069 559 
Q 1816 -41 1247 -41 
Q 969 -41 776 114 
Q 584 269 531 459 
Q 500 566 500 1034 
L 500 2613 
L 119 2613 
L 119 2722 
Q 513 3000 789 3306 
Q 1066 3613 1272 3991 
L 1375 3991 
z
" transform="scale(0.015625)"/>
      <path id="TimesNewRomanPS-BoldMT-61" d="M 1828 431 
Q 1294 -41 869 -41 
Q 619 -41 453 123 
Q 288 288 288 534 
Q 288 869 575 1136 
Q 863 1403 1828 1847 
L 1828 2141 
Q 1828 2472 1792 2558 
Q 1756 2644 1656 2708 
Q 1556 2772 1431 2772 
Q 1228 2772 1097 2681 
Q 1016 2625 1016 2550 
Q 1016 2484 1103 2388 
Q 1222 2253 1222 2128 
Q 1222 1975 1108 1867 
Q 994 1759 809 1759 
Q 613 1759 480 1878 
Q 347 1997 347 2156 
Q 347 2381 525 2586 
Q 703 2791 1022 2900 
Q 1341 3009 1684 3009 
Q 2100 3009 2342 2832 
Q 2584 2656 2656 2450 
Q 2700 2319 2700 1847 
L 2700 713 
Q 2700 513 2715 461 
Q 2731 409 2762 384 
Q 2794 359 2834 359 
Q 2916 359 3000 475 
L 3094 400 
Q 2938 169 2770 64 
Q 2603 -41 2391 -41 
Q 2141 -41 2000 76 
Q 1859 194 1828 431 
z
M 1828 659 
L 1828 1638 
Q 1450 1416 1266 1163 
Q 1144 994 1144 822 
Q 1144 678 1247 569 
Q 1325 484 1466 484 
Q 1622 484 1828 659 
z
" transform="scale(0.015625)"/>
      <path id="TimesNewRomanPS-BoldMT-6c" d="M 1359 4238 
L 1359 606 
Q 1359 297 1431 211 
Q 1503 125 1713 113 
L 1713 0 
L 134 0 
L 134 113 
Q 328 119 422 225 
Q 484 297 484 606 
L 484 3631 
Q 484 3938 412 4023 
Q 341 4109 134 4122 
L 134 4238 
L 1359 4238 
z
" transform="scale(0.015625)"/>
      <path id="TimesNewRomanPS-BoldMT-54" d="M 4038 4238 
L 4038 3091 
L 3925 3091 
Q 3825 3488 3703 3661 
Q 3581 3834 3369 3938 
Q 3250 3994 2953 3994 
L 2638 3994 
L 2638 725 
Q 2638 400 2673 319 
Q 2709 238 2814 177 
Q 2919 116 3100 116 
L 3241 116 
L 3241 0 
L 1022 0 
L 1022 116 
L 1163 116 
Q 1347 116 1459 181 
Q 1541 225 1588 331 
Q 1622 406 1622 725 
L 1622 3994 
L 1316 3994 
Q 888 3994 694 3813 
Q 422 3559 350 3091 
L 231 3091 
L 231 4238 
L 4038 4238 
z
" transform="scale(0.015625)"/>
      <path id="TimesNewRomanPS-BoldMT-78" d="M 1944 1791 
L 2450 828 
Q 2713 325 2866 191 
Q 2950 119 3097 113 
L 3097 0 
L 1469 0 
L 1469 113 
Q 1659 128 1704 162 
Q 1750 197 1750 256 
Q 1750 344 1650 531 
L 1397 1006 
L 1181 691 
Q 1034 475 1016 434 
Q 991 375 991 328 
Q 991 256 1020 207 
Q 1050 159 1101 136 
Q 1153 113 1291 113 
L 1291 0 
L 147 0 
L 147 113 
Q 359 113 536 230 
Q 713 347 1050 844 
L 1291 1200 
L 788 2131 
Q 541 2588 419 2691 
Q 297 2794 147 2806 
L 147 2922 
L 1766 2922 
L 1766 2806 
L 1681 2803 
L 1519 2747 
Q 1494 2725 1494 2675 
Q 1494 2628 1509 2578 
Q 1519 2556 1597 2409 
L 1825 1984 
L 1944 2153 
Q 2194 2497 2194 2634 
Q 2194 2700 2139 2745 
Q 2084 2791 1944 2806 
L 1944 2922 
L 2978 2922 
L 2978 2806 
Q 2788 2800 2622 2689 
Q 2456 2578 2250 2259 
L 1944 1791 
z
" transform="scale(0.015625)"/>
      <path id="TimesNewRomanPS-BoldMT-63" d="M 2600 753 
L 2697 678 
Q 2491 291 2183 101 
Q 1875 -88 1528 -88 
Q 944 -88 594 353 
Q 244 794 244 1413 
Q 244 2009 563 2463 
Q 947 3009 1622 3009 
Q 2075 3009 2342 2781 
Q 2609 2553 2609 2272 
Q 2609 2094 2501 1987 
Q 2394 1881 2219 1881 
Q 2034 1881 1914 2003 
Q 1794 2125 1766 2438 
Q 1747 2634 1675 2713 
Q 1603 2791 1506 2791 
Q 1356 2791 1250 2631 
Q 1088 2391 1088 1894 
Q 1088 1481 1219 1104 
Q 1350 728 1578 544 
Q 1750 409 1984 409 
Q 2138 409 2275 481 
Q 2413 553 2600 753 
z
" transform="scale(0.015625)"/>
      <path id="TimesNewRomanPS-BoldMT-73" d="M 2063 3003 
L 2109 2006 
L 2003 2006 
Q 1813 2450 1608 2612 
Q 1403 2775 1200 2775 
Q 1072 2775 981 2689 
Q 891 2603 891 2491 
Q 891 2406 953 2328 
Q 1053 2200 1512 1889 
Q 1972 1578 2117 1361 
Q 2263 1144 2263 875 
Q 2263 631 2141 397 
Q 2019 163 1797 37 
Q 1575 -88 1306 -88 
Q 1097 -88 747 44 
Q 653 78 619 78 
Q 516 78 447 -78 
L 344 -78 
L 294 972 
L 400 972 
Q 541 559 786 353 
Q 1031 147 1250 147 
Q 1400 147 1495 239 
Q 1591 331 1591 463 
Q 1591 613 1497 722 
Q 1403 831 1078 1053 
Q 600 1384 459 1559 
Q 253 1816 253 2125 
Q 253 2463 486 2736 
Q 719 3009 1159 3009 
Q 1397 3009 1619 2894 
Q 1703 2847 1756 2847 
Q 1813 2847 1847 2870 
Q 1881 2894 1956 3003 
L 2063 3003 
z
" transform="scale(0.015625)"/>
      <path id="TimesNewRomanPS-BoldMT-77" d="M 3113 -88 
L 2313 2056 
L 1528 -88 
L 1366 -88 
L 588 2031 
Q 413 2516 291 2663 
Q 213 2763 53 2806 
L 53 2922 
L 1528 2922 
L 1528 2806 
Q 1378 2806 1322 2762 
Q 1266 2719 1266 2663 
Q 1266 2609 1366 2344 
L 1794 1203 
L 2206 2344 
L 2175 2419 
Q 2081 2653 2011 2717 
Q 1941 2781 1794 2806 
L 1794 2922 
L 3291 2922 
L 3291 2806 
Q 3116 2797 3069 2758 
Q 3022 2719 3022 2647 
Q 3022 2578 3113 2344 
L 3525 1203 
L 3900 2253 
Q 3981 2478 3981 2559 
Q 3981 2681 3922 2737 
Q 3863 2794 3691 2806 
L 3691 2922 
L 4556 2922 
L 4556 2806 
Q 4413 2788 4328 2705 
Q 4244 2622 4109 2234 
L 3291 -88 
L 3113 -88 
z
" transform="scale(0.015625)"/>
      <path id="TimesNewRomanPS-BoldMT-68" d="M 1409 4238 
L 1409 2547 
Q 1650 2800 1850 2904 
Q 2050 3009 2266 3009 
Q 2541 3009 2736 2853 
Q 2931 2697 2995 2486 
Q 3059 2275 3059 1775 
L 3059 634 
Q 3059 300 3121 217 
Q 3184 134 3375 113 
L 3375 0 
L 1894 0 
L 1894 113 
Q 2050 134 2128 238 
Q 2184 319 2184 634 
L 2184 1938 
Q 2184 2300 2156 2392 
Q 2128 2484 2061 2536 
Q 1994 2588 1909 2588 
Q 1784 2588 1665 2502 
Q 1547 2416 1409 2200 
L 1409 634 
Q 1409 322 1456 244 
Q 1516 138 1700 113 
L 1700 0 
L 219 0 
L 219 113 
Q 403 131 481 231 
Q 534 300 534 634 
L 534 3603 
Q 534 3934 473 4015 
Q 413 4097 219 4122 
L 219 4238 
L 1409 4238 
z
" transform="scale(0.015625)"/>
      <path id="TimesNewRomanPS-BoldMT-7a" d="M 2609 0 
L 66 0 
L 66 69 
L 1672 2731 
L 1203 2731 
Q 900 2731 769 2676 
Q 638 2622 556 2501 
Q 475 2381 388 2072 
L 278 2072 
L 278 2922 
L 2738 2922 
L 2738 2838 
L 1144 200 
L 1344 200 
Q 1944 200 2209 372 
Q 2475 544 2609 1000 
L 2697 1000 
L 2609 0 
z
" transform="scale(0.015625)"/>
     </defs>
     <use xlink:href="#TimesNewRomanPS-BoldMT-46"/>
     <use xlink:href="#TimesNewRomanPS-BoldMT-69" transform="translate(61.083984 0)"/>
     <use xlink:href="#TimesNewRomanPS-BoldMT-67" transform="translate(88.867188 0)"/>
     <use xlink:href="#TimesNewRomanPS-BoldMT-75" transform="translate(138.867188 0)"/>
     <use xlink:href="#TimesNewRomanPS-BoldMT-72" transform="translate(194.482422 0)"/>
     <use xlink:href="#TimesNewRomanPS-BoldMT-65" transform="translate(237.117188 0)"/>
     <use xlink:href="#TimesNewRomanPS-BoldMT-20" transform="translate(281.501953 0)"/>
     <use xlink:href="#TimesNewRomanPS-BoldMT-34" transform="translate(306.501953 0)"/>
     <use xlink:href="#TimesNewRomanPS-BoldMT-2e" transform="translate(356.501953 0)"/>
     <use xlink:href="#TimesNewRomanPS-BoldMT-20" transform="translate(381.501953 0)"/>
     <use xlink:href="#TimesNewRomanPS-BoldMT-20" transform="translate(406.501953 0)"/>
     <use xlink:href="#TimesNewRomanPS-BoldMT-53" transform="translate(431.501953 0)"/>
     <use xlink:href="#TimesNewRomanPS-BoldMT-74" transform="translate(487.117188 0)"/>
     <use xlink:href="#TimesNewRomanPS-BoldMT-72" transform="translate(520.417969 0)"/>
     <use xlink:href="#TimesNewRomanPS-BoldMT-61" transform="translate(564.802734 0)"/>
     <use xlink:href="#TimesNewRomanPS-BoldMT-67" transform="translate(614.802734 0)"/>
     <use xlink:href="#TimesNewRomanPS-BoldMT-67" transform="translate(664.802734 0)"/>
     <use xlink:href="#TimesNewRomanPS-BoldMT-6c" transform="translate(714.802734 0)"/>
     <use xlink:href="#TimesNewRomanPS-BoldMT-65" transform="translate(742.585938 0)"/>
     <use xlink:href="#TimesNewRomanPS-BoldMT-72" transform="translate(786.970703 0)"/>
     <use xlink:href="#TimesNewRomanPS-BoldMT-20" transform="translate(829.605469 0)"/>
     <use xlink:href="#TimesNewRomanPS-BoldMT-54" transform="translate(852.855469 0)"/>
     <use xlink:href="#TimesNewRomanPS-BoldMT-61" transform="translate(910.429688 0)"/>
     <use xlink:href="#TimesNewRomanPS-BoldMT-78" transform="translate(960.429688 0)"/>
     <use xlink:href="#TimesNewRomanPS-BoldMT-20" transform="translate(1010.429688 0)"/>
     <use xlink:href="#TimesNewRomanPS-BoldMT-53" transform="translate(1035.429688 0)"/>
     <use xlink:href="#TimesNewRomanPS-BoldMT-63" transform="translate(1091.044922 0)"/>
     <use xlink:href="#TimesNewRomanPS-BoldMT-61" transform="translate(1135.429688 0)"/>
     <use xlink:href="#TimesNewRomanPS-BoldMT-6c" transform="translate(1185.429688 0)"/>
     <use xlink:href="#TimesNewRomanPS-BoldMT-65" transform="translate(1213.212891 0)"/>
     <use xlink:href="#TimesNewRomanPS-BoldMT-73" transform="translate(1257.597656 0)"/>
     <use xlink:href="#TimesNewRomanPS-BoldMT-20" transform="translate(1296.513672 0)"/>
     <use xlink:href="#TimesNewRomanPS-BoldMT-77" transform="translate(1321.513672 0)"/>
     <use xlink:href="#TimesNewRomanPS-BoldMT-69" transform="translate(1393.730469 0)"/>
     <use xlink:href="#TimesNewRomanPS-BoldMT-74" transform="translate(1421.513672 0)"/>
     <use xlink:href="#TimesNewRomanPS-BoldMT-68" transform="translate(1454.814453 0)"/>
     <use xlink:href="#TimesNewRomanPS-BoldMT-20" transform="translate(1510.429688 0)"/>
     <use xlink:href="#TimesNewRomanPS-BoldMT-46" transform="translate(1535.429688 0)"/>
     <use xlink:href="#TimesNewRomanPS-BoldMT-6c" transform="translate(1596.513672 0)"/>
     <use xlink:href="#TimesNewRomanPS-BoldMT-65" transform="translate(1624.296875 0)"/>
     <use xlink:href="#TimesNewRomanPS-BoldMT-65" transform="translate(1668.681641 0)"/>
     <use xlink:href="#TimesNewRomanPS-BoldMT-74" transform="translate(1713.066406 0)"/>
     <use xlink:href="#TimesNewRomanPS-BoldMT-20" transform="translate(1746.367188 0)"/>
     <use xlink:href="#TimesNewRomanPS-BoldMT-53" transform="translate(1771.367188 0)"/>
     <use xlink:href="#TimesNewRomanPS-BoldMT-69" transform="translate(1826.982422 0)"/>
     <use xlink:href="#TimesNewRomanPS-BoldMT-7a" transform="translate(1854.765625 0)"/>
     <use xlink:href="#TimesNewRomanPS-BoldMT-65" transform="translate(1899.150391 0)"/>
    </g>
    <!-- One degraded GPU (median tax = 19.1%) blocks the entire fleet at sync barriers -->
    <g transform="translate(67.068672 29.762719) scale(0.09 -0.09)">
     <defs>
      <path id="TimesNewRomanPS-BoldMT-4f" d="M 2472 4297 
Q 3484 4334 4117 3706 
Q 4750 3078 4750 2134 
Q 4750 1328 4278 716 
Q 3653 -97 2513 -97 
Q 1369 -97 744 678 
Q 250 1291 250 2131 
Q 250 3075 892 3704 
Q 1534 4334 2472 4297 
z
M 2509 4097 
Q 1928 4097 1625 3503 
Q 1378 3016 1378 2103 
Q 1378 1019 1759 500 
Q 2025 138 2503 138 
Q 2825 138 3041 294 
Q 3316 494 3469 933 
Q 3622 1372 3622 2078 
Q 3622 2919 3465 3336 
Q 3309 3753 3067 3925 
Q 2825 4097 2509 4097 
z
" transform="scale(0.015625)"/>
      <path id="TimesNewRomanPS-BoldMT-6e" d="M 1409 2922 
L 1409 2544 
Q 1634 2788 1840 2898 
Q 2047 3009 2284 3009 
Q 2569 3009 2756 2851 
Q 2944 2694 3006 2459 
Q 3056 2281 3056 1775 
L 3056 638 
Q 3056 300 3117 217 
Q 3178 134 3372 113 
L 3372 0 
L 1894 0 
L 1894 113 
Q 2059 134 2131 250 
Q 2181 328 2181 638 
L 2181 1938 
Q 2181 2297 2153 2390 
Q 2125 2484 2058 2536 
Q 1991 2588 1909 2588 
Q 1641 2588 1409 2203 
L 1409 638 
Q 1409 309 1470 221 
Q 1531 134 1697 113 
L 1697 0 
L 219 0 
L 219 113 
Q 403 131 481 231 
Q 534 300 534 638 
L 534 2288 
Q 534 2619 473 2700 
Q 413 2781 219 2806 
L 219 2922 
L 1409 2922 
z
" transform="scale(0.015625)"/>
      <path id="TimesNewRomanPS-BoldMT-64" d="M 3056 4238 
L 3056 875 
Q 3056 534 3075 472 
Q 3100 369 3170 319 
Q 3241 269 3416 256 
L 3416 153 
L 2181 -88 
L 2181 375 
Q 1959 106 1786 9 
Q 1613 -88 1394 -88 
Q 834 -88 509 413 
Q 247 819 247 1409 
Q 247 1881 409 2254 
Q 572 2628 855 2818 
Q 1138 3009 1463 3009 
Q 1672 3009 1834 2928 
Q 1997 2847 2181 2644 
L 2181 3525 
Q 2181 3859 2153 3928 
Q 2116 4019 2041 4062 
Q 1966 4106 1759 4106 
L 1759 4238 
L 3056 4238 
z
M 2181 2256 
Q 1950 2700 1616 2700 
Q 1500 2700 1425 2638 
Q 1309 2541 1236 2297 
Q 1163 2053 1163 1550 
Q 1163 997 1244 731 
Q 1325 466 1466 347 
Q 1538 288 1663 288 
Q 1938 288 2181 719 
L 2181 2256 
z
" transform="scale(0.015625)"/>
      <path id="TimesNewRomanPS-BoldMT-47" d="M 4416 4334 
L 4416 2841 
L 4300 2841 
Q 4091 3453 3672 3772 
Q 3253 4091 2756 4091 
Q 2281 4091 1965 3823 
Q 1650 3556 1519 3078 
Q 1388 2600 1388 2097 
Q 1388 1488 1531 1028 
Q 1675 569 1995 353 
Q 2316 138 2756 138 
Q 2909 138 3070 170 
Q 3231 203 3400 266 
L 3400 1147 
Q 3400 1397 3365 1470 
Q 3331 1544 3223 1603 
Q 3116 1663 2963 1663 
L 2853 1663 
L 2853 1778 
L 4913 1778 
L 4913 1663 
Q 4678 1647 4586 1598 
Q 4494 1550 4444 1438 
Q 4416 1378 4416 1147 
L 4416 266 
Q 4009 84 3570 -8 
Q 3131 -100 2659 -100 
Q 2056 -100 1657 64 
Q 1259 228 954 495 
Q 650 763 478 1097 
Q 259 1528 259 2063 
Q 259 3019 931 3678 
Q 1603 4338 2622 4338 
Q 2938 4338 3191 4288 
Q 3328 4263 3636 4145 
Q 3944 4028 4000 4028 
Q 4088 4028 4163 4092 
Q 4238 4156 4300 4334 
L 4416 4334 
z
" transform="scale(0.015625)"/>
      <path id="TimesNewRomanPS-BoldMT-50" d="M 1728 1919 
L 1728 744 
Q 1728 400 1770 311 
Q 1813 222 1920 169 
Q 2028 116 2316 116 
L 2316 0 
L 163 0 
L 163 116 
Q 456 116 561 170 
Q 666 225 708 312 
Q 750 400 750 744 
L 750 3494 
Q 750 3838 708 3927 
Q 666 4016 559 4069 
Q 453 4122 163 4122 
L 163 4238 
L 2009 4238 
Q 2922 4238 3319 3913 
Q 3716 3588 3716 3100 
Q 3716 2688 3459 2394 
Q 3203 2100 2753 1994 
Q 2450 1919 1728 1919 
z
M 1728 3994 
L 1728 2163 
Q 1831 2156 1884 2156 
Q 2266 2156 2472 2382 
Q 2678 2609 2678 3084 
Q 2678 3556 2472 3775 
Q 2266 3994 1856 3994 
L 1728 3994 
z
" transform="scale(0.015625)"/>
      <path id="TimesNewRomanPS-BoldMT-55" d="M 150 4238 
L 2338 4238 
L 2338 4122 
L 2228 4122 
Q 1981 4122 1889 4070 
Q 1797 4019 1758 3928 
Q 1719 3838 1719 3475 
L 1719 1400 
Q 1719 831 1805 647 
Q 1891 463 2087 341 
Q 2284 219 2584 219 
Q 2928 219 3170 373 
Q 3413 528 3533 800 
Q 3653 1072 3653 1747 
L 3653 3475 
Q 3653 3759 3593 3881 
Q 3534 4003 3444 4050 
Q 3303 4122 3047 4122 
L 3047 4238 
L 4513 4238 
L 4513 4122 
L 4425 4122 
Q 4247 4122 4128 4050 
Q 4009 3978 3956 3834 
Q 3916 3734 3916 3475 
L 3916 1866 
Q 3916 1119 3817 787 
Q 3719 456 3337 178 
Q 2956 -100 2297 -100 
Q 1747 -100 1447 47 
Q 1038 247 869 559 
Q 700 872 700 1400 
L 700 3475 
Q 700 3841 659 3930 
Q 619 4019 519 4072 
Q 419 4125 150 4122 
L 150 4238 
z
" transform="scale(0.015625)"/>
      <path id="TimesNewRomanPS-BoldMT-28" d="M 2056 4334 
L 2056 4191 
Q 1731 3978 1578 3775 
Q 1366 3494 1247 3053 
Q 1097 2506 1097 1525 
Q 1097 600 1233 87 
Q 1369 -425 1603 -741 
Q 1766 -959 2056 -1125 
L 2056 -1281 
Q 1303 -1028 779 -248 
Q 256 531 256 1544 
Q 256 2544 778 3314 
Q 1300 4084 2056 4334 
z
" transform="scale(0.015625)"/>
      <path id="TimesNewRomanPS-BoldMT-6d" d="M 1428 2922 
L 1428 2538 
Q 1669 2800 1873 2904 
Q 2078 3009 2322 3009 
Q 2603 3009 2793 2878 
Q 2984 2747 3088 2478 
Q 3338 2759 3567 2884 
Q 3797 3009 4047 3009 
Q 4350 3009 4529 2870 
Q 4709 2731 4779 2517 
Q 4850 2303 4850 1834 
L 4850 638 
Q 4850 300 4911 219 
Q 4972 138 5166 113 
L 5166 0 
L 3656 0 
L 3656 113 
Q 3834 128 3919 250 
Q 3975 334 3975 638 
L 3975 1894 
Q 3975 2284 3944 2390 
Q 3913 2497 3845 2548 
Q 3778 2600 3688 2600 
Q 3553 2600 3415 2501 
Q 3278 2403 3138 2206 
L 3138 638 
Q 3138 322 3191 241 
Q 3263 125 3466 113 
L 3466 0 
L 1953 0 
L 1953 113 
Q 2075 119 2145 173 
Q 2216 228 2239 304 
Q 2263 381 2263 638 
L 2263 1894 
Q 2263 2291 2231 2391 
Q 2200 2491 2126 2547 
Q 2053 2603 1969 2603 
Q 1844 2603 1741 2538 
Q 1594 2441 1428 2206 
L 1428 638 
Q 1428 328 1489 229 
Q 1550 131 1744 113 
L 1744 0 
L 238 0 
L 238 113 
Q 422 131 500 231 
Q 553 300 553 638 
L 553 2288 
Q 553 2619 492 2700 
Q 431 2781 238 2806 
L 238 2922 
L 1428 2922 
z
" transform="scale(0.015625)"/>
      <path id="TimesNewRomanPS-BoldMT-3d" d="M 125 2825 
L 3544 2825 
L 3544 2419 
L 125 2419 
L 125 2825 
z
M 125 1803 
L 3544 1803 
L 3544 1397 
L 125 1397 
L 125 1803 
z
" transform="scale(0.015625)"/>
      <path id="TimesNewRomanPS-BoldMT-25" d="M 4916 4334 
L 1906 -178 
L 1488 -178 
L 4494 4334 
L 4916 4334 
z
M 1494 4334 
Q 1938 4334 2242 4020 
Q 2547 3706 2547 3209 
Q 2547 2700 2240 2383 
Q 1934 2066 1481 2066 
Q 1034 2066 739 2372 
Q 444 2678 444 3178 
Q 444 3694 747 4014 
Q 1050 4334 1494 4334 
z
M 1494 4169 
Q 1425 4169 1381 4128 
Q 1303 4056 1264 3879 
Q 1225 3703 1225 3150 
Q 1225 2709 1278 2469 
Q 1309 2331 1384 2263 
Q 1431 2222 1494 2222 
Q 1563 2222 1603 2259 
Q 1675 2325 1709 2472 
Q 1763 2709 1763 3138 
Q 1763 3663 1713 3897 
Q 1678 4059 1600 4134 
Q 1563 4169 1494 4169 
z
M 4894 2097 
Q 5347 2097 5651 1786 
Q 5956 1475 5956 972 
Q 5956 463 5647 144 
Q 5338 -175 4900 -175 
Q 4466 -175 4161 144 
Q 3856 463 3856 963 
Q 3856 1466 4153 1781 
Q 4450 2097 4894 2097 
z
M 4903 1934 
Q 4841 1934 4797 1897 
Q 4722 1828 4681 1658 
Q 4641 1488 4641 1006 
Q 4641 494 4688 269 
Q 4722 109 4803 38 
Q 4844 0 4909 0 
Q 4969 0 5006 34 
Q 5084 106 5122 269 
Q 5175 497 5175 959 
Q 5175 1447 5125 1672 
Q 5088 1834 5013 1900 
Q 4975 1934 4903 1934 
z
" transform="scale(0.015625)"/>
      <path id="TimesNewRomanPS-BoldMT-29" d="M 78 -1281 
L 78 -1138 
Q 403 -922 556 -719 
Q 766 -438 888 0 
Q 1038 550 1038 1531 
Q 1038 2456 902 2967 
Q 766 3478 531 3794 
Q 369 4013 78 4178 
L 78 4334 
Q 831 4081 1354 3301 
Q 1878 2522 1878 1509 
Q 1878 513 1354 -257 
Q 831 -1028 78 -1281 
z
" transform="scale(0.015625)"/>
      <path id="TimesNewRomanPS-BoldMT-62" d="M 1347 4238 
L 1347 2628 
Q 1716 3009 2153 3009 
Q 2453 3009 2718 2832 
Q 2984 2656 3134 2331 
Q 3284 2006 3284 1581 
Q 3284 1103 3093 712 
Q 2903 322 2584 117 
Q 2266 -88 1856 -88 
Q 1619 -88 1434 -12 
Q 1250 63 1072 231 
L 588 -84 
L 481 -84 
L 481 3631 
Q 481 3884 459 3944 
Q 428 4031 361 4073 
Q 294 4116 134 4122 
L 134 4238 
L 1347 4238 
z
M 1347 2350 
L 1347 1050 
Q 1347 653 1366 544 
Q 1397 359 1515 245 
Q 1634 131 1819 131 
Q 1978 131 2092 222 
Q 2206 313 2282 581 
Q 2359 850 2359 1550 
Q 2359 2222 2191 2472 
Q 2069 2653 1863 2653 
Q 1594 2653 1347 2350 
z
" transform="scale(0.015625)"/>
      <path id="TimesNewRomanPS-BoldMT-6f" d="M 1594 3009 
Q 1975 3009 2303 2812 
Q 2631 2616 2801 2253 
Q 2972 1891 2972 1459 
Q 2972 838 2656 419 
Q 2275 -88 1603 -88 
Q 944 -88 587 375 
Q 231 838 231 1447 
Q 231 2075 595 2542 
Q 959 3009 1594 3009 
z
M 1606 2788 
Q 1447 2788 1333 2667 
Q 1219 2547 1183 2192 
Q 1147 1838 1147 1206 
Q 1147 872 1191 581 
Q 1225 359 1337 243 
Q 1450 128 1594 128 
Q 1734 128 1828 206 
Q 1950 313 1991 503 
Q 2053 800 2053 1703 
Q 2053 2234 1993 2432 
Q 1934 2631 1819 2722 
Q 1738 2788 1606 2788 
z
" transform="scale(0.015625)"/>
      <path id="TimesNewRomanPS-BoldMT-6b" d="M 1403 4238 
L 1403 1450 
L 2081 2116 
Q 2291 2319 2342 2409 
Q 2394 2500 2394 2584 
Q 2394 2669 2325 2725 
Q 2256 2781 2056 2806 
L 2056 2922 
L 3366 2922 
L 3366 2806 
Q 3178 2797 3037 2717 
Q 2897 2638 2488 2238 
L 2169 1925 
L 2856 919 
Q 3272 306 3350 231 
Q 3456 125 3619 113 
L 3619 0 
L 2109 0 
L 2109 113 
Q 2209 113 2254 150 
Q 2300 188 2300 231 
Q 2300 303 2169 497 
L 1591 1344 
L 1403 1159 
L 1403 634 
Q 1403 300 1465 217 
Q 1528 134 1722 113 
L 1722 0 
L 213 0 
L 213 113 
Q 397 131 475 231 
Q 528 300 528 634 
L 528 3603 
Q 528 3934 467 4015 
Q 406 4097 213 4122 
L 213 4238 
L 1403 4238 
z
" transform="scale(0.015625)"/>
      <path id="TimesNewRomanPS-BoldMT-66" d="M 1497 2616 
L 1497 588 
Q 1497 294 1559 219 
Q 1659 103 1928 113 
L 1928 0 
L 206 0 
L 206 113 
Q 403 116 486 158 
Q 569 200 600 275 
Q 631 350 631 588 
L 631 2616 
L 206 2616 
L 206 2922 
L 631 2922 
L 631 3138 
L 628 3284 
Q 628 3734 958 4034 
Q 1288 4334 1850 4334 
Q 2234 4334 2420 4190 
Q 2606 4047 2606 3872 
Q 2606 3731 2490 3628 
Q 2375 3525 2184 3525 
Q 2022 3525 1926 3609 
Q 1831 3694 1831 3797 
Q 1831 3825 1850 3913 
Q 1863 3966 1863 4013 
Q 1863 4078 1825 4109 
Q 1775 4156 1703 4156 
Q 1613 4156 1552 4081 
Q 1491 4006 1491 3841 
L 1497 3294 
L 1497 2922 
L 1928 2922 
L 1928 2616 
L 1497 2616 
z
" transform="scale(0.015625)"/>
      <path id="TimesNewRomanPS-BoldMT-79" d="M 1556 -119 
L 613 2047 
Q 400 2538 298 2650 
Q 197 2763 53 2806 
L 53 2922 
L 1606 2922 
L 1606 2806 
Q 1453 2800 1390 2747 
Q 1328 2694 1328 2619 
Q 1328 2500 1484 2150 
L 1984 1006 
L 2325 1891 
Q 2509 2363 2509 2547 
Q 2509 2663 2432 2731 
Q 2356 2800 2163 2806 
L 2163 2922 
L 3141 2922 
L 3141 2806 
Q 2997 2791 2906 2695 
Q 2816 2600 2603 2047 
L 1769 -119 
Q 1453 -931 1300 -1119 
Q 1084 -1381 759 -1381 
Q 500 -1381 339 -1232 
Q 178 -1084 178 -875 
Q 178 -694 289 -575 
Q 400 -456 563 -456 
Q 719 -456 814 -556 
Q 909 -656 913 -866 
Q 916 -984 941 -1019 
Q 966 -1053 1013 -1053 
Q 1088 -1053 1172 -963 
Q 1297 -831 1466 -363 
L 1556 -119 
z
" transform="scale(0.015625)"/>
     </defs>
     <use xlink:href="#TimesNewRomanPS-BoldMT-4f"/>
     <use xlink:href="#TimesNewRomanPS-BoldMT-6e" transform="translate(77.783203 0)"/>
     <use xlink:href="#TimesNewRomanPS-BoldMT-65" transform="translate(133.398438 0)"/>
     <use xlink:href="#TimesNewRomanPS-BoldMT-20" transform="translate(177.783203 0)"/>
     <use xlink:href="#TimesNewRomanPS-BoldMT-64" transform="translate(202.783203 0)"/>
     <use xlink:href="#TimesNewRomanPS-BoldMT-65" transform="translate(258.398438 0)"/>
     <use xlink:href="#TimesNewRomanPS-BoldMT-67" transform="translate(302.783203 0)"/>
     <use xlink:href="#TimesNewRomanPS-BoldMT-72" transform="translate(352.783203 0)"/>
     <use xlink:href="#TimesNewRomanPS-BoldMT-61" transform="translate(397.167969 0)"/>
     <use xlink:href="#TimesNewRomanPS-BoldMT-64" transform="translate(447.167969 0)"/>
     <use xlink:href="#TimesNewRomanPS-BoldMT-65" transform="translate(502.783203 0)"/>
     <use xlink:href="#TimesNewRomanPS-BoldMT-64" transform="translate(547.167969 0)"/>
     <use xlink:href="#TimesNewRomanPS-BoldMT-20" transform="translate(602.783203 0)"/>
     <use xlink:href="#TimesNewRomanPS-BoldMT-47" transform="translate(627.783203 0)"/>
     <use xlink:href="#TimesNewRomanPS-BoldMT-50" transform="translate(705.566406 0)"/>
     <use xlink:href="#TimesNewRomanPS-BoldMT-55" transform="translate(766.650391 0)"/>
     <use xlink:href="#TimesNewRomanPS-BoldMT-20" transform="translate(838.867188 0)"/>
     <use xlink:href="#TimesNewRomanPS-BoldMT-28" transform="translate(863.867188 0)"/>
     <use xlink:href="#TimesNewRomanPS-BoldMT-6d" transform="translate(897.167969 0)"/>
     <use xlink:href="#TimesNewRomanPS-BoldMT-65" transform="translate(980.46875 0)"/>
     <use xlink:href="#TimesNewRomanPS-BoldMT-64" transform="translate(1024.853516 0)"/>
     <use xlink:href="#TimesNewRomanPS-BoldMT-69" transform="translate(1080.46875 0)"/>
     <use xlink:href="#TimesNewRomanPS-BoldMT-61" transform="translate(1108.251953 0)"/>
     <use xlink:href="#TimesNewRomanPS-BoldMT-6e" transform="translate(1158.251953 0)"/>
     <use xlink:href="#TimesNewRomanPS-BoldMT-20" transform="translate(1213.867188 0)"/>
     <use xlink:href="#TimesNewRomanPS-BoldMT-74" transform="translate(1238.867188 0)"/>
     <use xlink:href="#TimesNewRomanPS-BoldMT-61" transform="translate(1272.167969 0)"/>
     <use xlink:href="#TimesNewRomanPS-BoldMT-78" transform="translate(1322.167969 0)"/>
     <use xlink:href="#TimesNewRomanPS-BoldMT-20" transform="translate(1372.167969 0)"/>
     <use xlink:href="#TimesNewRomanPS-BoldMT-3d" transform="translate(1397.167969 0)"/>
     <use xlink:href="#TimesNewRomanPS-BoldMT-20" transform="translate(1454.150391 0)"/>
     <use xlink:href="#TimesNewRomanPS-BoldMT-31" transform="translate(1479.150391 0)"/>
     <use xlink:href="#TimesNewRomanPS-BoldMT-39" transform="translate(1529.150391 0)"/>
     <use xlink:href="#TimesNewRomanPS-BoldMT-2e" transform="translate(1579.150391 0)"/>
     <use xlink:href="#TimesNewRomanPS-BoldMT-31" transform="translate(1604.150391 0)"/>
     <use xlink:href="#TimesNewRomanPS-BoldMT-25" transform="translate(1654.150391 0)"/>
     <use xlink:href="#TimesNewRomanPS-BoldMT-29" transform="translate(1754.150391 0)"/>
     <use xlink:href="#TimesNewRomanPS-BoldMT-20" transform="translate(1787.451172 0)"/>
     <use xlink:href="#TimesNewRomanPS-BoldMT-62" transform="translate(1812.451172 0)"/>
     <use xlink:href="#TimesNewRomanPS-BoldMT-6c" transform="translate(1868.066406 0)"/>
     <use xlink:href="#TimesNewRomanPS-BoldMT-6f" transform="translate(1895.849609 0)"/>
     <use xlink:href="#TimesNewRomanPS-BoldMT-63" transform="translate(1945.849609 0)"/>
     <use xlink:href="#TimesNewRomanPS-BoldMT-6b" transform="translate(1990.234375 0)"/>
     <use xlink:href="#TimesNewRomanPS-BoldMT-73" transform="translate(2045.849609 0)"/>
     <use xlink:href="#TimesNewRomanPS-BoldMT-20" transform="translate(2084.765625 0)"/>
     <use xlink:href="#TimesNewRomanPS-BoldMT-74" transform="translate(2109.765625 0)"/>
     <use xlink:href="#TimesNewRomanPS-BoldMT-68" transform="translate(2143.066406 0)"/>
     <use xlink:href="#TimesNewRomanPS-BoldMT-65" transform="translate(2198.681641 0)"/>
     <use xlink:href="#TimesNewRomanPS-BoldMT-20" transform="translate(2243.066406 0)"/>
     <use xlink:href="#TimesNewRomanPS-BoldMT-65" transform="translate(2268.066406 0)"/>
     <use xlink:href="#TimesNewRomanPS-BoldMT-6e" transform="translate(2312.451172 0)"/>
     <use xlink:href="#TimesNewRomanPS-BoldMT-74" transform="translate(2368.066406 0)"/>
     <use xlink:href="#TimesNewRomanPS-BoldMT-69" transform="translate(2401.367188 0)"/>
     <use xlink:href="#TimesNewRomanPS-BoldMT-72" transform="translate(2429.150391 0)"/>
     <use xlink:href="#TimesNewRomanPS-BoldMT-65" transform="translate(2471.785156 0)"/>
     <use xlink:href="#TimesNewRomanPS-BoldMT-20" transform="translate(2516.169922 0)"/>
     <use xlink:href="#TimesNewRomanPS-BoldMT-66" transform="translate(2541.169922 0)"/>
     <use xlink:href="#TimesNewRomanPS-BoldMT-6c" transform="translate(2574.470703 0)"/>
     <use xlink:href="#TimesNewRomanPS-BoldMT-65" transform="translate(2602.253906 0)"/>
     <use xlink:href="#TimesNewRomanPS-BoldMT-65" transform="translate(2646.638672 0)"/>
     <use xlink:href="#TimesNewRomanPS-BoldMT-74" transform="translate(2691.023438 0)"/>
     <use xlink:href="#TimesNewRomanPS-BoldMT-20" transform="translate(2724.324219 0)"/>
     <use xlink:href="#TimesNewRomanPS-BoldMT-61" transform="translate(2749.324219 0)"/>
     <use xlink:href="#TimesNewRomanPS-BoldMT-74" transform="translate(2799.324219 0)"/>
     <use xlink:href="#TimesNewRomanPS-BoldMT-20" transform="translate(2832.625 0)"/>
     <use xlink:href="#TimesNewRomanPS-BoldMT-73" transform="translate(2857.625 0)"/>
     <use xlink:href="#TimesNewRomanPS-BoldMT-79" transform="translate(2896.541016 0)"/>
     <use xlink:href="#TimesNewRomanPS-BoldMT-6e" transform="translate(2946.541016 0)"/>
     <use xlink:href="#TimesNewRomanPS-BoldMT-63" transform="translate(3002.15625 0)"/>
     <use xlink:href="#TimesNewRomanPS-BoldMT-20" transform="translate(3046.541016 0)"/>
     <use xlink:href="#TimesNewRomanPS-BoldMT-62" transform="translate(3071.541016 0)"/>
     <use xlink:href="#TimesNewRomanPS-BoldMT-61" transform="translate(3127.15625 0)"/>
     <use xlink:href="#TimesNewRomanPS-BoldMT-72" transform="translate(3177.15625 0)"/>
     <use xlink:href="#TimesNewRomanPS-BoldMT-72" transform="translate(3221.541016 0)"/>
     <use xlink:href="#TimesNewRomanPS-BoldMT-69" transform="translate(3265.925781 0)"/>
     <use xlink:href="#TimesNewRomanPS-BoldMT-65" transform="translate(3293.708984 0)"/>
     <use xlink:href="#TimesNewRomanPS-BoldMT-72" transform="translate(3338.09375 0)"/>
     <use xlink:href="#TimesNewRomanPS-BoldMT-73" transform="translate(3382.478516 0)"/>
    </g>
   </g>
  </g>
 </g>
 <defs>
  <clipPath id="p555996e5f4">
   <rect x="39.68125" y="35.762719" width="362.7" height="194.04"/>
  </clipPath>
 </defs>
</svg>
